<svg xmlns="http://www.w3.org/2000/svg" width="22.076" height="20.894" viewBox="0 0 22.076 20.894"><defs><style>.a{fill:#004850;}</style></defs><g transform="translate(-0.001 -13.706)"><g transform="translate(0.001 13.707)"><path class="a" d="M20.009,15.77a7.065,7.065,0,0,0-9.98,0L1.474,24.325A5.041,5.041,0,0,0,8.6,31.454l7.842-7.842a3.024,3.024,0,1,0-4.277-4.277L7.04,24.463a1.008,1.008,0,1,0,1.426,1.426l5.128-5.128a1.008,1.008,0,1,1,1.426,1.426L7.178,30.028A3.025,3.025,0,0,1,2.9,25.75L11.455,17.2a5.041,5.041,0,1,1,7.129,7.129l-8.555,8.555a1.008,1.008,0,0,0,1.426,1.426l8.554-8.555a7.057,7.057,0,0,0,0-9.98Z" transform="translate(-0.001 -13.707)"/></g></g></svg>