<svg xmlns="http://www.w3.org/2000/svg" width="778" height="859.376" viewBox="0 0 778 859.376"><defs><style>.a{fill:#e0e0e0;}.b{fill:#ebebeb;}.c{fill:#fafafa;}.d{fill:#fff;}.e{fill:#f5f5f5;}.f{fill:#263238;}.g{fill:#ff975f;}.h{opacity:0.6;}.i{opacity:0.3;}.j{fill:#455a64;}.k{fill:#f0c8b7;}.l{fill:#7c5142;}.m{opacity:0.8;}.n{opacity:0.4;}.o{opacity:0.5;}.p{opacity:0.2;}.q{fill:none;}.r{fill:#196f77;opacity:0.045;}</style></defs><g transform="translate(19.295 146.696)"><rect class="a" width="62.24" height="64.88" transform="translate(656.46 143.6)"/><rect class="b" width="62.24" height="64.88" transform="translate(652.25 143.6)"/><rect class="c" width="45.5" height="47.43" transform="translate(660.61 152.32)"/><path class="a" d="M660.61,200.07a9.808,9.808,0,0,1-1.14,1.29c-.73.76-1.75,1.8-2.89,2.92s-2.2,2.14-3,2.86a9.386,9.386,0,0,1-1.3,1.11,8,8,0,0,1,1.13-1.29c.73-.76,1.76-1.8,2.9-2.93s2.2-2.14,3-2.86a8.335,8.335,0,0,1,1.3-1.1Z"/><path class="a" d="M706.12,200a9.81,9.81,0,0,1,1.29,1.14c.76.73,1.79,1.75,2.92,2.9s2.14,2.19,2.85,3a8.4,8.4,0,0,1,1.11,1.3,8.13,8.13,0,0,1-1.28-1.13c-.76-.73-1.8-1.75-2.93-2.9s-2.14-2.2-2.86-3a8.615,8.615,0,0,1-1.1-1.31Z"/><path class="a" d="M706,152.44a9.446,9.446,0,0,1,1.14-1.28c.73-.77,1.75-1.8,2.9-2.93s2.19-2.14,3-2.85a8.4,8.4,0,0,1,1.3-1.11,8.131,8.131,0,0,1-1.13,1.28c-.73.76-1.75,1.8-2.9,2.93s-2.2,2.14-3,2.86a7.91,7.91,0,0,1-1.31,1.1Z"/><path class="a" d="M660.49,152.56a8.481,8.481,0,0,1-1.29-1.14c-.76-.73-1.8-1.75-2.93-2.9s-2.13-2.19-2.85-3a7.879,7.879,0,0,1-1.11-1.3,8.129,8.129,0,0,1,1.28,1.13c.77.73,1.8,1.76,2.93,2.9s2.14,2.2,2.86,3a8.867,8.867,0,0,1,1.11,1.31Z"/><path class="a" d="M706,199.75V186.64c0-8.31,0-20.15-.08-34.32l.15.15H660.7l.17-.17v47.43l-.15-.14,32.87.07h.05l-33,.08h-.15V151.99h45.7v.15c0,14.21-.06,26.09-.08,34.42v12.8a1.66,1.66,0,0,1-.11.39Z"/><path class="b" d="M672.62,172.13s-1,11.75,11.75,11.75C684.37,177.61,679.19,172.66,672.62,172.13Z"/><path class="b" d="M695.89,172.14s-11.74-1-11.74,11.75C690.42,183.89,695.36,178.72,695.89,172.14Z"/><path class="a" d="M683.8,165.72s-9.59,8.61.53,18.16C689,178.89,688.63,171.07,683.8,165.72Z"/><path class="a" d="M596.31,44.52v75.55H487.81L483.9,45.05Z"/><rect class="d" width="74.86" height="108.5" transform="translate(483.9 119.91) rotate(-90)"/><path class="a" d="M592.91,120.42H483.38V44.54H592.91Zm-108.5-1H591.88V45.57H484.41Z"/><rect class="d" width="85" height="56.26" transform="translate(495.65 54.35)"/><path class="a" d="M580.65,54.35h-6.32l-17.51.07-61.19.12.25-.25v56.25h0l-.27-.27h85l-.22.22c.05-17.12.09-31.16.12-40.93,0-4.89,0-8.7.05-11.32v-.07c0,2.61,0,6.41.06,11.28,0,9.8.06,23.88.11,41.06v.21h-.21l-85,.06h-.27v-.27h0V54.02h.25l61.35.12,17.46.06h5.8Z"/><path class="a" d="M483.9,44.84a9.44,9.44,0,0,1,1.86,1.21c1.11.8,2.63,1.94,4.26,3.25s3.07,2.54,4.08,3.46a9,9,0,0,1,1.55,1.59,73.064,73.064,0,0,1-6-4.64,57.3,57.3,0,0,1-5.75-4.87Z"/><path class="a" d="M592.4,45.05a51.91,51.91,0,0,1-5.71,4.86,52.55,52.55,0,0,1-6,4.44,53.356,53.356,0,0,1,5.71-4.86,53.006,53.006,0,0,1,6-4.44Z"/><path class="d" d="M592.31,119.92l-12.09-9.81"/><path class="a" d="M580.22,110.11a58.43,58.43,0,0,1,6.21,4.7,55.689,55.689,0,0,1,5.88,5.11,58.431,58.431,0,0,1-6.21-4.7,54.362,54.362,0,0,1-5.88-5.11Z"/><path class="a" d="M483.9,119.91a51.444,51.444,0,0,1,5.65-4.81,51.126,51.126,0,0,1,6-4.39,51.438,51.438,0,0,1-5.65,4.81,52.582,52.582,0,0,1-6,4.39Z"/><rect class="a" width="18.84" height="53.48" transform="translate(512.91 90.72) rotate(-90)"/><path class="e" d="M141.32,50.89,107.26,38.58,73.53,50.73c-4.3,2-8.08,3.27-8.08,7.31v20.1a76.35,76.35,0,0,0,11.11,40,69.3,69.3,0,0,0,31,27.59c13.79-4.51,24.08-16.53,30.37-26.81a76.32,76.32,0,0,0,11.11-40V60.85C149.07,55.09,146,52.28,141.32,50.89Z"/><path class="b" d="M107.59,134.08a55.12,55.12,0,0,1-24.55-22,60.36,60.36,0,0,1-8.79-31.65V66.31c0-3.19,1.91-6.19,5.72-8l27.3-10.28V38.58L73.53,50.73C70,52.28,65.45,54,65.45,58V78.1a76.35,76.35,0,0,0,11.11,40,69.3,69.3,0,0,0,31,27.59Z"/><path class="a" d="M107.59,145.75a40.651,40.651,0,0,0,6.69-2.89,60.06,60.06,0,0,0,14.16-11.21,76.18,76.18,0,0,0,9.85-13.33,73.49,73.49,0,0,0,10.78-40.4V61.32c0-8.26-4.23-8.87-7.77-10.43L107.26,38.58v9.48L134.89,58.5c3.8,1.79,5.71,4.78,5.71,8V80.6a60.37,60.37,0,0,1-8.79,31.66c-5,8.13-12.35,16.52-24.22,21.84Z"/><path class="a" d="M116.3,79.51V76.8a8.84,8.84,0,1,0-17.68,0v2.77a5,5,0,0,0-4.22,4.92v16a5,5,0,0,0,5,5h16.5a5,5,0,0,0,5-5v-16a5,5,0,0,0-4.6-4.98Zm-6.45,17h-4.32l.68-3.14a2.62,2.62,0,1,1,2.85,0Zm4.54-17H100.52V76.82a6.94,6.94,0,1,1,13.88,0Z"/><path class="d" d="M79.77,79.31a10.52,10.52,0,0,1-.51-2.78A47.089,47.089,0,0,1,79,69.7a35.73,35.73,0,0,1,.25-3.75,8.18,8.18,0,0,1,.76-3,3.51,3.51,0,0,1,1.49-1.51c.46-.21.75-.2.75-.17a3.94,3.94,0,0,0-1.87,1.87,8.59,8.59,0,0,0-.59,2.9c-.09,1.14-.16,2.4-.19,3.72-.08,2.64,0,5,.1,6.77A16.79,16.79,0,0,1,79.77,79.31Z"/><path class="d" d="M80.27,88.07c-.17,0-.31-.83-.33-1.85s.09-1.85.26-1.85.31.82.33,1.84S80.43,88.06,80.27,88.07Z"/><path class="a" d="M638.15,374.66a34.1,34.1,0,0,0-14.62-5c-2.39-.24-5-.17-6.92,1.27a1.43,1.43,0,0,0-.71,1.27,1.57,1.57,0,0,0,.67.86c5.95,4.54,14.95,5.11,21.58,1.64"/><path class="a" d="M637.77,374.24a70.469,70.469,0,0,1-9.44-8.31A23.89,23.89,0,0,1,622.41,355a4.39,4.39,0,0,1,.47-3.66c7.52,5.88,13.44,13.48,14.89,22.92"/><path class="a" d="M638.07,374.6a34,34,0,0,1,.18-12.4,16.711,16.711,0,0,1,6.6-10.23c1.3,3,.74,6.54-.17,9.72a47.381,47.381,0,0,1-6.55,13.79"/><path class="a" d="M645.45,387.82c-4.48.55-8.38,2.91-11.73,5.94a22.179,22.179,0,0,0-6.7,11.51c4.39-.27,8.12-3.37,10.82-6.84s4.58-7.29,7.55-10.54"/><path class="a" d="M647.05,389.94a29,29,0,0,1,3.34-27.36c2.56,9.08,1.62,19.33-3.34,27.36"/><path class="a" d="M656.8,401.55a20.93,20.93,0,0,0-20,11.51,1.55,1.55,0,0,0-.14,1.57A1.51,1.51,0,0,0,638,415c3.94-.26,7.43-2.63,10.31-5.33s5.4-5.82,8.58-8.15"/><path class="a" d="M656.49,400.92a37.38,37.38,0,0,1-.37-20.81c.73-2.68,2-5.5,4.44-6.75a.88.88,0,0,1,.68-.12.89.89,0,0,1,.43.5,12.54,12.54,0,0,1,1.05,6,37.678,37.678,0,0,1-.94,6.05c-.78,3.69-1.19,7.66-3.22,10.84a23.9,23.9,0,0,0-1.29,2.39c-.38.8-.38,1.09-.73,1.73"/><path class="a" d="M682.3,404.76c-1.91-7.27.12-16.09,4.71-22.05.33-.44.78-.91,1.33-.86.85.08,1.06,1.2,1,2a39.78,39.78,0,0,1-7.07,20.86"/><path class="a" d="M684.63,406.35A32.08,32.08,0,0,0,711,401a21.29,21.29,0,0,0-14.25-1.75c-4.76,1.09-9.12,3.22-12.08,7.1"/><path class="a" d="M686.59,401.51c4.95-8.07,14.44-13.34,23.9-13.82-1.09,3.85-4.25,6.84-7.82,8.64s-7.54,2.6-11.47,3.36c-1.52.29-3.62.62-4.61,1.82"/><path class="a" d="M682.8,378a69.584,69.584,0,0,0,3.05-14c.37-4.76-.31-9.74-2.79-13.84-4.62,8.95-5.09,19.4-.4,28.32"/><path class="a" d="M698.36,370.14c5.41-9.83,16.44-17.68,27.6-18.78-4.31,10.73-16.05,19-27.6,18.78"/><path class="a" d="M695,372.07c8.06,1.22,14.93,6.37,22.47,9.5a10.22,10.22,0,0,0,5.08,1,4,4,0,0,0,2.49-7,11,11,0,0,0-3.69-2.23c-8.21-3.42-17-3.51-25.66-1.43"/><path class="a" d="M690.29,377.72c1.83.52,2.45,1.47,3.9,2.7a41.861,41.861,0,0,0,17,8.75c.65.16,1.5.23,1.82-.36s-.07-1.14-.44-1.59a23.48,23.48,0,0,0-10.28-7c-3.94-1.46-7.34-3.23-12-2.85"/><path class="a" d="M685,343.56A32.26,32.26,0,0,0,709.75,352a1.68,1.68,0,0,0,1.12-.41c.63-.68-.12-1.72-.84-2.29-7.27-5.66-16.08-8-25-5.72"/><path class="a" d="M691.27,341.28a34.45,34.45,0,0,1,30.85-5.09,24.48,24.48,0,0,1-14.7,6.45,46.32,46.32,0,0,1-16.15-1.36"/><path class="a" d="M688.79,325.58c-.71-7.25-.25-13-.75-20.26,0-.59-.17-1.29-.71-1.5-.76-.29-1.39.64-1.64,1.42a23.22,23.22,0,0,0,3.09,20.18"/><path class="a" d="M688.27,326.39a42.84,42.84,0,0,0,12-11.68c2.37-3.25,4.37-7.14,3.83-11.13a11.52,11.52,0,0,0-8.67,4.31,24.27,24.27,0,0,0-4.42,8.89c-1,3.19-1.63,6.47-2.76,9.61"/><path class="a" d="M700.07,323.11a96.9,96.9,0,0,0,29.58-17.44c-3.54-1.42-7.58-.57-11.11.85A35.06,35.06,0,0,0,699.92,323"/><path class="a" d="M691.59,330.35c5.46.6,11,1,16.42.08s10.35-3,15.33-5.09a1.78,1.78,0,0,0,1-.79,1.19,1.19,0,0,0-.37-1.31,3.1,3.1,0,0,0-1.31-.61c-5.41-1.52-11.25-.81-16.57,1a76.691,76.691,0,0,0-14.54,6.73"/><path class="a" d="M660.42,343.81c-3.73-7.52-3.49-16.29-.27-24,2.27,3.45,2.54,7.85,2.13,12s-1.67,8.33-1.75,12.46"/><path class="a" d="M645.54,336.31a33.53,33.53,0,0,0-24.92,10.61,23.28,23.28,0,0,0,13.64-2.53,69.174,69.174,0,0,0,11.7-7.82"/><path class="a" d="M635.53,333c-4.55-.37-8.92-.93-13.3.41a16,16,0,0,0-10.14,8.6,24,24,0,0,0,12.47-2.36,71.394,71.394,0,0,0,11-6.65"/><path class="a" d="M650.34,333.12c-4.09-2.69-8.29-5.42-13.06-6.53s-10.28-.29-13.61,3.3c3.86,2.27,8.54,2.54,13,2.53s10-.05,14.18,1.44"/><path class="a" d="M650.37,333.33c-7-6.87-9.65-19.21-6.84-28.6a43.561,43.561,0,0,1,6.84,28.6"/><path class="a" d="M669.61,313.87c1.32-3.07,2.25-6.29,3.43-9.41a26.861,26.861,0,0,1,4.89-8.68,12.91,12.91,0,0,1,8.67-4.49,34.9,34.9,0,0,1-16.82,22.62"/><path class="a" d="M666.13,317.92c-2.19-3-4.71-7.08-7.67-9.33s-6.82-3.6-10.43-2.74a24.3,24.3,0,0,0,18.1,12.07"/><path class="a" d="M666.82,314.12a52.189,52.189,0,0,1-3.45-11.18,17.41,17.41,0,0,1,1.75-11.37c3.84,7.26,5.08,15.06,1.9,22.63"/><path class="a" d="M669.64,291.57c2.18-7.19,8.77-12.49,15.88-14.93a6,6,0,0,1,2.79-.41,2.41,2.41,0,0,1,2.05,1.71c.26,1.22-.75,2.32-1.7,3.13a54,54,0,0,1-19,10.5"/><path class="a" d="M669.72,285.69c.28-4.64.57-9.35,2.08-13.75s4.41-8.52,8.65-10.44c.72,4.68-1.35,9.35-3.85,13.38s-5.49,7.84-7,12.34"/><path class="a" d="M669.61,288.88c-1.8-5.24-2-11.91-5.13-16.48-2.19-3.19-5.71-5.37-7.6-8.75a13.33,13.33,0,0,0,.44,9.94,29.16,29.16,0,0,0,5.81,8.32c2.33,2.48,4.32,4.35,6.48,7"/><path class="a" d="M669.64,443.34c-.14,0-.26-35-.27-78.14s.1-78.15.24-78.15.26,35,.27,78.15S669.78,443.34,669.64,443.34Z"/><path class="a" d="M700.22,338.53a6.9,6.9,0,0,1-1.32.5l-3.62,1.22c-3,1-7.24,2.54-11.79,4.41s-8.76,3.5-11.18,5.6a8.229,8.229,0,0,0-2.25,3c-.34.82-.41,1.32-.45,1.32s0-.13,0-.37a5.224,5.224,0,0,1,.26-1,7.9,7.9,0,0,1,2.19-3.17,19.779,19.779,0,0,1,4.85-3c1.94-.91,4.09-1.85,6.37-2.79,4.57-1.87,8.8-3.33,11.88-4.28,1.54-.48,2.8-.84,3.68-1.07A8,8,0,0,1,700.22,338.53Z"/><path class="a" d="M710.24,313.91a3.543,3.543,0,0,1-.37.4l-1.12,1.05-4.19,3.81-13.95,12.42c-5.45,4.85-10.15,9.48-13.42,13-1.63,1.74-2.91,3.18-3.79,4.19l-1,1.16a2.333,2.333,0,0,1-.37.38,2.171,2.171,0,0,1,.29-.45c.22-.28.52-.7,1-1.22.83-1,2.08-2.53,3.68-4.3a175.834,175.834,0,0,1,13.34-13.11c5.47-4.83,10.44-9.18,14.05-12.31l4.3-3.68,1.19-1A2.513,2.513,0,0,1,710.24,313.91Z"/><path class="a" d="M684.73,336.52c-.14-.06,1-2.69,2.13-6s1.68-6.13,1.82-6.1a20.332,20.332,0,0,1-1.34,6.26,39.806,39.806,0,0,1-1.7,4.21A6.52,6.52,0,0,1,684.73,336.52Z"/><path class="a" d="M669.67,357.7a7.149,7.149,0,0,1-.83-1l-2.15-2.7c-1.81-2.34-4.31-5.56-7.1-9.08s-5.38-6.69-7.24-9l-2.2-2.72a6.064,6.064,0,0,1-.75-1,7.085,7.085,0,0,1,.9.91c.56.61,1.36,1.5,2.32,2.62,1.94,2.23,4.56,5.36,7.36,8.89s5.26,6.79,7,9.18c.87,1.2,1.56,2.17,2,2.86a5.672,5.672,0,0,1,.69,1.04Z"/><path class="a" d="M663,349.09a12.34,12.34,0,0,1-2.81-5.26,15.188,15.188,0,0,1-.64-5.3h.23c-.1.41-.18.62-.22.61a1.559,1.559,0,0,1,0-.65h.22a23.585,23.585,0,0,0,.9,5.16A39.277,39.277,0,0,0,663,349.09Z"/><path class="a" d="M654.31,338.2a8.92,8.92,0,0,0-2-1.13,13.12,13.12,0,0,0-5.44-.44,33.472,33.472,0,0,0-5.48.89,17.225,17.225,0,0,1-2.26.54,7.91,7.91,0,0,1,2.16-.89,25.237,25.237,0,0,1,5.54-1,12,12,0,0,1,5.62.6A3.45,3.45,0,0,1,654.31,338.2Z"/><path class="a" d="M652.26,335.57c0,.07-1.14-.46-3-1.1a30.27,30.27,0,0,0-15.14-1.15c-1.94.34-3.11.71-3.14.62a3.27,3.27,0,0,1,.8-.34,19.852,19.852,0,0,1,2.27-.63,26.53,26.53,0,0,1,15.33,1.17,18.4,18.4,0,0,1,2.15,1C652,335.37,652.28,335.53,652.26,335.57Z"/><path class="a" d="M669.61,324.41a61.089,61.089,0,0,1-2.19-7.61,59.818,59.818,0,0,1-1.7-7.74,64.732,64.732,0,0,1,2.19,7.61,64.134,64.134,0,0,1,1.7,7.74Z"/><path class="a" d="M669.75,324.41a36.364,36.364,0,0,0-2.43-4.56,19.71,19.71,0,0,0-3.58-3.69,3.4,3.4,0,0,1,1.38.71,11.2,11.2,0,0,1,2.61,2.69A10.16,10.16,0,0,1,669.75,324.41Z"/><path class="a" d="M669.64,424.69s-.15-.84-.55-2.33a32.769,32.769,0,0,0-2.34-6.05c-2.41-4.94-6.81-11.21-12.4-17.48-2.77-3.17-5.46-6.15-7.74-9a62.993,62.993,0,0,1-5.53-8,38.775,38.775,0,0,1-2.8-5.92c-.25-.73-.44-1.3-.54-1.69a2.339,2.339,0,0,1-.15-.61s.3.8.88,2.23a42.128,42.128,0,0,0,2.92,5.81,67.211,67.211,0,0,0,5.58,7.87c2.29,2.83,5,5.8,7.76,9,5.6,6.29,10,12.63,12.34,17.65a29.6,29.6,0,0,1,2.21,6.17,17.5,17.5,0,0,1,.31,1.75A2.643,2.643,0,0,1,669.64,424.69Z"/><path class="a" d="M697.27,393.48a11.225,11.225,0,0,1-1.45.82,31.72,31.72,0,0,0-3.75,2.48,41.824,41.824,0,0,0-4.93,4.5c-1.74,1.83-3.52,4-5.34,6.23-3.64,4.56-7,8.6-9.08,11.83-1,1.6-1.79,3-2.28,3.89a11.322,11.322,0,0,1-.8,1.46,1.481,1.481,0,0,1,.14-.41c.1-.26.25-.65.48-1.13a35.078,35.078,0,0,1,2.16-4,136.064,136.064,0,0,1,9-12c1.82-2.28,3.63-4.41,5.39-6.24a40.6,40.6,0,0,1,5.05-4.46,27,27,0,0,1,3.88-2.37c.48-.24.87-.39,1.13-.5A1.768,1.768,0,0,1,697.27,393.48Z"/><path class="a" d="M697.81,403.61a22.4,22.4,0,0,1-3.06.44,41.136,41.136,0,0,0-7.26,1.43,21.84,21.84,0,0,0-6.5,3.41c-1.49,1.16-2.2,2.12-2.27,2.06a2.31,2.31,0,0,1,.45-.7,12.307,12.307,0,0,1,1.6-1.64,19.91,19.91,0,0,1,6.57-3.61,32.553,32.553,0,0,1,7.38-1.3A16.236,16.236,0,0,1,697.81,403.61Z"/><path class="a" d="M679.61,409.84c-.16-.09,1.22-2.2,2.29-5s1.24-5.37,1.42-5.34a4.779,4.779,0,0,1-.05,1.64,17.6,17.6,0,0,1-.89,3.87,19.085,19.085,0,0,1-1.78,3.55A4.882,4.882,0,0,1,679.61,409.84Z"/><path class="a" d="M706.22,366.3a1.772,1.772,0,0,1-.49.26l-1.44.66c-.63.27-1.39.61-2.25,1.06s-1.88.91-2.93,1.54l-1.67.95c-.58.33-1.15.73-1.76,1.11-1.23.75-2.46,1.67-3.78,2.6a64.841,64.841,0,0,0-14.56,15.07c-.89,1.35-1.77,2.61-2.47,3.87a19.289,19.289,0,0,0-1,1.79c-.26.59-.61,1.16-.89,1.71-.6,1.07-1,2.09-1.44,3s-.74,1.65-1,2.29l-.6,1.46a2.227,2.227,0,0,1-.25.5,3.362,3.362,0,0,1,.15-.53l.52-1.5c.22-.65.51-1.44.91-2.33s.8-1.94,1.38-3c.27-.56.56-1.13.87-1.73s.67-1.19,1-1.83c.69-1.27,1.56-2.55,2.45-3.92a62.638,62.638,0,0,1,14.66-15.17c1.34-.94,2.59-1.85,3.84-2.59.62-.37,1.2-.76,1.78-1.09l1.7-.92c1.07-.62,2.09-1.06,3-1.48s1.66-.75,2.31-1l1.47-.56a2.448,2.448,0,0,1,.49-.22Z"/><path class="a" d="M684.35,381a3.61,3.61,0,0,1,1.21-1.79,7.63,7.63,0,0,1,4.84-1.86,13.38,13.38,0,0,1,5.1,1,7.21,7.21,0,0,1,1.93.94,12.22,12.22,0,0,1-2-.6,15.49,15.49,0,0,0-5-.83,7.89,7.89,0,0,0-4.63,1.62,15.28,15.28,0,0,0-1.45,1.52Z"/><path class="a" d="M681.09,384.33a18.509,18.509,0,0,0,1.37-4.48,18.1,18.1,0,0,0-.31-4.67,3.088,3.088,0,0,1,.57,1.3,9.069,9.069,0,0,1,.24,3.43,9.2,9.2,0,0,1-1,3.28,3.25,3.25,0,0,1-.87,1.14Z"/><path class="a" d="M645.48,429.7c.75,13.38,4.78,27,11,40.72h26.95c5.91-13.61,9.66-27.19,10.33-40.72Z"/><path class="c" d="M689.37,451.34c0,.14-8.87.25-19.82.25s-19.82-.11-19.82-.25,8.87-.25,19.82-.25S689.37,451.2,689.37,451.34Z"/><path class="c" d="M688.77,456.19c0,.14-8.32.25-18.58.25s-18.58-.11-18.58-.25,8.32-.26,18.58-.26S688.77,456.05,688.77,456.19Z"/><path class="c" d="M656.89,438.48a74.289,74.289,0,0,1,0,12.42,77.244,77.244,0,0,1,0-12.42Z"/><path class="c" d="M671.33,438.48a79.636,79.636,0,0,1,0,12.86,82.82,82.82,0,0,1,0-12.86Z"/><path class="c" d="M684.89,438.37a86.19,86.19,0,0,1,0,13.12,86.19,86.19,0,0,1,0-13.12Z"/><path class="c" d="M692.88,438.48c0,.14-10.41.26-23.24.26s-23.25-.12-23.25-.26,10.41-.25,23.25-.25S692.88,438.34,692.88,438.48Z"/><path class="f" d="M705,470.32c0,.15-147.2.26-328.74.26s-328.77-.11-328.77-.26,147.17-.26,328.77-.26S705,470.18,705,470.32Z"/><path class="g" d="M653.1,437l11.21,20,13.42,13.26a2.34,2.34,0,0,1-.09,3.43h0a2.35,2.35,0,0,1-2.09.53c-4.72-1.11-22.06-5.28-22.8-6.79-.85-1.75-13.22-20.31-13.22-20.31Z"/><g class="h"><path class="d" d="M677.64,473.67,652,466.08l.49.84a3.55,3.55,0,0,0,1.89,1.54c2.12.74,8,2.63,21.14,5.78a2.36,2.36,0,0,0,2.15-.57Z"/></g><g class="h"><path class="d" d="M652.26,457.32a1.43,1.43,0,0,1,1.28,1.4,1.36,1.36,0,0,1-1.38,1.28,1.5,1.5,0,0,1-1.35-1.49,1.42,1.42,0,0,1,1.58-1.17"/></g><path class="f" d="M668,467.71a5.057,5.057,0,0,1,2.82-4.33c0-.06-.35-.07-.85.14a3.63,3.63,0,0,0-1.59,1.36,3.74,3.74,0,0,0-.61,2A2.263,2.263,0,0,0,668,467.71Z"/><path class="f" d="M671,469.52a14.612,14.612,0,0,1,1.24-1.88c.84-.88,1.83-1.24,1.79-1.38s-1.2,0-2.16,1A2.613,2.613,0,0,0,671,469.52Z"/><path class="f" d="M663.41,465.87a23,23,0,0,1,1.73-3,25,25,0,0,1,2.52-2.42,5.26,5.26,0,0,0-2.92,2.11,5.17,5.17,0,0,0-1.33,3.31Z"/><path class="f" d="M659.5,460.07c.12.09.94-1,2.33-1.9s2.71-1.21,2.68-1.36a4.54,4.54,0,0,0-3,.94,4.49,4.49,0,0,0-2.01,2.32Z"/><path class="f" d="M656.06,454.29a11.471,11.471,0,0,1,2.37-2.05,11.7,11.7,0,0,1,3-.89c0-.06-.35-.18-1-.17a5,5,0,0,0-2.29.62,5.12,5.12,0,0,0-1.76,1.58C656.1,453.89,656,454.26,656.06,454.29Z"/><path class="f" d="M657.75,451.16a2,2,0,0,0-.42-.76,5.88,5.88,0,0,0-1.74-1.61,2.72,2.72,0,0,0-1.64-.52,1,1,0,0,0-.81.73,1.52,1.52,0,0,0,.22,1.07,3.32,3.32,0,0,0,4.06,1.17,3.87,3.87,0,0,0,2.24-3.66,1.36,1.36,0,0,0-.51-1,.94.94,0,0,0-1.09.07,3.379,3.379,0,0,0-.9,1.45,6.53,6.53,0,0,0-.44,2.32,2.1,2.1,0,0,0,.1.87,10.46,10.46,0,0,1,.67-3.06,3.061,3.061,0,0,1,.82-1.24.48.48,0,0,1,.59,0,.88.88,0,0,1,.29.67,3.43,3.43,0,0,1-2,3.15,2.9,2.9,0,0,1-3.47-.94,1.19,1.19,0,0,1-.18-.75.52.52,0,0,1,.44-.4,2.46,2.46,0,0,1,1.4.41,9.151,9.151,0,0,1,2.37,2.03Z"/><path class="g" d="M627.82,443.32l-4.56,16.39S638.4,469.85,637.85,473l-32.1-7.69,6-25.84Z"/><g class="h"><path class="d" d="M613.67,455.94a1.37,1.37,0,0,0-1.27,1.28,1.3,1.3,0,0,0,1.26,1.27,1.42,1.42,0,0,0,1.33-1.36,1.33,1.33,0,0,0-1.45-1.17"/></g><g class="h"><path class="d" d="M605.75,465.27l.71-2.58L637,471s1.28,1,.87,1.93Z"/></g><path class="f" d="M623.82,459.67c0,.16-.84,0-1.73.36s-1.46.88-1.59.79.32-.95,1.41-1.32S623.89,459.54,623.82,459.67Z"/><path class="f" d="M626.86,461.87c0,.16-.75.27-1.44.8s-1,1.2-1.16,1.16,0-1,.83-1.61S626.89,461.72,626.86,461.87Z"/><path class="f" d="M627.81,466.36c-.15,0-.18-.84.42-1.6s1.43-.93,1.46-.78-.53.5-1,1.13S628,466.38,627.81,466.36Z"/><path class="f" d="M624.45,455.82c-.1.13-.77-.26-1.67-.41s-1.66,0-1.71-.19.75-.56,1.81-.36S624.55,455.72,624.45,455.82Z"/><g class="i"><path d="M626.91,446.56l-.81,2.93-15.74-3.93.79-3.4Z"/></g><path class="f" d="M625.3,452.5a3.18,3.18,0,0,1-1.6-.4,7.1,7.1,0,0,1-1.56-.92,7.348,7.348,0,0,1-.81-.71,2.09,2.09,0,0,1-.39-.49.68.68,0,0,1,.13-.85.88.88,0,0,1,.77-.2,2.259,2.259,0,0,1,.58.23,5.548,5.548,0,0,1,.92.58,5.872,5.872,0,0,1,1.25,1.33,2.76,2.76,0,0,1,.63,1.53c-.08,0-.33-.54-1-1.29a6.672,6.672,0,0,0-1.24-1.15,6.366,6.366,0,0,0-.85-.51c-.32-.17-.61-.24-.73-.11s-.06.07,0,.19a1.69,1.69,0,0,0,.29.36c.24.25.49.48.73.69a10.272,10.272,0,0,0,1.41,1C624.73,452.23,625.33,452.41,625.3,452.5Z"/><path class="f" d="M625.05,452.67A2.64,2.64,0,0,1,625,451a5.76,5.76,0,0,1,.64-1.71,5.247,5.247,0,0,1,.65-.88,1.35,1.35,0,0,1,1.22-.56.76.76,0,0,1,.56.61,2.228,2.228,0,0,1,0,.62,3.779,3.779,0,0,1-.26,1.09,3.73,3.73,0,0,1-1.09,1.49c-.82.69-1.52.72-1.52.66a6.938,6.938,0,0,0,1.25-.95,3.649,3.649,0,0,0,.88-1.39,3.49,3.49,0,0,0,.19-.93c0-.36,0-.66-.17-.66a1.1,1.1,0,0,0-.69.39,6,6,0,0,0-.6.78,6.181,6.181,0,0,0-.7,1.53C625.11,452,625.14,452.67,625.05,452.67Z"/><path class="f" d="M633.87,262.85s10.94,19.11,11.54,40.28-14.88,152.49-14.88,152.49l-24.53-6c-.45,4.22,7.69-43.17,10.57-66,2.83-22.46-11.4-103.5-11.4-103.5L632,262.85"/><path class="f" d="M577.82,278.86s-2.66,22.73,4,38,60,141.25,60,141.25L663.71,447,610.26,279Z"/><path class="j" d="M643.83,384.45c-.14.05-6.87-20.24-15-45.3s-14.69-45.42-14.55-45.47,6.87,20.24,15,45.31S644,384.41,643.83,384.45Z"/><path class="j" d="M641.87,458.07c-.13.06-10.77-24.76-23.77-55.42S594.67,347.07,594.8,347s10.78,24.75,23.78,55.43S642,458,641.87,458.07Z"/><path class="f" d="M602.65,139.74c-3.19-6.66-13.29-10.47-21.65-8.49-7,1.66-14.67,8.5-15.37,15.72-1,10.46,4.48,21.33.8,31.2-4.29,11.48-10.15,7.7-9.74,24.35.13,5,2.07,17.31,4.51,21.71,1.25,2.27,3.22,4.4,5.81,4.89,3.23.6,7.67,1.24,10.29-.71,7.06-5.28,13.63-6,15.4-14.59,2.62-12.65-5.82-28.15-5.46-38.43s-1.23-20.5-2.83-30.67"/><path class="f" d="M639.54,198.18c-2-4.53-6-7.85-10.14-10.65s-8.5-5.28-12-8.84-5.91-11.65-6-17.59h0c-.06-1.64-.18-3.25-.39-4.84-.8-5.83-2-11.76-5.22-16.75s-11.58-9.64-19-6.74l-3.74,4.82a138.431,138.431,0,0,1,3.85,48.17c-.45,4.67-1,9.9,2,13.59,1.93,2.41,5,3.64,8.07,4.24,3.38.67,7.21.58,9.89-1.55a3.3,3.3,0,0,1,.52-.33,15.84,15.84,0,0,0,2.71,4.91c3,3.54,7.58,5.24,12,6.47,5.1,1.41,11.15,2.21,15.2-1.2C641.15,208.68,641.59,202.71,639.54,198.18Z"/><path class="g" d="M576.06,185.61s-11.9,5.1-14.73,7.08,11.61,41.93,11.61,41.93,6.8,16.43,5.1,23.79c-1,4.15-2.72,8.57-3.48,12.4a7.32,7.32,0,0,0,5.7,8.59c7,1.45,20.51,3.22,32-1.16A82.058,82.058,0,0,0,631.79,268a7.32,7.32,0,0,0,1.92-9.67,19.828,19.828,0,0,0-3-3.83c-3.9-3.9-7.38-19.11-8.28-23.29a7.34,7.34,0,0,1-.14-2.09c.31-4,1.22-18.56-1.21-25.61-2-5.64-6-12.33-8.28-16a7.33,7.33,0,0,0-4.85-3.26l-9.49-1.74a7.38,7.38,0,0,0-2.48,0l-19.94,3.16Z"/><g class="i"><path d="M578.61,256.88l-2.12,7s14.59-4.92,19.29-10.45,9.35-9.67,11.53-9.91,11.6-.25,13.25,1.07,7.22,4.86,7.22,4.86l-2.56-7.35L619,237.17l-18.63-1.93Z"/></g><path class="g" d="M561.33,192.69s-4.74,3.39-4.74,11.89c0,0,.43,38.93,1.76,46.43,1.77,10,9.83,11.2,14,11.2s26.73-18.33,26.73-18.33l-6.92-10.41-16.45,4.28s-.68-16-.68-21.48S561.33,192.69,561.33,192.69Z"/><path class="g" d="M609.1,184.54s10.48,2.47,14.66,11.57c3.67,8,26.68,43.87,14.8,50.48C630,251.37,619,240.37,619,240.37Z"/><path class="k" d="M625.22,229.65a14.36,14.36,0,0,1-1-5.17,9.589,9.589,0,0,0-.38-3.16,2.44,2.44,0,0,0-2.52-1.69l-.38,7.81Z"/><path class="f" d="M621.68,212l-1.31,27.61L607.1,240.9l-.3-27.06a1.44,1.44,0,0,1,1.22-1.43l12-1.89a1.44,1.44,0,0,1,1.66,1.48Z"/><path class="j" d="M608,221.29a4.888,4.888,0,0,0,.07-.81c0-.58.06-1.33.1-2.24s.07-2.08.12-3.31a3.238,3.238,0,0,1,0-.45.8.8,0,0,1,.18-.37.84.84,0,0,1,.34-.25,2,2,0,0,1,.47-.1l2.07-.34c2.84-.46,5.41-.9,7.27-1.23l2.2-.41a4.792,4.792,0,0,0,.8-.18,4.469,4.469,0,0,0-.82.08l-2.21.32c-1.87.28-4.44.68-7.28,1.15l-2.08.34a2.26,2.26,0,0,0-.52.12,1.127,1.127,0,0,0-.67.82,2.906,2.906,0,0,0,0,.49c0,1.24,0,2.36,0,3.32v2.23a4.381,4.381,0,0,0-.04.82Z"/><path class="c" d="M614.1,214.35a.66.66,0,0,1,1.27-.07.74.74,0,0,1-.25.73.68.68,0,0,1-.76,0,.61.61,0,0,1-.26-.66Z"/><path class="k" d="M615.74,222.36c.32,0,7.84,2.51,7.84,2.51l4.23,3.25a7.51,7.51,0,0,1,1.15,5.63c-.52,3.63-2.06,5.12-5.9,6.74h-7.74L611,238a2.4,2.4,0,0,1-1.16-2.44v-.16l-.55-.66a1.32,1.32,0,0,1-.17-1.46h0a1.33,1.33,0,0,1,1.79-.57l4.81,2.46,3-.08.29-1-4.7-1.56-6.2-3.4a1.63,1.63,0,0,1-.61-2.29h0a1.63,1.63,0,0,1,2-.68l5.61,2.2,5.73,1.52-1.18-2-7-3.67S611.82,222,615.74,222.36Z"/><path class="k" d="M614.5,218.8a4.65,4.65,0,0,0-3.84.78c-2.25,1.37-5.07,3.36-5.07,3.36L601.18,225l.37-1.22s4.62-.26,3.88-3.54l-2.73.55-2.54-.83-3.92,5.24-1,5.82-2.49,2.84,5.46,8.45,7.35-2.81,6.62-.65,2.88-3.2-.17-3.45,2.72-3.81s.14-1.72-1.37-1.64-4.55,4.21-4.55,4.21l-3.59.66s-.71-.47-.25-.87,10.25-7.3,10.53-8.54.65-2.09-.46-2.25a5.91,5.91,0,0,0-2.76.72S615.34,218.92,614.5,218.8Z"/><path class="l" d="M606.75,226.71a50.314,50.314,0,0,0,4.38-3,48,48,0,0,0,4.22-3.18,52.153,52.153,0,0,0-4.38,3,48.005,48.005,0,0,0-4.22,3.18Z"/><path class="l" d="M606,235.53a2.259,2.259,0,0,0,.57.09c.37,0,.9.08,1.56.09a10,10,0,0,0,2.33-.2,6.73,6.73,0,0,0,2.61-1.19,12.119,12.119,0,0,0,3.29-4c.32-.58.55-1.06.71-1.39a2,2,0,0,0,.22-.53s-.43.69-1.1,1.82a13.071,13.071,0,0,1-3.28,3.87,6.929,6.929,0,0,1-2.51,1.16,11.62,11.62,0,0,1-2.27.26C606.77,235.53,606,235.48,606,235.53Z"/><path class="l" d="M592.7,233.85l.18-.17.48-.54,1.87-2.1h0l1.07-5.8h0l3.94-5.23h-.12l2.55.85h.05l2.73-.55-.13-.08a2.65,2.65,0,0,1-.05,1.37,2.4,2.4,0,0,1-.87,1.1,6,6,0,0,1-2.86.91h-.09v.08c-.11.38-.24.8-.37,1.23l-.08.26.25-.11,4.41-2.05h0c1.31-.91,2.68-1.84,4.1-2.75a11.322,11.322,0,0,1,2.21-1.21,4.22,4.22,0,0,1,2.48-.17h0c.26,0,.42.34.48.67a3.677,3.677,0,0,1,0,1.05v.25l.23-.11a7.765,7.765,0,0,1,1.5-.58,2.42,2.42,0,0,1,1.55,0,.54.54,0,0,1,.26.59,4.06,4.06,0,0,1-.15.82,2.582,2.582,0,0,1-.24.77,5.413,5.413,0,0,1-.56.62,63.861,63.861,0,0,1-5.35,4.34l-2.69,2-1.33,1-.33.24a.74.74,0,0,0-.3.38.54.54,0,0,0,.12.49,1.081,1.081,0,0,0,.33.31h.05l3.59-.66h.05a22.745,22.745,0,0,1,3-3.33c.55-.45,1.15-.94,1.81-.82a1,1,0,0,1,.74.53,2,2,0,0,1,.17,1v-.06c-1,1.33-1.85,2.59-2.71,3.81h0c.06,1.2.12,2.35.18,3.46v-.08l-2.87,3.2h.06l-6.62.68h0l-5.43,2.1-1.41.56-.36.15c-.08,0-.12,0-.12.06h.12l.37-.13,1.43-.52,5.46-2.05h0l6.62-.63h0l2.89-3.19h0c0-1.11-.11-2.26-.17-3.46v.07l2.72-3.8h0a2.3,2.3,0,0,0-.2-1.09,1.43,1.43,0,0,0-.37-.44,1.26,1.26,0,0,0-.54-.22,1.69,1.69,0,0,0-1.12.22,5.14,5.14,0,0,0-.9.65,22.252,22.252,0,0,0-3,3.37l.08-.06-3.58.66H608c-.19-.13-.38-.36-.33-.51s.33-.31.53-.47l1.33-1,2.7-2a65.4,65.4,0,0,0,5.38-4.36,4.866,4.866,0,0,0,.59-.67,1.11,1.11,0,0,0,.18-.44l.1-.41a5,5,0,0,0,.16-.87,1,1,0,0,0-.07-.48.69.69,0,0,0-.34-.37,2.63,2.63,0,0,0-1.75,0,9.152,9.152,0,0,0-1.56.6l.2.14a3.888,3.888,0,0,0,0-1.13,1.359,1.359,0,0,0-.2-.54.74.74,0,0,0-.5-.35h0a4.38,4.38,0,0,0-2.66.17,11,11,0,0,0-2.27,1.24c-1.42.91-2.79,1.84-4.1,2.76h0l-4.4,2,.17.15c.13-.43.25-.85.36-1.23l-.11.09a6.34,6.34,0,0,0,3-1,2.55,2.55,0,0,0,.94-1.21,2.84,2.84,0,0,0,.06-1.5v-.11h-.11l-2.73.56h.06l-2.55-.83h-.07V220c-1.45,1.94-2.76,3.71-3.91,5.26h0c-.41,2.34-.75,4.3-1,5.82h0c-.79.92-1.4,1.64-1.83,2.13l-.46.56q-.056.038-.11.08Z"/><path class="k" d="M573.12,151.7a15.57,15.57,0,0,1,14.64-17,16,16,0,0,1,16.77,14c.91,7.22,1.67,14.5,1.57,17.13-.32,7.94-5.13,10.91-7.08,11.79a10.19,10.19,0,0,1-2.14.46h0a.06.06,0,0,0,0,.06l1.56,9.17c.65,6-2.88,11.24-9,11.95s-10.76-4-11.54-10Z"/><path class="f" d="M602,153.86a1.27,1.27,0,0,1-1.08,1.41,1.24,1.24,0,0,1-1.46-1,1.27,1.27,0,0,1,1.08-1.41,1.24,1.24,0,0,1,1.46,1Z"/><path class="f" d="M602.61,150.86c-.14.18-1.2-.41-2.57-.25s-2.3,1-2.47.81,0-.38.45-.75a3.5,3.5,0,0,1,2-.84,3.46,3.46,0,0,1,2.06.39C602.5,150.49,602.68,150.77,602.61,150.86Z"/><path class="f" d="M589.15,155.58a1.27,1.27,0,0,1-1.08,1.41,1.24,1.24,0,0,1-1.46-1,1.27,1.27,0,0,1,1.08-1.41,1.24,1.24,0,0,1,1.46,1Z"/><path class="f" d="M589.12,152.68c-.14.18-1.19-.41-2.56-.25s-2.3,1-2.47.81,0-.38.44-.74a3.5,3.5,0,0,1,2-.85,3.4,3.4,0,0,1,2.07.4C589,152.32,589.19,152.6,589.12,152.68Z"/><path class="f" d="M595.33,162.11a9.408,9.408,0,0,1,2.18-.65c.35-.08.67-.19.7-.43a1.65,1.65,0,0,0-.35-1c-.43-.8-.89-1.63-1.36-2.51a46.069,46.069,0,0,1-3.17-6.59c.15-.08,1.81,2.76,3.7,6.33l1.32,2.52a2,2,0,0,1,.34,1.33.88.88,0,0,1-.51.58,2.693,2.693,0,0,1-.59.15,9,9,0,0,1-2.26.27Z"/><path class="l" d="M596.82,178.14s-5.25,1-12.37-2.11c0,0,2.93,6.65,12.79,4.58Z"/><path class="l" d="M595.14,165.43a2.54,2.54,0,0,0-2.33-.64,2.24,2.24,0,0,0-1.46,1,1.39,1.39,0,0,0,.09,1.62,1.69,1.69,0,0,0,1.85.24,5.32,5.32,0,0,0,1.64-1.23,1.619,1.619,0,0,0,.34-.45.45.45,0,0,0-.06-.5"/><path class="f" d="M591.4,163.52c.22,0,.4,1.42,1.8,2.31s3,.55,3,.75-.32.33-1,.43a3.84,3.84,0,0,1-2.5-.55,3.2,3.2,0,0,1-1.42-2C591.17,163.9,591.29,163.52,591.4,163.52Z"/><path class="f" d="M589.45,150.24c-.09.39-1.48.37-3.07.75s-2.84,1-3.1.66.07-.52.56-.94a5.35,5.35,0,0,1,2.22-1.07,5.55,5.55,0,0,1,2.48,0C589.16,149.81,589.49,150.06,589.45,150.24Z"/><path class="f" d="M601.77,148.16c-.21.33-1.19.12-2.34.24s-2.07.45-2.33.16,0-.47.38-.81a3.4,3.4,0,0,1,3.76-.32C601.68,147.69,601.85,148,601.77,148.16Z"/><path class="f" d="M597.86,135.14A16.48,16.48,0,0,1,586,148c.17-.74.34-1.49.52-2.24a23.42,23.42,0,0,1-13.06,10.81,16.2,16.2,0,0,1,3.73-19.89c5.7-4.7,14.92-5.81,20.71-1.21"/><path class="f" d="M579.52,152.84c-1.39,2.6-.82,5.78.05,8.6s2,5.67,1.7,8.6c-.3,2.72-1.85,5.18-2.2,7.89-.58,4.57,2.3,8.81,3.41,13.29A18,18,0,0,1,578,207.68a2.18,2.18,0,0,1-1.56.85,1.62,1.62,0,0,1-1.37-1.4,7,7,0,0,1,.11-2.08c.73-6.56-5.56-12-6.32-18.54-.5-4.26,1.4-8.42,1.78-12.69.48-5.38-1.45-10.66-2-16a12.169,12.169,0,0,1,.46-5.47,5.73,5.73,0,0,1,3.87-3.7A3.84,3.84,0,0,1,577.5,151"/><path class="f" d="M577.86,237.29a16.09,16.09,0,0,1-1.7.08,9.6,9.6,0,0,0-3.84,1.22,9.43,9.43,0,0,0-3,2.72,16.058,16.058,0,0,1-.93,1.44,3.68,3.68,0,0,1,.62-1.64,8.41,8.41,0,0,1,7.09-4.1A3.54,3.54,0,0,1,577.86,237.29Z"/><path class="f" d="M575.54,215.83c.14,0,.33,4.77.43,10.67s0,10.67-.09,10.67a105.627,105.627,0,0,1-.43-10.66C575.35,220.61,575.4,215.83,575.54,215.83Z"/><path class="f" d="M621,222.93c-.09,0-.18-1.27-.54-3.28a34.2,34.2,0,0,0-6.32-14.5,27.821,27.821,0,0,1-2-2.63,3.111,3.111,0,0,1,.68.59,22.993,22.993,0,0,1,1.65,1.81,30.462,30.462,0,0,1,4.19,6.9,29.69,29.69,0,0,1,2.2,7.77,19.445,19.445,0,0,1,.21,2.44A3.519,3.519,0,0,1,621,222.93Z"/><path class="f" d="M556.51,206.83a2,2,0,0,1,0,.32v.95c0,.86,0,2.07.07,3.61.08,3.18.18,7.72.32,13.31s.4,12.3.87,19.71c.06.92.13,1.86.2,2.81l.1,1.42c.07.48.13.95.2,1.42a18.348,18.348,0,0,0,.63,2.83,15.819,15.819,0,0,0,1.23,2.68,11.83,11.83,0,0,0,4.23,4.2,13.86,13.86,0,0,0,5.9,1.82h.37a9.05,9.05,0,0,0,4.48-.86,31.559,31.559,0,0,0,4-2.21q3.9-2.42,7.42-5A122.791,122.791,0,0,0,599,243.72V244l-6.88-10.44.18.07c-4.54,1.12-8.11,2.11-10.58,2.73l-2.82.71-.73.18a1.192,1.192,0,0,1-.26,0l.24-.09.72-.22,2.81-.8c2.45-.67,6-1.71,10.54-2.87h.11l.07.1,7,10.38.1.15-.13.13a122.005,122.005,0,0,1-12.34,10.27c-2.34,1.7-4.83,3.37-7.44,5a32.309,32.309,0,0,1-4.1,2.25,9.6,9.6,0,0,1-4.75.9h-.4a14.2,14.2,0,0,1-6.13-1.9,12.34,12.34,0,0,1-4.41-4.38,16.193,16.193,0,0,1-1.27-2.78,19,19,0,0,1-.64-2.91c-.07-.49-.13-1-.2-1.46l-.1-1.43c-.07-.95-.13-1.89-.19-2.81-.45-7.43-.63-14.12-.76-19.74s-.16-10.16-.15-13.31v-4.56a1.34,1.34,0,0,1,.02-.34Z"/><path class="f" d="M634.8,247.74a2.11,2.11,0,0,1-.7.09,12.6,12.6,0,0,1-1.93-.07,16.079,16.079,0,0,1-2.81-.57,19.292,19.292,0,0,1-3.25-1.34,28.391,28.391,0,0,1-5.21-3.63,10.5,10.5,0,0,1-1.86-1.85,15.614,15.614,0,0,1,2.1,1.56,35.212,35.212,0,0,0,5.21,3.46,21.67,21.67,0,0,0,3.15,1.34,18.263,18.263,0,0,0,2.72.66C633.8,247.65,634.8,247.64,634.8,247.74Z"/><path class="f" d="M637.31,230.38a24.585,24.585,0,0,0-4.75-2,24,24,0,0,0-5.15-.48,9,9,0,0,1,5.28,0,8.85,8.85,0,0,1,4.62,2.48Z"/><path class="f" d="M633,225.9c0,.16-1.41.14-3,.6s-2.82,1.19-2.9,1.06A6.64,6.64,0,0,1,633,225.9Z"/><path class="f" d="M581.48,279.28c0,.05-.46-.12-1-.64a4.869,4.869,0,0,1-1.27-2.53,4.94,4.94,0,0,1,.3-2.81c.3-.68.64-1,.69-.95a7.3,7.3,0,0,1-.34,1.07,5.689,5.689,0,0,0-.14,2.6,5.789,5.789,0,0,0,1,2.38C581.19,278.94,581.53,279.21,581.48,279.28Z"/><path class="f" d="M591.57,280.75c0,.06-.51-.1-1.14-.6a6.22,6.22,0,0,1-1.82-2.52,6,6,0,0,1-.39-3.09c.12-.8.35-1.24.41-1.22a6.986,6.986,0,0,1,0,1.25,7.431,7.431,0,0,0,.51,2.86,7.309,7.309,0,0,0,1.59,2.44C591.21,280.41,591.61,280.68,591.57,280.75Z"/><path class="f" d="M600.91,281.44c0,.05-.46-.12-1-.6a5.57,5.57,0,0,1-1.68-5.19c.16-.72.41-1.1.46-1.07a7.28,7.28,0,0,0,2.22,6.86Z"/><path class="f" d="M610.26,278.92c-.15,0-.28-1.38-.8-3a29.338,29.338,0,0,1-1.05-2.93,5.6,5.6,0,0,1,1.55,2.77,5.52,5.52,0,0,1,.3,3.16Z"/><path class="f" d="M620.11,275.29a30.522,30.522,0,0,0-.69-3.75,27.194,27.194,0,0,0-1.65-3.44,6,6,0,0,1,2.15,3.28,6.07,6.07,0,0,1,.19,3.91Z"/><path class="f" d="M627.05,271.16a35.876,35.876,0,0,0-.8-3.54c-.66-1.88-1.74-3.15-1.62-3.25a7.29,7.29,0,0,1,2.42,6.79Z"/><path class="f" d="M633,267a20.559,20.559,0,0,0-1.11-3.42,21,21,0,0,0-2.12-2.92A6.39,6.39,0,0,1,633,267Z"/><g class="i"><path d="M575.67,236.91a6.39,6.39,0,0,0-8.8,1.55,3.09,3.09,0,0,0-.68,1.78,1.58,1.58,0,0,0,1,1.53,2.49,2.49,0,0,0,2.42-1,12,12,0,0,1,6.31-3.64"/></g><g class="i"><path d="M627.39,227.89c2.67-.38,5.29.83,8,1.2a1.86,1.86,0,0,0,1.41-.21,1.19,1.19,0,0,0,.42-1,1.83,1.83,0,0,0-.46-1,4.33,4.33,0,0,0-3.31-1.18,13.45,13.45,0,0,0-3.68.45,3.86,3.86,0,0,0-2.53,1.61"/></g><path class="d" d="M556.51,215a3.821,3.821,0,0,0,1.11,2.09,1.51,1.51,0,0,0,2,.2c.34-.3.52-.82.95-1s1.12.39,1.7.31c.89-.13,1.07-1.59,2-1.73s1.5,1.12,2.33.89.73-1.5,1.44-1.93,1.39.12,1.91.63,1.14,1.12,1.85.95c1.17-.29,1.19-2.38,2.39-2.54.85-.1,1.67.93,2.43.54.36-.19.51-.63.8-.9.57-.53,1.46-.34,2.21-.17s1.72.2,2.1-.46a13.43,13.43,0,0,0-5.71-1,3.09,3.09,0,0,1-2-.3c-.39-.27-.69-.75-1.16-.74s-.7.44-1.09.58c-.63.23-1.27-.33-1.6-.92a4.291,4.291,0,0,0-1.09-1.66,2,2,0,0,0-2.56.7,5.72,5.72,0,0,0-.79,2.8c-1-.33-1-2.18-2.09-2.37-.68-.12-1.23.55-1.5,1.18s-.53,1.36-1.15,1.65c-.5-.81-1-1.62-1.48-2.43a3,3,0,0,1-3,2.54"/><path class="d" d="M599.1,201.05c.3-.57.59-1.14.88-1.71a2,2,0,0,0,3.13-.59c.26-.7.1-1.59.63-2.14a1.51,1.51,0,0,1,1.82-.09,4.35,4.35,0,0,1,1.3,1.46,4.83,4.83,0,0,1,1-1.91,1.67,1.67,0,0,1,2-.35c.4.26.71.77,1.18.73.9-.08.57-1.75,1.38-2.14s1.59.76,2.35.45.64-1.26,1.25-1.56c.91-.44,1.76,1.16,2.75.94.48-.11.76-.59,1.17-.86a1.88,1.88,0,0,1,2.11.28,5.521,5.521,0,0,1,1.28,1.87,4,4,0,0,1,.53,1.6,1.35,1.35,0,0,1-.82,1.35c-1.07.34-2.08-1.22-3.16-.87-.8.26-1.08,1.47-1.91,1.57s-1.4-1.06-2.27-1.17c-1-.13-1.54,1.21-2.32,1.92a2.37,2.37,0,0,1-3.53-.64l-1.58,1a2,2,0,0,0-3,1.17c.1-.51-.54-.9-1-.77a2.33,2.33,0,0,0-1.15,1,2.28,2.28,0,0,1-1.16,1c-.78.2-1.61-.45-2.38-.21s-1.3,1.46-2.15,1.3-.81-1.25-.29-1.77a3.13,3.13,0,0,1,2-.64"/><path class="d" d="M596.05,223.46a1.34,1.34,0,0,0-2.41-.83c-.3.39-.41,1-.86,1.15-.78.3-1.54-.91-2.33-.63s-.66,1.44-1.36,1.69c-.54.18-1.05-.33-1.33-.82s-.57-1.07-1.12-1.18-1.25.6-1.51,1.26-.54,1.46-1.22,1.67c-.92.3-1.71-.67-2.18-1.51s-1.27-1.8-2.19-1.51a2.17,2.17,0,0,0-1.07,1.12l-2.65,4.67.06,5.19c1.22,0,1.43-1.19,1.53-2.42a2.29,2.29,0,0,0,2.71.88,8.59,8.59,0,0,0,2.63-1.62,4.7,4.7,0,0,1,2.8-1.17c.74,0,1.53.34,2.18,0s.87-1.34,1.36-2a3.58,3.58,0,0,1,2.66-1.15,9.55,9.55,0,0,0,2.93-.45,2.08,2.08,0,0,0,1.37-2.34Z"/><path class="d" d="M626.83,221.34a6.823,6.823,0,0,0-.16-1.79c-.06-.6.18-1.34.76-1.47a1.45,1.45,0,0,1,1.27.58,2.419,2.419,0,0,0,1.14.87c.44-.5,0-1.33.31-1.94a1.27,1.27,0,0,1,1.7-.43,3.66,3.66,0,0,1,1.33,1.4c.19-.67,1.17-.79,1.73-.4a3.4,3.4,0,0,1,1.06,1.75,1.11,1.11,0,0,1,0,.89,1,1,0,0,1-.63.41,3.75,3.75,0,0,1-2.45-.15,1.44,1.44,0,0,0-.87-.2c-.6.15-.67,1.09-1.25,1.31-.38.15-.83-.09-1.22.05s-.58.6-.94.79a1.08,1.08,0,0,1-1.23-.3,3.129,3.129,0,0,1-.61-1.19l.13-.08"/><path class="d" d="M626.85,242.3c-.1.54.61.88,1.14.79a6.411,6.411,0,0,1,1.59-.32,4.191,4.191,0,0,1,1.18.5,2.87,2.87,0,0,0,3-.48,3.15,3.15,0,0,0,.35,1.55,1.07,1.07,0,0,0,1.39.43,2.24,2.24,0,0,0,.59-.87c.17-.32.48-.63.83-.55s.48.4.69.65c.73.86,2.24.55,3-.32a5.941,5.941,0,0,0,1-3.19c.06-.49.07-1.1-.34-1.37a.92.92,0,0,0-1.15.24,2.63,2.63,0,0,0-.52,1.15,2.24,2.24,0,0,0-1.9-2.76,2,2,0,0,0-1.93,2.6,3.87,3.87,0,0,0-.5-1.34,1.3,1.3,0,0,0-1.21-.63c-.74.11-1.08,1-1.26,1.7s-.46,1.6-1.19,1.78c-.92.23-1.62-.82-2.47-1.25a2.08,2.08,0,0,0-2.17.2Z"/><path class="d" d="M576.4,264.17s-1.28,4.49-1.34,4.49,1.32-.78,1.88-.59,1.1.62,1.68.47c.91-.22,1.1-1.68,2-1.84a1.64,1.64,0,0,1,1.14.38,2.23,2.23,0,0,0,1.1.51c.41,0,.86-.35.75-.74a2.14,2.14,0,0,0,2.44,1.57,7.79,7.79,0,0,0,2.92-1.29,4.34,4.34,0,0,1,3-.77,11.152,11.152,0,0,1,1.87.84,1.77,1.77,0,0,0,1.92-.17c.28-.28.4-.72.74-.94a1.37,1.37,0,0,1,1.43.18,3.48,3.48,0,0,0,1.34.68,1.91,1.91,0,0,0,1.78-1.22c.33-.68.46-1.46.8-2.14a1.88,1.88,0,0,1,1.8-1.18c.38.06.76.29,1.12.15.72-.29.29-1.61.95-2a1.42,1.42,0,0,1,1.14,0,6.68,6.68,0,0,0,4.94-.46,3.36,3.36,0,0,0-2.48-1.45,10.18,10.18,0,0,0-3,.21,5.14,5.14,0,0,0-2.45.88c-.31.27-.61.63-1,.64-.72,0-1.15-1.12-1.85-.95S600.5,260.6,600,261s-1.25-.1-1.75-.54-1.26-.85-1.75-.41-.36,1.47-1,1.54-.71-.94-1.16-1.4a1.22,1.22,0,0,0-1.79.38,3.43,3.43,0,0,0-.32,2.06,5,5,0,0,0-1.79-2,1.72,1.72,0,0,0-2.36.62c-.1.25-.13.55-.34.72a.76.76,0,0,1-1-.23c-.25-.3-.37-.68-.62-1a1.52,1.52,0,0,0-1.9-.29,1.5,1.5,0,0,0-.55,1.83,3.85,3.85,0,0,0-6.71,1.7Z"/><path class="d" d="M560.49,255.91c1.9.87,3.7,1.78,4.93.09a2.82,2.82,0,0,0,5.06-.08c.44-.92.45-2.17,1.34-2.68,1-.6,2.28.37,3.47.59,1.45.27,2.86-.65,3.92-1.69a14.16,14.16,0,0,1,3.29-2.95c1.18-.6,2.88-1.05,2.87-2.37s-1.63-1.75-2.74-1.32a13.329,13.329,0,0,0-2.84,2.16c-.95.72-2.4,1.13-3.28.32-.5-.46-.82-1.28-1.5-1.27s-1,1-1,1.74-.35,1.72-1.1,1.66-.88-1.22-1.42-1.81c-.8-.88-2.41-.15-2.77,1a5.19,5.19,0,0,0,.59,3.44l-3.92-5.13-1.11,3.83a7.649,7.649,0,0,0-2.88-2.55c-1.21-.48-2.66-.27-3.16.93C558,250.15,559.35,255.39,560.49,255.91Z"/><path class="d" d="M630.94,254.76c-.28.3,0,.74.1,1.15a3.289,3.289,0,0,1,.13,1.24c-.07.41-.46.8-.87.69-.22-.06-.38-.25-.58-.34-.53-.24-1.08.2-1.61.39-1.76.62-3.68-1.42-5.4-.72-1,.39-1.68,1.6-2.7,1.39a1.46,1.46,0,0,1-1-1.72,3.29,3.29,0,0,1,1.23-1.78,10.9,10.9,0,0,0,1.64-1.46c.35-.45.7-1,1.27-1,.75,0,1.22,1.23,1.93,1,.38-.13.5-.6.48-1a3.341,3.341,0,0,1,0-1.18,1.39,1.39,0,0,1,2-.52,4.15,4.15,0,0,1,1.63,1.72Z"/><path class="j" d="M543.28,92.16H115.16a13.37,13.37,0,0,0-13.36,13.37V407.92a13.36,13.36,0,0,0,13.36,13.36H279.47s10.45,32.32-22,49H411.16s-36.58-12.54-27.17-49H543.28a13.36,13.36,0,0,0,13.36-13.36V105.53a13.37,13.37,0,0,0-13.36-13.37Z"/><path class="f" d="M332.78,389.48c5.83,8.32-3.29,17.44-11.61,11.61a2.861,2.861,0,0,1-.72-.71c-5.81-8.33,3.3-17.43,11.62-11.62A2.859,2.859,0,0,1,332.78,389.48Z"/><path class="a" d="M118.87,97.7h420.7a9.7,9.7,0,0,1,9.7,9.7V366H109.17V107.4A9.7,9.7,0,0,1,118.87,97.7Z"/><path class="f" d="M466.74,421.32c0,.14-60.92.26-136.06.26s-136.06-.12-136.06-.26,60.9-.25,136.06-.25S466.74,421.18,466.74,421.32Z"/><rect class="d" width="340.37" height="250.93" transform="translate(157.12 106.37)"/><path class="f" d="M498,357.8H156.62V105.87H498Zm-340.37-1H497V106.87H157.62Z"/><path class="f" d="M173.16,117.74a2.39,2.39,0,1,1-2.39-2.39A2.39,2.39,0,0,1,173.16,117.74Z"/><circle class="f" cx="2.39" cy="2.39" r="2.39" transform="translate(175.51 115.35)"/><circle class="f" cx="2.39" cy="2.39" r="2.39" transform="translate(182.29 115.35)"/><path class="g" d="M347.84,134l-18.57-6.84-18.38,6.75c-2.35,1.14-4.41,1.82-4.41,4.06v11.17a43,43,0,0,0,6.06,22.22,38.07,38.07,0,0,0,16.91,15.32c7.52-2.51,13.13-9.18,16.55-14.89a42.94,42.94,0,0,0,6.06-22.22v-10C352.06,136.31,350.41,134.75,347.84,134Z"/><g class="m"><path class="d" d="M347.84,134l-18.57-6.84-18.38,6.75c-2.35,1.14-4.41,1.82-4.41,4.06v11.17a43,43,0,0,0,6.06,22.22,38.07,38.07,0,0,0,16.91,15.32c7.52-2.51,13.13-9.18,16.55-14.89a42.94,42.94,0,0,0,6.06-22.22v-10C352.06,136.31,350.41,134.75,347.84,134Z"/></g><path class="g" d="M343,163.09h-4.13V140.63a9.59,9.59,0,1,0-19.18,0v22.46h-4.13V140.63a13.72,13.72,0,0,1,27.44,0Z"/><g class="n"><path d="M343,163.09h-4.13V140.63a9.59,9.59,0,1,0-19.18,0v22.46h-4.13V140.63a13.72,13.72,0,0,1,27.44,0Z"/></g><rect class="g" width="36.97" height="23.72" rx="5.81" transform="translate(310.78 153.1)"/><g class="o"><path d="M332.36,161.87a3.09,3.09,0,1,0-3.93,3v4.62h1.68v-4.62a3.08,3.08,0,0,0,2.25-3Z"/></g><path class="c" d="M312.76,174.57c-.09,0-.16-3.95-.16-8.83s.07-8.84.16-8.84.15,4,.15,8.84S312.84,174.57,312.76,174.57Z"/><path class="c" d="M326.85,165.83a1.792,1.792,0,0,1-.36-.2,3.9,3.9,0,0,1-.8-.82,4.32,4.32,0,0,1,1.54-6.49,3.618,3.618,0,0,1,1.08-.37h.41a8.487,8.487,0,0,0-1.38.58,4.27,4.27,0,0,0-1.47,6.18,9.119,9.119,0,0,0,.98,1.12Z"/><circle class="g" cx="1.42" cy="1.42" r="1.42" transform="translate(297.36 168.03)"/><path class="g" d="M363,132.15a1.43,1.43,0,1,1-1.42-1.43A1.43,1.43,0,0,1,363,132.15Z"/><path class="g" d="M307.23,182.74a.38.38,0,0,1-.37.37.37.37,0,0,1-.36-.37.36.36,0,0,1,.36-.36.37.37,0,0,1,.37.36Z"/><path class="g" d="M307.23,142.48a.37.37,0,0,1-.37.36.36.36,0,1,1,0-.72A.37.37,0,0,1,307.23,142.48Z"/><path class="g" d="M363.7,161.87a.36.36,0,1,1-.36-.36A.36.36,0,0,1,363.7,161.87Z"/><path class="g" d="M368.73,145a.36.36,0,1,1-.36-.36.36.36,0,0,1,.36.36Z"/><path d="M242.77,202h-4.9l-1,2.27H235l4.42-9.82h1.79l4.43,9.82h-1.9Zm-.6-1.43-1.85-4.29-1.84,4.29Z"/><path d="M253.85,196.81v7.49h-1.66v-1a3.11,3.11,0,0,1-2.42,1.05,3,3,0,0,1-3.22-3.31v-4.28h1.75v4c0,1.36.65,2,1.75,2a2,2,0,0,0,2-2.26v-3.79Z"/><path d="M260.66,203.89a2.74,2.74,0,0,1-1.69.51,2.3,2.3,0,0,1-2.58-2.53v-3.6h-1.23v-1.4h1.23v-1.71h1.76v1.71h2v1.4h-2v3.56c0,.73.36,1.12,1,1.12a1.54,1.54,0,0,0,1-.31Z"/><path d="M269.48,200v4.29h-1.75v-4.07c0-1.33-.66-2-1.78-2a2,2,0,0,0-2.09,2.25v3.79H262.1V193.89h1.76v3.79a3.3,3.3,0,0,1,2.49-1,2.92,2.92,0,0,1,3.13,3.32Z"/><path d="M278.79,201.12h-5.87a2.26,2.26,0,0,0,2.42,1.79,2.73,2.73,0,0,0,2-.81l.94,1.08a4.21,4.21,0,0,1-7.16-2.62,3.72,3.72,0,0,1,3.87-3.83,3.65,3.65,0,0,1,3.79,3.87A5,5,0,0,1,278.79,201.12ZM272.9,200h4.25a2,2,0,0,0-2.12-1.82A2.07,2.07,0,0,0,272.9,200Z"/><path d="M287.88,200v4.29h-1.75v-4.07c0-1.33-.66-2-1.78-2a2,2,0,0,0-2.09,2.25v3.79H280.5v-7.49h1.67v1a3.26,3.26,0,0,1,2.58-1.05,2.92,2.92,0,0,1,3.13,3.28Z"/><path d="M294.61,203.89a2.73,2.73,0,0,1-1.68.51,2.3,2.3,0,0,1-2.58-2.53v-3.6h-1.23v-1.4h1.23v-1.71h1.75v1.71h2v1.4h-2v3.56c0,.73.37,1.12,1,1.12a1.49,1.49,0,0,0,1-.31Z"/><path d="M295.82,194.53a1.08,1.08,0,0,1,1.12-1.06,1,1,0,0,1,1.12,1,1.12,1.12,0,0,1-2.24.05Zm.24,2.28h1.75v7.49h-1.75Z"/><path d="M299.49,200.56a3.79,3.79,0,0,1,4.06-3.83,3.35,3.35,0,0,1,3.19,1.74l-1.34.78a2.13,2.13,0,0,0-1.87-1,2.35,2.35,0,0,0,0,4.69,2.11,2.11,0,0,0,1.87-1l1.34.78a3.38,3.38,0,0,1-3.19,1.76,3.81,3.81,0,0,1-4.06-3.92Z"/><path d="M314.53,199.91v4.39h-1.66v-.91a2.66,2.66,0,0,1-2.35,1c-1.71,0-2.79-.94-2.79-2.25s.84-2.23,3.11-2.23h1.94v-.11c0-1-.62-1.62-1.87-1.62a3.72,3.72,0,0,0-2.27.74l-.69-1.28a5.33,5.33,0,0,1,3.17-.92C313.28,196.73,314.53,197.75,314.53,199.91ZM312.78,202v-.87H311c-1.19,0-1.52.45-1.52,1s.54,1,1.43,1A1.92,1.92,0,0,0,312.78,202Z"/><path d="M321.28,203.89a2.78,2.78,0,0,1-1.69.51,2.3,2.3,0,0,1-2.58-2.53v-3.6h-1.23v-1.4H317v-1.71h1.76v1.71h2v1.4h-2v3.56c0,.73.36,1.12,1,1.12a1.49,1.49,0,0,0,1-.31Z"/><path d="M329.48,201.12H323.6a2.27,2.27,0,0,0,2.43,1.79,2.7,2.7,0,0,0,2-.81l.94,1.08a4.2,4.2,0,0,1-7.15-2.62,3.72,3.72,0,0,1,3.87-3.83,3.65,3.65,0,0,1,3.79,3.87A2.26,2.26,0,0,1,329.48,201.12ZM323.59,200h4.25a2,2,0,0,0-2.12-1.82A2.07,2.07,0,0,0,323.59,200Z"/><path d="M339.47,200.84v3.46h-1.83v-3.44l-3.85-6.38h1.95l2.87,4.79,2.9-4.79h1.8Z"/><path d="M342.88,200.56a4,4,0,1,1,4,3.84,3.76,3.76,0,0,1-4-3.84Zm6.21,0a2.23,2.23,0,1,0-2.23,2.34,2.19,2.19,0,0,0,2.23-2.34Z"/><path d="M359.79,196.81v7.49h-1.67v-1a3.07,3.07,0,0,1-2.41,1.05,3,3,0,0,1-3.23-3.31v-4.28h1.76v4c0,1.36.64,2,1.75,2A2,2,0,0,0,358,200.6v-3.79Z"/><path d="M366.42,196.73v1.67a2.079,2.079,0,0,0-.4-.05,2,2,0,0,0-2.18,2.32v3.63h-1.75v-7.49h1.67v1.1a2.93,2.93,0,0,1,2.66-1.18Z"/><path d="M378.39,202h-4.91l-1,2.27H370.6l4.42-9.82h1.79l4.44,9.82h-1.91Zm-.61-1.43-1.85-4.29-1.83,4.29Z"/><path d="M381.67,200.56a3.78,3.78,0,0,1,4.05-3.83,3.37,3.37,0,0,1,3.2,1.74l-1.35.78a2.12,2.12,0,0,0-1.86-1,2.35,2.35,0,0,0,0,4.69,2.1,2.1,0,0,0,1.86-1l1.35.78a3.4,3.4,0,0,1-3.2,1.76,3.8,3.8,0,0,1-4.05-3.92Z"/><path d="M389.71,200.56a3.78,3.78,0,0,1,4.05-3.83,3.37,3.37,0,0,1,3.2,1.74l-1.35.78a2.13,2.13,0,0,0-1.86-1,2.35,2.35,0,0,0,0,4.69,2.11,2.11,0,0,0,1.86-1l1.35.78a3.4,3.4,0,0,1-3.2,1.76,3.8,3.8,0,0,1-4.05-3.92Z"/><path d="M397.74,200.56a4,4,0,1,1,4,3.84,3.77,3.77,0,0,1-4-3.84Zm6.22,0a2.23,2.23,0,1,0-2.23,2.34,2.19,2.19,0,0,0,2.27-2.34Z"/><path d="M414.66,196.81v7.49H413v-1a3.09,3.09,0,0,1-2.41,1.05,3,3,0,0,1-3.23-3.31v-4.28h1.75v4c0,1.36.65,2,1.76,2a2,2,0,0,0,2-2.26v-3.79Z"/><path d="M424.34,200v4.29h-1.76v-4.07c0-1.33-.66-2-1.78-2a2,2,0,0,0-2.09,2.25v3.79H417v-7.49h1.67v1a3.23,3.23,0,0,1,2.58-1.05,2.93,2.93,0,0,1,3.09,3.28Z"/><path d="M431.07,203.89a2.73,2.73,0,0,1-1.68.51,2.31,2.31,0,0,1-2.59-2.53v-3.6h-1.23v-1.4h1.23v-1.71h1.76v1.71h2v1.4h-2v3.56c0,.73.36,1.12,1,1.12a1.54,1.54,0,0,0,1-.31Z"/><path class="f" d="M458.62,218.23c0,.14-58.8.26-131.32.26s-131.3-.12-131.3-.26,58.76-.23,131.3-.23S458.62,218.08,458.62,218.23Z"/><path class="f" d="M401.53,231.74a1.589,1.589,0,0,1-.38,0h-1.12l-4.33.05-15.91.08L327.3,232l-52.5-.08-15.91-.08-4.33-.05h-1.12a1.591,1.591,0,0,1-.38,0,1.88,1.88,0,0,1,.38,0h1.12l4.33-.05,15.91-.09,52.5-.07,52.49.07,15.91.09,4.33.05h1.12A1.879,1.879,0,0,1,401.53,231.74Z"/><rect class="a" width="26.93" height="36.24" rx="6.34" transform="translate(241.35 243.59)"/><rect class="a" width="26.93" height="36.24" rx="6.34" transform="translate(277.59 243.59)"/><rect class="a" width="26.93" height="36.24" rx="6.34" transform="translate(313.83 243.59)"/><rect class="a" width="26.93" height="36.24" rx="6.34" transform="translate(350.07 243.59)"/><rect class="a" width="26.93" height="36.24" rx="6.34" transform="translate(386.31 243.59)"/><path d="M261.05,267v1H250.3v-.81l6.61-6.57c1.86-1.86,2.22-2.95,2.22-4.14,0-2-1.37-3.19-4-3.19a5.55,5.55,0,0,0-4.49,1.81l-.81-.72a6.91,6.91,0,0,1,5.39-2.14c3.06,0,5,1.58,5,4.13,0,1.5-.49,2.82-2.55,4.85L252,267Z"/><path d="M284.48,260.22c0-4.89,2.53-7.93,6.13-7.93s6.12,3,6.12,7.93-2.52,7.94-6.12,7.94S284.48,265.12,284.48,260.22Zm11.11,0c0-4.36-2-6.88-5-6.88s-5,2.52-5,6.88,2,6.89,5,6.89S295.59,264.58,295.59,260.22Z"/><path d="M333.55,252.4v.8l-6.73,14.85h-1.25l6.66-14.62h-8.78v3h-1.12v-4Z"/><path d="M369.73,263.71h-3.29v4.34h-1.12v-4.34H356.4v-.83l8.5-10.48h1.27l-8.33,10.3h7.51v-3.82h1.09v3.82h3.29Z"/><path class="g" d="M408.94,272.38a74.81,74.81,0,0,1-8.75.26,74.811,74.811,0,0,1-8.75-.26,71.007,71.007,0,0,1,8.75-.27A71.007,71.007,0,0,1,408.94,272.38Z"/><rect class="g" width="103.52" height="33.27" rx="16.15" transform="translate(274.86 299.26)"/><path class="d" d="M307.22,319.16l.48-1.06a4.09,4.09,0,0,0,2.43.81c1.14,0,1.63-.41,1.63-1,0-1.59-4.38-.55-4.38-3.28,0-1.19.95-2.2,3-2.2a4.6,4.6,0,0,1,2.45.66l-.44,1.06a4,4,0,0,0-2-.58c-1.14,0-1.6.44-1.6,1,0,1.56,4.36.54,4.36,3.25,0,1.17-1,2.18-3,2.18a4.73,4.73,0,0,1-2.93-.84Z"/><path class="d" d="M319.76,314.32v5.62h-1.25v-.72a2.28,2.28,0,0,1-1.81.79,2.22,2.22,0,0,1-2.42-2.48v-3.21h1.32v3c0,1,.48,1.5,1.31,1.5a1.48,1.48,0,0,0,1.54-1.69v-2.84Z"/><path class="d" d="M327.44,317.13a2.73,2.73,0,0,1-2.85,2.88,2.31,2.31,0,0,1-1.86-.8v.73h-1.25v-7.8h1.32V315a2.31,2.31,0,0,1,1.79-.75,2.73,2.73,0,0,1,2.85,2.88Zm-1.33,0a1.67,1.67,0,1,0-1.66,1.76,1.63,1.63,0,0,0,1.66-1.76Z"/><path class="d" d="M338.08,316.72v3.22h-1.32v-3.05c0-1-.46-1.48-1.26-1.48a1.519,1.519,0,0,0-1.5,1.68v2.85h-1.31v-3.05c0-1-.47-1.48-1.26-1.48S330,316,330,317.09v2.85h-1.31v-5.62h1.25V315a2.31,2.31,0,0,1,1.84-.78,2.11,2.11,0,0,1,1.89.94,2.64,2.64,0,0,1,2.11-.94,2.16,2.16,0,0,1,2.3,2.5Z"/><path class="d" d="M339.58,312.61a.8.8,0,0,1,.84-.79.79.79,0,0,1,.84.76.81.81,0,0,1-.84.82.8.8,0,0,1-.84-.79Zm.17,1.71h1.32v5.62h-1.32Z"/><path class="d" d="M346.17,319.63a2,2,0,0,1-1.27.38,1.72,1.72,0,0,1-1.93-1.89v-2.7H342v-1.05h1v-1.29h1.31v1.29h1.51v1.05h-1.51v2.67a.73.73,0,0,0,.78.84,1.25,1.25,0,0,0,.74-.23Z"/><rect class="f" width="74.6" height="10.25" transform="translate(56.16 407.41)"/><path class="f" d="M130.88,417.79H56v-10.5h74.85Zm-74.6-.25h74.34v-10H56.28Z"/><path class="f" d="M63.07,414.25l10.74,52.97h39.73l10.38-49.56Z"/><path class="j" d="M63.07,462.21l5.73,7.88h48.29l6.83-7.88Z"/><path class="f" d="M90.65,415.8c-.14,0-.33-24.54-.42-54.81s0-54.81.11-54.81.34,24.54.42,54.81S90.8,415.8,90.65,415.8Z"/><path class="f" d="M107.27,354.39a2.93,2.93,0,0,1-.2.57l-.67,1.59-.48,1.14c-.16.43-.32.9-.5,1.39s-.37,1-.58,1.6-.35,1.19-.55,1.82a74.929,74.929,0,0,0-2.08,9.14,110.324,110.324,0,0,0-1.16,11.42,154.739,154.739,0,0,0,.59,20.86c.24,2.66.48,4.82.66,6.3.08.7.14,1.27.19,1.72a3,3,0,0,1,0,.6,2.279,2.279,0,0,1-.14-.59c-.07-.44-.17-1-.29-1.7-.24-1.48-.54-3.63-.82-6.29a137.788,137.788,0,0,1-.75-20.93,105.642,105.642,0,0,1,1.2-11.47,71.256,71.256,0,0,1,2.21-9.17c.21-.63.38-1.25.59-1.82s.43-1.09.62-1.59l.54-1.39.53-1.13.76-1.55a2.22,2.22,0,0,1,.33-.52Z"/><path class="f" d="M105.36,334.54a3.9,3.9,0,0,1-.24.81l-.77,2.28q-.27.75-.57,1.65t-.6,2c-.44,1.42-1,3-1.39,4.85l-.75,2.83c-.23,1-.46,2-.7,3.11-.52,2.13-.9,4.45-1.38,6.88-.82,4.87-1.55,10.26-2,15.94s-.67,11.13-.74,16.07,0,9.4.25,13.14c.06,1.87.18,3.55.28,5s.18,2.76.27,3.8.14,1.8.18,2.4a4.559,4.559,0,0,1,0,.85,5.312,5.312,0,0,1-.13-.84c-.07-.59-.17-1.39-.28-2.39s-.25-2.32-.37-3.8-.27-3.17-.36-5c-.25-3.74-.35-8.21-.36-13.16s.23-10.41.7-16.11,1.25-11.11,2.1-16c.49-2.43.89-4.75,1.43-6.89.25-1.07.49-2.11.73-3.11l.78-2.83c.48-1.82,1-3.43,1.47-4.84l.65-2c.22-.59.43-1.13.61-1.63q.55-1.41.87-2.25a5,5,0,0,1,.32-.76Z"/><path class="f" d="M85.93,420.14a1.36,1.36,0,0,1,0-.29,3.97,3.97,0,0,0-.07-.84c0-.78-.13-1.87-.22-3.25-.18-2.86-.43-6.94-.75-11.95-.64-10.09-1.58-24-3.28-39.37-.87-7.66-1.87-14.94-2.92-21.54-.55-3.3-1.06-6.43-1.63-9.35s-1.09-5.63-1.61-8.11-1-4.7-1.48-6.65-.85-3.64-1.2-5-.59-2.4-.77-3.17c-.08-.33-.14-.61-.19-.82a1.28,1.28,0,0,1,0-.29.86.86,0,0,1,.1.27c.06.22.14.48.24.82l.87,3.14c.38,1.36.83,3,1.29,5s1,4.17,1.56,6.64,1.13,5.18,1.67,8.11,1.12,6,1.69,9.35c1.07,6.6,2.09,13.89,3,21.56,1.7,15.35,2.58,29.31,3.13,39.4.27,5.05.46,9.14.58,12,0,1.38.09,2.47.12,3.25v.85a.94.94,0,0,1-.13.24Z"/><path class="g" d="M90,318c-.32-3.48-3.83-6.1-7.33-6.13a11.38,11.38,0,0,0-8.88,4.82,27.73,27.73,0,0,0-4.27,9.49c-2.35,8.19-3.64,16.79-2.63,25.25s4.43,16.8,10.51,22.78c1,1,2.26,1.94,3.62,1.65a4.36,4.36,0,0,0,1.98-1.2,56.5,56.5,0,0,0,18.34-43c-.09-3.22-.52-6.57-2.3-9.25s-5.93-5.53-9-4.45"/><path class="g" d="M64,290.13,59.05,299c-.11.21-.26.44-.5.46s-.45-.22-.59-.44q-6.51-10-13-19.95l3-1.7Z"/><g class="p"><path d="M64,290.13,59.05,299c-.11.21-.26.44-.5.46s-.45-.22-.59-.44q-6.51-10-13-19.95l3-1.7Z"/></g><path class="g" d="M90.34,306.18,46,280a1.54,1.54,0,0,1-.29-2.86,30.58,30.58,0,0,1,23.7-9.32,27.07,27.07,0,0,1,21.43,13.33c4.28,7.65,4.42,17.76-.49,25"/><path class="f" d="M52.39,271.66a2.219,2.219,0,0,1,.58-.07c.38,0,.94-.09,1.67-.08a33.646,33.646,0,0,1,6.16.48,35.95,35.95,0,0,1,28.7,26A32.8,32.8,0,0,1,90.6,304c.08.73.05.91.07,1.3a2.24,2.24,0,0,1-.34,1,7.81,7.81,0,0,0,.07-2.24,39.518,39.518,0,0,0-1.26-6,36.23,36.23,0,0,0-28.41-25.71,38.168,38.168,0,0,0-6.09-.65C53.19,271.68,52.39,271.71,52.39,271.66Z"/><path class="f" d="M84.34,288.12a10.577,10.577,0,0,1-2.24,1c-1.41.56-3.39,1.27-5.6,2s-4.23,1.26-5.71,1.62a10.649,10.649,0,0,1-2.41.46,12.158,12.158,0,0,1,2.31-.82l5.65-1.77L82,288.78A12.1,12.1,0,0,1,84.34,288.12Z"/><path class="f" d="M77.36,269.36a31.35,31.35,0,0,1,.25,9.92,30.85,30.85,0,0,1-.26-5A30.281,30.281,0,0,1,77.36,269.36Z"/><path class="f" d="M45.61,279.52a18.881,18.881,0,0,1,3.22-1.14c2-.62,4.82-1.4,8-2.16s6-1.33,8.06-1.69a19.451,19.451,0,0,1,3.38-.46,23.2,23.2,0,0,1-3.31.82c-2,.46-4.89,1.1-8,1.85s-5.93,1.48-8,2A25.006,25.006,0,0,1,45.61,279.52Z"/><path class="g" d="M71.64,310.44c-3.82-2.9-7.85-3.47-12.63-3.28a38.64,38.64,0,0,0-13.83,3.57c-7.48,3.28-14.51,8.1-19,14.94s-6,15.88-2.68,23.32a3.31,3.31,0,0,0,1.5,1.84,3.65,3.65,0,0,0,2.51-.19c8.5-2.78,17.07-5.58,24.89-9.92s14.94-10.39,19.13-18.29a15.74,15.74,0,0,0,2-6.07,7.56,7.56,0,0,0-2-5.92"/><path class="f" d="M71.71,309.54a2.811,2.811,0,0,1-.61.25l-1.78.61-1.29.43c-.47.17-1,.38-1.51.59-1.08.43-2.33.87-3.64,1.51l-2.09.95c-.72.33-1.44.74-2.21,1.13-1.54.76-3.1,1.73-4.76,2.71a82,82,0,0,0-10.07,7.47,82.616,82.616,0,0,0-8.69,9c-1.19,1.53-2.35,2.95-3.29,4.38-.49.71-1,1.38-1.41,2l-1.21,2c-.8,1.22-1.39,2.41-2,3.42-.27.51-.55,1-.77,1.42s-.41.85-.59,1.22c-.35.7-.62,1.26-.84,1.69a3.11,3.11,0,0,1-.32.58,2.82,2.82,0,0,1,.22-.62c.2-.45.44-1,.75-1.73l.55-1.25c.21-.45.47-.93.74-1.45.55-1,1.12-2.23,1.9-3.47l1.19-2c.41-.68.91-1.36,1.38-2.08.94-1.45,2.09-2.89,3.28-4.43a78.3,78.3,0,0,1,8.72-9.13,79.17,79.17,0,0,1,10.16-7.49c1.68-1,3.26-1.93,4.82-2.68.77-.38,1.5-.79,2.24-1.11l2.11-.93c1.33-.62,2.6-1,3.69-1.44.54-.2,1-.39,1.52-.55l1.31-.39,1.82-.51a2.671,2.671,0,0,1,.68-.1Z"/><path class="f" d="M41.91,325.67a86.693,86.693,0,0,1-9.28,3,89.834,89.834,0,0,1-9.42,2.48,89.467,89.467,0,0,1,9.28-3,89.835,89.835,0,0,1,9.42-2.48Z"/><path class="f" d="M41.53,346.15a15.369,15.369,0,0,1-.2-2.89c0-1.79-.06-4.26,0-7s.22-5.19.37-7a15.53,15.53,0,0,1,.36-2.88,15.159,15.159,0,0,1,0,2.9c-.06,2-.13,4.34-.21,7s-.13,5-.18,7A15.29,15.29,0,0,1,41.53,346.15Z"/><path class="f" d="M59.07,337.21a111.994,111.994,0,0,1-1-11.21c-.39-6.21-.66-11.24-.51-11.25a111.626,111.626,0,0,1,1,11.22C58.95,332.19,59.22,337.2,59.07,337.21Z"/><path class="f" d="M37.24,314.27a15,15,0,0,1,3-.09c1.84,0,4.37.06,7.16.15s5.33.21,7.16.32a17.563,17.563,0,0,1,3,.28,15,15,0,0,1-3,.09c-1.83,0-4.37-.06-7.17-.15s-5.32-.21-7.15-.32A17.213,17.213,0,0,1,37.24,314.27Z"/><path class="f" d="M79.34,375.35a2.49,2.49,0,0,1-.07-.59,16.255,16.255,0,0,0-.07-1.71c-.07-1.48-.09-3.63,0-6.28s.23-5.81.55-9.3.84-7.32,1.56-11.31S82.9,338.41,83.8,335s1.88-6.41,2.77-8.92,1.65-4.52,2.24-5.89c.27-.64.5-1.16.67-1.57a3.48,3.48,0,0,1,.27-.54,2.21,2.21,0,0,1-.17.58L89,320.29c-.52,1.38-1.24,3.41-2.07,5.93s-1.75,5.53-2.65,8.92-1.74,7.14-2.48,11.11-1.22,7.79-1.59,11.27-.57,6.62-.66,9.26-.15,4.79-.15,6.27v1.71A2.439,2.439,0,0,1,79.34,375.35Z"/><path class="f" d="M81.68,346.32a12.49,12.49,0,0,1-1.77,1.94c-1.15,1.14-2.78,2.68-4.64,4.31s-3.59,3-4.88,4a11.922,11.922,0,0,1-2.15,1.5,13,13,0,0,1,1.91-1.79l4.77-4.14L79.65,348a12.891,12.891,0,0,1,2.03-1.68Z"/><path class="f" d="M95.72,357.62A20.273,20.273,0,0,1,93.83,355l-4.38-6.39L85,342.28a20,20,0,0,1-1.79-2.67,18,18,0,0,1,2.1,2.45c1.23,1.56,2.87,3.76,4.61,6.25s3.22,4.8,4.26,6.5A19.831,19.831,0,0,1,95.72,357.62Z"/><path class="f" d="M88.36,322.06c.08.12-4.58,3.26-10.41,7s-10.63,6.69-10.7,6.57,4.58-3.27,10.41-7S88.28,321.94,88.36,322.06Z"/><path class="f" d="M101.51,336.25a86.063,86.063,0,0,1-7.05-6.51,88.927,88.927,0,0,1-6.69-6.9,85.156,85.156,0,0,1,7.06,6.51,89.835,89.835,0,0,1,6.68,6.9Z"/><path class="g" d="M104.82,336l4-.33a19.829,19.829,0,0,0,8.08-2.48,32.368,32.368,0,0,1,3.77-1.89c5-2,10.47-1.63,15.8-1.9a65.36,65.36,0,0,0,25.13-6.43,2.38,2.38,0,0,0,1.09-1c.83-1.5-.7-2.83-2-3.64-6.74-4.16-13.6-8.36-21.25-10.43s-16.33-1.71-22.86,2.78c-7.66,5.27-10.45,16.1-11.74,25.31"/><path class="f" d="M162.78,321.46a3.141,3.141,0,0,1-.67-.32l-1.9-1c-1.65-.87-4-2.14-7-3.58a65.631,65.631,0,0,0-10.85-4.18,35.791,35.791,0,0,0-14.06-1.14,24,24,0,0,0-12.81,5.51,28.55,28.55,0,0,0-6.68,9.37c-1.4,3-2.27,5.55-2.9,7.3-.3.84-.53,1.51-.71,2a4.881,4.881,0,0,1-.28.69,3.78,3.78,0,0,1,.17-.73c.16-.51.37-1.2.62-2.05a67.475,67.475,0,0,1,2.76-7.39,28.33,28.33,0,0,1,6.69-9.58,24.34,24.34,0,0,1,13.07-5.67,35.78,35.78,0,0,1,14.26,1.2,63.824,63.824,0,0,1,10.88,4.31c3,1.49,5.33,2.82,6.95,3.74l1.85,1.08A3.1,3.1,0,0,1,162.78,321.46Z"/><path class="f" d="M153.17,326.62c-.08.13-5.32-3.26-11.69-7.56s-11.48-7.88-11.4-8,5.32,3.26,11.7,7.56S153.25,326.5,153.17,326.62Z"/><path class="f" d="M147.59,310.78a12.82,12.82,0,0,1-3.82.69,13,13,0,0,1-3.88-.06,26.745,26.745,0,0,1,3.84-.39,26.059,26.059,0,0,1,3.86-.24Z"/><path class="f" d="M124.67,307.79a10.63,10.63,0,0,1-1.72,2.69,11.2,11.2,0,0,1-2.18,2.47,10.491,10.491,0,0,1,1.72-2.68A11.7,11.7,0,0,1,124.67,307.79Z"/><path class="f" d="M129.36,329.71a13.65,13.65,0,0,1-2.52-1.37c-1.51-.92-3.56-2.26-5.74-3.85s-4.11-3.08-5.49-4.18a15.773,15.773,0,0,1-2.18-1.86,14.6,14.6,0,0,1,2.4,1.56l5.58,4.05c2.18,1.58,4.18,3,5.63,4a16.072,16.072,0,0,1,2.32,1.65Z"/><path class="g" d="M110.71,353c-3.82-1-8.37,2.71-9.16,6.58s.67,7.83,2.37,11.39a58.1,58.1,0,0,0,15.79,20.66c6.83,5.45,15.4,8.93,24.14,8.89-1.61-7.5.43-15.33-.47-22.95a29.86,29.86,0,0,0-26.44-26.17c-2.44-.26-5.26-.65-6.23,1.6"/><path class="f" d="M143.85,400.49a2.121,2.121,0,0,1-.54-.25,10.088,10.088,0,0,1-1.43-1,15,15,0,0,1-3.77-5c-.61-1.19-1.29-2.47-2-3.89s-1.33-3-2.05-4.54a46.063,46.063,0,0,0-2.52-4.86,37.627,37.627,0,0,0-3.48-4.72c-2.61-3.07-5.42-5.73-7.85-8.26a53.851,53.851,0,0,1-6-7.19,26.782,26.782,0,0,1-2.93-5.58c-.24-.71-.42-1.26-.51-1.64a2.131,2.131,0,0,1-.12-.59c.05,0,.27.78.82,2.15a28.6,28.6,0,0,0,3,5.45,57.069,57.069,0,0,0,6,7.06c2.44,2.51,5.27,5.15,7.91,8.26a37.81,37.81,0,0,1,3.51,4.79,42.722,42.722,0,0,1,2.53,4.93l2,4.55c.64,1.42,1.31,2.72,1.89,3.9a15.54,15.54,0,0,0,3.57,5.06C143.13,400.08,143.88,400.44,143.85,400.49Z"/><path class="f" d="M124.11,394.26a11.35,11.35,0,0,1,.35-2.57c.29-1.57.78-3.73,1.45-6.08s1.37-4.45,1.93-5.95a11.452,11.452,0,0,1,1-2.38,14.329,14.329,0,0,1-.69,2.5c-.47,1.52-1.12,3.63-1.78,6s-1.21,4.47-1.6,6a14.709,14.709,0,0,1-.66,2.48Z"/><path class="f" d="M143.13,375.86a16,16,0,0,1-2.69-.62c-1.65-.43-3.92-1-6.45-1.59s-4.83-1-6.5-1.33a16.208,16.208,0,0,1-2.7-.59,13,13,0,0,1,2.76.22c1.69.22,4,.61,6.56,1.18s4.81,1.22,6.43,1.75A12.7,12.7,0,0,1,143.13,375.86Z"/><path class="f" d="M109.94,381.2a14.89,14.89,0,0,1,.41-3c.34-1.82.87-4.33,1.58-7.07s1.48-5.18,2.08-6.94a14.44,14.44,0,0,1,1.09-2.79,18.53,18.53,0,0,1-.74,2.9c-.5,1.78-1.2,4.24-1.91,7s-1.3,5.21-1.73,7a19,19,0,0,1-.78,2.9Z"/><path class="f" d="M134.37,359.82c0,.14-4.79-.24-10.65-.86s-10.6-1.25-10.59-1.39a106.417,106.417,0,0,1,10.65.86,106,106,0,0,1,10.59,1.39Z"/><path class="j" d="M130.87,417.62c0,.15-16.75.27-37.42.27S56,417.77,56,417.62s16.75-.26,37.42-.26S130.87,417.47,130.87,417.62Z"/><path class="j" d="M119.22,439.18c0,.15-11.29.27-25.21.27s-25.22-.12-25.22-.27,11.29-.26,25.22-.26S119.22,439,119.22,439.18Z"/><path class="j" d="M118.78,442.27c0,.14-11.09.26-24.77.26s-24.78-.12-24.78-.26S80.32,442,94,442,118.78,442.12,118.78,442.27Z"/><path class="j" d="M119.66,436.64c0,.15-11.68.27-26.08.27s-26.08-.12-26.08-.27,11.67-.26,26.08-.26S119.66,436.49,119.66,436.64Z"/><path class="d" d="M616.89,159l5.85-12.72a32.62,32.62,0,1,1,8.52,8h0Z"/><path class="f" d="M616.89,159l14.34-4.83-.05.21h0l-.69-.74.85.54a32.37,32.37,0,0,0,16,5.11,28.53,28.53,0,0,0,5.11-.19c.87-.13,1.75-.23,2.64-.38l2.68-.65a32.51,32.51,0,0,0,18.92-14.61,32.13,32.13,0,0,0,4.34-12.84,32.709,32.709,0,0,0-1.6-14.21,31.68,31.68,0,0,0-8-12.58A32.25,32.25,0,0,0,658.39,96a32.75,32.75,0,0,0-14.54-1A31.71,31.71,0,0,0,631,100a32.65,32.65,0,0,0-13.68,20,34.719,34.719,0,0,0-.55,10.56,32.43,32.43,0,0,0,6.07,15.6v.12c-3.77,8-5.59,11.87-6,12.67.36-.8,2.1-4.69,5.74-12.77v.12a32.34,32.34,0,0,1-6.23-15.7,35.21,35.21,0,0,1,.51-10.69,33,33,0,0,1,13.81-20.3,32.189,32.189,0,0,1,13-5.1,33.3,33.3,0,0,1,14.76,1,32.76,32.76,0,0,1,13.29,7.89,32.15,32.15,0,0,1,8.11,12.78,33.27,33.27,0,0,1,1.61,14.43,32.9,32.9,0,0,1-23.65,27.76l-2.71.65c-.9.15-1.8.25-2.68.38a30.121,30.121,0,0,1-5.17.17,32.51,32.51,0,0,1-16.15-5.26l.17-.2h0l.13.15-.19.06Z"/><path class="f" d="M659.29,128a8.64,8.64,0,1,0-13.4-2l-1.75,1.64.41,2.91-2.72-.76-2.2,2.05.42,2.92-2.72-.77-1.89,1.76.25,1.78L634,137l-1.1,1-.16,2.7,4,1,13.07-12.19a8.64,8.64,0,0,0,9.48-1.51ZM658,117.36a2.48,2.48,0,1,1-3.5-.12,2.48,2.48,0,0,1,3.5.12Z"/><path class="q" d="M659.29,128a8.64,8.64,0,1,0-13.4-2l-1.75,1.64.41,2.91-2.72-.76-2.2,2.05.42,2.92-2.72-.77-1.89,1.76.25,1.78L634,137l-1.1,1-.16,2.7,4,1,13.07-12.19a8.64,8.64,0,0,0,9.48-1.51ZM658,117.36a2.48,2.48,0,1,1-3.5-.12,2.48,2.48,0,0,1,3.5.12Z"/><path class="f" d="M658,117.36a3.211,3.211,0,0,0-.49-.35,2.47,2.47,0,0,0-1.56-.34,2.34,2.34,0,1,0,2.37,1.21c-.18-.35-.34-.5-.32-.52s0,0,.12.11a1.681,1.681,0,0,1,.27.37,2.42,2.42,0,0,1,.31,1.64,2.56,2.56,0,0,1-5.07-.13,2.45,2.45,0,0,1,.27-1.47,2.57,2.57,0,0,1,2-1.37,2.44,2.44,0,0,1,1.62.43,1.64,1.64,0,0,1,.35.3C658,117.31,658,117.36,658,117.36Z"/><path class="f" d="M659.29,128l-.13.12-.38.34a8.909,8.909,0,0,1-1.67,1.06,8.751,8.751,0,0,1-3.07.82,8.64,8.64,0,0,1-4.2-.72h.07l-13,12.22h-.05l-4-1h-.08v-.08c.05-.85.1-1.77.16-2.71h0l1.1-1h.06l1.66.46-.13.12-.26-1.78v-.06h0l1.89-1.77h.05l2.73.76-.14.12c-.13-.92-.27-1.92-.42-2.91v-.06h0l.58-.54,1.62-1.51h.06l2.72.76-.13.12c-.14-1-.28-2-.42-2.92h0l1.76-1.64v.13a8.8,8.8,0,0,1-1.12-3.93,8.347,8.347,0,0,1,.14-2,8,8,0,0,1,.58-1.87,8.72,8.72,0,0,1,15.8-.37,8.85,8.85,0,0,1,.85,4.54,8.64,8.64,0,0,1-1,3.32l-.16.31-.18.27a5.2,5.2,0,0,1-.33.49c-.23.28-.41.53-.58.71s-.31.3-.4.4l-.14.13.12-.15.39-.41c.17-.18.34-.43.57-.71a3.445,3.445,0,0,0,.32-.49l.17-.28.15-.3a8.44,8.44,0,0,0,.93-3.3,8.549,8.549,0,0,0-16.36-4.08,8.092,8.092,0,0,0-.56,1.83,8.459,8.459,0,0,0-.14,2,8.66,8.66,0,0,0,1.1,3.84v.07L646,126l-1.75,1.64v-.1c.14,1,.28,1.94.42,2.92v.16h-.15l-2.73-.77h.1l-1.61,1.51-.59.54v-.1c.14,1,.28,2,.42,2.92v.16h-.16L637.3,134h.1l-1.89,1.76v-.09c.09.61.18,1.22.26,1.78v.16l-.16-.05L634,137.1h.1l-1.1,1v-.07c0,.93-.11,1.86-.16,2.7l-.08-.11,4,1h-.09l13.09-12.16h0a8.66,8.66,0,0,0,4.15.74,8.51,8.51,0,0,0,3-.79,9.511,9.511,0,0,0,1.68-1l.39-.33Z"/><path class="g" d="M659,127a8.64,8.64,0,1,0-13.4-2h0l-1.75,1.64.42,2.91-2.73-.76-2.2,2,.42,2.92-2.72-.77-1.89,1.76.25,1.78-1.66-.46-1.1,1-.16,2.7,4,1,13.07-12.2A8.64,8.64,0,0,0,659,127Zm-1.28-10.62a2.48,2.48,0,1,1-3.5-.12A2.48,2.48,0,0,1,657.72,116.38Z"/><path class="q" d="M659,127a8.64,8.64,0,1,0-13.4-2h0l-1.75,1.64.42,2.91-2.73-.76-2.2,2,.42,2.92-2.72-.77-1.89,1.76.25,1.78-1.66-.46-1.1,1-.16,2.7,4,1,13.07-12.2A8.64,8.64,0,0,0,659,127Zm-1.28-10.62a2.48,2.48,0,1,1-3.5-.12A2.48,2.48,0,0,1,657.72,116.38Z"/><path class="f" d="M657.72,116.38a3.211,3.211,0,0,0-.49-.35,2.45,2.45,0,0,0-1.56-.34,2.38,2.38,0,1,0,1.17,4.57,2.44,2.44,0,0,0,1.2-3.36c-.18-.35-.34-.5-.32-.52s0,0,.12.11a1.681,1.681,0,0,1,.27.37,2.37,2.37,0,0,1,.31,1.64,2.56,2.56,0,0,1-5.07-.13,2.45,2.45,0,0,1,.27-1.47,2.57,2.57,0,0,1,2-1.37,2.42,2.42,0,0,1,1.61.43,1.638,1.638,0,0,1,.35.3C657.69,116.33,657.73,116.38,657.72,116.38Z"/><path class="f" d="M659,127l-.13.12-.38.34a8.911,8.911,0,0,1-1.67,1.06,8.75,8.75,0,0,1-3.07.82,8.64,8.64,0,0,1-4.2-.72h.07l-13,12.22h0l-4-1h-.08v-.08c0-.85.1-1.77.16-2.71h0l1.1-1h.06l1.66.46-.13.12-.26-1.78v-.06h0l1.89-1.77h0l2.73.76-.13.12c-.14-.92-.28-1.92-.42-2.91v-.06h0l.58-.54,1.62-1.51h.06l2.72.76-.13.12c-.14-1-.28-2-.42-2.92h0l1.76-1.64v.13a8.8,8.8,0,0,1-1.12-3.93,8.353,8.353,0,0,1,.14-2,8,8,0,0,1,.58-1.87,8.7,8.7,0,0,1,16.65,4.17,8.47,8.47,0,0,1-1,3.32l-.16.31-.18.27a5.205,5.205,0,0,1-.33.49c-.23.28-.41.53-.58.71l-.4.4.01-.2.12-.15.39-.41c.17-.18.34-.43.57-.71a3.445,3.445,0,0,0,.32-.49l.17-.28.15-.3a8.44,8.44,0,0,0,.93-3.3,8.55,8.55,0,0,0-16.36-4.08,8.091,8.091,0,0,0-.56,1.83,8.459,8.459,0,0,0-.14,2,8.8,8.8,0,0,0,1.1,3.84v.07l-.06.06-1.75,1.64v-.1c.14,1,.28,1.94.42,2.92v.16h-.16l-2.73-.77h.1l-1.51,1.4-.58.54v-.1c.14,1,.29,2,.42,2.92v.16h-.16L637,133h.1l-1.89,1.76v-.09c.09.61.18,1.22.26,1.78v.16h-.16l-1.66-.46h.1l-1.1,1v-.07c0,.93-.11,1.86-.16,2.7l-.08-.11,4,1h-.09l13.09-12.16h0a8.66,8.66,0,0,0,4.15.74,8.51,8.51,0,0,0,3-.79,9.51,9.51,0,0,0,1.68-1l.39-.33Z"/><path class="f" d="M658.2,126.32a9.8,9.8,0,0,0,1.16-1.46,7.127,7.127,0,0,0,.89-2,7.531,7.531,0,0,0-.89-6.12,7.65,7.65,0,0,0-2.93-2.66,7.329,7.329,0,0,0-2-.69,8.189,8.189,0,0,0-1.11-.12,8.7,8.7,0,0,0-1.14,0,7.48,7.48,0,0,0-6.48,6,8.487,8.487,0,0,0-.13,1.13,10.2,10.2,0,0,0,.05,1.11,6.871,6.871,0,0,0,.55,2.08,7.42,7.42,0,0,0,2.44,3.11,7.549,7.549,0,0,0,3.18,1.37,7.8,7.8,0,0,0,2.87-.05,7.229,7.229,0,0,0,2-.75,10.451,10.451,0,0,0,1.53-1.06l-.08.09-.27.24a3.511,3.511,0,0,1-.47.37,6.053,6.053,0,0,1-.67.43,7.14,7.14,0,0,1-2.06.8,7.66,7.66,0,0,1-8.71-4.47,7.181,7.181,0,0,1-.56-2.14,8.624,8.624,0,0,1-.06-1.14,7.5,7.5,0,0,1,.14-1.16,7.7,7.7,0,0,1,2.3-4.21,7.79,7.79,0,0,1,4.36-2,9.161,9.161,0,0,1,1.17-.05,8.5,8.5,0,0,1,1.13.13,7.35,7.35,0,0,1,2.1.72,7.63,7.63,0,0,1,4.13,6.08,7.51,7.51,0,0,1-1.22,4.91,4.434,4.434,0,0,1-.48.64,3.738,3.738,0,0,1-.39.44l-.26.25C658.24,126.3,658.21,126.33,658.2,126.32Z"/><path class="f" d="M657.85,120.2a4.5,4.5,0,0,0,.43-.57,3,3,0,0,0,.4-1.84,2.721,2.721,0,0,0-.43-1.22,2.86,2.86,0,0,0-1.1-1,2.8,2.8,0,0,0-4,2,2.83,2.83,0,0,0,1.08,2.78,2.67,2.67,0,0,0,1.19.52,2.89,2.89,0,0,0,1.85-.28,6.506,6.506,0,0,0,.6-.38l-.12.13a2.091,2.091,0,0,1-.44.32,2.86,2.86,0,0,1-1.92.36,2.94,2.94,0,0,1-2.26-1.76,3,3,0,0,1-.19-1.73,3.07,3.07,0,0,1,.9-1.65,3,3,0,0,1,3.42-.47,3.17,3.17,0,0,1,1.16,1.07,2.85,2.85,0,0,1-.4,3.61Z"/><path class="f" d="M635.45,140.28c0-.05,2.9-2.86,6.57-6.28s6.68-6.17,6.72-6.12-2.9,2.85-6.57,6.28S635.49,140.32,635.45,140.28Z"/><path class="g" d="M637.07,123.17l.12-.27.16.24a1.26,1.26,0,0,0,.52.45l.27.12-.24.16a1.26,1.26,0,0,0-.45.52l-.12.27-.16-.25a1.231,1.231,0,0,0-.52-.44l-.27-.12.25-.16a1.229,1.229,0,0,0,.44-.52Z"/><path class="g" d="M629.07,121.17l.07-.15.09.14a.791.791,0,0,0,.31.26l.15.07-.14.09a.63.63,0,0,0-.26.3l-.07.16-.09-.14a.65.65,0,0,0-.31-.26l-.15-.07.14-.09a.79.79,0,0,0,.26-.31Z"/><path class="g" d="M654.27,134.81l.07-.15.09.14a.76.76,0,0,0,.3.26l.16.07-.14.09a.63.63,0,0,0-.26.3l-.07.16-.1-.15a.67.67,0,0,0-.3-.25l-.15-.07.14-.1A.759.759,0,0,0,654.27,134.81Z"/><path class="g" d="M666.6,127.82l.12-.27.16.24a1.16,1.16,0,0,0,.53.45l.26.12-.24.16a1.26,1.26,0,0,0-.45.52l-.12.27-.16-.24a1.2,1.2,0,0,0-.52-.45l-.27-.12.25-.16a1.229,1.229,0,0,0,.44-.52Z"/><path class="g" d="M665,118l.2-.45.27.41a2,2,0,0,0,.88.75l.44.2-.41.27a2.07,2.07,0,0,0-.75.88l-.2.45-.27-.41a2,2,0,0,0-.87-.75l-.45-.2.41-.27A2,2,0,0,0,665,118Z"/><path class="g" d="M634.58,115l.21-.45.26.41a2.07,2.07,0,0,0,.88.75l.45.2-.41.27a2.07,2.07,0,0,0-.75.88l-.2.45-.27-.41a2,2,0,0,0-.88-.75l-.44-.2.41-.27a2.11,2.11,0,0,0,.74-.88Z"/><path class="r" d="M2953-1805v-177h246v62.065h-82.257v56.7h-81.488V-1805Z" transform="translate(-2972.295 1835.979)"/><path class="r" d="M0,200V0H277V70.13H184.378V134.2H92.622V200Z" transform="translate(758.705 712.681) rotate(180)"/><path class="r" d="M-17.3-2482.754l-33.531-37.622H-49.2L-82.728-2558H48.945l-33.531,37.621h.817L-17.3-2482.754H49.762l-33.531-37.621H82.476L48.945-2558h67.063l-33.531,37.62h.818l-33.532,37.621-33.531,37.621Zm-31.9-37.622h64.61l-32.306-36.245Z" transform="translate(635.625 2411.301)"/></g></svg>