<svg xmlns="http://www.w3.org/2000/svg" width="38.993" height="38.993" viewBox="0 0 38.993 38.993"><defs><style>.a{fill:rgba(203,203,203,0.13);}.b{fill:#006069;}</style></defs><g transform="translate(-1379.004 -160.004)"><path class="a" d="M19.5,0A19.5,19.5,0,1,1,0,19.5,19.5,19.5,0,0,1,19.5,0Z" transform="translate(1379.004 160.004)"/><g transform="translate(1390.34 172.189)"><g transform="translate(11.826 0.488)"><path class="b" d="M20.475,7.345a.651.651,0,0,1-.651-.651,6.791,6.791,0,0,0-2-4.833.651.651,0,0,1,.92-.92,8.083,8.083,0,0,1,2.383,5.753.651.651,0,0,1-.651.651Z" transform="translate(-17.632 -0.75)"/></g><g transform="translate(1 0.488)"><path class="b" d="M1.651,7.345A.651.651,0,0,1,1,6.694,8.083,8.083,0,0,1,3.383.941a.651.651,0,0,1,.92.92,6.79,6.79,0,0,0-2,4.833.651.651,0,0,1-.651.651Z" transform="translate(-1 -0.75)"/></g><g transform="translate(1.651 0)"><path class="b" d="M14.614,11.009a4.36,4.36,0,0,1-1.548-3.336V5.858a4.56,4.56,0,0,0-3.905-4.5v-.7a.651.651,0,0,0-1.3,0v.7a4.559,4.559,0,0,0-3.905,4.5V7.673A4.364,4.364,0,0,1,2.4,11.014a1.139,1.139,0,0,0,.741,2h10.74a1.139,1.139,0,0,0,.735-2.009Z" transform="translate(-2 0)"/><path class="b" d="M10.717,22.953A2.445,2.445,0,0,0,13.109,21H8.326A2.445,2.445,0,0,0,10.717,22.953Z" transform="translate(-4.208 -7.331)"/></g></g></g></svg>