<svg xmlns="http://www.w3.org/2000/svg" width="24" height="24" viewBox="0 0 24 24"><defs><style>.a,.b{fill:none;}.b{stroke:#272727;stroke-linecap:round;stroke-linejoin:round;stroke-width:2px;}</style></defs><g transform="translate(0 -9.44)"><g transform="translate(0 9.44)"><path class="a" d="M0,0H24V24H0Z"/><g transform="translate(4 3)"><path class="b" d="M15,17h5l-1.405-1.4A2.032,2.032,0,0,1,18,14.158V11a6,6,0,0,0-4-5.659V5a2,2,0,0,0-4,0v.341A6,6,0,0,0,6,11v3.159A2.032,2.032,0,0,1,5.4,15.6L4,17H9m6,0v1a3,3,0,0,1-6,0V17m6,0H9" transform="translate(-4 -3)"/></g></g></g></svg>