<svg id="bold" xmlns="http://www.w3.org/2000/svg" width="17.539" height="22.7" viewBox="0 0 17.539 22.7">
  <path id="Path_61537" data-name="Path 61537" d="M20.618,22.7V0h7.8a11.879,11.879,0,0,1,6.595,1.567,5.23,5.23,0,0,1,2.37,4.669,5.461,5.461,0,0,1-.764,2.884,4.676,4.676,0,0,1-2.354,1.9,4.674,4.674,0,0,1,2.947,1.816,5.36,5.36,0,0,1,.951,3.142A5.92,5.92,0,0,1,35.928,21a10.379,10.379,0,0,1-6.392,1.7ZM25.9,9.463h2.619A4.61,4.61,0,0,0,31.2,8.77a2.27,2.27,0,0,0,.889-1.941,2.444,2.444,0,0,0-.9-2.112,4.71,4.71,0,0,0-2.775-.663H25.9Zm0,3.492v5.69h3.632a4.038,4.038,0,0,0,2.526-.663,2.43,2.43,0,0,0,.842-2.034,3.115,3.115,0,0,0-.725-2.237,3.135,3.135,0,0,0-2.346-.756Z" transform="translate(-20.618 0)" fill="#262627"/>
</svg>
