<svg xmlns="http://www.w3.org/2000/svg" width="20.318" height="20.318" viewBox="0 0 20.318 20.318"><defs><style>.a{fill:none;stroke:#ff9d6c;stroke-linecap:round;stroke-linejoin:round;stroke-width:1.5px;}</style></defs><g transform="translate(-0.25 -0.25)"><circle class="a" cx="2.566" cy="2.566" r="2.566" transform="translate(7.843 7.843)"/><path class="a" d="M16.739,12.975a1.411,1.411,0,0,0,.282,1.557l.051.051A1.712,1.712,0,1,1,14.652,17l-.051-.051a1.423,1.423,0,0,0-2.412,1.009v.145a1.711,1.711,0,1,1-3.422,0v-.077a1.411,1.411,0,0,0-.924-1.292,1.411,1.411,0,0,0-1.557.282l-.051.051a1.712,1.712,0,1,1-2.421-2.421l.051-.051a1.423,1.423,0,0,0-1.009-2.412H2.711a1.711,1.711,0,0,1,0-3.422h.077a1.411,1.411,0,0,0,1.292-.924A1.411,1.411,0,0,0,3.8,6.286l-.051-.051A1.712,1.712,0,1,1,6.166,3.814l.051.051a1.411,1.411,0,0,0,1.557.282h.068A1.411,1.411,0,0,0,8.7,2.856V2.711a1.711,1.711,0,1,1,3.422,0v.077A1.423,1.423,0,0,0,14.532,3.8l.051-.051A1.712,1.712,0,1,1,17,6.166l-.051.051a1.411,1.411,0,0,0-.282,1.557v.068a1.411,1.411,0,0,0,1.292.855h.145a1.711,1.711,0,1,1,0,3.422h-.077A1.411,1.411,0,0,0,16.739,12.975Z" transform="translate(0 0)"/></g></svg>