<svg xmlns="http://www.w3.org/2000/svg" width="24" height="24" viewBox="0 0 24 24"><defs><style>.a,.b{fill:none;}.b{stroke:#fff;stroke-linecap:round;stroke-linejoin:round;stroke-width:1.5px;}</style></defs><path class="a" d="M0,0H24V24H0Z"/><circle class="b" cx="3" cy="3" r="3" transform="translate(9 10)"/><path class="b" d="M5,7H7A2,2,0,0,0,9,5a1,1,0,0,1,1-1h2m9,7v7a2,2,0,0,1-2,2H5a2,2,0,0,1-2-2V9A2,2,0,0,1,5,7"/><line class="b" x2="6" transform="translate(15 6)"/><line class="b" y2="6" transform="translate(18 3)"/></svg>