<svg xmlns="http://www.w3.org/2000/svg" width="24.652" height="32.364" viewBox="0 0 24.652 32.364">
  <g id="google-docs_1_" data-name="google-docs (1)" transform="translate(0 0)">
    <path id="Subtraction_25" data-name="Subtraction 25" d="M21.808,32.364H2.844A2.847,2.847,0,0,1,0,29.52V2.845A2.848,2.848,0,0,1,2.844,0H15.171V6.637a2.848,2.848,0,0,0,2.844,2.845h6.637V29.52A2.847,2.847,0,0,1,21.808,32.364ZM12.765,11.994a.4.4,0,0,0-.083.009L5.7,13.312a.437.437,0,0,0-.356.43v9.6a.434.434,0,0,0,.356.429l6.985,1.31a.4.4,0,0,0,.08.007.437.437,0,0,0,.437-.436v-1.31h5.675a.437.437,0,0,0,.437-.436V14.178a.437.437,0,0,0-.437-.436H13.2v-1.31a.439.439,0,0,0-.434-.437Zm5.673,10.478H13.2V21.6h1.309a.437.437,0,1,0,0-.873H13.2v-.873h1.309a.437.437,0,1,0,0-.873H13.2v-.873h1.309a.437.437,0,1,0,0-.873H13.2V16.36h1.309a.437.437,0,1,0,0-.873H13.2v-.872h5.239v7.856Zm-2.183-1.746a.437.437,0,0,0,0,.873h.873a.437.437,0,1,0,0-.873Zm0-1.746a.437.437,0,0,0,0,.873h.873a.437.437,0,1,0,0-.873Zm0-1.746a.437.437,0,0,0,0,.873h.873a.437.437,0,1,0,0-.873Zm0-1.746a.437.437,0,0,0,0,.873h.873a.437.437,0,1,0,0-.873Zm-5.239,5.239a.437.437,0,0,1-.328-.149l-1.27-1.45L8.305,20.56a.438.438,0,0,1-.69-.538l1.217-1.565-1.2-1.372a.437.437,0,0,1,.328-.724.438.438,0,0,1,.329.149l1.09,1.245,1.293-1.662a.436.436,0,1,1,.688.537l-1.4,1.8L11.345,20a.437.437,0,0,1-.329.724Z" transform="translate(0 0)" fill="#5dc792"/>
    <path id="Path_56815" data-name="Path 56815" d="M331.948,15.819h6.082L331,8.789v6.082A.949.949,0,0,0,331.948,15.819Z" transform="translate(-314.007 -8.233)" fill="#5dc792"/>
  </g>
</svg>
