<svg xmlns="http://www.w3.org/2000/svg" width="52.318" height="68.68" viewBox="0 0 52.318 68.68"><defs><style>.a{fill:#5dc792;}</style></defs><g transform="translate(-61.158 0)"><path class="a" d="M-22804.562-327.979h-40.24a6.043,6.043,0,0,1-6.039-6.033v-56.608a6.046,6.046,0,0,1,6.039-6.039h26.156v14.085a6.042,6.042,0,0,0,6.033,6.039h14.09v42.524A6.043,6.043,0,0,1-22804.562-327.979Zm-19.186-43.225a.885.885,0,0,0-.18.019l-14.824,2.776a.934.934,0,0,0-.758.912v20.382a.925.925,0,0,0,.758.912l14.824,2.781a.85.85,0,0,0,.172.017.93.93,0,0,0,.59-.218.919.919,0,0,0,.334-.711v-2.781h12.049a.923.923,0,0,0,.922-.923v-18.529a.926.926,0,0,0-.922-.929h-12.049v-2.781a.924.924,0,0,0-.334-.711A.907.907,0,0,0-22823.748-371.2Zm12.035,22.236h-11.119v-1.852h2.781a.929.929,0,0,0,.928-.929.926.926,0,0,0-.928-.923h-2.781v-1.852h2.781a.929.929,0,0,0,.928-.929.926.926,0,0,0-.928-.923h-2.781v-1.852h2.781a.929.929,0,0,0,.928-.929.929.929,0,0,0-.928-.929h-2.781v-1.852h2.781a.926.926,0,0,0,.928-.923.929.929,0,0,0-.928-.929h-2.781v-1.852h11.119v16.676Zm-4.635-3.7a.923.923,0,0,0-.922.923.926.926,0,0,0,.922.929h1.854a.93.93,0,0,0,.93-.929.927.927,0,0,0-.93-.923Zm0-3.7a.923.923,0,0,0-.922.923.926.926,0,0,0,.922.929h1.854a.93.93,0,0,0,.93-.929.927.927,0,0,0-.93-.923Zm0-3.71a.926.926,0,0,0-.922.929.926.926,0,0,0,.922.929h1.854a.93.93,0,0,0,.93-.929.93.93,0,0,0-.93-.929Zm0-3.7a.926.926,0,0,0-.922.929.923.923,0,0,0,.922.923h1.854a.927.927,0,0,0,.93-.923.93.93,0,0,0-.93-.929Zm-11.113,11.12a.94.94,0,0,1-.7-.315l-2.7-3.08-2.363,3.039a.93.93,0,0,1-.729.356.93.93,0,0,1-.572-.195.933.933,0,0,1-.162-1.3l2.582-3.32-2.547-2.913a.923.923,0,0,1-.229-.671.917.917,0,0,1,.314-.637.935.935,0,0,1,.609-.227.941.941,0,0,1,.7.319l2.313,2.638,2.74-3.527a.933.933,0,0,1,.734-.356.917.917,0,0,1,.568.2.931.931,0,0,1,.16,1.3l-2.965,3.808,2.93,3.349a.921.921,0,0,1,.23.667.933.933,0,0,1-.316.641A.924.924,0,0,1-22827.461-352.673Z" transform="translate(22912 396.659)"/><path class="a" d="M333.012,23.707h12.906L331,8.789V21.7A2.014,2.014,0,0,0,333.012,23.707Z" transform="translate(-233.781 -7.61)"/></g></svg>