<svg id="Group_20621" data-name="Group 20621" xmlns="http://www.w3.org/2000/svg" width="24" height="24" viewBox="0 0 24 24">
  <path id="Path_61975" data-name="Path 61975" d="M0,0H24V24H0Z" fill="none"/>
  <path id="Path_61976" data-name="Path 61976" d="M17,17h2a2,2,0,0,0,2-2V11a2,2,0,0,0-2-2H5a2,2,0,0,0-2,2v4a2,2,0,0,0,2,2H7" fill="none" stroke="#c8beb3" stroke-linecap="round" stroke-linejoin="round" stroke-width="2"/>
  <path id="Path_61977" data-name="Path 61977" d="M17,9V5a2,2,0,0,0-2-2H9A2,2,0,0,0,7,5V9" fill="none" stroke="#c8beb3" stroke-linecap="round" stroke-linejoin="round" stroke-width="2"/>
  <rect id="Rectangle_8189" data-name="Rectangle 8189" width="10" height="8" rx="2" transform="translate(6.894 13)" fill="none" stroke="#c8beb3" stroke-linecap="round" stroke-linejoin="round" stroke-width="2"/>
</svg>
