<svg xmlns="http://www.w3.org/2000/svg" width="75.275" height="61.649" viewBox="0 0 75.275 61.649"><defs><style>.a{fill:#ff9d6c;}.b{fill:#ffbb98;}</style></defs><path class="a" d="M21.392,51.514v-.732a4.441,4.441,0,0,0-4.441-4.441H4.441A4.441,4.441,0,0,0,0,50.782v54.987a2.22,2.22,0,0,0,2.22,2.22H64.232V55.955a4.441,4.441,0,0,0-4.441-4.441Z" transform="translate(0 -46.341)"/><path class="b" d="M72.27,153.435H14.493a4.441,4.441,0,0,0-4.35,3.547L1.684,198.134a2.219,2.219,0,0,0,1.973,1.2H68.174a4.441,4.441,0,0,0,4.414-3.953l4.1-37.022A4.441,4.441,0,0,0,72.27,153.435Z" transform="translate(-1.436 -137.69)"/></svg>