<svg xmlns="http://www.w3.org/2000/svg" width="20.93" height="20.93" viewBox="0 0 20.93 20.93"><defs><style>.a{fill:#fbbb00;}.b{fill:#518ef8;}.c{fill:#28b446;}.d{fill:#f14336;}</style></defs><path class="a" d="M4.638,145.264l-.729,2.72-2.663.056a10.483,10.483,0,0,1-.077-9.772h0l2.371.435,1.038,2.356a6.245,6.245,0,0,0,.059,4.2Z" transform="translate(0 -132.616)"/><path class="b" d="M271.68,208.176a10.461,10.461,0,0,1-3.73,10.116h0l-2.986-.152-.423-2.638a6.237,6.237,0,0,0,2.683-3.185h-5.6v-4.14H271.68Z" transform="translate(-250.933 -199.666)"/><path class="c" d="M46.278,315.386h0a10.468,10.468,0,0,1-15.769-3.2l3.391-2.776a6.224,6.224,0,0,0,8.969,3.187Z" transform="translate(-29.262 -296.761)"/><path class="d" d="M44.6,2.409l-3.39,2.775a6.223,6.223,0,0,0-9.175,3.258L28.625,5.652h0A10.467,10.467,0,0,1,44.6,2.409Z" transform="translate(-27.454)"/></svg>