<svg xmlns="http://www.w3.org/2000/svg" width="24.652" height="32.364" viewBox="0 0 24.652 32.364">
  <g id="google-docs_1_" data-name="google-docs (1)" transform="translate(0 0)">
    <path id="Path_56814" data-name="Path 56814" d="M63.844,32.364H82.808a2.848,2.848,0,0,0,2.844-2.844V9.482H79.015a2.848,2.848,0,0,1-2.844-2.844V0H63.844A2.848,2.848,0,0,0,61,2.844V29.519A2.848,2.848,0,0,0,63.844,32.364Zm3.793-17.119H79.015a.948.948,0,1,1,0,1.9H67.637a.948.948,0,1,1,0-1.9Zm0,4.735H79.015a.948.948,0,1,1,0,1.9H67.637a.948.948,0,1,1,0-1.9Zm0,4.735h7.585a.948.948,0,1,1,0,1.9H67.637a.948.948,0,1,1,0-1.9Z" transform="translate(-61 0)" fill="#2b9dff"/>
    <path id="Path_56815" data-name="Path 56815" d="M331.948,15.819h6.082L331,8.789v6.082A.949.949,0,0,0,331.948,15.819Z" transform="translate(-313.933 -8.233)" fill="#2b9dff"/>
  </g>
</svg>
