<svg xmlns="http://www.w3.org/2000/svg" width="24.652" height="32.363" viewBox="0 0 24.652 32.363">
  <g id="google-docs_1_" data-name="google-docs (1)" transform="translate(0)">
    <path id="Subtraction_25" data-name="Subtraction 25" d="M21.808,32.363H2.846A2.848,2.848,0,0,1,0,29.52V2.846A2.849,2.849,0,0,1,2.846,0H15.171V6.637a2.847,2.847,0,0,0,2.842,2.846h6.639V29.52A2.847,2.847,0,0,1,21.808,32.363ZM15.825,16.278h0v6.029h1.17V19.756h2.086V18.713H16.995V17.338h2.086V16.279H15.825Zm-5.81,0h0v6.029h2.05a4.8,4.8,0,0,0,1.1-.1,2.184,2.184,0,0,0,.741-.349,2.734,2.734,0,0,0,.888-1.067,3.369,3.369,0,0,0,.308-1.467A3.74,3.74,0,0,0,14.884,18a2.675,2.675,0,0,0-.646-1,2.358,2.358,0,0,0-.9-.554,4.223,4.223,0,0,0-1.313-.165H10.015Zm-4.362,0h0v6.029H6.834V19.992h.441a2.213,2.213,0,0,0,1.54-.516,1.783,1.783,0,0,0,.571-1.384,1.918,1.918,0,0,0-.213-.886,1.779,1.779,0,0,0-.587-.667,1.423,1.423,0,0,0-.532-.2,4.907,4.907,0,0,0-.9-.062h-1.5Zm6.336,4.994H11.2V17.305h.771a1.889,1.889,0,0,1,1.417.522,2.02,2.02,0,0,1,.509,1.462,2.1,2.1,0,0,1-.465,1.5A1.933,1.933,0,0,1,11.99,21.272Zm-4.845-2.3H6.834V17.338h.3a1.253,1.253,0,0,1,.772.2.727.727,0,0,1,.254.611.746.746,0,0,1-.261.611A1.166,1.166,0,0,1,7.145,18.973Z" transform="translate(0 0)" fill="#f26060"/>
    <path id="Path_56815" data-name="Path 56815" d="M331.948,15.819h6.082L331,8.789v6.082A.949.949,0,0,0,331.948,15.819Z" transform="translate(-314.009 -8.233)" fill="#f26060"/>
  </g>
</svg>
