<svg xmlns="http://www.w3.org/2000/svg" width="30.562" height="25.52" viewBox="0 0 30.562 25.52"><defs><style>.a{fill:#ff9d6c;}</style></defs><g transform="translate(23.787 13.778)"><g transform="translate(0 0)"><path class="a" d="M400.858,273.32h-2.364a5.968,5.968,0,0,1,.373,2.08v8.793a2.556,2.556,0,0,1-.152.869h3.908a2.63,2.63,0,0,0,2.647-2.606v-4.794A4.383,4.383,0,0,0,400.858,273.32Z" transform="translate(-398.494 -273.32)"/></g></g><g transform="translate(0 13.778)"><g transform="translate(0 0)"><path class="a" d="M6.4,275.4a5.967,5.967,0,0,1,.373-2.08H4.412A4.383,4.383,0,0,0,0,277.664v4.794a2.63,2.63,0,0,0,2.647,2.606H6.555a2.557,2.557,0,0,1-.152-.869Z" transform="translate(0 -273.321)"/></g></g><g transform="translate(8.168 11.515)"><path class="a" d="M146.644,234.815h-5.4a4.383,4.383,0,0,0-4.412,4.343v8.793a.876.876,0,0,0,.882.869h12.462a.876.876,0,0,0,.882-.869v-8.793A4.383,4.383,0,0,0,146.644,234.815Z" transform="translate(-136.829 -234.815)"/></g><g transform="translate(9.975 0)"><path class="a" d="M172.42,38.84a5.271,5.271,0,0,0-5.306,5.223,5.214,5.214,0,0,0,2.713,4.555,5.369,5.369,0,0,0,5.186,0,5.214,5.214,0,0,0,2.713-4.555A5.271,5.271,0,0,0,172.42,38.84Z" transform="translate(-167.114 -38.84)"/></g><g transform="translate(1.996 4.868)"><path class="a" d="M37.411,121.689a3.906,3.906,0,1,0,0,7.812,3.983,3.983,0,0,0,3.5-2.071,3.833,3.833,0,0,0,.466-1.835A3.942,3.942,0,0,0,37.411,121.689Z" transform="translate(-33.443 -121.689)"/></g><g transform="translate(20.63 4.868)"><path class="a" d="M349.575,121.689a3.942,3.942,0,0,0-3.968,3.906,3.832,3.832,0,0,0,.466,1.835,3.95,3.95,0,1,0,3.5-5.741Z" transform="translate(-345.607 -121.689)"/></g></svg>