<svg xmlns="http://www.w3.org/2000/svg" width="69" height="69" viewBox="0 0 69 69"><defs><style>.a{fill:#e9eeef;}</style></defs><g transform="translate(0 0.5)"><g transform="translate(0)"><path class="a" d="M34.5,69H2.695A2.7,2.7,0,0,1,0,66.305V34.5A34.509,34.509,0,0,1,66.291,21.065,34.485,34.485,0,0,1,34.5,69ZM33.443,46.254a3.618,3.618,0,0,0,0,7.235,3.617,3.617,0,0,0,0-7.235Zm.47-22.033a5.259,5.259,0,0,1,2.995.787,2.809,2.809,0,0,1,1.232,2.408c0,2.074-1.725,3.4-3.247,4.569-.317.244-.646.5-.932.739a8.619,8.619,0,0,0-3.149,7.14,3.843,3.843,0,0,0,.57,2.489,2.446,2.446,0,0,0,2.014.658,3.3,3.3,0,0,0,2.249-.629,1.68,1.68,0,0,0,.522-1.3,8.966,8.966,0,0,1,.347-3.094A6.424,6.424,0,0,1,38.8,35.215c3.491-2.718,5.261-5.611,5.261-8.6,0-4.563-4.115-7.75-10.006-7.75a10.675,10.675,0,0,0-7.005,2.2,5.622,5.622,0,0,0-2.249,4.1,2.7,2.7,0,0,0,2.819,2.679c1.069,0,1.5-.642,2.007-1.385a5.129,5.129,0,0,1,1.364-1.5A5.109,5.109,0,0,1,33.913,24.222Z" transform="translate(0 -0.5)"/></g></g></svg>