<svg xmlns="http://www.w3.org/2000/svg" width="46.437" height="46.44" viewBox="0 0 46.437 46.44">
  <path id="layers" d="M45.935,21.6l-7.458-3.729,7.458-3.729a1.816,1.816,0,0,0,0-3.245L24.529.191a1.816,1.816,0,0,0-1.623,0L1.5,10.894a1.816,1.816,0,0,0,0,3.245l7.458,3.729L1.5,21.6a1.816,1.816,0,0,0,0,3.245l7.458,3.729L1.5,32.3a1.816,1.816,0,0,0,0,3.245l21.406,10.7a1.815,1.815,0,0,0,1.623,0l21.406-10.7a1.816,1.816,0,0,0,0-3.245l-7.458-3.729,7.458-3.729a1.816,1.816,0,0,0,0-3.245ZM23.718,3.842l17.35,8.675-17.35,8.675L6.368,12.517Zm17.35,30.081L23.718,42.6,6.368,33.923,13.015,30.6l9.892,4.946a1.815,1.815,0,0,0,1.623,0L34.421,30.6Zm-17.35-2.028L6.368,23.22,13.015,19.9l9.892,4.946a1.815,1.815,0,0,0,1.623,0L34.421,19.9l6.647,3.323Zm0,0" transform="translate(-0.499 0)" fill="#c7beb4"/>
</svg>
