<svg xmlns="http://www.w3.org/2000/svg" width="57" height="57" viewBox="0 0 57 57"><defs><style>.a{fill:#c8beb3;}</style></defs><g transform="translate(0 0)"><g transform="translate(19.167 0)"><g transform="translate(0 0)"><path class="a" d="M206.081,3.913a13.359,13.359,0,0,0-18.893,0L176.022,15.078a13.486,13.486,0,0,0,0,18.893,12.715,12.715,0,0,0,2.685,2.038l2.038-2.038c1.337-1.337.866-2.9.842-4.027a6.448,6.448,0,0,1-.842-.7,6.751,6.751,0,0,1,0-9.447L191.911,8.636a6.68,6.68,0,1,1,9.447,9.447l-7.38,7.38a19.226,19.226,0,0,1,.835,8.592c.032-.032.071-.052.1-.084l11.166-11.166A13.36,13.36,0,0,0,206.081,3.913Z" transform="translate(-172.159 0)"/></g></g><g transform="translate(0 20.125)"><g transform="translate(0)"><path class="a" d="M34.837,182.814a12.717,12.717,0,0,0-2.685-2.038l-2.038,2.038c-1.337,1.337-.866,2.9-.842,4.027a6.435,6.435,0,0,1,.842.7,6.751,6.751,0,0,1,0,9.447L18.083,209.014a6.68,6.68,0,0,1-9.447-9.447l8.246-8.246a19.224,19.224,0,0,1-.835-8.592c-.032.032-.071.052-.1.084L3.913,194.845a13.359,13.359,0,1,0,18.893,18.893l12.031-12.031A13.479,13.479,0,0,0,34.837,182.814Z" transform="translate(0 -180.776)"/></g></g></g></svg>