<svg xmlns="http://www.w3.org/2000/svg" xmlns:xlink="http://www.w3.org/1999/xlink" width="779" height="859.702" viewBox="0 0 779 859.702">
  <defs>
    <clipPath id="clip-path">
      <path id="Rectangle_7743" data-name="Rectangle 7743" d="M0,0H774a5,5,0,0,1,5,5V854.7a5,5,0,0,1-5,5H0a0,0,0,0,1,0,0V0A0,0,0,0,1,0,0Z" transform="translate(960 163.499)" fill="#fff"/>
    </clipPath>
  </defs>
  <g id="Mask_Group_5" data-name="Mask Group 5" transform="translate(-960 -163.499)" clip-path="url(#clip-path)">
    <path id="Union_10" data-name="Union 10" d="M2953-1805v-177h246v62.065h-82.257v56.7h-81.488V-1805Z" transform="translate(-1993 2146.499)" fill="#196f77" opacity="0.045"/>
    <path id="Union_11" data-name="Union 11" d="M0,200V0H277V70.13H184.378V134.2H92.622V200Z" transform="translate(1738 1023.2) rotate(180)" fill="#196f77" opacity="0.045"/>
    <path id="Union_12" data-name="Union 12" d="M3092.6-1856.035h0l-44.874-49.838,50.394-.255-.547-.607,50.4-.255-44.874-49.838,50.395-.255-5.521,50.092-5.521,50.092-1.094-1.215-5.521,50.091Zm.2-1.833,48.551-.245-43.232-48.014Zm-89.95-97.842,50.394-.255-.547-.608,50.4-.255-5.521,50.092-44.327-49.23-5.521,50.092Z" transform="translate(2286.849 -3376.353) rotate(132)" fill="#196f77" opacity="0.045"/>
    <g id="Sign_in-pana" data-name="Sign in-pana" transform="translate(1064.92 282.821)">
      <g id="freepik--background-complete--inject-64" transform="translate(39.479 52.727)">
        <rect id="Rectangle_7594" data-name="Rectangle 7594" width="105.743" height="175.021" transform="translate(3.514)" fill="#e0e0e0"/>
        <rect id="Rectangle_7595" data-name="Rectangle 7595" width="105.743" height="175.021" fill="#ebebeb"/>
        <rect id="Rectangle_7596" data-name="Rectangle 7596" width="96.735" height="167.931" transform="translate(4.504 3.551)" fill="#fff"/>
        <rect id="Rectangle_7597" data-name="Rectangle 7597" width="59.479" height="124.29" transform="translate(22.915 25.365)" fill="#ebebeb"/>
        <path id="Path_58061" data-name="Path 58061" d="M56.58,141.463c-.136-11.606,10.307-22.94,21.8-24.561,5.481-.767,11.309.322,16.432-1.782,9.144-3.712,12.052-15.9,21.257-19.5l.421,89.831H56.58Z" transform="translate(-33.665 -35.795)" fill="#e0e0e0"/>
        <path id="Path_58062" data-name="Path 58062" d="M488.624,54.44v83.928H368.083L363.74,55.022Z" transform="translate(39.235 -45.568)" fill="#e0e0e0"/>
        <rect id="Rectangle_7598" data-name="Rectangle 7598" width="83.161" height="120.541" transform="translate(402.975 92.615) rotate(-90)" fill="#fff"/>
        <path id="Path_58063" data-name="Path 58063" d="M484.972,138.762H363.28V54.45H484.972Zm-120.541-1.151h119.39V55.6H364.431Z" transform="translate(39.126 -45.566)" fill="#e0e0e0"/>
        <rect id="Rectangle_7599" data-name="Rectangle 7599" width="94.433" height="62.498" transform="translate(416.029 19.785)" fill="#fff"/>
        <path id="Path_58064" data-name="Path 58064" d="M468.8,63.322h-6.991l-19.463.074-67.979.124.285-.272v62.5h0l-.3-.3h94.433l-.235.235c0-19.018.1-34.645.124-45.472,0-5.42,0-9.664.062-12.571v-.1c0,2.9,0,7.127.062,12.522,0,10.9.074,26.541.124,45.621v.247H373.96v-.309h0V63h.272l68.165.136,19.389.074h6.88Z" transform="translate(41.661 -43.537)" fill="#e0e0e0"/>
        <path id="Path_58065" data-name="Path 58065" d="M363.74,54.72a10.629,10.629,0,0,1,2.079,1.349c1.237.891,2.908,2.153,4.727,3.6s3.415,2.821,4.529,3.86a9.155,9.155,0,0,1,1.72,1.757,83.179,83.179,0,0,1-6.62-5.147A67.825,67.825,0,0,1,363.74,54.72Z" transform="translate(39.235 -45.502)" fill="#e0e0e0"/>
        <path id="Path_58066" data-name="Path 58066" d="M463.673,54.91a56.607,56.607,0,0,1-6.385,5.407,57.351,57.351,0,0,1-6.719,4.949,59.928,59.928,0,0,1,6.348-5.395,58.987,58.987,0,0,1,6.756-4.962Z" transform="translate(59.843 -45.457)" fill="#e0e0e0"/>
        <path id="Path_58067" data-name="Path 58067" d="M463.67,124.219,450.22,113.33" transform="translate(59.76 -31.592)" fill="#fff"/>
        <path id="Path_58068" data-name="Path 58068" d="M450.22,113.33a63.265,63.265,0,0,1,6.917,5.222,64.806,64.806,0,0,1,6.533,5.667,60.294,60.294,0,0,1-6.917-5.209,65.592,65.592,0,0,1-6.533-5.679Z" transform="translate(59.76 -31.592)" fill="#e0e0e0"/>
        <path id="Path_58069" data-name="Path 58069" d="M363.74,124.078a58.638,58.638,0,0,1,6.286-5.333,55,55,0,0,1,6.645-4.875,58.634,58.634,0,0,1-6.286,5.333,54.99,54.99,0,0,1-6.644,4.875Z" transform="translate(39.235 -31.463)" fill="#e0e0e0"/>
        <rect id="Rectangle_7600" data-name="Rectangle 7600" width="20.923" height="59.417" transform="translate(435.208 60.196) rotate(-90)" fill="#e0e0e0"/>
        <path id="Path_58070" data-name="Path 58070" d="M390.066,342.613a43.826,43.826,0,0,0-18.721-6.447c-3.056-.309-6.409-.223-8.859,1.633a1.844,1.844,0,0,0-.916,1.621,1.992,1.992,0,0,0,.866,1.1c7.622,5.815,19.142,6.546,27.63,2.091" transform="translate(38.72 21.263)" fill="#e0e0e0"/>
        <path id="Path_58071" data-name="Path 58071" d="M388.033,346.547a90.765,90.765,0,0,1-12.089-10.629,30.723,30.723,0,0,1-7.585-14.019,5.7,5.7,0,0,1,.594-4.69c9.639,7.523,17.211,17.323,19.08,29.337" transform="translate(40.271 16.796)" fill="#e0e0e0"/>
        <path id="Path_58072" data-name="Path 58072" d="M384.639,346.846a43.592,43.592,0,0,1,.223-15.875,21.455,21.455,0,0,1,8.451-13.091c1.67,3.885.953,8.377-.223,12.448a59.963,59.963,0,0,1-8.389,17.644" transform="translate(44.048 16.955)" fill="#e0e0e0"/>
        <path id="Path_58073" data-name="Path 58073" d="M396.676,355c-5.729.693-10.728,3.712-15.009,7.6a28.372,28.372,0,0,0-8.587,14.675c5.63-.346,10.393-4.318,13.858-8.76s5.865-9.33,9.664-13.487" transform="translate(41.452 25.765)" fill="#e0e0e0"/>
        <path id="Path_58074" data-name="Path 58074" d="M394.3,363.877a37.009,37.009,0,0,1,4.281-35.017c3.267,11.619,2.066,24.747-4.281,35.017" transform="translate(45.878 19.561)" fill="#e0e0e0"/>
        <path id="Path_58075" data-name="Path 58075" d="M408.881,369.19a26.739,26.739,0,0,0-25.6,14.737,1.967,1.967,0,0,0-.173,2,1.869,1.869,0,0,0,1.7.495c5.048-.322,9.515-3.353,13.215-6.818s6.9-7.424,10.975-10.431" transform="translate(43.785 29.12)" fill="#e0e0e0"/>
        <path id="Path_58076" data-name="Path 58076" d="M403.992,375.324a47.662,47.662,0,0,1-.483-26.627c.94-3.427,2.475-7.04,5.692-8.661a1.089,1.089,0,0,1,.866-.148,1.1,1.1,0,0,1,.544.631,16.085,16.085,0,0,1,1.349,7.647,48.246,48.246,0,0,1-1.237,7.733c-1,4.727-1.534,9.812-4.12,13.883a27.978,27.978,0,0,0-1.658,3.056c-.482,1.027-.482,1.4-.94,2.215" transform="translate(48.279 22.17)" fill="#e0e0e0"/>
        <path id="Path_58077" data-name="Path 58077" d="M430.458,378.128c-2.475-9.3.148-20.6,6.026-28.236.433-.557,1-1.163,1.708-1.1,1.076.1,1.361,1.547,1.312,2.623a50.966,50.966,0,0,1-9.045,26.714" transform="translate(54.849 24.29)" fill="#e0e0e0"/>
        <path id="Path_58078" data-name="Path 58078" d="M432.69,376.023c11.322,2.945,24.289.074,33.705-6.855a27.221,27.221,0,0,0-18.251-2.24c-6.088,1.386-11.656,4.12-15.454,9.094" transform="translate(55.599 28.437)" fill="#e0e0e0"/>
        <path id="Path_58079" data-name="Path 58079" d="M434.72,372.534c6.335-10.332,18.486-17.075,30.587-17.694-1.386,4.949-5.432,8.748-10,11.062s-9.664,3.316-14.687,4.294c-1.955.384-4.628.8-5.9,2.339" transform="translate(56.081 25.727)" fill="#e0e0e0"/>
        <path id="Path_58080" data-name="Path 58080" d="M431.621,351.655a88.431,88.431,0,0,0,3.972-17.917c.47-6.1-.4-12.472-3.564-17.719-5.914,11.458-6.521,24.833-.52,36.254" transform="translate(54.318 16.514)" fill="#e0e0e0"/>
        <path id="Path_58081" data-name="Path 58081" d="M446.9,341.291c6.917-12.584,21.035-22.631,35.326-24.041-5.506,13.734-20.54,24.338-35.326,24.041" transform="translate(58.972 16.806)" fill="#e0e0e0"/>
        <path id="Path_58082" data-name="Path 58082" d="M443.38,339.068c10.319,1.571,19.117,8.166,28.768,12.163a12.917,12.917,0,0,0,6.5,1.237,5.1,5.1,0,0,0,3.192-9.008,13.872,13.872,0,0,0-4.727-2.858c-10.5-4.38-21.777-4.492-32.839-1.831" transform="translate(58.137 21.492)" fill="#e0e0e0"/>
        <path id="Path_58083" data-name="Path 58083" d="M438.55,344.616c2.339.668,3.13,1.881,4.949,3.465a53.811,53.811,0,0,0,21.814,11.2c.829.21,1.93.3,2.339-.458s-.1-1.46-.569-2.042a30.067,30.067,0,0,0-13.128-8.946c-5.036-1.868-9.391-4.133-15.4-3.65" transform="translate(56.99 23.182)" fill="#e0e0e0"/>
        <path id="Path_58084" data-name="Path 58084" d="M433.1,309.393a41.265,41.265,0,0,0,31.651,10.777,2.153,2.153,0,0,0,1.435-.52c.8-.866-.148-2.2-1.076-2.932-9.3-7.251-20.577-10.258-32.01-7.325" transform="translate(55.697 14.677)" fill="#e0e0e0"/>
        <path id="Path_58085" data-name="Path 58085" d="M439.56,308.466a44.161,44.161,0,0,1,39.5-6.521,31.341,31.341,0,0,1-18.82,8.265,59.813,59.813,0,0,1-20.676-1.745" transform="translate(57.23 12.684)" fill="#e0e0e0"/>
        <path id="Path_58086" data-name="Path 58086" d="M438.022,295.945c-.9-9.292-.322-16.617-.965-25.984,0-.742-.21-1.646-.9-1.918-.977-.371-1.782.829-2.1,1.819A29.7,29.7,0,0,0,438.01,295.7" transform="translate(55.6 5.111)" fill="#e0e0e0"/>
        <path id="Path_58087" data-name="Path 58087" d="M436.45,297.011a54.677,54.677,0,0,0,15.392-14.959c3.031-4.157,5.593-9.132,4.949-14.242a14.761,14.761,0,0,0-11.136,5.519,30.933,30.933,0,0,0-5.667,11.383c-1.237,4.083-2.091,8.278-3.539,12.3" transform="translate(56.492 5.072)" fill="#e0e0e0"/>
        <path id="Path_58088" data-name="Path 58088" d="M448.708,292.451a124.266,124.266,0,0,0,37.862-22.272c-4.529-1.819-9.7-.73-14.229,1.1-10.319,4.17-18.77,11.21-23.831,21.121" transform="translate(59.354 5.412)" fill="#e0e0e0"/>
        <path id="Path_58089" data-name="Path 58089" d="M439.89,297.622c6.991.755,14.093,1.237,21.035.1s13.252-3.848,19.624-6.521a2.326,2.326,0,0,0,1.336-1.015,1.534,1.534,0,0,0-.483-1.683,4.07,4.07,0,0,0-1.67-.78c-6.929-1.943-14.4-1.027-21.208,1.237a97.822,97.822,0,0,0-18.622,8.661" transform="translate(57.308 9.547)" fill="#e0e0e0"/>
        <path id="Path_58090" data-name="Path 58090" d="M408.313,315.343c-4.776-9.626-4.467-20.861-.346-30.773,2.9,4.417,3.254,10.035,2.722,15.293s-2.128,10.678-2.227,15.962" transform="translate(48.981 9.05)" fill="#e0e0e0"/>
        <path id="Path_58091" data-name="Path 58091" d="M398.358,301.681a42.874,42.874,0,0,0-31.9,13.611c5.939.928,12.064-.606,17.471-3.242a88.209,88.209,0,0,0,14.959-10.022" transform="translate(39.881 13.11)" fill="#e0e0e0"/>
        <path id="Path_58092" data-name="Path 58092" d="M387.645,298.32c-5.828-.47-11.433-1.237-17.026.532a20.366,20.366,0,0,0-12.98,11,30.7,30.7,0,0,0,15.962-3.019,90.329,90.329,0,0,0,14.044-8.513" transform="translate(37.788 12.176)" fill="#e0e0e0"/>
        <path id="Path_58093" data-name="Path 58093" d="M403.758,300.085c-5.234-3.427-10.616-6.929-16.716-8.352s-13.165-.371-17.422,4.232c4.949,2.9,10.926,3.242,16.655,3.229s12.745,0,18.139,1.844" transform="translate(40.631 10.61)" fill="#e0e0e0"/>
        <path id="Path_58094" data-name="Path 58094" d="M399.192,305.625c-8.958-8.8-12.373-24.6-8.748-36.625a55.779,55.779,0,0,1,8.748,36.625" transform="translate(45.234 5.354)" fill="#e0e0e0"/>
        <path id="Path_58095" data-name="Path 58095" d="M417.15,284c1.683-3.922,2.871-8.043,4.393-12.039a34.471,34.471,0,0,1,6.261-11.136,16.481,16.481,0,0,1,11.136-5.741,44.668,44.668,0,0,1-21.53,28.966" transform="translate(51.911 2.051)" fill="#e0e0e0"/>
        <path id="Path_58096" data-name="Path 58096" d="M417.983,285.678c-2.8-3.848-6.026-9.07-9.812-11.94s-8.723-4.615-13.351-3.514a31.107,31.107,0,0,0,23.163,15.454" transform="translate(46.612 5.566)" fill="#e0e0e0"/>
        <path id="Path_58097" data-name="Path 58097" d="M415.179,284.245a66.431,66.431,0,0,1-4.417-14.3A22.359,22.359,0,0,1,413,255.39c4.949,9.292,6.508,19.265,2.475,28.966" transform="translate(50.307 2.124)" fill="#e0e0e0"/>
        <path id="Path_58098" data-name="Path 58098" d="M417.18,259.165c2.784-9.218,11.223-16,20.329-19.117a7.7,7.7,0,0,1,3.563-.532,3.106,3.106,0,0,1,2.636,2.19c.334,1.571-.965,2.982-2.178,4.021a69.377,69.377,0,0,1-24.351,13.437" transform="translate(51.918 -1.65)" fill="#e0e0e0"/>
        <path id="Path_58099" data-name="Path 58099" d="M417.293,255.241c.359-5.939.73-11.965,2.66-17.595s5.655-10.913,11.074-13.376c.928,6-1.72,11.965-4.949,17.137s-7.04,10.035-8.958,15.788" transform="translate(51.904 -5.262)" fill="#e0e0e0"/>
        <path id="Path_58100" data-name="Path 58100" d="M420.462,258.785c-2.3-6.706-2.549-15.244-6.57-21.035-2.809-4.1-7.313-6.88-9.725-11.21a17.038,17.038,0,0,0,.557,12.72,36.873,36.873,0,0,0,7.424,10.653c2.97,3.168,5.518,5.568,8.29,8.921" transform="translate(48.599 -4.723)" fill="#e0e0e0"/>
        <path id="Path_58101" data-name="Path 58101" d="M417.247,450.8c-.173,0-.334-44.792-.346-100.039s.124-100.051.309-100.051.334,44.792.346,100.051S417.432,450.8,417.247,450.8Z" transform="translate(51.852 1.013)" fill="#e0e0e0"/>
        <path id="Path_58102" data-name="Path 58102" d="M456.341,304a11.241,11.241,0,0,1-1.683.631l-4.64,1.559c-3.91,1.336-9.28,3.267-15.1,5.655s-11.21,4.479-14.316,7.164a10.468,10.468,0,0,0-2.871,3.8c-.445,1.052-.532,1.7-.582,1.7s0-.173,0-.47a7.214,7.214,0,0,1,.334-1.312,10.047,10.047,0,0,1,2.809-4.058,25,25,0,0,1,6.187-3.848c2.475-1.163,5.246-2.376,8.166-3.576,5.84-2.388,11.247-4.256,15.207-5.481,1.967-.619,3.588-1.064,4.7-1.373A9.1,9.1,0,0,1,456.341,304Z" transform="translate(51.907 13.661)" fill="#e0e0e0"/>
        <path id="Path_58103" data-name="Path 58103" d="M468.579,278.511a3.147,3.147,0,0,1-.47.495l-1.435,1.349-5.37,4.875-17.867,15.912c-6.966,6.187-12.992,12.126-17.162,16.593-2.091,2.227-3.712,4.083-4.863,5.37-.532.594-.953,1.089-1.3,1.485s-.47.507-.483.483a2.475,2.475,0,0,1,.384-.569c.272-.359.668-.891,1.237-1.559,1.064-1.349,2.66-3.242,4.714-5.518a226.435,226.435,0,0,1,17.088-16.766c6.991-6.187,13.363-11.755,17.978-15.764l5.506-4.727,1.522-1.237C468.344,278.622,468.567,278.486,468.579,278.511Z" transform="translate(52.5 7.611)" fill="#e0e0e0"/>
        <path id="Path_58104" data-name="Path 58104" d="M432.793,304.876c-.186-.087,1.237-3.452,2.722-7.7s2.165-7.845,2.351-7.82a26.557,26.557,0,0,1-1.732,8.018,52.183,52.183,0,0,1-2.165,5.382,8.657,8.657,0,0,1-1.175,2.116Z" transform="translate(55.62 10.186)" fill="#e0e0e0"/>
        <path id="Path_58105" data-name="Path 58105" d="M422.206,330.085a7.95,7.95,0,0,1-1.076-1.237l-2.759-3.477c-2.314-2.994-5.506-7.115-9.082-11.631s-6.88-8.562-9.268-11.495l-2.833-3.539a8.662,8.662,0,0,1-.977-1.336,8.66,8.66,0,0,1,1.163,1.176c.718.767,1.732,1.918,2.97,3.341,2.475,2.858,5.84,6.867,9.428,11.4s6.719,8.661,8.946,11.755c1.114,1.522,1.992,2.772,2.586,3.65a10.093,10.093,0,0,1,.9,1.4Z" transform="translate(46.942 12.087)" fill="#e0e0e0"/>
        <path id="Path_58106" data-name="Path 58106" d="M411.133,317.5a15.664,15.664,0,0,1-3.6-6.731,19.613,19.613,0,0,1-.817-6.781H407c-.124.52-.21.792-.272.78s0-.3,0-.829h.285a30.8,30.8,0,0,0,1.138,6.595,49.928,49.928,0,0,0,2.982,6.966Z" transform="translate(49.428 13.647)" fill="#e0e0e0"/>
        <path id="Path_58107" data-name="Path 58107" d="M405.032,304.176a10.976,10.976,0,0,0-2.475-1.46,16.669,16.669,0,0,0-6.966-.557,42.538,42.538,0,0,0-7.016,1.138,22.943,22.943,0,0,1-2.9.693,9.639,9.639,0,0,1,2.772-1.138,32.048,32.048,0,0,1,7.09-1.336,15.083,15.083,0,0,1,7.189.78,4.331,4.331,0,0,1,2.3,1.881Z" transform="translate(44.442 13.039)" fill="#e0e0e0"/>
        <path id="Path_58108" data-name="Path 58108" d="M404.426,301.7c0,.1-1.46-.594-3.848-1.4a39.036,39.036,0,0,0-9.589-1.98,39.868,39.868,0,0,0-9.787.495c-2.475.445-3.984.916-4.021.8a3.279,3.279,0,0,1,1.027-.433,24.939,24.939,0,0,1,2.9-.817,34.25,34.25,0,0,1,19.637,1.5,24.538,24.538,0,0,1,2.747,1.237,3.587,3.587,0,0,1,.94.594Z" transform="translate(42.425 12.137)" fill="#e0e0e0"/>
        <path id="Path_58109" data-name="Path 58109" d="M418.106,293.126a78.386,78.386,0,0,1-2.809-9.738,80.168,80.168,0,0,1-2.178-9.9,81.667,81.667,0,0,1,2.809,9.75A80.272,80.272,0,0,1,418.106,293.126Z" transform="translate(50.955 6.42)" fill="#e0e0e0"/>
        <path id="Path_58110" data-name="Path 58110" d="M418.764,291.384a48.564,48.564,0,0,0-3.106-5.828,25.83,25.83,0,0,0-4.578-4.727,4.355,4.355,0,0,1,1.769.916,14.564,14.564,0,0,1,3.341,3.44,12.93,12.93,0,0,1,2.574,6.2Z" transform="translate(50.471 8.162)" fill="#e0e0e0"/>
        <path id="Path_58111" data-name="Path 58111" d="M425.048,405.661c-.062,0-.2-1.076-.705-2.982a42.065,42.065,0,0,0-2.994-7.746c-3.093-6.323-8.723-14.353-15.875-22.383-3.551-4.046-6.991-7.869-9.9-11.532A79.9,79.9,0,0,1,388.5,350.81a48.078,48.078,0,0,1-3.576-7.585c-.334-.94-.569-1.658-.705-2.165a3.041,3.041,0,0,1-.186-.779c.062,0,.384,1.027,1.126,2.858a53.591,53.591,0,0,0,3.712,7.424,82.9,82.9,0,0,0,7.152,10.072c2.932,3.625,6.372,7.424,9.9,11.482,7.177,8.055,12.794,16.172,15.813,22.606a39.127,39.127,0,0,1,2.821,7.894,20.836,20.836,0,0,1,.4,2.24A3.481,3.481,0,0,1,425.048,405.661Z" transform="translate(44.051 22.272)" fill="#e0e0e0"/>
        <path id="Path_58112" data-name="Path 58112" d="M452.555,360.83a14.488,14.488,0,0,1-1.856,1.039,40.049,40.049,0,0,0-4.8,3.18,55.409,55.409,0,0,0-6.323,5.766c-2.215,2.339-4.492,5.061-6.83,7.968-4.652,5.853-9.008,11.025-11.619,15.145-1.324,2.054-2.289,3.786-2.92,4.949a15.416,15.416,0,0,1-1.027,1.868,2.141,2.141,0,0,1,.173-.52c.136-.334.322-.841.619-1.46a49.982,49.982,0,0,1,2.759-5.11c2.536-4.232,6.867-9.478,11.507-15.318,2.339-2.908,4.652-5.642,6.9-7.981a52.509,52.509,0,0,1,6.471-5.7,33.3,33.3,0,0,1,4.949-3.044c.606-.309,1.114-.495,1.448-.631a1.809,1.809,0,0,1,.544-.148Z" transform="translate(51.918 27.149)" fill="#e0e0e0"/>
        <path id="Path_58113" data-name="Path 58113" d="M451.02,371.318a29.071,29.071,0,0,1-3.922.569,51.713,51.713,0,0,0-9.292,1.831,27.8,27.8,0,0,0-8.315,4.368c-1.918,1.472-2.821,2.7-2.92,2.635a3.229,3.229,0,0,1,.582-.9,14.738,14.738,0,0,1,2.042-2.091,25.279,25.279,0,0,1,8.414-4.628,42.256,42.256,0,0,1,9.453-1.67A21.572,21.572,0,0,1,451.02,371.318Z" transform="translate(54.147 29.628)" fill="#e0e0e0"/>
        <path id="Path_58114" data-name="Path 58114" d="M427.5,380.307c-.21-.124,1.559-2.821,2.932-6.447s1.584-6.867,1.819-6.83a6.606,6.606,0,0,1-.074,2.1,22.27,22.27,0,0,1-1.138,4.949,23.327,23.327,0,0,1-2.277,4.541,6.533,6.533,0,0,1-1.262,1.683Z" transform="translate(54.364 28.62)" fill="#e0e0e0"/>
        <path id="Path_58115" data-name="Path 58115" d="M463.969,332.71a2.635,2.635,0,0,1-.631.334l-1.844.829c-.8.346-1.782.792-2.883,1.373s-2.4,1.163-3.712,1.967l-2.128,1.237c-.742.433-1.485.928-2.264,1.423-1.571.953-3.155,2.128-4.838,3.341a83.361,83.361,0,0,0-18.634,19.278c-1.151,1.732-2.264,3.341-3.168,4.949-.458.8-.94,1.547-1.349,2.3l-1.138,2.19c-.755,1.361-1.3,2.673-1.844,3.8a31.116,31.116,0,0,0-1.237,2.932c-.3.817-.569,1.386-.767,1.868a2.391,2.391,0,0,1-.322.643,3.52,3.52,0,0,1,.2-.68c.173-.507.384-1.138.656-1.918s.656-1.844,1.175-2.982,1.015-2.475,1.757-3.873l1.114-2.215c.384-.767.866-1.522,1.312-2.339.891-1.621,2-3.267,3.143-5.011a79.6,79.6,0,0,1,18.783-19.426,58.557,58.557,0,0,1,4.949-3.316c.792-.483,1.534-.978,2.289-1.4l2.178-1.237c1.361-.78,2.673-1.349,3.8-1.893a28.2,28.2,0,0,1,2.945-1.237l1.893-.73A2.6,2.6,0,0,1,463.969,332.71Z" transform="translate(51.926 20.475)" fill="#e0e0e0"/>
        <path id="Path_58116" data-name="Path 58116" d="M432.4,348.767a4.553,4.553,0,0,1,1.547-2.289,9.713,9.713,0,0,1,6.187-2.388,17.323,17.323,0,0,1,6.533,1.237,9.206,9.206,0,0,1,2.475,1.237,15.273,15.273,0,0,1-2.623-.767,19.634,19.634,0,0,0-6.348-1.052,10.048,10.048,0,0,0-5.927,2.079,18.576,18.576,0,0,0-1.844,1.943Z" transform="translate(55.531 23.176)" fill="#e0e0e0"/>
        <path id="Path_58117" data-name="Path 58117" d="M429,353.608a23.51,23.51,0,0,0,1.769-5.729,23.774,23.774,0,0,0-.4-5.989,3.947,3.947,0,0,1,.718,1.67,11.854,11.854,0,0,1-1,8.587C429.569,353.162,429.087,353.645,429,353.608Z" transform="translate(54.724 22.654)" fill="#e0e0e0"/>
        <path id="Path_58118" data-name="Path 58118" d="M392.18,398.31c.965,17.125,6.125,34.534,14.056,52.129h34.509c7.56-17.422,12.373-34.806,13.215-52.129Z" transform="translate(45.985 36.044)" fill="#e0e0e0"/>
        <path id="Path_58119" data-name="Path 58119" d="M447.323,420.762c0,.173-11.359.322-25.365.322s-25.378-.148-25.378-.322,11.359-.322,25.378-.322S447.323,420.576,447.323,420.762Z" transform="translate(47.029 41.296)" fill="#fafafa"/>
        <path id="Path_58120" data-name="Path 58120" d="M446.126,425.772c0,.173-10.653.322-23.782.322s-23.794-.148-23.794-.322,10.653-.322,23.794-.322S446.126,425.6,446.126,425.772Z" transform="translate(47.497 42.485)" fill="#fafafa"/>
        <path id="Path_58121" data-name="Path 58121" d="M404.062,407.39a98.385,98.385,0,0,1,0,15.9A98.385,98.385,0,0,1,404.062,407.39Z" transform="translate(48.729 38.199)" fill="#fafafa"/>
        <path id="Path_58122" data-name="Path 58122" d="M418.992,407.39a105.544,105.544,0,0,1,0,16.469A105.559,105.559,0,0,1,418.992,407.39Z" transform="translate(52.272 38.199)" fill="#fafafa"/>
        <path id="Path_58123" data-name="Path 58123" d="M433.062,407.28a109.708,109.708,0,0,1,0,16.791,109.7,109.7,0,0,1,0-16.791Z" transform="translate(55.611 38.173)" fill="#fafafa"/>
        <path id="Path_58124" data-name="Path 58124" d="M452.646,407.452c0,.186-13.326.334-29.758.334s-29.758-.148-29.758-.334,13.314-.322,29.758-.322S452.646,407.278,452.646,407.452Z" transform="translate(46.211 38.137)" fill="#fafafa"/>
      </g>
      <g id="freepik--Floor--inject-64" transform="translate(33.404 545.768)">
        <path id="Path_58125" data-name="Path 58125" d="M568.4,446.062c0,.173-119.823.322-267.611.322s-267.636-.148-267.636-.322,119.8-.322,267.636-.322S568.4,445.876,568.4,446.062Z" transform="translate(-33.15 -445.74)" fill="#263238"/>
      </g>
      <g id="freepik--Screen--inject-64" transform="translate(197.376 24.278)">
        <rect id="Rectangle_7601" data-name="Rectangle 7601" width="182.754" height="39.842" rx="5.77" transform="translate(0.408 268.667)" fill="#ff975f"/>
        <path id="Path_58128" data-name="Path 58128" d="M207.48,139.147l1.448-3.229a10.864,10.864,0,0,0,6.1,1.93c2.475,0,3.564-.841,3.564-1.98,0-3.452-10.74-1.076-10.74-7.944,0-3.143,2.537-5.754,7.783-5.754a12.485,12.485,0,0,1,6.422,1.633l-1.324,3.254a10.468,10.468,0,0,0-5.123-1.46c-2.537,0-3.514.953-3.514,2.116,0,3.4,10.74,1.052,10.74,7.845,0,3.081-2.549,5.729-7.832,5.729a13.19,13.19,0,0,1-7.523-2.141Z" transform="translate(-155.747 -74.256)"/>
        <path id="Path_58129" data-name="Path 58129" d="M221.62,122.874a2.351,2.351,0,0,1,2.561-2.3,2.314,2.314,0,0,1,2.561,2.215,2.574,2.574,0,0,1-5.123.087Zm.507,4.269h4.108v14.2H222.09Z" transform="translate(-152.391 -74.638)"/>
        <path id="Path_58130" data-name="Path 58130" d="M243.315,125.922v11.829c0,5.283-2.858,7.709-7.981,7.709a11.68,11.68,0,0,1-6.966-1.955L230,140.547a8.538,8.538,0,0,0,5.024,1.609c2.9,0,4.17-1.312,4.17-3.873v-.606a5.865,5.865,0,0,1-4.492,1.757,6.867,6.867,0,1,1,0-13.722,5.741,5.741,0,0,1,4.7,2.029v-1.819Zm-4.071,6.657a3.712,3.712,0,1,0-3.712,3.477,3.452,3.452,0,0,0,3.712-3.477Z" transform="translate(-150.985 -73.417)"/>
        <path id="Path_58131" data-name="Path 58131" d="M257.894,132v8.129h-4.12v-7.5c0-2.289-1.052-3.353-2.871-3.353s-3.415,1.237-3.415,3.823v7.028H243.38v-14.2H247.3v1.67a6.187,6.187,0,0,1,4.7-1.881C255.357,125.711,257.894,127.666,257.894,132Z" transform="translate(-147.227 -73.417)"/>
        <path id="Path_58132" data-name="Path 58132" d="M263.75,122.874a2.351,2.351,0,0,1,2.561-2.3,2.3,2.3,0,0,1,2.549,2.215,2.561,2.561,0,0,1-5.11.087Zm.495,4.269h4.12v14.2h-4.12Z" transform="translate(-142.392 -74.638)"/>
        <path id="Path_58133" data-name="Path 58133" d="M285.079,132v8.129H281v-7.5c0-2.289-1.064-3.353-2.883-3.353s-3.4,1.237-3.4,3.823v7.028h-4.12v-14.2h3.935v1.67a6.187,6.187,0,0,1,4.7-1.881C282.555,125.711,285.079,127.666,285.079,132Z" transform="translate(-140.769 -73.417)"/>
        <path id="Path_58134" data-name="Path 58134" d="M174.4,187.844v.668H169.23V181.2h5.024v.668H170v2.6h3.786v.668H170v2.71Z" transform="translate(-164.825 -60.246)" fill="#263238"/>
        <path id="Path_58135" data-name="Path 58135" d="M174.26,184.56h2.735v.656H174.26Z" transform="translate(-163.631 -59.448)" fill="#263238"/>
        <path id="Path_58136" data-name="Path 58136" d="M186.89,184.994v3.18h-.742v-3.106c0-1.163-.582-1.769-1.571-1.769a1.782,1.782,0,0,0-1.844,1.992v2.883h-.742v-3.106c0-1.163-.582-1.769-1.584-1.769a1.782,1.782,0,0,0-1.844,1.992v2.883h-.742v-5.494h.705v1a2.252,2.252,0,0,1,2.017-1.052,1.98,1.98,0,0,1,1.955,1.163,2.475,2.475,0,0,1,2.178-1.163,2.079,2.079,0,0,1,2.215,2.363Z" transform="translate(-162.786 -59.908)" fill="#263238"/>
        <path id="Path_58137" data-name="Path 58137" d="M191.023,184.775v3.4h-.705v-.854a2.066,2.066,0,0,1-1.893.916c-1.237,0-2-.656-2-1.609s.532-1.559,2.116-1.559h1.745v-.334c0-.94-.532-1.448-1.559-1.448a2.833,2.833,0,0,0-1.831.643l-.334-.557a3.514,3.514,0,0,1,2.24-.742,1.955,1.955,0,0,1,2.227,2.141Zm-.742,1.757v-.9h-1.72c-1.064,0-1.411.421-1.411.99s.507,1.027,1.386,1.027a1.745,1.745,0,0,0,1.745-1.114Z" transform="translate(-160.745 -59.91)" fill="#263238"/>
        <path id="Path_58138" data-name="Path 58138" d="M191.64,181.364a.544.544,0,1,1,.544.544.532.532,0,0,1-.544-.544Zm.161,1.745h.755V188.6H191.8Z" transform="translate(-159.506 -60.336)" fill="#263238"/>
        <path id="Path_58139" data-name="Path 58139" d="M194.05,180.84h.742V188.6h-.742Z" transform="translate(-158.934 -60.331)" fill="#263238"/>
        <path id="Path_58140" data-name="Path 58140" d="M172.692,241.967c0,1.559-1.126,2.475-2.994,2.475H167.73v2.314H167V239.43h2.735C171.566,239.455,172.692,240.408,172.692,241.967Zm-.767,0c0-1.163-.78-1.831-2.24-1.831H167.73v3.712h1.955c1.46,0,2.264-.73,2.264-1.881Z" transform="translate(-165.354 -46.426)"/>
        <path id="Path_58141" data-name="Path 58141" d="M177.025,243.035v3.4h-.705v-.854a2.054,2.054,0,0,1-1.893.9c-1.237,0-2.017-.643-2.017-1.6s.544-1.559,2.128-1.559h1.745V243c0-.94-.532-1.448-1.559-1.448a2.834,2.834,0,0,0-1.831.643l-.334-.557a3.514,3.514,0,0,1,2.24-.742,1.955,1.955,0,0,1,2.227,2.141Zm-.742,1.757v-.9h-1.72c-1.076,0-1.423.421-1.423.977s.52,1.039,1.4,1.039a1.757,1.757,0,0,0,1.745-1.163Z" transform="translate(-164.07 -46.083)"/>
        <path id="Path_58142" data-name="Path 58142" d="M177.16,245.8l.334-.582a3.279,3.279,0,0,0,1.955.619c1.039,0,1.472-.359,1.472-.9,0-1.435-3.564-.3-3.564-2.475,0-.9.767-1.571,2.165-1.571a3.712,3.712,0,0,1,1.955.52l-.334.594a2.8,2.8,0,0,0-1.621-.47c-.99,0-1.423.384-1.423.9,0,1.485,3.564.371,3.564,2.475,0,.953-.841,1.559-2.277,1.559a3.588,3.588,0,0,1-2.227-.668Z" transform="translate(-162.943 -46.079)"/>
        <path id="Path_58143" data-name="Path 58143" d="M181.29,245.8l.334-.582a3.279,3.279,0,0,0,1.955.619c1.052,0,1.472-.359,1.472-.9,0-1.435-3.564-.3-3.564-2.475,0-.9.78-1.571,2.178-1.571a3.712,3.712,0,0,1,1.943.52l-.322.594a2.846,2.846,0,0,0-1.621-.47c-1,0-1.435.384-1.435.9,0,1.485,3.564.371,3.564,2.475,0,.953-.829,1.559-2.264,1.559a3.6,3.6,0,0,1-2.24-.668Z" transform="translate(-161.963 -46.079)"/>
        <path id="Path_58144" data-name="Path 58144" d="M194.21,240.93l-2.079,5.494h-.705l-1.732-4.5-1.732,4.5h-.705l-2.066-5.494h.705l1.732,4.665,1.769-4.665h.631l1.757,4.665,1.745-4.665Z" transform="translate(-161.037 -46.07)"/>
        <path id="Path_58145" data-name="Path 58145" d="M192.81,243.691a2.809,2.809,0,1,1,2.809,2.8,2.71,2.71,0,0,1-2.809-2.8Zm4.85,0a2.054,2.054,0,1,0-2.042,2.141,2,2,0,0,0,2.042-2.141Z" transform="translate(-159.229 -46.084)"/>
        <path id="Path_58146" data-name="Path 58146" d="M201.332,240.892v.718h-.173a1.782,1.782,0,0,0-1.856,2.029v2.8h-.742v-5.494h.718v1.076A2.042,2.042,0,0,1,201.332,240.892Z" transform="translate(-157.864 -46.082)"/>
        <path id="Path_58147" data-name="Path 58147" d="M206.98,239.1v7.758h-.718v-1.089a2.376,2.376,0,0,1-2.116,1.138,2.8,2.8,0,0,1,0-5.593,2.475,2.475,0,0,1,2.091,1.089v-3.3Zm-.73,5.011a2.054,2.054,0,1,0-2.042,2.141,2,2,0,0,0,2.042-2.141Z" transform="translate(-157.202 -46.504)"/>
        <path id="Path_58148" data-name="Path 58148" d="M220.56,320.843l.73-1.621a5.432,5.432,0,0,0,3.056.965c1.237,0,1.782-.421,1.782-.99,0-1.732-5.382-.544-5.382-3.984,0-1.571,1.237-2.883,3.9-2.883a6.187,6.187,0,0,1,3.217.817l-.656,1.633a5.2,5.2,0,0,0-2.574-.73c-1.237,0-1.757.47-1.757,1.052,0,1.708,5.382.532,5.382,3.935,0,1.547-1.237,2.871-3.922,2.871a6.62,6.62,0,0,1-3.774-1.064Z" transform="translate(-152.643 -29.124)" fill="#fff"/>
        <path id="Path_58149" data-name="Path 58149" d="M227.667,312.681a1.237,1.237,0,0,1,1.237-1.151,1.151,1.151,0,0,1,1.237,1.1,1.281,1.281,0,0,1-2.561,0Zm.247,2.141h2.066v7.115h-2.066Z" transform="translate(-150.977 -29.315)" fill="#fff"/>
        <path id="Path_58150" data-name="Path 58150" d="M238.4,317.249v4.071h-2.054v-3.712c0-1.163-.532-1.683-1.448-1.683a1.693,1.693,0,0,0-1.708,1.918v3.514H231.12v-7.115h1.98v.829a3.106,3.106,0,0,1,2.351-.94,2.784,2.784,0,0,1,2.945,3.118Z" transform="translate(-150.136 -28.698)" fill="#fff"/>
        <path id="Path_58151" data-name="Path 58151" d="M245.995,314.2v5.952c0,2.648-1.423,3.86-4,3.86a5.791,5.791,0,0,1-3.489-.977l.817-1.485a4.232,4.232,0,0,0,2.475.817c1.46,0,2.091-.668,2.091-1.955v-.26a2.92,2.92,0,0,1-2.24.891,3.452,3.452,0,1,1,0-6.892A2.846,2.846,0,0,1,244,315.178v-.916Zm-2.029,3.328a1.881,1.881,0,1,0-1.868,1.757,1.732,1.732,0,0,0,1.868-1.757Z" transform="translate(-148.505 -28.693)" fill="#fff"/>
        <path id="Path_58152" data-name="Path 58152" d="M248.857,312.681a1.237,1.237,0,0,1,1.237-1.151,1.151,1.151,0,0,1,1.237,1.1,1.281,1.281,0,0,1-2.561,0Zm.247,2.141h2.066v7.115h-2.116Z" transform="translate(-145.947 -29.315)" fill="#fff"/>
        <path id="Path_58153" data-name="Path 58153" d="M259.536,317.249v4.071h-2.054v-3.712c0-1.163-.532-1.683-1.448-1.683a1.693,1.693,0,0,0-1.708,1.918v3.514H252.26v-7.115h1.967v.829a3.143,3.143,0,0,1,2.363-.94,2.784,2.784,0,0,1,2.945,3.118Z" transform="translate(-145.119 -28.698)" fill="#fff"/>
        <rect id="Rectangle_7602" data-name="Rectangle 7602" width="182.754" height="39.533" rx="7.01" transform="translate(0.408 136.198)" fill="#ebebeb"/>
        <path id="Path_58154" data-name="Path 58154" d="M340.151,233.115h.272a3.858,3.858,0,0,0,.829-.074,8.365,8.365,0,0,0,3.044-1.027,8.661,8.661,0,0,0,3.539-3.712,8.452,8.452,0,0,0,.841-3.2c0-1.237,0-2.475,0-3.836,0-5.432,0-12.1-.1-19.8a8.587,8.587,0,0,0-2.475-5.184,8.451,8.451,0,0,0-5.58-2.475H326.664l-151.945.1a8.389,8.389,0,0,0-7.993,5.9,19.586,19.586,0,0,0-.371,5.345v18.857a8.773,8.773,0,0,0,.285,2.549,8.314,8.314,0,0,0,2.648,4.232,8.414,8.414,0,0,0,4.541,1.967c1.67.087,3.44,0,5.147,0h29.931l68.289.062,46.041.111h0l-46.041.1-68.288.074H173.791a8.958,8.958,0,0,1-7.733-6.385,9.637,9.637,0,0,1-.3-2.71V202.416a10.245,10.245,0,0,1,.4-2.8,9.045,9.045,0,0,1,8.661-6.36l151.908.087H340.6a8.834,8.834,0,0,1,8.426,7.956c.074,7.758,0,14.378,0,19.8v3.848a8.722,8.722,0,0,1-.891,3.279,8.587,8.587,0,0,1-3.65,3.786,8.141,8.141,0,0,1-3.106.978A7.426,7.426,0,0,1,340.151,233.115Z" transform="translate(-165.65 -57.384)" fill="#263238"/>
        <rect id="Rectangle_7603" data-name="Rectangle 7603" width="182.754" height="39.533" rx="7.01" transform="translate(0.408 207.543)" fill="#ebebeb"/>
        <path id="Path_58155" data-name="Path 58155" d="M340.151,290.775h.272a7.25,7.25,0,0,0,.829-.087,8.538,8.538,0,0,0,3.044-1.015,8.748,8.748,0,0,0,3.539-3.712,8.452,8.452,0,0,0,.841-3.2c0-1.237,0-2.475,0-3.848,0-5.42,0-12.1-.1-19.8a8.513,8.513,0,0,0-2.475-5.172,8.4,8.4,0,0,0-5.58-2.413H326.664l-151.945.037a8.4,8.4,0,0,0-7.993,5.914,19.465,19.465,0,0,0-.371,5.333v18.857a8.662,8.662,0,0,0,.285,2.549,8.315,8.315,0,0,0,2.648,4.232,8.414,8.414,0,0,0,4.541,1.967c1.67.1,3.44,0,5.147,0h29.931l68.289.074,46.041.1,12.522.062h0l-12.522.062-46.041.111-68.289.062H179c-1.732,0-3.415.062-5.209,0a8.958,8.958,0,0,1-7.733-6.459,9.589,9.589,0,0,1-.3-2.71V260.089a10.332,10.332,0,0,1,.4-2.809,9.045,9.045,0,0,1,8.661-6.36l151.908.087,13.8.012a8.785,8.785,0,0,1,5.84,2.549,8.9,8.9,0,0,1,2.586,5.407c.074,7.758,0,14.378,0,19.8v3.86a8.773,8.773,0,0,1-4.541,7.065,8.3,8.3,0,0,1-3.106.965A7.417,7.417,0,0,1,340.151,290.775Z" transform="translate(-165.65 -43.699)" fill="#263238"/>
        <path id="Path_58156" data-name="Path 58156" d="M341.675,408.523a7.472,7.472,0,0,0,1.114-.124,7.164,7.164,0,0,0,2.97-1.237,7.028,7.028,0,0,0,2.809-4.318,17.32,17.32,0,0,0,.136-3.366c0-1.237,0-2.475,0-3.885,0-5.481,0-12.175-.062-19.946a6.966,6.966,0,0,0-2.475-5.135,6.767,6.767,0,0,0-2.722-1.386,11.692,11.692,0,0,0-3.18-.223H326.282l-153.046.087a6.867,6.867,0,0,0-4.8,1.98,6.744,6.744,0,0,0-2.017,4.764v24.512a11.816,11.816,0,0,0,.161,2.586,6.793,6.793,0,0,0,2.747,4.12,6.906,6.906,0,0,0,2.277,1.039,10.046,10.046,0,0,0,2.537.21h35.375l68.808.074,46.388.1,12.608.062h0l-12.608.062-46.425.26-68.808.074H174.1a9.975,9.975,0,0,1-2.685-.223,7.177,7.177,0,0,1-2.475-1.126,7.424,7.424,0,0,1-3.007-4.5,12.026,12.026,0,0,1-.173-2.722V375.734a7.424,7.424,0,0,1,7.424-7.424l153.046.1h13.982a11.7,11.7,0,0,1,3.279.248,7.213,7.213,0,0,1,2.871,1.472,7.424,7.424,0,0,1,2.6,5.419v23.843a17.845,17.845,0,0,1-.161,3.4,7.238,7.238,0,0,1-2.932,4.393,7.139,7.139,0,0,1-3.032,1.237,5.521,5.521,0,0,1-1.163.1Z" transform="translate(-165.652 -15.838)" fill="#e0e0e0"/>
        <path id="Path_58157" data-name="Path 58157" d="M288.557,384.772c0,.173-18.5.322-41.315.322s-41.3-.148-41.3-.322,18.486-.322,41.3-.322S288.557,384.6,288.557,384.772Z" transform="translate(-156.113 -12.008)" fill="#e0e0e0"/>
        <circle id="Ellipse_1362" data-name="Ellipse 1362" cx="15.491" cy="15.491" r="15.491" transform="translate(76.752 21.908) rotate(-45)" fill="#f5f5f5"/>
        <path id="Path_58158" data-name="Path 58158" d="M257.34,112.338a9.9,9.9,0,0,0-10.01-8.8,10.171,10.171,0,0,0-10.01,8.835,13.722,13.722,0,0,0,10.01,3.712A14.192,14.192,0,0,0,257.34,112.338Z" transform="translate(-148.665 -78.678)" fill="#e0e0e0"/>
        <circle id="Ellipse_1363" data-name="Ellipse 1363" cx="6.075" cy="6.075" r="6.075" transform="translate(92.59 13.776)" fill="#e0e0e0"/>
        <path id="Path_58159" data-name="Path 58159" d="M257.235,113.968a12.237,12.237,0,0,0-.94-2.858,9.626,9.626,0,0,0-2.19-2.7,12.026,12.026,0,0,0-3.96-2.215l-.309-.111.285-.148a6.038,6.038,0,0,0,2.413-2.475,5.927,5.927,0,0,0-1.237-7.214,5.865,5.865,0,0,0-7.869,0,5.754,5.754,0,0,0-1.905,3.514,5.852,5.852,0,0,0,.619,3.712,5.715,5.715,0,0,0,1.064,1.411,6.992,6.992,0,0,0,1.336,1.027l.272.173-.309.087a9.28,9.28,0,0,0-3.959,2.19,9.812,9.812,0,0,0-2.066,2.8,10.738,10.738,0,0,0-.817,2.091,5.683,5.683,0,0,0-.148.569.867.867,0,0,1-.062.2s0-.074,0-.21a1.33,1.33,0,0,1,.111-.582,11.024,11.024,0,0,1,.755-2.141,10.146,10.146,0,0,1,2.066-2.9,9.342,9.342,0,0,1,4.034-2.289v.247a7.721,7.721,0,0,1-1.4-1.039,6.706,6.706,0,0,1-1.126-1.485,6.273,6.273,0,0,1-.681-3.885,6.187,6.187,0,0,1,2-3.712,6.311,6.311,0,0,1,4.17-1.6,6.187,6.187,0,0,1,5.457,9.231,6.323,6.323,0,0,1-2.561,2.475v-.26a12.262,12.262,0,0,1,4.034,2.314,9.565,9.565,0,0,1,2.178,2.8,7.426,7.426,0,0,1,.483,1.237,4.294,4.294,0,0,1,.223.928l.087.594C257.247,113.906,257.247,113.968,257.235,113.968Z" transform="translate(-148.634 -80.84)" fill="#263238"/>
        <path id="Path_58160" data-name="Path 58160" d="M263.932,104.148a.68.68,0,0,1,0-.247v-1.274a4.693,4.693,0,0,0-.1-.656,10.884,10.884,0,0,0-.334-1.6,14.946,14.946,0,0,0-1.72-4.1,15.356,15.356,0,0,0-3.922-4.355,15.182,15.182,0,0,0-6.595-2.809,15.429,15.429,0,0,0-8.067.668,16.816,16.816,0,0,0-2,.891,15.926,15.926,0,0,0-1.868,1.237,16.52,16.52,0,0,0-1.745,1.485,16.321,16.321,0,0,0-3.712,6,15.315,15.315,0,0,0,2.19,13.908,17.25,17.25,0,0,0,1.51,1.769,17.736,17.736,0,0,0,1.732,1.485,19.383,19.383,0,0,0,1.881,1.237,16.713,16.713,0,0,0,2,.879,15.354,15.354,0,0,0,18.461-6.546,14.946,14.946,0,0,0,1.72-4.1,10.884,10.884,0,0,0,.334-1.6,4.7,4.7,0,0,1,.1-.643,3.981,3.981,0,0,0,0-.544v-.742a.68.68,0,0,1,0-.247v1.534a1.811,1.811,0,0,1-.087.656,10.222,10.222,0,0,1-.3,1.609,14.4,14.4,0,0,1-1.7,4.17,15.146,15.146,0,0,1-3.935,4.454,15.5,15.5,0,0,1-6.57,2.957,15.788,15.788,0,0,1-8.228-.668,16.456,16.456,0,0,1-2.042-.891,16.855,16.855,0,0,1-1.93-1.237,20.366,20.366,0,0,1-1.769-1.51,18.175,18.175,0,0,1-1.547-1.819,15.63,15.63,0,0,1,0-18.535,18.023,18.023,0,0,1,1.547-1.807,15.756,15.756,0,0,1,1.881-1.584,14.44,14.44,0,0,1,1.918-1.237,16.457,16.457,0,0,1,2.042-.891A15.595,15.595,0,0,1,261.866,96.2a14.4,14.4,0,0,1,1.7,4.17,10.222,10.222,0,0,1,.3,1.609c0,.235.074.458.087.656s0,.384,0,.544v.99Z" transform="translate(-149.776 -82.243)" fill="#263238"/>
        <path id="Path_58161" data-name="Path 58161" d="M360.043,153.282c0,.186-43.517.322-97.18.322s-97.193-.136-97.193-.322,43.5-.322,97.193-.322S360.043,153.108,360.043,153.282Z" transform="translate(-165.67 -66.948)" fill="#e0e0e0"/>
        <path id="Path_58162" data-name="Path 58162" d="M360.043,350.912c0,.173-43.517.322-97.18.322s-97.193-.148-97.193-.322,43.5-.322,97.193-.322S360.043,350.738,360.043,350.912Z" transform="translate(-165.67 -20.044)" fill="#e0e0e0"/>
        <path id="Path_58163" data-name="Path 58163" d="M181.947,267.459l2.759,1.559-.718,1.237-2.821-1.658v3.168h-1.4V268.6l-2.809,1.658-.73-1.237,2.8-1.559-2.8-1.534.73-1.237,2.809,1.646V263.19h1.4v3.143l2.821-1.646.718,1.237Z" transform="translate(-163.164 -40.787)" fill="#fff"/>
        <path id="Path_58164" data-name="Path 58164" d="M189.844,267.459l2.784,1.559-.73,1.237-2.809-1.658v3.168h-1.411V268.6l-2.821,1.658-.718-1.237,2.784-1.559-2.784-1.534.718-1.237,2.821,1.646V263.19h1.4v3.143l2.809-1.646.73,1.237Z" transform="translate(-161.286 -40.787)" fill="#fff"/>
        <path id="Path_58165" data-name="Path 58165" d="M197.751,267.449l2.772,1.559-.718,1.237-2.858-1.609V271.8h-1.4v-3.168l-2.821,1.658-.718-1.237,2.8-1.559-2.8-1.534.718-1.237,2.821,1.646V263.23h1.4v3.143l2.821-1.646.718,1.237Z" transform="translate(-159.419 -40.777)" fill="#fff"/>
        <path id="Path_58166" data-name="Path 58166" d="M205.644,267.459l2.772,1.559-.718,1.237-2.821-1.658v3.168h-1.4V268.6l-2.809,1.658-.73-1.237,2.8-1.559-2.722-1.534.73-1.237,2.809,1.646V263.19h1.411v3.143l2.821-1.646.718,1.237Z" transform="translate(-157.537 -40.787)" fill="#fff"/>
        <path id="Path_58167" data-name="Path 58167" d="M182.271,209.912v3.143h-.742v-3.118a1.547,1.547,0,0,0-1.658-1.757,1.807,1.807,0,0,0-1.918,1.992v2.883h-.742v-5.444h.705v1.015a2.314,2.314,0,0,1,2.091-1.064,2.116,2.116,0,0,1,2.264,2.351Z" transform="translate(-162.931 -53.991)" fill="#fff"/>
        <path id="Path_58168" data-name="Path 58168" d="M187.175,209.714v3.353h-.718v-.854a2.054,2.054,0,0,1-1.893.916c-1.237,0-2-.656-2-1.609s.544-1.559,2.116-1.559h1.757v-.334c0-.94-.532-1.448-1.559-1.448a2.784,2.784,0,0,0-1.831.643l-.334-.557a3.464,3.464,0,0,1,2.24-.742,1.955,1.955,0,0,1,2.227,2.19Zm-.742,1.757v-.879H184.7c-1.064,0-1.411.421-1.411.978s.507,1.039,1.386,1.039a1.769,1.769,0,0,0,1.757-1.138Z" transform="translate(-161.661 -54.003)" fill="#fff"/>
        <path id="Path_58169" data-name="Path 58169" d="M197,209.912v3.143h-.742v-3.118c0-1.151-.594-1.757-1.584-1.757a1.782,1.782,0,0,0-1.844,1.992v2.883h-.742v-3.118c0-1.151-.582-1.757-1.584-1.757a1.782,1.782,0,0,0-1.844,1.992v2.883h-.742v-5.444h.705v1a2.252,2.252,0,0,1,2.017-1.052,2,2,0,0,1,1.967,1.163,2.4,2.4,0,0,1,2.165-1.163A2.079,2.079,0,0,1,197,209.912Z" transform="translate(-160.389 -53.991)" fill="#fff"/>
        <path id="Path_58170" data-name="Path 58170" d="M201.794,210.582h-4.6a2.017,2.017,0,0,0,2.165,1.906,2.165,2.165,0,0,0,1.683-.718l.421.483a2.908,2.908,0,0,1-4.949-1.905,2.677,2.677,0,1,1,5.345,0Zm-4.6-.557h3.9a1.955,1.955,0,0,0-3.9,0Z" transform="translate(-158.351 -53.992)" fill="#fff"/>
        <path id="Path_58171" data-name="Path 58171" d="M211.307,210.678c0,1.782-.656,2.833-1.732,2.833a1.114,1.114,0,0,1-1.175-1.151,2.326,2.326,0,0,1-2.091,1.151,2.71,2.71,0,0,1,0-5.407,2.339,2.339,0,0,1,2.066,1.1v-1.052h.681v4.009c0,.582.3.792.643.792.656,0,1.076-.8,1.076-2.215a3.984,3.984,0,0,0-4.306-4.083,4.207,4.207,0,1,0,0,8.4,4.689,4.689,0,0,0,2-.458l.173.507a4.949,4.949,0,0,1-2.178.483,4.739,4.739,0,0,1,0-9.478,4.529,4.529,0,0,1,4.838,4.566Zm-2.92.124a1.992,1.992,0,1,0-1.992,2.091,1.955,1.955,0,0,0,1.992-2.091Z" transform="translate(-157.112 -54.336)" fill="#fff"/>
        <path id="Path_58172" data-name="Path 58172" d="M219.822,209.912v3.143h-.742v-3.118c0-1.151-.582-1.757-1.584-1.757a1.769,1.769,0,0,0-1.831,1.992v2.883h-.742v-3.118c0-1.151-.594-1.757-1.6-1.757a1.782,1.782,0,0,0-1.844,1.992v2.883h-.742v-5.444h.718v1a2.24,2.24,0,0,1,2.017-1.052,1.98,1.98,0,0,1,1.955,1.163,2.475,2.475,0,0,1,2.178-1.163,2.079,2.079,0,0,1,2.215,2.351Z" transform="translate(-154.973 -53.991)" fill="#fff"/>
        <path id="Path_58173" data-name="Path 58173" d="M223.955,209.714v3.353h-.718v-.854a2.054,2.054,0,0,1-1.893.916c-1.237,0-2-.656-2-1.609s.544-1.559,2.128-1.559h1.745v-.334c0-.94-.532-1.448-1.559-1.448a2.784,2.784,0,0,0-1.831.643l-.334-.557a3.514,3.514,0,0,1,2.24-.742,1.955,1.955,0,0,1,2.227,2.19Zm-.742,1.757v-.879h-1.732c-1.064,0-1.411.421-1.411.978s.52,1.039,1.4,1.039a1.769,1.769,0,0,0,1.745-1.138Z" transform="translate(-152.932 -54.003)" fill="#fff"/>
        <path id="Path_58174" data-name="Path 58174" d="M224.57,206.291a.532.532,0,1,1,.16.381A.532.532,0,0,1,224.57,206.291Zm.161,1.745h.742v5.444h-.742Z" transform="translate(-151.691 -54.416)" fill="#fff"/>
        <path id="Path_58175" data-name="Path 58175" d="M227,205.77h.742v7.709H227Z" transform="translate(-151.114 -54.415)" fill="#fff"/>
        <path id="Path_58176" data-name="Path 58176" d="M228.86,211.729a.557.557,0,0,1,.557-.569.569.569,0,0,1,.557.569.582.582,0,0,1-.557.582A.569.569,0,0,1,228.86,211.729Z" transform="translate(-150.673 -53.135)" fill="#fff"/>
        <path id="Path_58177" data-name="Path 58177" d="M230.47,210.357a2.71,2.71,0,0,1,2.833-2.8,2.475,2.475,0,0,1,2.153,1.089l-.557.384a1.856,1.856,0,0,0-1.6-.817,2.141,2.141,0,0,0,0,4.281,1.844,1.844,0,0,0,1.6-.8l.557.384a2.475,2.475,0,0,1-2.153,1.089,2.722,2.722,0,0,1-2.833-2.809Z" transform="translate(-150.291 -53.99)" fill="#fff"/>
        <path id="Path_58178" data-name="Path 58178" d="M235.15,210.354a2.8,2.8,0,1,1,2.8,2.809,2.71,2.71,0,0,1-2.8-2.809Zm4.838,0a2.042,2.042,0,1,0-2.042,2.141,2,2,0,0,0,2.042-2.141Z" transform="translate(-149.18 -53.987)" fill="#fff"/>
        <path id="Path_58179" data-name="Path 58179" d="M249.982,209.912v3.143h-.742v-3.118c0-1.151-.594-1.757-1.584-1.757a1.782,1.782,0,0,0-1.844,1.992v2.883h-.742v-3.118c0-1.151-.582-1.757-1.584-1.757a1.782,1.782,0,0,0-1.844,1.992v2.883H240.9v-5.444h.705v1a2.252,2.252,0,0,1,2.017-1.052,2,2,0,0,1,1.967,1.163,2.4,2.4,0,0,1,2.165-1.163,2.079,2.079,0,0,1,2.227,2.351Z" transform="translate(-147.815 -53.991)" fill="#fff"/>
      </g>
      <g id="freepik--speech-bubble--inject-64" transform="translate(455.057 197.792)">
        <path id="Path_58184" data-name="Path 58184" d="M459.93,164.81H385.85a11.68,11.68,0,0,0-11.68,11.68v18.436a11.68,11.68,0,0,0,11.68,11.68h.767v10.53l11.866-10.53H459.93a11.68,11.68,0,0,0,11.68-11.68V176.49A11.68,11.68,0,0,0,459.93,164.81Z" transform="translate(-373.867 -164.439)" fill="#fff"/>
        <path id="Path_58185" data-name="Path 58185" d="M459.988,164.881h.643a10.678,10.678,0,0,1,1.708.161c.371.074.792.186,1.237.3a12.563,12.563,0,0,1,1.435.557,11.508,11.508,0,0,1,3.192,2.153,12,12,0,0,1,2.759,3.959,13.462,13.462,0,0,1,.928,5.667V195.74a11.928,11.928,0,0,1-7.424,10.319,12.546,12.546,0,0,1-4.7.878h-61.2l.21-.087-11.854,10.542-.544.47V206.617l.322.322a12.571,12.571,0,0,1-6.644-1.547,12.237,12.237,0,0,1-4.714-4.813,13.126,13.126,0,0,1-1.151-3.168,15.786,15.786,0,0,1-.26-3.3V178.232c0-1.027,0-2.054.087-3.106a12.039,12.039,0,0,1,6.9-9.5,12.584,12.584,0,0,1,5.741-1.1h35.5l27.7.1h0l-27.7.111H386.651a11.841,11.841,0,0,0-5.494,1.052,11.4,11.4,0,0,0-6.545,9.033,27.544,27.544,0,0,0-.074,3.044v15.875a15.119,15.119,0,0,0,.247,3.18,12.647,12.647,0,0,0,1.1,2.994,11.532,11.532,0,0,0,4.467,4.553,11.953,11.953,0,0,0,6.323,1.46H387v10.864l-.544-.235,11.866-10.53.087-.087H454.84c3.3-.1,6.595.408,9.4-.817a11.433,11.433,0,0,0,7.152-9.9c.074-1.336,0-2.7,0-4V177.18a13.326,13.326,0,0,0-.854-5.568,11.78,11.78,0,0,0-2.66-3.9,11.284,11.284,0,0,0-3.106-2.153,13.344,13.344,0,0,0-1.4-.569l-1.237-.322q-1.081.052-2.153.21Z" transform="translate(-373.926 -164.51)" fill="#263238"/>
        <path id="Path_58186" data-name="Path 58186" d="M394.108,182.021l2.376,1.237-1.349,2.227-2.475-1.46.074,2.673h-2.648l.062-2.673-2.475,1.46-1.324-2.227,2.363-1.237-2.363-1.3,1.324-2.24,2.475,1.5-.062-2.71h2.648l-.074,2.71,2.475-1.5,1.349,2.24Z" transform="translate(-370.977 -161.481)" fill="#e0e0e0"/>
        <path id="Path_58187" data-name="Path 58187" d="M403.02,182.021l2.376,1.237-1.349,2.227-2.475-1.46.074,2.673H399v-2.673l-2.475,1.46-1.324-2.227,2.363-1.237-2.363-1.3,1.324-2.24,2.475,1.5v-2.71h2.648l-.074,2.71,2.475-1.5,1.349,2.24Z" transform="translate(-368.876 -161.481)" fill="#e0e0e0"/>
        <path id="Path_58188" data-name="Path 58188" d="M411.91,182.021l2.376,1.237-1.349,2.227-2.475-1.46.062,2.673h-2.648l.062-2.673-2.475,1.46-1.324-2.227,2.363-1.237-2.363-1.3,1.324-2.24,2.475,1.5-.062-2.71h2.648l-.062,2.71,2.475-1.5,1.349,2.24Z" transform="translate(-366.755 -161.481)" fill="#e0e0e0"/>
        <path id="Path_58189" data-name="Path 58189" d="M420.81,182.021l2.376,1.237-1.349,2.227-2.475-1.46.062,2.673h-2.648l.062-2.673-2.475,1.46-1.324-2.227,2.376-1.237-2.376-1.3,1.324-2.24,2.475,1.5-.062-2.71h2.648l-.062,2.71,2.475-1.5,1.349,2.24Z" transform="translate(-364.642 -161.481)" fill="#e0e0e0"/>
        <path id="Path_58190" data-name="Path 58190" d="M429.7,182.021l2.376,1.237-1.349,2.227-2.475-1.46.062,2.673h-2.6l.062-2.673-2.475,1.46-1.324-2.227,2.376-1.237-2.351-1.3,1.324-2.24,2.475,1.5-.062-2.71h2.648l-.062,2.71,2.475-1.5,1.349,2.24Z" transform="translate(-362.521 -161.481)" fill="#e0e0e0"/>
        <path id="Path_58191" data-name="Path 58191" d="M438.589,182l2.376,1.237-1.287,2.339-2.475-1.46v2.673h-2.648l.062-2.673-2.363,1.46-1.324-2.227,2.376-1.237-2.376-1.3,1.324-2.24,2.475,1.5-.062-2.71H437.2v2.71l2.475-1.5,1.349,2.24Z" transform="translate(-360.396 -161.46)" fill="#e0e0e0"/>
      </g>
      <g id="freepik--Plant--inject-64" transform="translate(32.08 259.362)">
        <path id="Path_58192" data-name="Path 58192" d="M52.1,219.63c14.6,7.56,25.786,20.577,33.829,34.905s13.239,30.055,18.374,45.67l4.492,80.513c-16.976-28.879-30.612-62.881-34.287-96.153l11.3-1c-7.572-1.163-13.932-6.645-17.978-13.153S61.64,256.391,59.66,249l13.784,2.017A51.09,51.09,0,0,1,52.1,219.63Z" transform="translate(-27.329 -212.998)" fill="#455a64"/>
        <g id="Group_19563" data-name="Group 19563" transform="translate(24.771 6.632)" opacity="0.3">
          <path id="Path_58193" data-name="Path 58193" d="M52.1,219.63c14.6,7.56,25.786,20.577,33.829,34.905s13.239,30.055,18.374,45.67l4.492,80.513c-16.976-28.879-30.612-62.881-34.287-96.153l11.3-1c-7.572-1.163-13.932-6.645-17.978-13.153S61.64,256.391,59.66,249l13.784,2.017A51.09,51.09,0,0,1,52.1,219.63Z" transform="translate(-52.1 -219.63)"/>
        </g>
        <path id="Path_58194" data-name="Path 58194" d="M101.412,400.86s36.86-44.111,36.44-86.23H123s16.172-10.641,14.848-16.593-1.708-28.459-1.708-28.459l-13.611,3.4s10.208-5.11,11.482-13.19-2.97-45.522-2.97-45.522-16.593,17.446-21.7,35.314-18.56,38.7-14.563,93.159S101.412,400.86,101.412,400.86Z" transform="translate(-17.373 -214.27)" fill="#455a64"/>
        <path id="Path_58195" data-name="Path 58195" d="M97.374,395.824s-39.929-26.6-48.8-60.555L60.539,332s-15.318-5.011-15.6-10.072-4.863-23.287-4.863-23.287l11.693-.247s-9.33-1.868-12.126-8.092-7.56-37.244-7.56-37.244,17.149,10.394,25.167,23.645,23.349,27.073,32.1,71.7S97.374,395.824,97.374,395.824Z" transform="translate(-32.08 -205.064)" fill="#455a64"/>
        <path id="Path_58196" data-name="Path 58196" d="M119.8,245.33a2.7,2.7,0,0,1-.062.47l-.26,1.373c-.247,1.237-.594,3.007-1.052,5.259s-1.027,5.073-1.633,8.327-1.349,6.941-2.066,11.037c-1.522,8.191-3.143,17.966-4.813,28.855s-3.267,22.866-4.751,35.487-2.574,24.672-3.477,35.648-1.51,20.874-1.893,29.189c-.235,4.157-.371,7.919-.507,11.223s-.235,6.187-.3,8.476-.148,4.1-.186,5.358a8.834,8.834,0,0,1-.062,1.4,2.819,2.819,0,0,1,0,.47,2.735,2.735,0,0,1,0-.47c0-.346,0-.8,0-1.4v-5.358c0-2.3.087-5.184.2-8.488s.2-7.078.408-11.235c.334-8.327.94-18.226,1.757-29.214s1.992-23.039,3.44-35.672,3.13-24.623,4.788-35.512,3.378-20.651,4.949-28.83c.742-4.108,1.51-7.8,2.165-11.037s1.237-6.026,1.745-8.3.891-4.009,1.163-5.234l.322-1.361a2.7,2.7,0,0,1,.124-.458Z" transform="translate(-16.261 -206.898)" fill="#263238"/>
        <path id="Path_58197" data-name="Path 58197" d="M104.09,406.634s33.73-38.271,44.2-61.4l-7.907-3.378c5.729.94,11.606-1.522,16.085-5.259s7.709-8.661,10.9-13.512l-10.443-1.707a38.753,38.753,0,0,0,22.755-17.632c-12.3,2.029-23.41,8.773-32.579,17.211a162.769,162.769,0,0,0-19.735,22.816,77.521,77.521,0,0,0-7.659,12.608C114.038,368.1,104.065,392.591,104.09,406.634Z" transform="translate(-14.99 -193.033)" fill="#455a64"/>
        <path id="Path_58198" data-name="Path 58198" d="M45,271.06a2.476,2.476,0,0,1,.223.359c.136.285.334.631.569,1.089.52.99,1.237,2.4,2.165,4.195,1.881,3.638,4.516,8.946,7.671,15.566s6.793,14.539,10.666,23.41,7.931,18.733,11.977,29.152,7.61,20.466,10.752,29.634,5.754,17.484,7.857,24.5,3.712,12.72,4.8,16.679l1.237,4.553.309,1.237a1.756,1.756,0,0,1,.074.408,1.237,1.237,0,0,1-.136-.4c-.1-.285-.223-.68-.371-1.163-.309-1.076-.755-2.6-1.324-4.529-1.138-3.935-2.833-9.614-4.949-16.605s-4.863-15.281-7.993-24.45-6.768-19.154-10.79-29.585-8.1-20.255-11.916-29.152S58.4,299.135,55.282,292.453s-5.655-11.965-7.424-15.64L45.8,272.57c-.223-.47-.4-.829-.52-1.114a2.179,2.179,0,0,1-.285-.4Z" transform="translate(-29.014 -200.792)" fill="#263238"/>
        <path id="Path_58199" data-name="Path 58199" d="M101.774,412.729a3.489,3.489,0,0,1,0-.718c0-.544.124-1.237.2-2.054s.223-1.98.421-3.229.384-2.7.693-4.269c.544-3.155,1.373-6.88,2.475-10.975s2.475-8.525,4.207-13.1,3.638-8.835,5.506-12.633,3.712-7.127,5.42-9.9c.8-1.386,1.609-2.586,2.3-3.712a27.143,27.143,0,0,1,1.819-2.7c.582-.73.878-1.237,1.237-1.67a2.992,2.992,0,0,1,.458-.569,3.879,3.879,0,0,1-.346.643l-1.1,1.732c-.495.755-1.076,1.67-1.732,2.759s-1.435,2.3-2.215,3.712c-1.609,2.747-3.415,6.1-5.271,9.9s-3.712,8.043-5.432,12.6-3.106,8.983-4.244,13.042-1.967,7.77-2.574,10.9c-.334,1.559-.557,2.982-.78,4.232s-.4,2.326-.532,3.217-.235,1.5-.322,2.029a3.266,3.266,0,0,1-.186.767Z" transform="translate(-15.544 -182.721)" fill="#263238"/>
        <rect id="Rectangle_7604" data-name="Rectangle 7604" width="73.819" height="15.058" transform="translate(41.723 221)" fill="#ff975f"/>
        <path id="Path_58200" data-name="Path 58200" d="M131.3,405.05l-7.981,50.656H78.709L71.26,405.05Z" transform="translate(-22.781 -168.991)" fill="#ff975f"/>
        <path id="Path_58201" data-name="Path 58201" d="M69.46,405.112c0-.173,13.97-.322,31.193-.322s31.193.148,31.193.322-13.97.322-31.193.322S69.46,405.3,69.46,405.112Z" transform="translate(-23.208 -169.053)" fill="#263238"/>
      </g>
    </g>
  </g>
</svg>
