<svg xmlns="http://www.w3.org/2000/svg" width="209" height="32.106" viewBox="0 0 209 32.106"><defs><style>.a,.b{fill:#272727;stroke:#272727;}.a{stroke-width:0.3px;}.b{stroke-width:0.5px;}</style></defs><g transform="translate(94.628 14.538)"><g transform="translate(-94.378 -14.288)"><path class="a" d="M15.4,7.414A.414.414,0,0,1,15.814,7H22.1c3.64,0,6.123,2.068,6.123,5.3A5.047,5.047,0,0,1,25,17.094a4.882,4.882,0,0,1,3.889,4.882c0,3.31-2.648,5.626-6.454,5.626H15.814a.414.414,0,0,1-.414-.414Zm7.033,19.03c2.9,0,4.882-1.82,4.882-4.385s-2.234-4.22-5.047-4.22H16.807v8.6ZM22.267,16.6a4.022,4.022,0,0,0,4.385-4.137c0-2.4-1.738-4.137-4.633-4.137H16.807V16.6Z" transform="translate(-2.658 -1.208)"/><path class="a" d="M37.6,7.414A.414.414,0,0,1,38.014,7H49.845a.414.414,0,0,1,.414.414v.5a.414.414,0,0,1-.414.414H39.089v8.108h9.267a.414.414,0,0,1,.414.414v.5a.414.414,0,0,1-.414.414H39.007v8.688H49.763a.414.414,0,0,1,.414.414v.5a.414.414,0,0,1-.414.414H38.014a.414.414,0,0,1-.414-.414Z" transform="translate(-6.49 -1.208)"/><path class="b" d="M66.383,7.579a.579.579,0,0,1,.5-.579H78.711a.579.579,0,0,1,.579.579V9.234a.579.579,0,0,1-.579.579H69.361V16.6h7.86a.579.579,0,0,1,.579.579v1.655a.579.579,0,0,1-.579.579h-7.86v7.777a.579.579,0,0,1-.579.579h-1.9a.579.579,0,0,1-.579-.579Z" transform="translate(-11.445 -1.208)"/><path class="b" d="M86.2,7.579A.579.579,0,0,1,86.779,7h1.986a.579.579,0,0,1,.579.579V19.742c0,2.979,1.9,5.213,4.882,5.213a4.891,4.891,0,0,0,4.964-5.212V7.579A.579.579,0,0,1,99.769,7h1.986a.579.579,0,0,1,.579.579V19.99a8.026,8.026,0,0,1-16.051,0Z" transform="translate(-14.88 -1.208)"/><path class="b" d="M112.183,7.579A.579.579,0,0,1,112.762,7h1.986a.579.579,0,0,1,.579.579V24.954h8.026a.579.579,0,0,1,.579.579v1.655a.579.579,0,0,1-.579.579H112.679a.579.579,0,0,1-.579-.579Z" transform="translate(-19.351 -1.208)"/><path class="b" d="M129.983,7.579A.579.579,0,0,1,130.562,7h11.832a.579.579,0,0,1,.579.579V9.234a.579.579,0,0,1-.579.579h-9.432V16.6h7.86a.579.579,0,0,1,.579.579v1.655a.579.579,0,0,1-.579.579h-7.86v7.777a.579.579,0,0,1-.579.579h-1.9a.579.579,0,0,1-.579-.579Z" transform="translate(-22.423 -1.208)"/><rect class="b" width="3.061" height="20.635" rx="0.524" transform="translate(124.19 5.792)"/><path class="b" d="M160.7,7.579A.579.579,0,0,1,161.279,7h1.986a.579.579,0,0,1,.579.579V24.954h8.026a.579.579,0,0,1,.579.579v1.655a.579.579,0,0,1-.579.579h-10.59a.579.579,0,0,1-.579-.579Z" transform="translate(-27.74 -1.208)"/><path class="b" d="M178.5,7.579A.579.579,0,0,1,179.079,7h1.986a.579.579,0,0,1,.579.579V24.954h8.026a.579.579,0,0,1,.579.579v1.655a.579.579,0,0,1-.579.579h-10.59a.579.579,0,0,1-.579-.579Z" transform="translate(-30.812 -1.208)"/><path class="b" d="M196.3,7.579A.579.579,0,0,1,196.879,7h11.832a.579.579,0,0,1,.579.579V9.234a.579.579,0,0,1-.579.579h-9.349v6.04h7.86a.579.579,0,0,1,.579.579v1.655a.579.579,0,0,1-.579.579h-7.86v6.371h9.349a.579.579,0,0,1,.579.579v1.655a.579.579,0,0,1-.579.579H196.879a.579.579,0,0,1-.579-.579Z" transform="translate(-33.885 -1.208)"/><path class="b" d="M217.3,7.571a.579.579,0,0,1,.5-.579h6.785a10.342,10.342,0,1,1,0,20.6H217.8a.579.579,0,0,1-.5-.579Zm6.867,17.292a7.281,7.281,0,0,0,7.446-7.529A7.281,7.281,0,0,0,224.167,9.8h-3.889V24.863Z" transform="translate(-37.51 -1.2)"/><path class="b" d="M6.95,0V1.655a.993.993,0,0,1-.331.745,1.076,1.076,0,0,1-.745.331h-2.4V28.876h2.4A1.076,1.076,0,0,1,6.95,29.951v1.655H0V0Z"/><path class="b" d="M243.931,29.124a1.075,1.075,0,0,1,.745-.331h2.4V2.73h-2.4a1.076,1.076,0,0,1-.745-.331.993.993,0,0,1-.331-.745V0h6.95V31.606H243.6V29.951a1.076,1.076,0,0,1,.331-.745" transform="translate(-42.05)"/></g></g></svg>