<svg xmlns="http://www.w3.org/2000/svg" width="38.993" height="38.993" viewBox="0 0 38.993 38.993">
  <g id="Group_20287" data-name="Group 20287" transform="translate(-1375 -160)">
    <path id="Path_56634" data-name="Path 56634" d="M19.5,0A19.5,19.5,0,1,1,0,19.5,19.5,19.5,0,0,1,19.5,0Z" transform="translate(1375 160)" fill="rgba(203,203,203,0.13)"/>
    <g id="Group_19743" data-name="Group 19743" transform="translate(1384 168)">
      <path id="Path_61479" data-name="Path 61479" d="M0,0H22V22H0Z" fill="none"/>
      <path id="Path_61480" data-name="Path 61480" d="M4,18.667V7.75A2.75,2.75,0,0,1,6.75,5h9.167a2.75,2.75,0,0,1,2.75,2.75v5.5A2.75,2.75,0,0,1,15.917,16H7.667L4,18.667H4" transform="translate(-0.333 -0.417)" fill="#006069"/>
      <line id="Line_471" data-name="Line 471" x2="6" transform="translate(8 9)" fill="none" stroke="#f8f8f8" stroke-linecap="round" stroke-linejoin="round" stroke-width="1.5"/>
      <line id="Line_472" data-name="Line 472" x2="4" transform="translate(8 12)" fill="none" stroke="#f8f8f8" stroke-linecap="round" stroke-linejoin="round" stroke-width="1.5"/>
    </g>
  </g>
</svg>
