<svg xmlns="http://www.w3.org/2000/svg" width="38.993" height="38.993" viewBox="0 0 38.993 38.993">
  <g id="Group_20288" data-name="Group 20288" transform="translate(-1375 -160)">
    <path id="Path_56634" data-name="Path 56634" d="M19.5,0A19.5,19.5,0,1,1,0,19.5,19.5,19.5,0,0,1,19.5,0Z" transform="translate(1375 160)" fill="rgba(203,203,203,0.13)"/>
    <g id="ringing_1_" data-name="ringing (1)" transform="translate(1386.337 172.186)">
      <g id="Group_18807" data-name="Group 18807" transform="translate(11.826 0.488)">
        <path id="Path_56665" data-name="Path 56665" d="M20.475,7.345a.651.651,0,0,1-.651-.651,6.791,6.791,0,0,0-2-4.833.651.651,0,0,1,.92-.92,8.083,8.083,0,0,1,2.383,5.753.651.651,0,0,1-.651.651Z" transform="translate(-17.632 -0.75)" fill="#006069"/>
      </g>
      <g id="Group_18808" data-name="Group 18808" transform="translate(1 0.488)">
        <path id="Path_56666" data-name="Path 56666" d="M1.651,7.345A.651.651,0,0,1,1,6.694,8.083,8.083,0,0,1,3.383.941a.651.651,0,0,1,.92.92,6.79,6.79,0,0,0-2,4.833.651.651,0,0,1-.651.651Z" transform="translate(-1 -0.75)" fill="#006069"/>
      </g>
      <g id="Group_18809" data-name="Group 18809" transform="translate(1.651 0)">
        <path id="Path_56667" data-name="Path 56667" d="M14.614,11.009a4.36,4.36,0,0,1-1.548-3.336V5.858a4.56,4.56,0,0,0-3.905-4.5v-.7a.651.651,0,0,0-1.3,0v.7a4.559,4.559,0,0,0-3.905,4.5V7.673A4.364,4.364,0,0,1,2.4,11.014a1.139,1.139,0,0,0,.741,2h10.74a1.139,1.139,0,0,0,.735-2.009Z" transform="translate(-2 0)" fill="#006069"/>
        <path id="Path_56668" data-name="Path 56668" d="M10.717,22.953A2.445,2.445,0,0,0,13.109,21H8.326A2.445,2.445,0,0,0,10.717,22.953Z" transform="translate(-4.208 -7.331)" fill="#006069"/>
      </g>
    </g>
  </g>
</svg>
