<svg xmlns="http://www.w3.org/2000/svg" width="26.156" height="28.962" viewBox="0 0 26.156 28.962"><defs><style>.a{fill:#c7beb4;stroke:#c7beb4;stroke-width:0.5px;}</style></defs><g transform="translate(0.25 0.25)"><path class="a" d="M23.984,17.541l-2.1-2.105L12.407,5.964a4.465,4.465,0,0,0-6.314,6.315l9.472,9.475a.992.992,0,1,0,1.4-1.4L7.5,10.875A2.48,2.48,0,0,1,11,7.367l9.474,9.472,2.1,2.1a4.466,4.466,0,1,1-6.317,6.315L14.512,23.5,4.689,13.682l-.7-.7a6.45,6.45,0,0,1,9.121-9.121L23.633,14.383a.992.992,0,1,0,1.4-1.4L14.512,2.456A8.434,8.434,0,0,0,2.584,14.383L13.108,24.908l1.756,1.754a6.45,6.45,0,0,0,9.119-9.122Zm0,0" transform="translate(-0.128 0.001)"/></g></svg>