<svg xmlns="http://www.w3.org/2000/svg" width="17.218" height="21.148" viewBox="0 0 17.218 21.148"><defs><style>.a{fill:#004850;}</style></defs><g transform="translate(-44.806)"><path class="a" d="M119.563,297.973c0-.351-.244-.561-.674-.561a1.493,1.493,0,0,0-.357.034v1.127a1.352,1.352,0,0,0,.289.022C119.28,298.595,119.563,298.363,119.563,297.973Z" transform="translate(-70.493 -284.366)"/><path class="a" d="M194.195,297.681a1.779,1.779,0,0,0-.391.034v2.5a1.56,1.56,0,0,0,.3.017,1.183,1.183,0,0,0,1.291-1.336A1.094,1.094,0,0,0,194.195,297.681Z" transform="translate(-142.462 -284.624)"/><path class="a" d="M56.678,0H48.184a2.254,2.254,0,0,0-2.251,2.251v8.323h-.22a.907.907,0,0,0-.907.907v5.5a.907.907,0,0,0,.907.907h.22V18.9a2.253,2.253,0,0,0,2.251,2.251h11.59a2.253,2.253,0,0,0,2.25-2.251V5.327ZM47.185,12.474a7.11,7.11,0,0,1,1.166-.079,1.829,1.829,0,0,1,1.166.306,1.115,1.115,0,0,1,.408.883,1.219,1.219,0,0,1-.351.906,1.769,1.769,0,0,1-1.24.4,2.234,2.234,0,0,1-.295-.017v1.364h-.854Zm12.588,7.3H48.184a.873.873,0,0,1-.872-.872V17.889h10.8a.907.907,0,0,0,.907-.907v-5.5a.907.907,0,0,0-.907-.907h-10.8V2.251a.873.873,0,0,1,.872-.871l7.978-.008V4.321a1.561,1.561,0,0,0,1.561,1.561l2.889-.008L60.645,18.9A.873.873,0,0,1,59.774,19.77Zm-9.3-3.549V12.474a7.769,7.769,0,0,1,1.166-.079A2.456,2.456,0,0,1,53.2,12.8a1.688,1.688,0,0,1,.645,1.438,1.934,1.934,0,0,1-.634,1.545,2.738,2.738,0,0,1-1.76.492A7.467,7.467,0,0,1,50.476,16.221ZM56.653,14v.7h-1.37v1.534h-.866V12.424h2.332v.707H55.283V14Z"/></g></svg>