<svg xmlns="http://www.w3.org/2000/svg" width="52.318" height="68.68" viewBox="0 0 52.318 68.68"><defs><style>.a{fill:#f26060;}</style></defs><g transform="translate(-61.158 0)"><path class="a" d="M-22804.562-327.979h-40.24a6.043,6.043,0,0,1-6.039-6.033v-56.608a6.046,6.046,0,0,1,6.039-6.039h26.156v14.085a6.042,6.042,0,0,0,6.033,6.039h14.09v42.524A6.043,6.043,0,0,1-22804.562-327.979Zm-12.7-34.134h0v12.794h2.482v-5.414h4.428v-2.214h-4.428v-2.919h4.428v-2.248h-6.91Zm-12.33,0h0v12.794h4.352a10.183,10.183,0,0,0,2.34-.218,4.625,4.625,0,0,0,1.572-.74,5.79,5.79,0,0,0,1.887-2.265,7.178,7.178,0,0,0,.654-3.114,7.938,7.938,0,0,0-.471-2.8,5.659,5.659,0,0,0-1.371-2.128,5,5,0,0,0-1.9-1.176,8.982,8.982,0,0,0-2.787-.35h-4.277Zm-9.256,0h0v12.794h2.506v-4.915h.934a4.7,4.7,0,0,0,3.27-1.1,3.785,3.785,0,0,0,1.211-2.936,4.064,4.064,0,0,0-.453-1.881,3.765,3.765,0,0,0-1.246-1.417,3.018,3.018,0,0,0-1.129-.419,10.4,10.4,0,0,0-1.91-.132h-3.182Zm13.447,10.6h-1.668v-8.419h1.635a4.016,4.016,0,0,1,3.01,1.107,4.291,4.291,0,0,1,1.078,3.1,4.464,4.464,0,0,1-.986,3.189A4.1,4.1,0,0,1-22825.4-351.515Zm-10.283-4.88h-.658v-3.47h.643a2.66,2.66,0,0,1,1.639.424,1.545,1.545,0,0,1,.539,1.3,1.581,1.581,0,0,1-.555,1.3A2.47,2.47,0,0,1-22835.68-356.4Z" transform="translate(22912 396.659)"/><path class="a" d="M333.012,23.707h12.906L331,8.789V21.7A2.014,2.014,0,0,0,333.012,23.707Z" transform="translate(-233.781 -7.61)"/></g></svg>