<svg id="Group_20031" data-name="Group 20031" xmlns="http://www.w3.org/2000/svg" width="26.956" height="29.904" viewBox="0 0 26.956 29.904">
  <path id="attach_2_" data-name="attach(2)" d="M25.193,18.429l-2.212-2.212L13.029,6.266A4.691,4.691,0,0,0,6.395,12.9l9.952,9.955a1.043,1.043,0,1,0,1.474-1.475L7.869,11.426a2.606,2.606,0,0,1,3.685-3.685l9.954,9.952L23.721,19.9a4.692,4.692,0,1,1-6.637,6.635L15.241,24.7,4.92,14.375l-.737-.737a6.777,6.777,0,0,1,9.583-9.583L24.824,15.112A1.043,1.043,0,1,0,26.3,13.638L15.241,2.58A8.862,8.862,0,0,0,2.709,15.112L13.766,26.17l1.845,1.843a6.777,6.777,0,0,0,9.581-9.584Zm0,0" transform="translate(-0.128 0.001)" fill="#262627"/>
</svg>
