<svg xmlns="http://www.w3.org/2000/svg" width="778" height="859.376" viewBox="0 0 778 859.376"><defs><style>.a{fill:#e0e0e0;}.b{fill:#ebebeb;}.c{fill:#fff;}.d{fill:#fafafa;}.e{fill:#263238;}.f{fill:#ff975f;}.g{fill:#f5f5f5;}.h{fill:#455a64;}.i{opacity:0.3;}.j{opacity:0.6;}.k{fill:#f2cbb7;}.l{fill:#8e4842;}.m{fill:#ce9578;}.n{fill:#196f77;opacity:0.045;}</style></defs><g transform="translate(80.92 118.997)"><g transform="translate(39.479 52.727)"><rect class="a" width="105.743" height="175.021" transform="translate(3.514)"/><rect class="b" width="105.743" height="175.021"/><rect class="c" width="96.735" height="167.931" transform="translate(4.504 3.551)"/><rect class="b" width="59.479" height="124.29" transform="translate(22.915 25.365)"/><path class="a" d="M56.58,141.463c-.136-11.606,10.307-22.94,21.8-24.561,5.481-.767,11.309.322,16.432-1.782,9.144-3.712,12.052-15.9,21.257-19.5l.421,89.831H56.58Z" transform="translate(-33.665 -35.795)"/><path class="a" d="M488.624,54.44v83.928H368.083L363.74,55.022Z" transform="translate(39.235 -45.568)"/><rect class="c" width="83.161" height="120.541" transform="translate(402.975 92.615) rotate(-90)"/><path class="a" d="M484.972,138.762H363.28V54.45H484.972Zm-120.541-1.151h119.39V55.6H364.431Z" transform="translate(39.126 -45.566)"/><rect class="c" width="94.433" height="62.498" transform="translate(416.029 19.785)"/><path class="a" d="M468.8,63.322h-6.991l-19.463.074-67.979.124.285-.272v62.5h0l-.3-.3h94.433l-.235.235c0-19.018.1-34.645.124-45.472,0-5.42,0-9.664.062-12.571v-.1c0,2.9,0,7.127.062,12.522,0,10.9.074,26.541.124,45.621v.247H373.96v-.309h0V63h.272l68.165.136,19.389.074h6.88Z" transform="translate(41.661 -43.537)"/><path class="a" d="M363.74,54.72a10.629,10.629,0,0,1,2.079,1.349c1.237.891,2.908,2.153,4.727,3.6s3.415,2.821,4.529,3.86a9.155,9.155,0,0,1,1.72,1.757,83.179,83.179,0,0,1-6.62-5.147A67.825,67.825,0,0,1,363.74,54.72Z" transform="translate(39.235 -45.502)"/><path class="a" d="M463.673,54.91a56.607,56.607,0,0,1-6.385,5.407,57.351,57.351,0,0,1-6.719,4.949,59.928,59.928,0,0,1,6.348-5.395,58.987,58.987,0,0,1,6.756-4.962Z" transform="translate(59.843 -45.457)"/><path class="c" d="M463.67,124.219,450.22,113.33" transform="translate(59.76 -31.592)"/><path class="a" d="M450.22,113.33a63.265,63.265,0,0,1,6.917,5.222,64.806,64.806,0,0,1,6.533,5.667,60.294,60.294,0,0,1-6.917-5.209,65.592,65.592,0,0,1-6.533-5.679Z" transform="translate(59.76 -31.592)"/><path class="a" d="M363.74,124.078a58.638,58.638,0,0,1,6.286-5.333,55,55,0,0,1,6.645-4.875,58.634,58.634,0,0,1-6.286,5.333,54.99,54.99,0,0,1-6.644,4.875Z" transform="translate(39.235 -31.463)"/><rect class="a" width="20.923" height="59.417" transform="translate(435.208 60.196) rotate(-90)"/><path class="a" d="M390.066,342.613a43.826,43.826,0,0,0-18.721-6.447c-3.056-.309-6.409-.223-8.859,1.633a1.844,1.844,0,0,0-.916,1.621,1.992,1.992,0,0,0,.866,1.1c7.622,5.815,19.142,6.546,27.63,2.091" transform="translate(38.72 21.263)"/><path class="a" d="M388.033,346.547a90.765,90.765,0,0,1-12.089-10.629,30.723,30.723,0,0,1-7.585-14.019,5.7,5.7,0,0,1,.594-4.69c9.639,7.523,17.211,17.323,19.08,29.337" transform="translate(40.271 16.796)"/><path class="a" d="M384.639,346.846a43.592,43.592,0,0,1,.223-15.875,21.455,21.455,0,0,1,8.451-13.091c1.67,3.885.953,8.377-.223,12.448a59.963,59.963,0,0,1-8.389,17.644" transform="translate(44.048 16.955)"/><path class="a" d="M396.676,355c-5.729.693-10.728,3.712-15.009,7.6a28.372,28.372,0,0,0-8.587,14.675c5.63-.346,10.393-4.318,13.858-8.76s5.865-9.33,9.664-13.487" transform="translate(41.452 25.765)"/><path class="a" d="M394.3,363.877a37.009,37.009,0,0,1,4.281-35.017c3.267,11.619,2.066,24.747-4.281,35.017" transform="translate(45.878 19.561)"/><path class="a" d="M408.881,369.19a26.739,26.739,0,0,0-25.6,14.737,1.967,1.967,0,0,0-.173,2,1.869,1.869,0,0,0,1.7.495c5.048-.322,9.515-3.353,13.215-6.818s6.9-7.424,10.975-10.431" transform="translate(43.785 29.12)"/><path class="a" d="M403.992,375.324a47.662,47.662,0,0,1-.483-26.627c.94-3.427,2.475-7.04,5.692-8.661a1.089,1.089,0,0,1,.866-.148,1.1,1.1,0,0,1,.544.631,16.085,16.085,0,0,1,1.349,7.647,48.246,48.246,0,0,1-1.237,7.733c-1,4.727-1.534,9.812-4.12,13.883a27.978,27.978,0,0,0-1.658,3.056c-.482,1.027-.482,1.4-.94,2.215" transform="translate(48.279 22.17)"/><path class="a" d="M430.458,378.128c-2.475-9.3.148-20.6,6.026-28.236.433-.557,1-1.163,1.708-1.1,1.076.1,1.361,1.547,1.312,2.623a50.966,50.966,0,0,1-9.045,26.714" transform="translate(54.849 24.29)"/><path class="a" d="M432.69,376.023c11.322,2.945,24.289.074,33.705-6.855a27.221,27.221,0,0,0-18.251-2.24c-6.088,1.386-11.656,4.12-15.454,9.094" transform="translate(55.599 28.437)"/><path class="a" d="M434.72,372.534c6.335-10.332,18.486-17.075,30.587-17.694-1.386,4.949-5.432,8.748-10,11.062s-9.664,3.316-14.687,4.294c-1.955.384-4.628.8-5.9,2.339" transform="translate(56.081 25.727)"/><path class="a" d="M431.621,351.655a88.431,88.431,0,0,0,3.972-17.917c.47-6.1-.4-12.472-3.564-17.719-5.914,11.458-6.521,24.833-.52,36.254" transform="translate(54.318 16.514)"/><path class="a" d="M446.9,341.291c6.917-12.584,21.035-22.631,35.326-24.041-5.506,13.734-20.54,24.338-35.326,24.041" transform="translate(58.972 16.806)"/><path class="a" d="M443.38,339.068c10.319,1.571,19.117,8.166,28.768,12.163a12.917,12.917,0,0,0,6.5,1.237,5.1,5.1,0,0,0,3.192-9.008,13.872,13.872,0,0,0-4.727-2.858c-10.5-4.38-21.777-4.492-32.839-1.831" transform="translate(58.137 21.492)"/><path class="a" d="M438.55,344.616c2.339.668,3.13,1.881,4.949,3.465a53.811,53.811,0,0,0,21.814,11.2c.829.21,1.93.3,2.339-.458s-.1-1.46-.569-2.042a30.067,30.067,0,0,0-13.128-8.946c-5.036-1.868-9.391-4.133-15.4-3.65" transform="translate(56.99 23.182)"/><path class="a" d="M433.1,309.393a41.265,41.265,0,0,0,31.651,10.777,2.153,2.153,0,0,0,1.435-.52c.8-.866-.148-2.2-1.076-2.932-9.3-7.251-20.577-10.258-32.01-7.325" transform="translate(55.697 14.677)"/><path class="a" d="M439.56,308.466a44.161,44.161,0,0,1,39.5-6.521,31.341,31.341,0,0,1-18.82,8.265,59.813,59.813,0,0,1-20.676-1.745" transform="translate(57.23 12.684)"/><path class="a" d="M438.022,295.945c-.9-9.292-.322-16.617-.965-25.984,0-.742-.21-1.646-.9-1.918-.977-.371-1.782.829-2.1,1.819A29.7,29.7,0,0,0,438.01,295.7" transform="translate(55.6 5.111)"/><path class="a" d="M436.45,297.011a54.677,54.677,0,0,0,15.392-14.959c3.031-4.157,5.593-9.132,4.949-14.242a14.761,14.761,0,0,0-11.136,5.519,30.933,30.933,0,0,0-5.667,11.383c-1.237,4.083-2.091,8.278-3.539,12.3" transform="translate(56.492 5.072)"/><path class="a" d="M448.708,292.451a124.266,124.266,0,0,0,37.862-22.272c-4.529-1.819-9.7-.73-14.229,1.1-10.319,4.17-18.77,11.21-23.831,21.121" transform="translate(59.354 5.412)"/><path class="a" d="M439.89,297.622c6.991.755,14.093,1.237,21.035.1s13.252-3.848,19.624-6.521a2.326,2.326,0,0,0,1.336-1.015,1.534,1.534,0,0,0-.483-1.683,4.07,4.07,0,0,0-1.67-.78c-6.929-1.943-14.4-1.027-21.208,1.237a97.822,97.822,0,0,0-18.622,8.661" transform="translate(57.308 9.547)"/><path class="a" d="M408.313,315.343c-4.776-9.626-4.467-20.861-.346-30.773,2.9,4.417,3.254,10.035,2.722,15.293s-2.128,10.678-2.227,15.962" transform="translate(48.981 9.05)"/><path class="a" d="M398.358,301.681a42.874,42.874,0,0,0-31.9,13.611c5.939.928,12.064-.606,17.471-3.242a88.209,88.209,0,0,0,14.959-10.022" transform="translate(39.881 13.11)"/><path class="a" d="M387.645,298.32c-5.828-.47-11.433-1.237-17.026.532a20.366,20.366,0,0,0-12.98,11,30.7,30.7,0,0,0,15.962-3.019,90.329,90.329,0,0,0,14.044-8.513" transform="translate(37.788 12.176)"/><path class="a" d="M403.758,300.085c-5.234-3.427-10.616-6.929-16.716-8.352s-13.165-.371-17.422,4.232c4.949,2.9,10.926,3.242,16.655,3.229s12.745,0,18.139,1.844" transform="translate(40.631 10.61)"/><path class="a" d="M399.192,305.625c-8.958-8.8-12.373-24.6-8.748-36.625a55.779,55.779,0,0,1,8.748,36.625" transform="translate(45.234 5.354)"/><path class="a" d="M417.15,284c1.683-3.922,2.871-8.043,4.393-12.039a34.471,34.471,0,0,1,6.261-11.136,16.481,16.481,0,0,1,11.136-5.741,44.668,44.668,0,0,1-21.53,28.966" transform="translate(51.911 2.051)"/><path class="a" d="M417.983,285.678c-2.8-3.848-6.026-9.07-9.812-11.94s-8.723-4.615-13.351-3.514a31.107,31.107,0,0,0,23.163,15.454" transform="translate(46.612 5.566)"/><path class="a" d="M415.179,284.245a66.431,66.431,0,0,1-4.417-14.3A22.359,22.359,0,0,1,413,255.39c4.949,9.292,6.508,19.265,2.475,28.966" transform="translate(50.307 2.124)"/><path class="a" d="M417.18,259.165c2.784-9.218,11.223-16,20.329-19.117a7.7,7.7,0,0,1,3.563-.532,3.106,3.106,0,0,1,2.636,2.19c.334,1.571-.965,2.982-2.178,4.021a69.377,69.377,0,0,1-24.351,13.437" transform="translate(51.918 -1.65)"/><path class="a" d="M417.293,255.241c.359-5.939.73-11.965,2.66-17.595s5.655-10.913,11.074-13.376c.928,6-1.72,11.965-4.949,17.137s-7.04,10.035-8.958,15.788" transform="translate(51.904 -5.262)"/><path class="a" d="M420.462,258.785c-2.3-6.706-2.549-15.244-6.57-21.035-2.809-4.1-7.313-6.88-9.725-11.21a17.038,17.038,0,0,0,.557,12.72,36.873,36.873,0,0,0,7.424,10.653c2.97,3.168,5.518,5.568,8.29,8.921" transform="translate(48.599 -4.723)"/><path class="a" d="M417.247,450.8c-.173,0-.334-44.792-.346-100.039s.124-100.051.309-100.051.334,44.792.346,100.051S417.432,450.8,417.247,450.8Z" transform="translate(51.852 1.013)"/><path class="a" d="M456.341,304a11.241,11.241,0,0,1-1.683.631l-4.64,1.559c-3.91,1.336-9.28,3.267-15.1,5.655s-11.21,4.479-14.316,7.164a10.468,10.468,0,0,0-2.871,3.8c-.445,1.052-.532,1.7-.582,1.7s0-.173,0-.47a7.214,7.214,0,0,1,.334-1.312,10.047,10.047,0,0,1,2.809-4.058,25,25,0,0,1,6.187-3.848c2.475-1.163,5.246-2.376,8.166-3.576,5.84-2.388,11.247-4.256,15.207-5.481,1.967-.619,3.588-1.064,4.7-1.373A9.1,9.1,0,0,1,456.341,304Z" transform="translate(51.907 13.661)"/><path class="a" d="M468.579,278.511a3.147,3.147,0,0,1-.47.495l-1.435,1.349-5.37,4.875-17.867,15.912c-6.966,6.187-12.992,12.126-17.162,16.593-2.091,2.227-3.712,4.083-4.863,5.37-.532.594-.953,1.089-1.3,1.485s-.47.507-.483.483a2.475,2.475,0,0,1,.384-.569c.272-.359.668-.891,1.237-1.559,1.064-1.349,2.66-3.242,4.714-5.518a226.435,226.435,0,0,1,17.088-16.766c6.991-6.187,13.363-11.755,17.978-15.764l5.506-4.727,1.522-1.237C468.344,278.622,468.567,278.486,468.579,278.511Z" transform="translate(52.5 7.611)"/><path class="a" d="M432.793,304.876c-.186-.087,1.237-3.452,2.722-7.7s2.165-7.845,2.351-7.82a26.557,26.557,0,0,1-1.732,8.018,52.183,52.183,0,0,1-2.165,5.382,8.657,8.657,0,0,1-1.175,2.116Z" transform="translate(55.62 10.186)"/><path class="a" d="M422.206,330.085a7.95,7.95,0,0,1-1.076-1.237l-2.759-3.477c-2.314-2.994-5.506-7.115-9.082-11.631s-6.88-8.562-9.268-11.495l-2.833-3.539a8.662,8.662,0,0,1-.977-1.336,8.66,8.66,0,0,1,1.163,1.176c.718.767,1.732,1.918,2.97,3.341,2.475,2.858,5.84,6.867,9.428,11.4s6.719,8.661,8.946,11.755c1.114,1.522,1.992,2.772,2.586,3.65a10.093,10.093,0,0,1,.9,1.4Z" transform="translate(46.942 12.087)"/><path class="a" d="M411.133,317.5a15.664,15.664,0,0,1-3.6-6.731,19.613,19.613,0,0,1-.817-6.781H407c-.124.52-.21.792-.272.78s0-.3,0-.829h.285a30.8,30.8,0,0,0,1.138,6.595,49.928,49.928,0,0,0,2.982,6.966Z" transform="translate(49.428 13.647)"/><path class="a" d="M405.032,304.176a10.976,10.976,0,0,0-2.475-1.46,16.669,16.669,0,0,0-6.966-.557,42.538,42.538,0,0,0-7.016,1.138,22.943,22.943,0,0,1-2.9.693,9.639,9.639,0,0,1,2.772-1.138,32.048,32.048,0,0,1,7.09-1.336,15.083,15.083,0,0,1,7.189.78,4.331,4.331,0,0,1,2.3,1.881Z" transform="translate(44.442 13.039)"/><path class="a" d="M404.426,301.7c0,.1-1.46-.594-3.848-1.4a39.036,39.036,0,0,0-9.589-1.98,39.868,39.868,0,0,0-9.787.495c-2.475.445-3.984.916-4.021.8a3.279,3.279,0,0,1,1.027-.433,24.939,24.939,0,0,1,2.9-.817,34.25,34.25,0,0,1,19.637,1.5,24.538,24.538,0,0,1,2.747,1.237,3.587,3.587,0,0,1,.94.594Z" transform="translate(42.425 12.137)"/><path class="a" d="M418.106,293.126a78.386,78.386,0,0,1-2.809-9.738,80.168,80.168,0,0,1-2.178-9.9,81.667,81.667,0,0,1,2.809,9.75A80.272,80.272,0,0,1,418.106,293.126Z" transform="translate(50.955 6.42)"/><path class="a" d="M418.764,291.384a48.564,48.564,0,0,0-3.106-5.828,25.83,25.83,0,0,0-4.578-4.727,4.355,4.355,0,0,1,1.769.916,14.564,14.564,0,0,1,3.341,3.44,12.93,12.93,0,0,1,2.574,6.2Z" transform="translate(50.471 8.162)"/><path class="a" d="M425.048,405.661c-.062,0-.2-1.076-.705-2.982a42.065,42.065,0,0,0-2.994-7.746c-3.093-6.323-8.723-14.353-15.875-22.383-3.551-4.046-6.991-7.869-9.9-11.532A79.9,79.9,0,0,1,388.5,350.81a48.078,48.078,0,0,1-3.576-7.585c-.334-.94-.569-1.658-.705-2.165a3.041,3.041,0,0,1-.186-.779c.062,0,.384,1.027,1.126,2.858a53.591,53.591,0,0,0,3.712,7.424,82.9,82.9,0,0,0,7.152,10.072c2.932,3.625,6.372,7.424,9.9,11.482,7.177,8.055,12.794,16.172,15.813,22.606a39.127,39.127,0,0,1,2.821,7.894,20.836,20.836,0,0,1,.4,2.24A3.481,3.481,0,0,1,425.048,405.661Z" transform="translate(44.051 22.272)"/><path class="a" d="M452.555,360.83a14.488,14.488,0,0,1-1.856,1.039,40.049,40.049,0,0,0-4.8,3.18,55.409,55.409,0,0,0-6.323,5.766c-2.215,2.339-4.492,5.061-6.83,7.968-4.652,5.853-9.008,11.025-11.619,15.145-1.324,2.054-2.289,3.786-2.92,4.949a15.416,15.416,0,0,1-1.027,1.868,2.141,2.141,0,0,1,.173-.52c.136-.334.322-.841.619-1.46a49.982,49.982,0,0,1,2.759-5.11c2.536-4.232,6.867-9.478,11.507-15.318,2.339-2.908,4.652-5.642,6.9-7.981a52.509,52.509,0,0,1,6.471-5.7,33.3,33.3,0,0,1,4.949-3.044c.606-.309,1.114-.495,1.448-.631a1.809,1.809,0,0,1,.544-.148Z" transform="translate(51.918 27.149)"/><path class="a" d="M451.02,371.318a29.071,29.071,0,0,1-3.922.569,51.713,51.713,0,0,0-9.292,1.831,27.8,27.8,0,0,0-8.315,4.368c-1.918,1.472-2.821,2.7-2.92,2.635a3.229,3.229,0,0,1,.582-.9,14.738,14.738,0,0,1,2.042-2.091,25.279,25.279,0,0,1,8.414-4.628,42.256,42.256,0,0,1,9.453-1.67A21.572,21.572,0,0,1,451.02,371.318Z" transform="translate(54.147 29.628)"/><path class="a" d="M427.5,380.307c-.21-.124,1.559-2.821,2.932-6.447s1.584-6.867,1.819-6.83a6.606,6.606,0,0,1-.074,2.1,22.27,22.27,0,0,1-1.138,4.949,23.327,23.327,0,0,1-2.277,4.541,6.533,6.533,0,0,1-1.262,1.683Z" transform="translate(54.364 28.62)"/><path class="a" d="M463.969,332.71a2.635,2.635,0,0,1-.631.334l-1.844.829c-.8.346-1.782.792-2.883,1.373s-2.4,1.163-3.712,1.967l-2.128,1.237c-.742.433-1.485.928-2.264,1.423-1.571.953-3.155,2.128-4.838,3.341a83.361,83.361,0,0,0-18.634,19.278c-1.151,1.732-2.264,3.341-3.168,4.949-.458.8-.94,1.547-1.349,2.3l-1.138,2.19c-.755,1.361-1.3,2.673-1.844,3.8a31.116,31.116,0,0,0-1.237,2.932c-.3.817-.569,1.386-.767,1.868a2.391,2.391,0,0,1-.322.643,3.52,3.52,0,0,1,.2-.68c.173-.507.384-1.138.656-1.918s.656-1.844,1.175-2.982,1.015-2.475,1.757-3.873l1.114-2.215c.384-.767.866-1.522,1.312-2.339.891-1.621,2-3.267,3.143-5.011a79.6,79.6,0,0,1,18.783-19.426,58.557,58.557,0,0,1,4.949-3.316c.792-.483,1.534-.978,2.289-1.4l2.178-1.237c1.361-.78,2.673-1.349,3.8-1.893a28.2,28.2,0,0,1,2.945-1.237l1.893-.73A2.6,2.6,0,0,1,463.969,332.71Z" transform="translate(51.926 20.475)"/><path class="a" d="M432.4,348.767a4.553,4.553,0,0,1,1.547-2.289,9.713,9.713,0,0,1,6.187-2.388,17.323,17.323,0,0,1,6.533,1.237,9.206,9.206,0,0,1,2.475,1.237,15.273,15.273,0,0,1-2.623-.767,19.634,19.634,0,0,0-6.348-1.052,10.048,10.048,0,0,0-5.927,2.079,18.576,18.576,0,0,0-1.844,1.943Z" transform="translate(55.531 23.176)"/><path class="a" d="M429,353.608a23.51,23.51,0,0,0,1.769-5.729,23.774,23.774,0,0,0-.4-5.989,3.947,3.947,0,0,1,.718,1.67,11.854,11.854,0,0,1-1,8.587C429.569,353.162,429.087,353.645,429,353.608Z" transform="translate(54.724 22.654)"/><path class="a" d="M392.18,398.31c.965,17.125,6.125,34.534,14.056,52.129h34.509c7.56-17.422,12.373-34.806,13.215-52.129Z" transform="translate(45.985 36.044)"/><path class="d" d="M447.323,420.762c0,.173-11.359.322-25.365.322s-25.378-.148-25.378-.322,11.359-.322,25.378-.322S447.323,420.576,447.323,420.762Z" transform="translate(47.029 41.296)"/><path class="d" d="M446.126,425.772c0,.173-10.653.322-23.782.322s-23.794-.148-23.794-.322,10.653-.322,23.794-.322S446.126,425.6,446.126,425.772Z" transform="translate(47.497 42.485)"/><path class="d" d="M404.062,407.39a98.385,98.385,0,0,1,0,15.9A98.385,98.385,0,0,1,404.062,407.39Z" transform="translate(48.729 38.199)"/><path class="d" d="M418.992,407.39a105.544,105.544,0,0,1,0,16.469A105.559,105.559,0,0,1,418.992,407.39Z" transform="translate(52.272 38.199)"/><path class="d" d="M433.062,407.28a109.708,109.708,0,0,1,0,16.791,109.7,109.7,0,0,1,0-16.791Z" transform="translate(55.611 38.173)"/><path class="d" d="M452.646,407.452c0,.186-13.326.334-29.758.334s-29.758-.148-29.758-.334,13.314-.322,29.758-.322S452.646,407.278,452.646,407.452Z" transform="translate(46.211 38.137)"/></g><g transform="translate(33.404 545.768)"><path class="e" d="M568.4,446.062c0,.173-119.823.322-267.611.322s-267.636-.148-267.636-.322,119.8-.322,267.636-.322S568.4,445.876,568.4,446.062Z" transform="translate(-33.15 -445.74)"/></g><g transform="translate(197.376 24.278)"><rect class="f" width="182.754" height="39.842" rx="5.77" transform="translate(0.408 268.667)"/><path d="M207.48,139.147l1.448-3.229a10.864,10.864,0,0,0,6.1,1.93c2.475,0,3.564-.841,3.564-1.98,0-3.452-10.74-1.076-10.74-7.944,0-3.143,2.537-5.754,7.783-5.754a12.485,12.485,0,0,1,6.422,1.633l-1.324,3.254a10.468,10.468,0,0,0-5.123-1.46c-2.537,0-3.514.953-3.514,2.116,0,3.4,10.74,1.052,10.74,7.845,0,3.081-2.549,5.729-7.832,5.729a13.19,13.19,0,0,1-7.523-2.141Z" transform="translate(-155.747 -74.256)"/><path d="M221.62,122.874a2.351,2.351,0,0,1,2.561-2.3,2.314,2.314,0,0,1,2.561,2.215,2.574,2.574,0,0,1-5.123.087Zm.507,4.269h4.108v14.2H222.09Z" transform="translate(-152.391 -74.638)"/><path d="M243.315,125.922v11.829c0,5.283-2.858,7.709-7.981,7.709a11.68,11.68,0,0,1-6.966-1.955L230,140.547a8.538,8.538,0,0,0,5.024,1.609c2.9,0,4.17-1.312,4.17-3.873v-.606a5.865,5.865,0,0,1-4.492,1.757,6.867,6.867,0,1,1,0-13.722,5.741,5.741,0,0,1,4.7,2.029v-1.819Zm-4.071,6.657a3.712,3.712,0,1,0-3.712,3.477,3.452,3.452,0,0,0,3.712-3.477Z" transform="translate(-150.985 -73.417)"/><path d="M257.894,132v8.129h-4.12v-7.5c0-2.289-1.052-3.353-2.871-3.353s-3.415,1.237-3.415,3.823v7.028H243.38v-14.2H247.3v1.67a6.187,6.187,0,0,1,4.7-1.881C255.357,125.711,257.894,127.666,257.894,132Z" transform="translate(-147.227 -73.417)"/><path d="M263.75,122.874a2.351,2.351,0,0,1,2.561-2.3,2.3,2.3,0,0,1,2.549,2.215,2.561,2.561,0,0,1-5.11.087Zm.495,4.269h4.12v14.2h-4.12Z" transform="translate(-142.392 -74.638)"/><path d="M285.079,132v8.129H281v-7.5c0-2.289-1.064-3.353-2.883-3.353s-3.4,1.237-3.4,3.823v7.028h-4.12v-14.2h3.935v1.67a6.187,6.187,0,0,1,4.7-1.881C282.555,125.711,285.079,127.666,285.079,132Z" transform="translate(-140.769 -73.417)"/><path class="e" d="M174.4,187.844v.668H169.23V181.2h5.024v.668H170v2.6h3.786v.668H170v2.71Z" transform="translate(-164.825 -60.246)"/><path class="e" d="M174.26,184.56h2.735v.656H174.26Z" transform="translate(-163.631 -59.448)"/><path class="e" d="M186.89,184.994v3.18h-.742v-3.106c0-1.163-.582-1.769-1.571-1.769a1.782,1.782,0,0,0-1.844,1.992v2.883h-.742v-3.106c0-1.163-.582-1.769-1.584-1.769a1.782,1.782,0,0,0-1.844,1.992v2.883h-.742v-5.494h.705v1a2.252,2.252,0,0,1,2.017-1.052,1.98,1.98,0,0,1,1.955,1.163,2.475,2.475,0,0,1,2.178-1.163,2.079,2.079,0,0,1,2.215,2.363Z" transform="translate(-162.786 -59.908)"/><path class="e" d="M191.023,184.775v3.4h-.705v-.854a2.066,2.066,0,0,1-1.893.916c-1.237,0-2-.656-2-1.609s.532-1.559,2.116-1.559h1.745v-.334c0-.94-.532-1.448-1.559-1.448a2.833,2.833,0,0,0-1.831.643l-.334-.557a3.514,3.514,0,0,1,2.24-.742,1.955,1.955,0,0,1,2.227,2.141Zm-.742,1.757v-.9h-1.72c-1.064,0-1.411.421-1.411.99s.507,1.027,1.386,1.027a1.745,1.745,0,0,0,1.745-1.114Z" transform="translate(-160.745 -59.91)"/><path class="e" d="M191.64,181.364a.544.544,0,1,1,.544.544.532.532,0,0,1-.544-.544Zm.161,1.745h.755V188.6H191.8Z" transform="translate(-159.506 -60.336)"/><path class="e" d="M194.05,180.84h.742V188.6h-.742Z" transform="translate(-158.934 -60.331)"/><path d="M172.692,241.967c0,1.559-1.126,2.475-2.994,2.475H167.73v2.314H167V239.43h2.735C171.566,239.455,172.692,240.408,172.692,241.967Zm-.767,0c0-1.163-.78-1.831-2.24-1.831H167.73v3.712h1.955c1.46,0,2.264-.73,2.264-1.881Z" transform="translate(-165.354 -46.426)"/><path d="M177.025,243.035v3.4h-.705v-.854a2.054,2.054,0,0,1-1.893.9c-1.237,0-2.017-.643-2.017-1.6s.544-1.559,2.128-1.559h1.745V243c0-.94-.532-1.448-1.559-1.448a2.834,2.834,0,0,0-1.831.643l-.334-.557a3.514,3.514,0,0,1,2.24-.742,1.955,1.955,0,0,1,2.227,2.141Zm-.742,1.757v-.9h-1.72c-1.076,0-1.423.421-1.423.977s.52,1.039,1.4,1.039a1.757,1.757,0,0,0,1.745-1.163Z" transform="translate(-164.07 -46.083)"/><path d="M177.16,245.8l.334-.582a3.279,3.279,0,0,0,1.955.619c1.039,0,1.472-.359,1.472-.9,0-1.435-3.564-.3-3.564-2.475,0-.9.767-1.571,2.165-1.571a3.712,3.712,0,0,1,1.955.52l-.334.594a2.8,2.8,0,0,0-1.621-.47c-.99,0-1.423.384-1.423.9,0,1.485,3.564.371,3.564,2.475,0,.953-.841,1.559-2.277,1.559a3.588,3.588,0,0,1-2.227-.668Z" transform="translate(-162.943 -46.079)"/><path d="M181.29,245.8l.334-.582a3.279,3.279,0,0,0,1.955.619c1.052,0,1.472-.359,1.472-.9,0-1.435-3.564-.3-3.564-2.475,0-.9.78-1.571,2.178-1.571a3.712,3.712,0,0,1,1.943.52l-.322.594a2.846,2.846,0,0,0-1.621-.47c-1,0-1.435.384-1.435.9,0,1.485,3.564.371,3.564,2.475,0,.953-.829,1.559-2.264,1.559a3.6,3.6,0,0,1-2.24-.668Z" transform="translate(-161.963 -46.079)"/><path d="M194.21,240.93l-2.079,5.494h-.705l-1.732-4.5-1.732,4.5h-.705l-2.066-5.494h.705l1.732,4.665,1.769-4.665h.631l1.757,4.665,1.745-4.665Z" transform="translate(-161.037 -46.07)"/><path d="M192.81,243.691a2.809,2.809,0,1,1,2.809,2.8,2.71,2.71,0,0,1-2.809-2.8Zm4.85,0a2.054,2.054,0,1,0-2.042,2.141,2,2,0,0,0,2.042-2.141Z" transform="translate(-159.229 -46.084)"/><path d="M201.332,240.892v.718h-.173a1.782,1.782,0,0,0-1.856,2.029v2.8h-.742v-5.494h.718v1.076A2.042,2.042,0,0,1,201.332,240.892Z" transform="translate(-157.864 -46.082)"/><path d="M206.98,239.1v7.758h-.718v-1.089a2.376,2.376,0,0,1-2.116,1.138,2.8,2.8,0,0,1,0-5.593,2.475,2.475,0,0,1,2.091,1.089v-3.3Zm-.73,5.011a2.054,2.054,0,1,0-2.042,2.141,2,2,0,0,0,2.042-2.141Z" transform="translate(-157.202 -46.504)"/><path class="c" d="M220.56,320.843l.73-1.621a5.432,5.432,0,0,0,3.056.965c1.237,0,1.782-.421,1.782-.99,0-1.732-5.382-.544-5.382-3.984,0-1.571,1.237-2.883,3.9-2.883a6.187,6.187,0,0,1,3.217.817l-.656,1.633a5.2,5.2,0,0,0-2.574-.73c-1.237,0-1.757.47-1.757,1.052,0,1.708,5.382.532,5.382,3.935,0,1.547-1.237,2.871-3.922,2.871a6.62,6.62,0,0,1-3.774-1.064Z" transform="translate(-152.643 -29.124)"/><path class="c" d="M227.667,312.681a1.237,1.237,0,0,1,1.237-1.151,1.151,1.151,0,0,1,1.237,1.1,1.281,1.281,0,0,1-2.561,0Zm.247,2.141h2.066v7.115h-2.066Z" transform="translate(-150.977 -29.315)"/><path class="c" d="M238.4,317.249v4.071h-2.054v-3.712c0-1.163-.532-1.683-1.448-1.683a1.693,1.693,0,0,0-1.708,1.918v3.514H231.12v-7.115h1.98v.829a3.106,3.106,0,0,1,2.351-.94,2.784,2.784,0,0,1,2.945,3.118Z" transform="translate(-150.136 -28.698)"/><path class="c" d="M245.995,314.2v5.952c0,2.648-1.423,3.86-4,3.86a5.791,5.791,0,0,1-3.489-.977l.817-1.485a4.232,4.232,0,0,0,2.475.817c1.46,0,2.091-.668,2.091-1.955v-.26a2.92,2.92,0,0,1-2.24.891,3.452,3.452,0,1,1,0-6.892A2.846,2.846,0,0,1,244,315.178v-.916Zm-2.029,3.328a1.881,1.881,0,1,0-1.868,1.757,1.732,1.732,0,0,0,1.868-1.757Z" transform="translate(-148.505 -28.693)"/><path class="c" d="M248.857,312.681a1.237,1.237,0,0,1,1.237-1.151,1.151,1.151,0,0,1,1.237,1.1,1.281,1.281,0,0,1-2.561,0Zm.247,2.141h2.066v7.115h-2.116Z" transform="translate(-145.947 -29.315)"/><path class="c" d="M259.536,317.249v4.071h-2.054v-3.712c0-1.163-.532-1.683-1.448-1.683a1.693,1.693,0,0,0-1.708,1.918v3.514H252.26v-7.115h1.967v.829a3.143,3.143,0,0,1,2.363-.94,2.784,2.784,0,0,1,2.945,3.118Z" transform="translate(-145.119 -28.698)"/><rect class="b" width="182.754" height="39.533" rx="7.01" transform="translate(0.408 136.198)"/><path class="e" d="M340.151,233.115h.272a3.858,3.858,0,0,0,.829-.074,8.365,8.365,0,0,0,3.044-1.027,8.661,8.661,0,0,0,3.539-3.712,8.452,8.452,0,0,0,.841-3.2c0-1.237,0-2.475,0-3.836,0-5.432,0-12.1-.1-19.8a8.587,8.587,0,0,0-2.475-5.184,8.451,8.451,0,0,0-5.58-2.475H326.664l-151.945.1a8.389,8.389,0,0,0-7.993,5.9,19.586,19.586,0,0,0-.371,5.345v18.857a8.773,8.773,0,0,0,.285,2.549,8.314,8.314,0,0,0,2.648,4.232,8.414,8.414,0,0,0,4.541,1.967c1.67.087,3.44,0,5.147,0h29.931l68.289.062,46.041.111h0l-46.041.1-68.288.074H173.791a8.958,8.958,0,0,1-7.733-6.385,9.637,9.637,0,0,1-.3-2.71V202.416a10.245,10.245,0,0,1,.4-2.8,9.045,9.045,0,0,1,8.661-6.36l151.908.087H340.6a8.834,8.834,0,0,1,8.426,7.956c.074,7.758,0,14.378,0,19.8v3.848a8.722,8.722,0,0,1-.891,3.279,8.587,8.587,0,0,1-3.65,3.786,8.141,8.141,0,0,1-3.106.978A7.426,7.426,0,0,1,340.151,233.115Z" transform="translate(-165.65 -57.384)"/><rect class="b" width="182.754" height="39.533" rx="7.01" transform="translate(0.408 207.543)"/><path class="e" d="M340.151,290.775h.272a7.25,7.25,0,0,0,.829-.087,8.538,8.538,0,0,0,3.044-1.015,8.748,8.748,0,0,0,3.539-3.712,8.452,8.452,0,0,0,.841-3.2c0-1.237,0-2.475,0-3.848,0-5.42,0-12.1-.1-19.8a8.513,8.513,0,0,0-2.475-5.172,8.4,8.4,0,0,0-5.58-2.413H326.664l-151.945.037a8.4,8.4,0,0,0-7.993,5.914,19.465,19.465,0,0,0-.371,5.333v18.857a8.662,8.662,0,0,0,.285,2.549,8.315,8.315,0,0,0,2.648,4.232,8.414,8.414,0,0,0,4.541,1.967c1.67.1,3.44,0,5.147,0h29.931l68.289.074,46.041.1,12.522.062h0l-12.522.062-46.041.111-68.289.062H179c-1.732,0-3.415.062-5.209,0a8.958,8.958,0,0,1-7.733-6.459,9.589,9.589,0,0,1-.3-2.71V260.089a10.332,10.332,0,0,1,.4-2.809,9.045,9.045,0,0,1,8.661-6.36l151.908.087,13.8.012a8.785,8.785,0,0,1,5.84,2.549,8.9,8.9,0,0,1,2.586,5.407c.074,7.758,0,14.378,0,19.8v3.86a8.773,8.773,0,0,1-4.541,7.065,8.3,8.3,0,0,1-3.106.965A7.417,7.417,0,0,1,340.151,290.775Z" transform="translate(-165.65 -43.699)"/><path class="a" d="M341.675,408.523a7.472,7.472,0,0,0,1.114-.124,7.164,7.164,0,0,0,2.97-1.237,7.028,7.028,0,0,0,2.809-4.318,17.32,17.32,0,0,0,.136-3.366c0-1.237,0-2.475,0-3.885,0-5.481,0-12.175-.062-19.946a6.966,6.966,0,0,0-2.475-5.135,6.767,6.767,0,0,0-2.722-1.386,11.692,11.692,0,0,0-3.18-.223H326.282l-153.046.087a6.867,6.867,0,0,0-4.8,1.98,6.744,6.744,0,0,0-2.017,4.764v24.512a11.816,11.816,0,0,0,.161,2.586,6.793,6.793,0,0,0,2.747,4.12,6.906,6.906,0,0,0,2.277,1.039,10.046,10.046,0,0,0,2.537.21h35.375l68.808.074,46.388.1,12.608.062h0l-12.608.062-46.425.26-68.808.074H174.1a9.975,9.975,0,0,1-2.685-.223,7.177,7.177,0,0,1-2.475-1.126,7.424,7.424,0,0,1-3.007-4.5,12.026,12.026,0,0,1-.173-2.722V375.734a7.424,7.424,0,0,1,7.424-7.424l153.046.1h13.982a11.7,11.7,0,0,1,3.279.248,7.213,7.213,0,0,1,2.871,1.472,7.424,7.424,0,0,1,2.6,5.419v23.843a17.845,17.845,0,0,1-.161,3.4,7.238,7.238,0,0,1-2.932,4.393,7.139,7.139,0,0,1-3.032,1.237,5.521,5.521,0,0,1-1.163.1Z" transform="translate(-165.652 -15.838)"/><path class="a" d="M288.557,384.772c0,.173-18.5.322-41.315.322s-41.3-.148-41.3-.322,18.486-.322,41.3-.322S288.557,384.6,288.557,384.772Z" transform="translate(-156.113 -12.008)"/><circle class="g" cx="15.491" cy="15.491" r="15.491" transform="translate(76.752 21.908) rotate(-45)"/><path class="a" d="M257.34,112.338a9.9,9.9,0,0,0-10.01-8.8,10.171,10.171,0,0,0-10.01,8.835,13.722,13.722,0,0,0,10.01,3.712A14.192,14.192,0,0,0,257.34,112.338Z" transform="translate(-148.665 -78.678)"/><circle class="a" cx="6.075" cy="6.075" r="6.075" transform="translate(92.59 13.776)"/><path class="e" d="M257.235,113.968a12.237,12.237,0,0,0-.94-2.858,9.626,9.626,0,0,0-2.19-2.7,12.026,12.026,0,0,0-3.96-2.215l-.309-.111.285-.148a6.038,6.038,0,0,0,2.413-2.475,5.927,5.927,0,0,0-1.237-7.214,5.865,5.865,0,0,0-7.869,0,5.754,5.754,0,0,0-1.905,3.514,5.852,5.852,0,0,0,.619,3.712,5.715,5.715,0,0,0,1.064,1.411,6.992,6.992,0,0,0,1.336,1.027l.272.173-.309.087a9.28,9.28,0,0,0-3.959,2.19,9.812,9.812,0,0,0-2.066,2.8,10.738,10.738,0,0,0-.817,2.091,5.683,5.683,0,0,0-.148.569.867.867,0,0,1-.062.2s0-.074,0-.21a1.33,1.33,0,0,1,.111-.582,11.024,11.024,0,0,1,.755-2.141,10.146,10.146,0,0,1,2.066-2.9,9.342,9.342,0,0,1,4.034-2.289v.247a7.721,7.721,0,0,1-1.4-1.039,6.706,6.706,0,0,1-1.126-1.485,6.273,6.273,0,0,1-.681-3.885,6.187,6.187,0,0,1,2-3.712,6.311,6.311,0,0,1,4.17-1.6,6.187,6.187,0,0,1,5.457,9.231,6.323,6.323,0,0,1-2.561,2.475v-.26a12.262,12.262,0,0,1,4.034,2.314,9.565,9.565,0,0,1,2.178,2.8,7.426,7.426,0,0,1,.483,1.237,4.294,4.294,0,0,1,.223.928l.087.594C257.247,113.906,257.247,113.968,257.235,113.968Z" transform="translate(-148.634 -80.84)"/><path class="e" d="M263.932,104.148a.68.68,0,0,1,0-.247v-1.274a4.693,4.693,0,0,0-.1-.656,10.884,10.884,0,0,0-.334-1.6,14.946,14.946,0,0,0-1.72-4.1,15.356,15.356,0,0,0-3.922-4.355,15.182,15.182,0,0,0-6.595-2.809,15.429,15.429,0,0,0-8.067.668,16.816,16.816,0,0,0-2,.891,15.926,15.926,0,0,0-1.868,1.237,16.52,16.52,0,0,0-1.745,1.485,16.321,16.321,0,0,0-3.712,6,15.315,15.315,0,0,0,2.19,13.908,17.25,17.25,0,0,0,1.51,1.769,17.736,17.736,0,0,0,1.732,1.485,19.383,19.383,0,0,0,1.881,1.237,16.713,16.713,0,0,0,2,.879,15.354,15.354,0,0,0,18.461-6.546,14.946,14.946,0,0,0,1.72-4.1,10.884,10.884,0,0,0,.334-1.6,4.7,4.7,0,0,1,.1-.643,3.981,3.981,0,0,0,0-.544v-.742a.68.68,0,0,1,0-.247v1.534a1.811,1.811,0,0,1-.087.656,10.222,10.222,0,0,1-.3,1.609,14.4,14.4,0,0,1-1.7,4.17,15.146,15.146,0,0,1-3.935,4.454,15.5,15.5,0,0,1-6.57,2.957,15.788,15.788,0,0,1-8.228-.668,16.456,16.456,0,0,1-2.042-.891,16.855,16.855,0,0,1-1.93-1.237,20.366,20.366,0,0,1-1.769-1.51,18.175,18.175,0,0,1-1.547-1.819,15.63,15.63,0,0,1,0-18.535,18.023,18.023,0,0,1,1.547-1.807,15.756,15.756,0,0,1,1.881-1.584,14.44,14.44,0,0,1,1.918-1.237,16.457,16.457,0,0,1,2.042-.891A15.595,15.595,0,0,1,261.866,96.2a14.4,14.4,0,0,1,1.7,4.17,10.222,10.222,0,0,1,.3,1.609c0,.235.074.458.087.656s0,.384,0,.544v.99Z" transform="translate(-149.776 -82.243)"/><path class="a" d="M360.043,153.282c0,.186-43.517.322-97.18.322s-97.193-.136-97.193-.322,43.5-.322,97.193-.322S360.043,153.108,360.043,153.282Z" transform="translate(-165.67 -66.948)"/><path class="a" d="M360.043,350.912c0,.173-43.517.322-97.18.322s-97.193-.148-97.193-.322,43.5-.322,97.193-.322S360.043,350.738,360.043,350.912Z" transform="translate(-165.67 -20.044)"/><path class="c" d="M181.947,267.459l2.759,1.559-.718,1.237-2.821-1.658v3.168h-1.4V268.6l-2.809,1.658-.73-1.237,2.8-1.559-2.8-1.534.73-1.237,2.809,1.646V263.19h1.4v3.143l2.821-1.646.718,1.237Z" transform="translate(-163.164 -40.787)"/><path class="c" d="M189.844,267.459l2.784,1.559-.73,1.237-2.809-1.658v3.168h-1.411V268.6l-2.821,1.658-.718-1.237,2.784-1.559-2.784-1.534.718-1.237,2.821,1.646V263.19h1.4v3.143l2.809-1.646.73,1.237Z" transform="translate(-161.286 -40.787)"/><path class="c" d="M197.751,267.449l2.772,1.559-.718,1.237-2.858-1.609V271.8h-1.4v-3.168l-2.821,1.658-.718-1.237,2.8-1.559-2.8-1.534.718-1.237,2.821,1.646V263.23h1.4v3.143l2.821-1.646.718,1.237Z" transform="translate(-159.419 -40.777)"/><path class="c" d="M205.644,267.459l2.772,1.559-.718,1.237-2.821-1.658v3.168h-1.4V268.6l-2.809,1.658-.73-1.237,2.8-1.559-2.722-1.534.73-1.237,2.809,1.646V263.19h1.411v3.143l2.821-1.646.718,1.237Z" transform="translate(-157.537 -40.787)"/><path class="c" d="M182.271,209.912v3.143h-.742v-3.118a1.547,1.547,0,0,0-1.658-1.757,1.807,1.807,0,0,0-1.918,1.992v2.883h-.742v-5.444h.705v1.015a2.314,2.314,0,0,1,2.091-1.064,2.116,2.116,0,0,1,2.264,2.351Z" transform="translate(-162.931 -53.991)"/><path class="c" d="M187.175,209.714v3.353h-.718v-.854a2.054,2.054,0,0,1-1.893.916c-1.237,0-2-.656-2-1.609s.544-1.559,2.116-1.559h1.757v-.334c0-.94-.532-1.448-1.559-1.448a2.784,2.784,0,0,0-1.831.643l-.334-.557a3.464,3.464,0,0,1,2.24-.742,1.955,1.955,0,0,1,2.227,2.19Zm-.742,1.757v-.879H184.7c-1.064,0-1.411.421-1.411.978s.507,1.039,1.386,1.039a1.769,1.769,0,0,0,1.757-1.138Z" transform="translate(-161.661 -54.003)"/><path class="c" d="M197,209.912v3.143h-.742v-3.118c0-1.151-.594-1.757-1.584-1.757a1.782,1.782,0,0,0-1.844,1.992v2.883h-.742v-3.118c0-1.151-.582-1.757-1.584-1.757a1.782,1.782,0,0,0-1.844,1.992v2.883h-.742v-5.444h.705v1a2.252,2.252,0,0,1,2.017-1.052,2,2,0,0,1,1.967,1.163,2.4,2.4,0,0,1,2.165-1.163A2.079,2.079,0,0,1,197,209.912Z" transform="translate(-160.389 -53.991)"/><path class="c" d="M201.794,210.582h-4.6a2.017,2.017,0,0,0,2.165,1.906,2.165,2.165,0,0,0,1.683-.718l.421.483a2.908,2.908,0,0,1-4.949-1.905,2.677,2.677,0,1,1,5.345,0Zm-4.6-.557h3.9a1.955,1.955,0,0,0-3.9,0Z" transform="translate(-158.351 -53.992)"/><path class="c" d="M211.307,210.678c0,1.782-.656,2.833-1.732,2.833a1.114,1.114,0,0,1-1.175-1.151,2.326,2.326,0,0,1-2.091,1.151,2.71,2.71,0,0,1,0-5.407,2.339,2.339,0,0,1,2.066,1.1v-1.052h.681v4.009c0,.582.3.792.643.792.656,0,1.076-.8,1.076-2.215a3.984,3.984,0,0,0-4.306-4.083,4.207,4.207,0,1,0,0,8.4,4.689,4.689,0,0,0,2-.458l.173.507a4.949,4.949,0,0,1-2.178.483,4.739,4.739,0,0,1,0-9.478,4.529,4.529,0,0,1,4.838,4.566Zm-2.92.124a1.992,1.992,0,1,0-1.992,2.091,1.955,1.955,0,0,0,1.992-2.091Z" transform="translate(-157.112 -54.336)"/><path class="c" d="M219.822,209.912v3.143h-.742v-3.118c0-1.151-.582-1.757-1.584-1.757a1.769,1.769,0,0,0-1.831,1.992v2.883h-.742v-3.118c0-1.151-.594-1.757-1.6-1.757a1.782,1.782,0,0,0-1.844,1.992v2.883h-.742v-5.444h.718v1a2.24,2.24,0,0,1,2.017-1.052,1.98,1.98,0,0,1,1.955,1.163,2.475,2.475,0,0,1,2.178-1.163,2.079,2.079,0,0,1,2.215,2.351Z" transform="translate(-154.973 -53.991)"/><path class="c" d="M223.955,209.714v3.353h-.718v-.854a2.054,2.054,0,0,1-1.893.916c-1.237,0-2-.656-2-1.609s.544-1.559,2.128-1.559h1.745v-.334c0-.94-.532-1.448-1.559-1.448a2.784,2.784,0,0,0-1.831.643l-.334-.557a3.514,3.514,0,0,1,2.24-.742,1.955,1.955,0,0,1,2.227,2.19Zm-.742,1.757v-.879h-1.732c-1.064,0-1.411.421-1.411.978s.52,1.039,1.4,1.039a1.769,1.769,0,0,0,1.745-1.138Z" transform="translate(-152.932 -54.003)"/><path class="c" d="M224.57,206.291a.532.532,0,1,1,.16.381A.532.532,0,0,1,224.57,206.291Zm.161,1.745h.742v5.444h-.742Z" transform="translate(-151.691 -54.416)"/><path class="c" d="M227,205.77h.742v7.709H227Z" transform="translate(-151.114 -54.415)"/><path class="c" d="M228.86,211.729a.557.557,0,0,1,.557-.569.569.569,0,0,1,.557.569.582.582,0,0,1-.557.582A.569.569,0,0,1,228.86,211.729Z" transform="translate(-150.673 -53.135)"/><path class="c" d="M230.47,210.357a2.71,2.71,0,0,1,2.833-2.8,2.475,2.475,0,0,1,2.153,1.089l-.557.384a1.856,1.856,0,0,0-1.6-.817,2.141,2.141,0,0,0,0,4.281,1.844,1.844,0,0,0,1.6-.8l.557.384a2.475,2.475,0,0,1-2.153,1.089,2.722,2.722,0,0,1-2.833-2.809Z" transform="translate(-150.291 -53.99)"/><path class="c" d="M235.15,210.354a2.8,2.8,0,1,1,2.8,2.809,2.71,2.71,0,0,1-2.8-2.809Zm4.838,0a2.042,2.042,0,1,0-2.042,2.141,2,2,0,0,0,2.042-2.141Z" transform="translate(-149.18 -53.987)"/><path class="c" d="M249.982,209.912v3.143h-.742v-3.118c0-1.151-.594-1.757-1.584-1.757a1.782,1.782,0,0,0-1.844,1.992v2.883h-.742v-3.118c0-1.151-.582-1.757-1.584-1.757a1.782,1.782,0,0,0-1.844,1.992v2.883H240.9v-5.444h.705v1a2.252,2.252,0,0,1,2.017-1.052,2,2,0,0,1,1.967,1.163,2.4,2.4,0,0,1,2.165-1.163,2.079,2.079,0,0,1,2.227,2.351Z" transform="translate(-147.815 -53.991)"/></g><g transform="translate(455.057 197.792)"><path class="c" d="M459.93,164.81H385.85a11.68,11.68,0,0,0-11.68,11.68v18.436a11.68,11.68,0,0,0,11.68,11.68h.767v10.53l11.866-10.53H459.93a11.68,11.68,0,0,0,11.68-11.68V176.49A11.68,11.68,0,0,0,459.93,164.81Z" transform="translate(-373.867 -164.439)"/><path class="e" d="M459.988,164.881h.643a10.678,10.678,0,0,1,1.708.161c.371.074.792.186,1.237.3a12.563,12.563,0,0,1,1.435.557,11.508,11.508,0,0,1,3.192,2.153,12,12,0,0,1,2.759,3.959,13.462,13.462,0,0,1,.928,5.667V195.74a11.928,11.928,0,0,1-7.424,10.319,12.546,12.546,0,0,1-4.7.878h-61.2l.21-.087-11.854,10.542-.544.47V206.617l.322.322a12.571,12.571,0,0,1-6.644-1.547,12.237,12.237,0,0,1-4.714-4.813,13.126,13.126,0,0,1-1.151-3.168,15.786,15.786,0,0,1-.26-3.3V178.232c0-1.027,0-2.054.087-3.106a12.039,12.039,0,0,1,6.9-9.5,12.584,12.584,0,0,1,5.741-1.1h35.5l27.7.1h0l-27.7.111H386.651a11.841,11.841,0,0,0-5.494,1.052,11.4,11.4,0,0,0-6.545,9.033,27.544,27.544,0,0,0-.074,3.044v15.875a15.119,15.119,0,0,0,.247,3.18,12.647,12.647,0,0,0,1.1,2.994,11.532,11.532,0,0,0,4.467,4.553,11.953,11.953,0,0,0,6.323,1.46H387v10.864l-.544-.235,11.866-10.53.087-.087H454.84c3.3-.1,6.595.408,9.4-.817a11.433,11.433,0,0,0,7.152-9.9c.074-1.336,0-2.7,0-4V177.18a13.326,13.326,0,0,0-.854-5.568,11.78,11.78,0,0,0-2.66-3.9,11.284,11.284,0,0,0-3.106-2.153,13.344,13.344,0,0,0-1.4-.569l-1.237-.322q-1.081.052-2.153.21Z" transform="translate(-373.926 -164.51)"/><path class="a" d="M394.108,182.021l2.376,1.237-1.349,2.227-2.475-1.46.074,2.673h-2.648l.062-2.673-2.475,1.46-1.324-2.227,2.363-1.237-2.363-1.3,1.324-2.24,2.475,1.5-.062-2.71h2.648l-.074,2.71,2.475-1.5,1.349,2.24Z" transform="translate(-370.977 -161.481)"/><path class="a" d="M403.02,182.021l2.376,1.237-1.349,2.227-2.475-1.46.074,2.673H399v-2.673l-2.475,1.46-1.324-2.227,2.363-1.237-2.363-1.3,1.324-2.24,2.475,1.5v-2.71h2.648l-.074,2.71,2.475-1.5,1.349,2.24Z" transform="translate(-368.876 -161.481)"/><path class="a" d="M411.91,182.021l2.376,1.237-1.349,2.227-2.475-1.46.062,2.673h-2.648l.062-2.673-2.475,1.46-1.324-2.227,2.363-1.237-2.363-1.3,1.324-2.24,2.475,1.5-.062-2.71h2.648l-.062,2.71,2.475-1.5,1.349,2.24Z" transform="translate(-366.755 -161.481)"/><path class="a" d="M420.81,182.021l2.376,1.237-1.349,2.227-2.475-1.46.062,2.673h-2.648l.062-2.673-2.475,1.46-1.324-2.227,2.376-1.237-2.376-1.3,1.324-2.24,2.475,1.5-.062-2.71h2.648l-.062,2.71,2.475-1.5,1.349,2.24Z" transform="translate(-364.642 -161.481)"/><path class="a" d="M429.7,182.021l2.376,1.237-1.349,2.227-2.475-1.46.062,2.673h-2.6l.062-2.673-2.475,1.46-1.324-2.227,2.376-1.237-2.351-1.3,1.324-2.24,2.475,1.5-.062-2.71h2.648l-.062,2.71,2.475-1.5,1.349,2.24Z" transform="translate(-362.521 -161.481)"/><path class="a" d="M438.589,182l2.376,1.237-1.287,2.339-2.475-1.46v2.673h-2.648l.062-2.673-2.363,1.46-1.324-2.227,2.376-1.237-2.376-1.3,1.324-2.24,2.475,1.5-.062-2.71H437.2v2.71l2.475-1.5,1.349,2.24Z" transform="translate(-360.396 -161.46)"/></g><g transform="translate(32.08 259.362)"><path class="h" d="M52.1,219.63c14.6,7.56,25.786,20.577,33.829,34.905s13.239,30.055,18.374,45.67l4.492,80.513c-16.976-28.879-30.612-62.881-34.287-96.153l11.3-1c-7.572-1.163-13.932-6.645-17.978-13.153S61.64,256.391,59.66,249l13.784,2.017A51.09,51.09,0,0,1,52.1,219.63Z" transform="translate(-27.329 -212.998)"/><g class="i" transform="translate(24.771 6.632)"><path d="M52.1,219.63c14.6,7.56,25.786,20.577,33.829,34.905s13.239,30.055,18.374,45.67l4.492,80.513c-16.976-28.879-30.612-62.881-34.287-96.153l11.3-1c-7.572-1.163-13.932-6.645-17.978-13.153S61.64,256.391,59.66,249l13.784,2.017A51.09,51.09,0,0,1,52.1,219.63Z" transform="translate(-52.1 -219.63)"/></g><path class="h" d="M101.412,400.86s36.86-44.111,36.44-86.23H123s16.172-10.641,14.848-16.593-1.708-28.459-1.708-28.459l-13.611,3.4s10.208-5.11,11.482-13.19-2.97-45.522-2.97-45.522-16.593,17.446-21.7,35.314-18.56,38.7-14.563,93.159S101.412,400.86,101.412,400.86Z" transform="translate(-17.373 -214.27)"/><path class="h" d="M97.374,395.824s-39.929-26.6-48.8-60.555L60.539,332s-15.318-5.011-15.6-10.072-4.863-23.287-4.863-23.287l11.693-.247s-9.33-1.868-12.126-8.092-7.56-37.244-7.56-37.244,17.149,10.394,25.167,23.645,23.349,27.073,32.1,71.7S97.374,395.824,97.374,395.824Z" transform="translate(-32.08 -205.064)"/><path class="e" d="M119.8,245.33a2.7,2.7,0,0,1-.062.47l-.26,1.373c-.247,1.237-.594,3.007-1.052,5.259s-1.027,5.073-1.633,8.327-1.349,6.941-2.066,11.037c-1.522,8.191-3.143,17.966-4.813,28.855s-3.267,22.866-4.751,35.487-2.574,24.672-3.477,35.648-1.51,20.874-1.893,29.189c-.235,4.157-.371,7.919-.507,11.223s-.235,6.187-.3,8.476-.148,4.1-.186,5.358a8.834,8.834,0,0,1-.062,1.4,2.819,2.819,0,0,1,0,.47,2.735,2.735,0,0,1,0-.47c0-.346,0-.8,0-1.4v-5.358c0-2.3.087-5.184.2-8.488s.2-7.078.408-11.235c.334-8.327.94-18.226,1.757-29.214s1.992-23.039,3.44-35.672,3.13-24.623,4.788-35.512,3.378-20.651,4.949-28.83c.742-4.108,1.51-7.8,2.165-11.037s1.237-6.026,1.745-8.3.891-4.009,1.163-5.234l.322-1.361a2.7,2.7,0,0,1,.124-.458Z" transform="translate(-16.261 -206.898)"/><path class="h" d="M104.09,406.634s33.73-38.271,44.2-61.4l-7.907-3.378c5.729.94,11.606-1.522,16.085-5.259s7.709-8.661,10.9-13.512l-10.443-1.707a38.753,38.753,0,0,0,22.755-17.632c-12.3,2.029-23.41,8.773-32.579,17.211a162.769,162.769,0,0,0-19.735,22.816,77.521,77.521,0,0,0-7.659,12.608C114.038,368.1,104.065,392.591,104.09,406.634Z" transform="translate(-14.99 -193.033)"/><path class="e" d="M45,271.06a2.476,2.476,0,0,1,.223.359c.136.285.334.631.569,1.089.52.99,1.237,2.4,2.165,4.195,1.881,3.638,4.516,8.946,7.671,15.566s6.793,14.539,10.666,23.41,7.931,18.733,11.977,29.152,7.61,20.466,10.752,29.634,5.754,17.484,7.857,24.5,3.712,12.72,4.8,16.679l1.237,4.553.309,1.237a1.756,1.756,0,0,1,.074.408,1.237,1.237,0,0,1-.136-.4c-.1-.285-.223-.68-.371-1.163-.309-1.076-.755-2.6-1.324-4.529-1.138-3.935-2.833-9.614-4.949-16.605s-4.863-15.281-7.993-24.45-6.768-19.154-10.79-29.585-8.1-20.255-11.916-29.152S58.4,299.135,55.282,292.453s-5.655-11.965-7.424-15.64L45.8,272.57c-.223-.47-.4-.829-.52-1.114a2.179,2.179,0,0,1-.285-.4Z" transform="translate(-29.014 -200.792)"/><path class="e" d="M101.774,412.729a3.489,3.489,0,0,1,0-.718c0-.544.124-1.237.2-2.054s.223-1.98.421-3.229.384-2.7.693-4.269c.544-3.155,1.373-6.88,2.475-10.975s2.475-8.525,4.207-13.1,3.638-8.835,5.506-12.633,3.712-7.127,5.42-9.9c.8-1.386,1.609-2.586,2.3-3.712a27.143,27.143,0,0,1,1.819-2.7c.582-.73.878-1.237,1.237-1.67a2.992,2.992,0,0,1,.458-.569,3.879,3.879,0,0,1-.346.643l-1.1,1.732c-.495.755-1.076,1.67-1.732,2.759s-1.435,2.3-2.215,3.712c-1.609,2.747-3.415,6.1-5.271,9.9s-3.712,8.043-5.432,12.6-3.106,8.983-4.244,13.042-1.967,7.77-2.574,10.9c-.334,1.559-.557,2.982-.78,4.232s-.4,2.326-.532,3.217-.235,1.5-.322,2.029a3.266,3.266,0,0,1-.186.767Z" transform="translate(-15.544 -182.721)"/><rect class="f" width="73.819" height="15.058" transform="translate(41.723 221)"/><path class="f" d="M131.3,405.05l-7.981,50.656H78.709L71.26,405.05Z" transform="translate(-22.781 -168.991)"/><path class="e" d="M69.46,405.112c0-.173,13.97-.322,31.193-.322s31.193.148,31.193.322-13.97.322-31.193.322S69.46,405.3,69.46,405.112Z" transform="translate(-23.208 -169.053)"/></g><g transform="translate(345.975 249.075)"><path class="e" d="M371.3,405.847s88.729-46.227,107.97-20.725-19.315,45.534-26.764,50.038-82.815,30.1-82.815,30.1l-19.884-21.22Z" transform="translate(-270.567 -165.255)"/><path class="f" d="M397.484,420.39l35.375,19.043,32.332,7a4.133,4.133,0,0,1,3.081,5.172h0a4.058,4.058,0,0,1-2.586,2.735c-8.03,2.8-37.59,12.93-40.1,11.4-2.908-1.782-38.654-17.62-38.654-17.62Z" transform="translate(-261.757 -155.064)"/><g class="j" transform="translate(161.414 296.495)"><path class="c" d="M461.321,445.63l-45.1,12.844,1.51.78a6.187,6.187,0,0,0,4.256.507c3.823-.9,14.341-3.712,36.687-11.334a4.108,4.108,0,0,0,2.648-2.846Z" transform="translate(-416.22 -445.58)"/></g><g class="j" transform="translate(152.393 295.94)"><path class="c" d="M410.143,445.4a2.475,2.475,0,0,1,3.2.866,2.4,2.4,0,0,1-.829,3.192,2.635,2.635,0,0,1-3.39-.94,2.475,2.475,0,0,1,1.237-3.217" transform="translate(-408.929 -445.132)"/></g><path class="e" d="M437.066,447.539c.2-.148-1.237-1.918-1.237-4.553s1.51-4.368,1.312-4.529-.582.235-1.126,1.015a6.46,6.46,0,0,0-1.064,3.5,6.385,6.385,0,0,0,.965,3.526C436.485,447.291,436.992,447.613,437.066,447.539Z" transform="translate(-250.361 -150.784)"/><path class="e" d="M441.752,447.172c.247-.087-.334-1.831.074-3.947s1.534-3.551,1.336-3.712-1.769,1.138-2.2,3.564S441.566,447.32,441.752,447.172Z" transform="translate(-248.959 -150.528)"/><path class="e" d="M429.976,449.413c.247-.087-.656-2.759-.3-6.112s1.708-5.815,1.472-5.939-2.017,2.252-2.351,5.853S429.79,449.536,429.976,449.413Z" transform="translate(-251.833 -151.037)"/><path class="e" d="M420.692,444.964c.26,0,.433-2.376,1.658-4.949s2.871-4.343,2.7-4.541-2.227,1.336-3.5,4.17S420.457,445,420.692,444.964Z" transform="translate(-253.784 -151.488)"/><path class="e" d="M412.207,440.658c.26,0,.087-2.611,1.6-5.259s3.712-3.922,3.6-4.145-.693.074-1.584.656a8.736,8.736,0,0,0-2.8,3.056,8.884,8.884,0,0,0-1.114,4C411.9,440.027,412.1,440.67,412.207,440.658Z" transform="translate(-255.829 -152.503)"/><path class="e" d="M413.5,435.37a4.777,4.777,0,0,0-1.324-.742,10.541,10.541,0,0,0-4.1-.73,4.714,4.714,0,0,0-2.908.767,1.7,1.7,0,0,0-.52,1.831,2.734,2.734,0,0,0,1.336,1.4,5.815,5.815,0,0,0,7.1-2.1,6.731,6.731,0,0,0-.136-7.511,2.326,2.326,0,0,0-1.683-.99,1.633,1.633,0,0,0-1.534,1.126,5.742,5.742,0,0,0,0,2.982,11.655,11.655,0,0,0,1.534,3.861,5.071,5.071,0,0,0,.965,1.237,18.559,18.559,0,0,1-1.881-5.16,5.283,5.283,0,0,1,0-2.6.854.854,0,0,1,.829-.619,1.584,1.584,0,0,1,1.076.718,6,6,0,0,1,0,6.508,5.048,5.048,0,0,1-6,1.868,1.993,1.993,0,0,1-.978-.928.9.9,0,0,1,.272-1.015,4.231,4.231,0,0,1,2.475-.705,15.553,15.553,0,0,1,5.469.8Z" transform="translate(-257.57 -153.426)"/><path class="e" d="M433.994,436.313s-83.607-50.657-94.9-56.917c-9.713-5.407-40.4-17.323-51.213,12.064s47.415,72.8,47.415,72.8l49.419,2.215,16.494-6.3,18.733,5.766Z" transform="translate(-285.584 -166.458)"/><path class="f" d="M371.707,454.227l-37.479,14.539L307.9,488.773a4.12,4.12,0,0,1-5.939-1.015h0a4.108,4.108,0,0,1-.4-3.712c3.093-7.907,14.625-36.959,17.422-37.862,3.242-1.052,38.518-17.9,38.518-17.9Z" transform="translate(-282.082 -153.191)"/><g class="j" transform="translate(19.144 291.855)"><path class="c" d="M301.97,484.481l19.538-42.651-1.571.643a6.187,6.187,0,0,0-3.155,2.9c-1.794,3.5-6.546,13.289-15.256,35.252a4.133,4.133,0,0,0,.445,3.86Z" transform="translate(-301.238 -441.83)"/></g><g class="j" transform="translate(49.878 291.718)"><path class="c" d="M330.733,444.541a2.475,2.475,0,0,1-2.747,1.868,2.388,2.388,0,0,1-1.881-2.7,2.636,2.636,0,0,1,2.92-1.967,2.475,2.475,0,0,1,1.646,3.031" transform="translate(-326.078 -441.719)"/></g><path class="e" d="M312.11,464.034c0,.26,2.277.285,4.232,2.066s2.339,3.984,2.586,3.935.2-.594,0-1.51a6.546,6.546,0,0,0-5.271-4.64C312.679,463.787,312.11,463.96,312.11,464.034Z" transform="translate(-279.515 -144.748)"/><path class="e" d="M309,467.832c-.087.247,1.609.94,2.945,2.636s1.72,3.465,1.967,3.427.285-2.079-1.237-3.984S309,467.6,309,467.832Z" transform="translate(-280.253 -143.818)"/><path class="e" d="M315.621,457.928c-.1.247,2.475,1.3,4.838,3.712s3.3,5.073,3.551,4.949-.4-2.994-2.92-5.593S315.645,457.7,315.621,457.928Z" transform="translate(-278.682 -146.164)"/><path class="e" d="M324.533,453.593c-.186.186,1.522,1.881,2.722,4.516s1.435,5.011,1.7,4.949.421-2.561-.891-5.37S324.656,453.4,324.533,453.593Z" transform="translate(-276.569 -147.187)"/><path class="e" d="M333.332,449.934c-.161.2,1.93,1.745,2.97,4.628s.532,5.382.792,5.432.4-.569.544-1.633a8.662,8.662,0,0,0-.52-4.108,8.835,8.835,0,0,0-2.3-3.452C334.012,450.095,333.394,449.835,333.332,449.934Z" transform="translate(-274.48 -148.056)"/><path class="e" d="M337.432,454.375a3.341,3.341,0,0,0,1.423-.532,10.458,10.458,0,0,0,3.217-2.636,4.628,4.628,0,0,0,1.3-2.71,1.633,1.633,0,0,0-1.052-1.584,2.685,2.685,0,0,0-1.918.111,5.828,5.828,0,0,0-3.032,6.768,6.756,6.756,0,0,0,5.8,4.776,2.339,2.339,0,0,0,1.844-.643,1.633,1.633,0,0,0,.136-1.893,5.605,5.605,0,0,0-2.277-1.918,12,12,0,0,0-3.935-1.349,3.712,3.712,0,0,0-1.522,0,18.947,18.947,0,0,1,5.147,1.918,5.345,5.345,0,0,1,1.943,1.732.841.841,0,0,1-.074,1.027,1.6,1.6,0,0,1-1.237.359,6.038,6.038,0,0,1-4.949-4.207,5.061,5.061,0,0,1,2.475-5.778,1.9,1.9,0,0,1,1.336-.136.891.891,0,0,1,.594.866,4.219,4.219,0,0,1-1.052,2.314A15.542,15.542,0,0,1,337.432,454.375Z" transform="translate(-273.569 -148.798)"/><path class="e" d="M349.6,464.217c1.052-.544,43.381-17.781,43.381-17.781L350.916,425.6,325.6,438.728Z" transform="translate(-276.313 -153.827)"/><path class="h" d="M302.75,421.571l.582.173,1.67.557,6.4,2.215,23.509,8.253,77.519,27.357,3.712,1.151-.384.173,14.118-29.535.124.384-48.763-29.82L367.2,393.818l-3.712-2.326-.953-.619c-.21-.136-.322-.21-.309-.223l.334.186.99.569,3.774,2.24,14.13,8.5,48.875,29.622.235.148-.111.247-14.081,29.572-.124.247-.26-.087-3.712-1.151c-1.943-.557-3.8-1.237-5.667-1.918l-5.568-1.98-10.926-3.9-20.552-7.337L334.76,433.239l-23.448-8.451-6.36-2.326-1.646-.619a4.871,4.871,0,0,1-.557-.272Z" transform="translate(-281.736 -162.122)"/><path class="h" d="M349.718,463.432a17.5,17.5,0,0,1-1.571-1.5l-4.108-4.244c-3.452-3.6-8.191-8.661-13.4-14.167l-5.234-5.605-.285-.309.371-.186,12.844-6.187,3.712-1.757a9.9,9.9,0,0,1,1.373-.569,6.958,6.958,0,0,1-1.237.755l-3.6,1.831-12.745,6.434.087-.495,5.259,5.593c5.209,5.556,9.9,10.616,13.264,14.3l3.959,4.38a11.788,11.788,0,0,1,1.312,1.72Z" transform="translate(-276.427 -153.041)"/><path class="h" d="M422.971,390.491c.074.161-10.344,4.69-23.262,10.1s-23.435,9.676-23.509,9.515,10.344-4.69,23.262-10.109S422.971,390.318,422.971,390.491Z" transform="translate(-264.304 -162.161)"/><path class="f" d="M372.841,287.45c-.878,0-31.4-.285-37.565,5.877S316.32,393.861,316.32,393.861c6.583,1.237,10.864,3.712,14.848,5.667l51.881,30.253,22.458-11.668a5.642,5.642,0,0,0,1.584-8.575h0l29.882-108.007a55.156,55.156,0,0,0-14.551-7.919C413.674,290.4,372.841,287.45,372.841,287.45Z" transform="translate(-278.515 -186.615)"/><path class="f" d="M407.459,295.55s9.181,2.029,12.7,7.7c8.241,13.277,33.557,60.431,37.813,71.765,4.5,11.965-.334,18.77-3.588,23.819-3.5,5.432-22.742,5.42-31.465-3.9-3.712-4.009-24.573-22.9-24.573-22.9Z" transform="translate(-259.049 -184.692)"/><path class="e" d="M419.865,309.7a6.284,6.284,0,0,1-.346.928l-1.126,2.623c-.928,2.289-2.227,5.617-3.712,9.775-2.994,8.327-6.657,19.971-10.542,32.888s-7.263,24.611-9.775,33.148c-1.237,4.244-2.3,7.671-3.056,10.022l-.891,2.71a5.269,5.269,0,0,1-.346.928,6.343,6.343,0,0,1,.223-.965q.3-1.027.78-2.747c.693-2.475,1.658-5.865,2.858-10.072,2.4-8.513,5.716-20.268,9.589-33.21s7.622-24.561,10.728-32.851c1.547-4.157,2.92-7.424,3.922-9.725l1.237-2.574A4.952,4.952,0,0,1,419.865,309.7Z" transform="translate(-261.012 -181.334)"/><path class="f" d="M343.987,291.446s-9.639,5.481-13.165,8.661-39.954,55.16-44.618,71.357c-2.71,9.379,7.622,28.78,18.758,27.84,14.563-1.237,69.2-22.185,69.2-22.185L361.9,350.43l-30.933,4.949,22.458-22.569-8.377-41.97" transform="translate(-285.767 -185.81)"/><path class="e" d="M446.341,359.613a2.885,2.885,0,0,1-.544-.334l-1.51-1.039-5.481-3.91c-4.6-3.341-10.938-8.006-17.917-13.19l-4.665-3.477.433-.062c-4.442,5.8-8.4,10.864-11.284,14.44a42.815,42.815,0,0,1-4.813,5.556l4.491-5.815,11.136-14.563.186-.247.247.186,4.677,3.465c6.979,5.184,13.264,9.9,17.805,13.351l5.308,4.071,1.435,1.138A2.93,2.93,0,0,1,446.341,359.613Z" transform="translate(-258.522 -174.862)"/><path class="k" d="M372.369,331.37l-24.5,10.975,9.775,21.245,15.318-10.109Z" transform="translate(-271.027 -176.191)"/><path class="a" d="M390.291,335.288l16.395-11.136a3.019,3.019,0,0,1,1.967-.52l21.431,1.831a1.646,1.646,0,0,1,1.51,1.683,2.92,2.92,0,0,1-.9,2.277l-34.806,24.215-25.984-4.12Z" transform="translate(-265.799 -178.03)"/><path class="k" d="M367.67,332.759s8.847-6.558,10.926-6.917,11.421-.322,11.421-.322l7.869,4.492-4.875,3.3c-3.378-.742-4.343-2.054-4.343-2.054l-5.444.359Z" transform="translate(-266.328 -177.58)"/><path class="k" d="M377.623,329.07l13.97,4.863,20.094,2.834a4.393,4.393,0,0,1-4.009,4.516c-2.475.26-6.657.544-6.657.544s-1.027,3.712-4.157,4.516a10.257,10.257,0,0,1-3.019,3.576,2.474,2.474,0,0,1-.619.272c-1.93.557-5.778,5.791-8.352,6.5s-16.63-2.611-16.63-2.611l-.594-22.1Z" transform="translate(-266.333 -176.737)"/><path class="l" d="M379,338.292c0-.062,1.114.235,2.883.594a53.419,53.419,0,0,0,7.04.916,51.177,51.177,0,0,0,7.078,0c1.819-.124,2.932-.285,2.945-.223a3.71,3.71,0,0,1-.779.186c-.495.1-1.237.21-2.141.309a41.926,41.926,0,0,1-7.127.124,41.451,41.451,0,0,1-7.065-1.039c-.891-.21-1.609-.408-2.091-.569a3.6,3.6,0,0,1-.742-.3Z" transform="translate(-263.639 -174.55)"/><path class="l" d="M382.573,342.92a3.143,3.143,0,0,1-.136,1.386,2.933,2.933,0,0,1-.755,1.349,2.475,2.475,0,0,1-1.819.606,4.751,4.751,0,0,1-1.807-.52c-.507-.26-.928-.532-1.3-.73-.718-.433-1.237-.594-1.237-.656a2.883,2.883,0,0,1,1.312.408,8.3,8.3,0,0,0,3.007,1.114,2.128,2.128,0,0,0,1.559-.483,2.734,2.734,0,0,0,.73-1.175A11.822,11.822,0,0,1,382.573,342.92Z" transform="translate(-264.465 -173.45)"/><path class="l" d="M391.606,344a6.076,6.076,0,0,1-1.534.4,34.741,34.741,0,0,1-3.712.458,33.618,33.618,0,0,1-3.8,0,6.186,6.186,0,0,1-1.571-.173c0-.124,2.4,0,5.345-.26S391.582,343.928,391.606,344Z" transform="translate(-263.167 -173.196)"/><path class="l" d="M381.921,348.722a4.949,4.949,0,0,1-4.8.755c0-.124,1.114.087,2.475-.124S381.921,348.623,381.921,348.722Z" transform="translate(-264.085 -172.076)"/><path class="l" d="M385.656,348.535a3.572,3.572,0,0,1-1.5.4,3.378,3.378,0,0,1-1.559,0,3.329,3.329,0,0,1,1.509-.4C384.951,348.436,385.644,348.424,385.656,348.535Z" transform="translate(-262.785 -172.136)"/><path class="l" d="M389.466,333.959a37.968,37.968,0,0,1-6.546-2.19c-1.782-.693-3.378-1.349-4.516-1.868a8.054,8.054,0,0,1-1.794-.94,14.538,14.538,0,0,1,1.893.693l4.553,1.757,4.541,1.769A6.386,6.386,0,0,1,389.466,333.959Z" transform="translate(-264.206 -176.763)"/><path class="k" d="M406.97,337.754s-1.547-.532.124-2.97,6.348.52,6.348.52l5.976,3.551s1.336,3.106-.322,3.935l-1.237,1.51s2.339,2.363,1.4,4.43A3.217,3.217,0,0,1,416,350.511s.272,4.182-1.089,5.791a4.565,4.565,0,0,1-2.6,1.757,7.424,7.424,0,0,1-5.16,4.492c-4.009,1.027-6.112,1.1-7.2-.594a18.461,18.461,0,0,1-1.769-3.823s-8.6-4.516-8.785-6.805.21-2.475.21-2.475a4.293,4.293,0,0,1,.173-3.3c.866-1.4,4.281-.173,4.281-.173l10.975,2.574s-8.785-4.12-9.824-5.469.074-3.007,3.6-2.586S413,342.308,413,342.308a3.266,3.266,0,0,0-1.237-1.361c-.705-.3-2.908-1.571-2.908-1.571Z" transform="translate(-261.183 -175.609)"/><path class="l" d="M409.5,351.515c0,.1-4.479-1.039-9.9-2.536s-9.9-2.809-9.837-2.908,4.479,1.039,9.9,2.536S409.52,351.416,409.5,351.515Z" transform="translate(-261.086 -172.703)"/><path class="l" d="M402.667,355.728a12.645,12.645,0,0,1-3.2-.817,22.517,22.517,0,0,1-2.19-.841,4.1,4.1,0,0,1-.643-.346.84.84,0,0,1-.148-.136s0-.111,0-.087,1.361.47,3.081,1.039A17.015,17.015,0,0,1,402.667,355.728Z" transform="translate(-259.491 -170.94)"/><path class="l" d="M410.924,346.877c0,.1-2.165-.334-4.813-.767a48.445,48.445,0,0,1-4.8-.829,22.582,22.582,0,0,1,4.863.458A21.789,21.789,0,0,1,410.924,346.877Z" transform="translate(-258.344 -172.89)"/><path class="l" d="M412.1,342.321c-.074.1-.94-.52-2.153-.953s-2.264-.544-2.264-.656a4.058,4.058,0,0,1,2.4.3A4.12,4.12,0,0,1,412.1,342.321Z" transform="translate(-256.832 -173.989)"/><path class="e" d="M425.992,327.1h-.4l-1.151-.136c-.99-.136-2.475-.322-4.195-.52-3.551-.408-8.476-.841-13.932-.965a7.721,7.721,0,0,0-3.811.445,16.085,16.085,0,0,0-1.559,1.027L399.463,328l-5.135,3.625-3.477,2.413-.965.643c-.21.148-.334.21-.346.2a3.415,3.415,0,0,1,.309-.26l.916-.693,3.415-2.475,5.085-3.712,1.472-1.064a17.877,17.877,0,0,1,1.6-1.064,4.491,4.491,0,0,1,1.967-.495h2.029a134.074,134.074,0,0,1,13.945,1.077c1.782.235,3.217.47,4.194.643l1.138.21a1.238,1.238,0,0,1,.384.049Z" transform="translate(-261.138 -177.674)"/><path class="c" d="M408.58,328.34a1.039,1.039,0,0,0-1.027-.4h-.173a1.46,1.46,0,0,0-.841.47.891.891,0,0,0,0,1.126,1.027,1.027,0,0,0,.606.285,1.51,1.51,0,0,0,1.237-.309A1.039,1.039,0,0,0,408.58,328.34Z" transform="translate(-257.151 -177.009)"/><path class="e" d="M376.47,232.51l-2.376-1.237a5.048,5.048,0,0,0-3.625-.841c-1.176.334-1.992,1.46-3.2,1.584-1.411.161-2.574-1.114-3.984-1.039s-2.388,1.237-3.712,1.237c-.99,0-2.042-.705-2.9-.223-.173.1-.322.235-.483.346a3.514,3.514,0,0,1-3.291-.186,4.541,4.541,0,0,0-3.291-.569,5.234,5.234,0,0,0-1.708,1.373,2.363,2.363,0,0,1-1.992.817c-.408-.087-.742-.346-1.151-.445-1.237-.322-2.339,1.039-3.638,1.386s-2.6-.272-3.712.272a1.893,1.893,0,0,0-.916,2.326,2.871,2.871,0,0,0,2.153,1.621,5.964,5.964,0,0,0,2.908-.21,7.052,7.052,0,0,1,2.339-.532c1.844.062,3.291,1.967,5.1,1.571a6.359,6.359,0,0,0,2.227-1.411,6.187,6.187,0,0,1,3.588-1.163,6.93,6.93,0,0,0,2.537-.136c.978-.4,1.534-1.423,2.549-1.7s2.178.384,3.3.272c.73-.062,1.411-.47,2.153-.507,1.052-.062,2,.619,3.056.532s1.98-.977,3.056-.891a7.25,7.25,0,0,1,1.237.334,1.336,1.336,0,0,0,1.237-.186c.235-.223.309-.582.594-.742a1.237,1.237,0,0,1,.718-.074l3.489.359Z" transform="translate(-273.755 -200.161)"/><path class="e" d="M379.685,232.251c-1.175-.866-2.747-1.769-4.071-1.039-.483.26-.841.693-1.324.928-1.114.52-2.475-.161-3.638.161-1,.285-1.67,1.237-2.6,1.67-1.5.742-3.712.309-4.628,1.621-.507.718-.594,1.868-1.472,2.066a2.19,2.19,0,0,1-.94-.111,7.845,7.845,0,0,0-3.267-.1,3.477,3.477,0,0,0-1.7.718c-.891.8-.916,2.178-1.769,3.019-1.237,1.237-3.551.656-5.184,1.46a10.148,10.148,0,0,0-1.992,1.646,22.594,22.594,0,0,1-4.207,2.561,9.132,9.132,0,0,0-3.712,3.13,3.316,3.316,0,0,0,.47,4.244,1.683,1.683,0,0,0,2.091.1c.186-.173.309-.421.483-.619a4.1,4.1,0,0,1,1.448-.73c.507-.2,1.039-.582,1.039-1.1,0-.322-.186-.705.074-.928a.78.78,0,0,1,.384-.124c1.312-.136,2.92-.074,3.625-1.138a7.583,7.583,0,0,0,.532-1.571,2.945,2.945,0,0,1,2.128-1.757c.8-.186,1.708-.062,2.351-.557s.755-1.621,1.411-2.24c1.1-1.039,3.279-.285,4.269-1.411.247-.285.384-.643.693-.854.891-.582,1.967.619,3.019.421s1.237-1.237,1.868-1.831a10.8,10.8,0,0,1,3.056-1.411c1.3-.631,2.24-1.856,3.613-2.264,1.237-.359,2.648-.111,3.526-.953.334-.322.569-.78,1.027-.928a2.018,2.018,0,0,1,.817,0,6.187,6.187,0,0,0,3.922-.792Z" transform="translate(-273.221 -200.026)"/><path class="e" d="M374.678,234.568a9.9,9.9,0,0,0-8.389,2.475,6.62,6.62,0,0,1-1.584,1.237,8.884,8.884,0,0,1-3.093.346,6.088,6.088,0,0,0-5.11,4.133c-.47,1.423-.643,3.291-2.017,3.786a4.232,4.232,0,0,0-.755.272c-.916.569-.285,2.029-.3,3.155,0,1.856-2.079,3.13-2.153,4.949a4.8,4.8,0,0,0,.483,1.967q1.076,2.66,2.363,5.2c.384.755.891,1.6,1.708,1.708,1.237.161,1.905-1.237,2.252-2.475a3.6,3.6,0,0,0,.074-2.586c-.346-.656-1.052-1.039-1.361-1.72-.483-1.076.3-2.277.854-3.3a9.9,9.9,0,0,0,.953-6.818c1.237-.235,1.893-1.992,3.18-2.24a7.761,7.761,0,0,0,1.076-.136c.854-.346.953-1.646,1.708-2.178s2.475-.124,2.9-1.175c.124-.334.062-.73.272-1a1.052,1.052,0,0,1,.68-.359l3.118-.78a3.6,3.6,0,0,0,1.658-.73c.8-.767.928-2.227,1.943-2.623Z" transform="translate(-270.218 -199.2)"/><path class="e" d="M379.036,233.156c-.124-1.831-.47-4.034-2.091-4.776-.953-.445-2.116-.21-3.056-.693-1.806-.9-1.955-3.823-3.712-4.751s-4.108.507-5.518-.854c-.73-.705-.829-1.881-1.423-2.71a4.133,4.133,0,0,0-3.18-1.361,10.01,10.01,0,0,1-3.489-.47c-1.856-.817-3.044-3.118-5.036-3.279-1.7-.124-3.019,1.361-4.083,2.722a2.611,2.611,0,0,0-.606,1.138,1.992,1.992,0,0,0,1.1,1.868c1.349.792,3.081.668,4.331,1.6a12.375,12.375,0,0,0,1.349,1.089c.718.384,1.621.3,2.314.73,1.349.829,1.324,3.093,2.673,3.935s2.92-.148,4.38.186c1.98.47,3.069,3.229,5.1,3.3a19.518,19.518,0,0,0,2.623-.582,2.908,2.908,0,0,1,2.809,1.658c.322.693.371,1.51.755,2.178a3.155,3.155,0,0,0,2.339,1.472,8.874,8.874,0,0,0,2.8-.161Z" transform="translate(-271.272 -203.987)"/><path class="e" d="M380.225,236.532c-1.237-2.339-2.759-4.838-5.3-5.927a32.862,32.862,0,0,1-3.935-1.373c-1.015-.594-1.732-1.547-2.685-2.227-2.215-1.571-5.271-1.472-7.993-1.039s-5.531,1.114-8.2.458c-2.4-.594-4.492-2.215-6.954-2.363a11.978,11.978,0,0,0-3.947.681l-4.479,1.237a2.078,2.078,0,0,0-1.237.742c-.483.8.458,1.732,1.349,2.1a8.216,8.216,0,0,0,4.628.495,11.359,11.359,0,0,1,3.712-.557,24.339,24.339,0,0,1,2.475.792,9.281,9.281,0,0,0,3.2,0l4.949-.52a6.942,6.942,0,0,1,3.774.322c.891.433,1.6,1.237,2.586,1.361s2.153-.693,3.254-.532c1.312.21,1.967,1.67,3.168,2.227,1.411.656,3.267-.111,4.628.643.928.507,1.324,1.547,1.918,2.4a5.989,5.989,0,0,0,1.893,1.757,12.869,12.869,0,0,0,3.18,1.163Z" transform="translate(-273.996 -201.659)"/><path class="e" d="M377.9,230.435c-.594-.817-1.5-1.646-1.237-2.636.124-.483.52-.879.606-1.373.148-.891-.755-1.584-1.089-2.475s0-2.227-.569-3.143-1.881-1.1-2.97-1.373a3.712,3.712,0,0,1-2.772-2.165,12.746,12.746,0,0,1-.148-2.475,4.677,4.677,0,0,0-4.492-3.836,4.875,4.875,0,0,1-1.856-.21c-1.052-.495-1.237-1.844-1.893-2.846a3.935,3.935,0,0,0-4.046-1.893c-.742.148-1.559.928-1.126,1.547.173.247.495.346.73.544.841.718.235,2.165.73,3.143s2.079,1.237,2.561,2.277c.371.8-.062,1.807.285,2.623.433,1,1.732,1.237,2.821,1.237s2.388.3,2.8,1.237a5.977,5.977,0,0,1,.21,1.411A2.759,2.759,0,0,0,367.87,222c1.052.532,2.475.433,3.155,1.435s-.309,2.722.322,3.9c.458.854,1.559,1.076,2.388,1.6a.94.94,0,0,1,.433.495,1.052,1.052,0,0,1-.148.656c-.656,1.336-1.485,2.871-.854,4.207a5.532,5.532,0,0,0,1.138,1.386,11.717,11.717,0,0,1,2.871,4.949l1.151-5.036A5.16,5.16,0,0,0,377.9,230.435Z" transform="translate(-269.052 -205.956)"/><path class="e" d="M380.38,212.806a3.378,3.378,0,0,0-1.46-3.9,2.66,2.66,0,0,0-3.712,1.4c-.495,1.646.891,3.576,0,5.061a5.255,5.255,0,0,0-.755,1.175c-.309,1.089,1.052,2,1.064,3.143s-1.571,1.943-1.893,3.155,1.027,2.858.52,4.207a4.947,4.947,0,0,1-.656,1.015c-1.448,2.128-.705,4.949.087,7.424l3.279-.483c-.606-2.277,2.6-4.553,1.51-6.632-.52-.99-1.943-1.708-1.621-2.784a2.115,2.115,0,0,1,.495-.742l3.056-3.341a3.081,3.081,0,0,0,.977-1.7c.136-1.448-1.67-2.388-1.906-3.836C379.266,214.835,380.046,213.833,380.38,212.806Z" transform="translate(-265.143 -205.327)"/><path class="f" d="M383.053,227.245c-.309-1.076-1.708-1.4-2.809-1.237-3.044.47-5.271,3.019-7.214,5.395a64.347,64.347,0,0,0-6.013,8.179,5.419,5.419,0,0,0-.841,2.079,2.1,2.1,0,0,0,.767,2,1.324,1.324,0,0,0,1.918-.445l.9-.223A44.123,44.123,0,0,1,381.321,230.1C382.274,229.361,383.375,228.358,383.053,227.245Z" transform="translate(-266.69 -201.207)"/><path class="e" d="M366.5,272.513a106.015,106.015,0,0,1-1.126-18.139,36.836,36.836,0,0,1,4.85-17.323c.483-.792,4.269-5.939,5.147-5.679.631.186-2.054,5.16-1.831,5.778,2.054,5.927,1.646,12.5,0,18.56a81.78,81.78,0,0,1-7,16.84" transform="translate(-266.88 -199.926)"/><path class="k" d="M394.452,313.083c.866-4.195,1.559-7.5,1.6-7.5s14.712,1.361,18.449-12.757c1.806-6.818,4.368-21.158,6.546-34.163a27.221,27.221,0,0,0-20.193-30.933l-1.373-.346c-14.947-2.833-25.712,8.265-28.137,23.287L361.18,302.937l23.287,24.475Z" transform="translate(-267.868 -200.976)"/><path class="m" d="M392.633,292.434A35.251,35.251,0,0,1,375.57,282.35s1.905,11.433,16.345,13.71Z" transform="translate(-264.453 -187.825)"/><path class="e" d="M404.513,262.12a2.079,2.079,0,0,1-2.475,1.547,1.992,1.992,0,0,1-1.621-2.351,2.091,2.091,0,0,1,2.475-1.547,1.98,1.98,0,0,1,1.621,2.351Z" transform="translate(-258.565 -193.196)"/><path class="e" d="M407.443,257.341c-.309.2-1.559-1.312-3.712-1.856s-4.046.148-4.219-.186c-.074-.148.3-.557,1.114-.891a5.84,5.84,0,0,1,3.465-.173,5.494,5.494,0,0,1,2.9,1.807C407.542,256.722,407.6,257.254,407.443,257.341Z" transform="translate(-258.773 -194.541)"/><path class="e" d="M388.563,259.048a2.091,2.091,0,0,1-2.475,1.559,1.992,1.992,0,0,1-1.621-2.351,2.079,2.079,0,0,1,2.475-1.547,1.98,1.98,0,0,1,1.621,2.339Z" transform="translate(-262.351 -193.923)"/><path class="e" d="M390.044,253.721c-.322.2-1.571-1.312-3.712-1.856s-4.046.148-4.219-.186c-.087-.136.285-.557,1.114-.879a5.692,5.692,0,0,1,3.452-.186,5.4,5.4,0,0,1,2.9,1.806C390.093,253.1,390.192,253.61,390.044,253.721Z" transform="translate(-262.903 -195.401)"/><path class="e" d="M391.43,271.714a14.849,14.849,0,0,1,3.712.247c.569.087,1.126.111,1.312-.247a2.884,2.884,0,0,0,0-1.745c-.186-1.472-.371-3.019-.582-4.64-.767-6.595-1.163-11.965-.9-11.99s1.1,5.3,1.868,11.891c.186,1.621.346,3.168.507,4.652a3.317,3.317,0,0,1-.26,2.252,1.472,1.472,0,0,1-1.114.582,3.266,3.266,0,0,1-.977-.111A14.7,14.7,0,0,1,391.43,271.714Z" transform="translate(-260.689 -194.71)"/><path class="e" d="M386.148,268.111c.359.062-.235,2.475,1.373,4.615s4.182,2.549,4.108,2.883-.668.322-1.745.087a6.112,6.112,0,0,1-3.465-2.289,5.259,5.259,0,0,1-1-3.823C385.517,268.569,385.926,268.049,386.148,268.111Z" transform="translate(-262.126 -191.206)"/><path class="e" d="M392.173,246.5c-.371.544-2.475-.285-5.1-.619s-4.875-.161-5.073-.78c-.087-.285.408-.755,1.386-1.114a8.835,8.835,0,0,1,7.746,1.064C391.975,245.657,392.334,246.239,392.173,246.5Z" transform="translate(-262.929 -197.038)"/><path class="e" d="M408.082,251.326c-.507.4-1.881-.483-3.712-.965s-3.415-.507-3.638-1.114c-.087-.285.272-.718,1.064-1.027a5.531,5.531,0,0,1,5.89,1.683C408.231,250.571,408.3,251.128,408.082,251.326Z" transform="translate(-258.484 -195.988)"/><path class="k" d="M370.392,255.169c-.223-.161-9.008-5.321-11.136,4.43s8.117,9.9,8.191,9.6S370.392,255.169,370.392,255.169Z" transform="translate(-268.394 -194.634)"/><path class="l" d="M364.775,264.272a2.72,2.72,0,0,1-.507.148,1.708,1.708,0,0,1-1.237-.247c-.953-.606-1.46-2.475-1.126-4.195a5.593,5.593,0,0,1,1-2.326,1.992,1.992,0,0,1,1.559-1.027.879.879,0,0,1,.9.681.988.988,0,0,1,0,.507c0,.025.247-.111.26-.532a1.113,1.113,0,0,0-.247-.693,1.3,1.3,0,0,0-.891-.458,2.475,2.475,0,0,0-2.1,1.126,6.013,6.013,0,0,0-1.237,2.586c-.359,1.98.247,4.046,1.571,4.764a1.893,1.893,0,0,0,1.609.074C364.7,264.507,364.8,264.3,364.775,264.272Z" transform="translate(-267.9 -194.048)"/><path class="e" d="M417.04,241.538c1.769-.544-1.918-6.657-5.432-9.231-5.321-3.885-13.957-7.424-19.7-6.991-6.9.483-13,2.6-17.508,7.857a39.286,39.286,0,0,0-8.414,18.733,11.927,11.927,0,0,0,.136,6.261c.916,2.475,3.254,4.355,2.475,7.313a4.158,4.158,0,0,0,.4,3.192c1.386,2.277,3.947.94,5.333-.643,2.945-3.378,4.133-7.894,5.234-12.25a28.8,28.8,0,0,0,1.324-9.416c-.136-1.732-.582-3.44-.631-5.172a6.038,6.038,0,0,1,1.72-4.739,7.427,7.427,0,0,1,.953-.631,10.394,10.394,0,0,1,10.517.186c5.1,3.093,13.9,7.956,16.741,6.607,4.1-1.955,5.308-3.526,5.308-3.526Z" transform="translate(-266.811 -201.37)"/><path class="e" d="M327.183,381.043a3.912,3.912,0,0,1,.792-.346l2.314-.9,8.736-3.267,30.24-11.136-.173.421c-2.475-5.457-5.246-11.4-8.092-17.545l-4.17-9.094.334.173L326.873,344h0a61.284,61.284,0,0,0-15.652,6.88c-1.732,1.064-3.031,1.98-3.922,2.6l-.99.718a1.237,1.237,0,0,1-.359.223l.309-.285.953-.767c.854-.668,2.141-1.621,3.86-2.722a59.245,59.245,0,0,1,15.665-7.115h0l30.278-4.727h.235l.111.21c1.349,2.957,2.759,6,4.182,9.094,2.821,6.187,5.556,12.089,8.055,17.558l.148.3-.322.124L339.1,376.972l-8.785,3.106-2.351.8Z" transform="translate(-280.977 -174.428)"/><path class="e" d="M341.353,328a21.19,21.19,0,0,1-2.475,3.044c-1.609,1.819-3.86,4.294-6.422,6.979s-4.949,5.048-6.743,6.669a20.075,20.075,0,0,1-2.252,1.819c-.309.173-.52.347-.792.3a.186.186,0,0,1,0-.247s0-.062,0-.062,0,.161.074.186a1.745,1.745,0,0,0,.594-.371c.507-.421,1.237-1.1,2.079-1.943,1.72-1.708,4.046-4.12,6.595-6.793l6.558-6.842A24,24,0,0,1,341.353,328Z" transform="translate(-277.02 -176.991)"/><path class="e" d="M344.8,324.046c-.136,0,.26-1.943.26-5.073a32.565,32.565,0,0,0-.47-5.444,33.729,33.729,0,0,0-4.776-12.435,34.156,34.156,0,0,0-3.316-4.368c-2.1-2.314-3.712-3.477-3.588-3.576a5.677,5.677,0,0,1,1.138.767,12.222,12.222,0,0,1,1.237,1.027,20.413,20.413,0,0,1,1.547,1.472,30.577,30.577,0,0,1,3.477,4.355,34.309,34.309,0,0,1,3.118,6.063,35.388,35.388,0,0,1,1.757,6.595,30.217,30.217,0,0,1,.334,5.556,20.256,20.256,0,0,1-.161,2.128,11.128,11.128,0,0,1-.235,1.6A5.689,5.689,0,0,1,344.8,324.046Z" transform="translate(-274.579 -185.262)"/><path class="e" d="M368,394.155a38.817,38.817,0,0,1,4.058,0,36.922,36.922,0,0,0,18.461-5.444c2.128-1.237,3.341-2.277,3.415-2.19s-.247.309-.78.78a25.016,25.016,0,0,1-2.388,1.794,33.407,33.407,0,0,1-8.934,4.182,33.024,33.024,0,0,1-9.775,1.336,23.3,23.3,0,0,1-2.982-.21,3.945,3.945,0,0,1-1.076-.247Z" transform="translate(-266.25 -163.103)"/><path class="e" d="M387.741,370.611a5.362,5.362,0,0,1-.829,1.052c-.557.656-1.4,1.571-2.475,2.7-2.116,2.24-5.147,5.246-8.661,8.377s-6.818,5.828-9.28,7.684c-1.237.928-2.24,1.67-2.957,2.153a4.948,4.948,0,0,1-1.138.705,5.558,5.558,0,0,1,.99-.9l2.821-2.314c2.376-1.943,5.642-4.665,9.144-7.8s6.558-6.075,8.76-8.228l2.6-2.549A5.054,5.054,0,0,1,387.741,370.611Z" transform="translate(-267.579 -166.879)"/></g><path class="n" d="M2953-1805v-177h246v62.065h-82.257v56.7h-81.488V-1805Z" transform="translate(-3033.92 1863.678)"/><path class="n" d="M0,200V0H277V70.13H184.378V134.2H92.622V200Z" transform="translate(697.08 740.379) rotate(180)"/><path class="n" d="M-17.3-2482.754l-33.531-37.622H-49.2L-82.728-2558H48.945l-33.531,37.621h.817L-17.3-2482.754H49.762l-33.531-37.621H82.476L48.945-2558h67.063l-33.531,37.62h.818l-33.532,37.621-33.531,37.621Zm-31.9-37.622h64.61l-32.306-36.245Z" transform="translate(574 2439)"/></g></svg>