<svg xmlns="http://www.w3.org/2000/svg" width="778" height="859.376" viewBox="0 0 778 859.376"><defs><style>.a{fill:#e0e0e0;}.b{fill:#ebebeb;}.c{fill:#fff;}.d{fill:#fafafa;}.e{fill:#ffc4c0;}.f{fill:#ff975f;}.g{fill:#263238;}.h{fill:#4e5a60;}.i{fill:#f2cbb7;}.j{fill:#ff97b8;}.k{fill:#455a64;}.l{opacity:0.3;}.m{fill:#f5f5f5;}.n,.o{fill:#1d232b;}.n{font-size:20px;font-family:AvantGardeITCbyBT-Demi, AvantGarde Bk BT;font-weight:300;}.p{fill:#196f77;opacity:0.045;}</style></defs><g transform="translate(32.211 118.997)"><g transform="translate(39.479 52.727)"><rect class="a" width="105.743" height="175.021" transform="translate(3.514)"/><rect class="b" width="105.743" height="175.021"/><rect class="c" width="96.735" height="167.931" transform="translate(4.504 3.551)"/><rect class="b" width="59.479" height="124.29" transform="translate(22.915 25.365)"/><path class="a" d="M56.58,141.463c-.136-11.606,10.307-22.94,21.8-24.561,5.481-.767,11.309.322,16.432-1.782,9.144-3.712,12.052-15.9,21.257-19.5l.421,89.831H56.58Z" transform="translate(-33.665 -35.795)"/><path class="a" d="M488.624,54.44v83.928H368.083L363.74,55.022Z" transform="translate(39.235 -45.568)"/><rect class="c" width="83.161" height="120.541" transform="translate(402.975 92.615) rotate(-90)"/><path class="a" d="M484.972,138.762H363.28V54.45H484.972Zm-120.541-1.151h119.39V55.6H364.431Z" transform="translate(39.126 -45.566)"/><rect class="c" width="94.433" height="62.498" transform="translate(416.029 19.785)"/><path class="a" d="M468.8,63.322h-6.991l-19.463.074-67.979.124.285-.272v62.5h0l-.3-.3h94.433l-.235.235c0-19.018.1-34.645.124-45.472,0-5.42,0-9.664.062-12.571v-.1c0,2.9,0,7.127.062,12.522,0,10.9.074,26.541.124,45.621v.247H373.96v-.309h0V63h.272l68.165.136,19.389.074h6.88Z" transform="translate(41.661 -43.537)"/><path class="a" d="M363.74,54.72a10.629,10.629,0,0,1,2.079,1.349c1.237.891,2.908,2.153,4.727,3.6s3.415,2.821,4.529,3.86a9.155,9.155,0,0,1,1.72,1.757,83.179,83.179,0,0,1-6.62-5.147A67.825,67.825,0,0,1,363.74,54.72Z" transform="translate(39.235 -45.502)"/><path class="a" d="M463.673,54.91a56.607,56.607,0,0,1-6.385,5.407,57.351,57.351,0,0,1-6.719,4.949,59.928,59.928,0,0,1,6.348-5.395,58.987,58.987,0,0,1,6.756-4.962Z" transform="translate(59.843 -45.457)"/><path class="c" d="M463.67,124.219,450.22,113.33" transform="translate(59.76 -31.592)"/><path class="a" d="M450.22,113.33a63.265,63.265,0,0,1,6.917,5.222,64.806,64.806,0,0,1,6.533,5.667,60.294,60.294,0,0,1-6.917-5.209,65.592,65.592,0,0,1-6.533-5.679Z" transform="translate(59.76 -31.592)"/><path class="a" d="M363.74,124.078a58.638,58.638,0,0,1,6.286-5.333,55,55,0,0,1,6.645-4.875,58.634,58.634,0,0,1-6.286,5.333,54.99,54.99,0,0,1-6.644,4.875Z" transform="translate(39.235 -31.463)"/><rect class="a" width="20.923" height="59.417" transform="translate(435.208 60.196) rotate(-90)"/><g transform="translate(99.197)"><path class="a" d="M390.066,342.613a43.826,43.826,0,0,0-18.721-6.447c-3.056-.309-6.409-.223-8.859,1.633a1.844,1.844,0,0,0-.916,1.621,1.992,1.992,0,0,0,.866,1.1c7.622,5.815,19.142,6.546,27.63,2.091" transform="translate(38.72 21.263)"/><path class="a" d="M388.033,346.547a90.765,90.765,0,0,1-12.089-10.629,30.723,30.723,0,0,1-7.585-14.019,5.7,5.7,0,0,1,.594-4.69c9.639,7.523,17.211,17.323,19.08,29.337" transform="translate(40.271 16.796)"/><path class="a" d="M384.639,346.846a43.592,43.592,0,0,1,.223-15.875,21.455,21.455,0,0,1,8.451-13.091c1.67,3.885.953,8.377-.223,12.448a59.963,59.963,0,0,1-8.389,17.644" transform="translate(44.048 16.955)"/><path class="a" d="M396.676,355c-5.729.693-10.728,3.712-15.009,7.6a28.372,28.372,0,0,0-8.587,14.675c5.63-.346,10.393-4.318,13.858-8.76s5.865-9.33,9.664-13.487" transform="translate(41.452 25.765)"/><path class="a" d="M394.3,363.877a37.009,37.009,0,0,1,4.281-35.017c3.267,11.619,2.066,24.747-4.281,35.017" transform="translate(45.878 19.561)"/><path class="a" d="M408.881,369.19a26.739,26.739,0,0,0-25.6,14.737,1.967,1.967,0,0,0-.173,2,1.869,1.869,0,0,0,1.7.495c5.048-.322,9.515-3.353,13.215-6.818s6.9-7.424,10.975-10.431" transform="translate(43.785 29.12)"/><path class="a" d="M403.992,375.324a47.662,47.662,0,0,1-.483-26.627c.94-3.427,2.475-7.04,5.692-8.661a1.089,1.089,0,0,1,.866-.148,1.1,1.1,0,0,1,.544.631,16.085,16.085,0,0,1,1.349,7.647,48.246,48.246,0,0,1-1.237,7.733c-1,4.727-1.534,9.812-4.12,13.883a27.978,27.978,0,0,0-1.658,3.056c-.482,1.027-.482,1.4-.94,2.215" transform="translate(48.279 22.17)"/><path class="a" d="M430.458,378.128c-2.475-9.3.148-20.6,6.026-28.236.433-.557,1-1.163,1.708-1.1,1.076.1,1.361,1.547,1.312,2.623a50.966,50.966,0,0,1-9.045,26.714" transform="translate(54.849 24.29)"/><path class="a" d="M432.69,376.023c11.322,2.945,24.289.074,33.705-6.855a27.221,27.221,0,0,0-18.251-2.24c-6.088,1.386-11.656,4.12-15.454,9.094" transform="translate(55.599 28.437)"/><path class="a" d="M434.72,372.534c6.335-10.332,18.486-17.075,30.587-17.694-1.386,4.949-5.432,8.748-10,11.062s-9.664,3.316-14.687,4.294c-1.955.384-4.628.8-5.9,2.339" transform="translate(56.081 25.727)"/><path class="a" d="M431.621,351.655a88.431,88.431,0,0,0,3.972-17.917c.47-6.1-.4-12.472-3.564-17.719-5.914,11.458-6.521,24.833-.52,36.254" transform="translate(54.318 16.514)"/><path class="a" d="M446.9,341.291c6.917-12.584,21.035-22.631,35.326-24.041-5.506,13.734-20.54,24.338-35.326,24.041" transform="translate(58.972 16.806)"/><path class="a" d="M443.38,339.068c10.319,1.571,19.117,8.166,28.768,12.163a12.917,12.917,0,0,0,6.5,1.237,5.1,5.1,0,0,0,3.192-9.008,13.872,13.872,0,0,0-4.727-2.858c-10.5-4.38-21.777-4.492-32.839-1.831" transform="translate(58.136 21.492)"/><path class="a" d="M438.55,344.616c2.339.668,3.13,1.881,4.949,3.465a53.811,53.811,0,0,0,21.814,11.2c.829.21,1.93.3,2.339-.458s-.1-1.46-.569-2.042a30.067,30.067,0,0,0-13.128-8.946c-5.036-1.868-9.391-4.133-15.4-3.65" transform="translate(56.99 23.182)"/><path class="a" d="M433.1,309.393a41.265,41.265,0,0,0,31.651,10.777,2.153,2.153,0,0,0,1.435-.52c.8-.866-.148-2.2-1.076-2.932-9.3-7.251-20.577-10.258-32.01-7.325" transform="translate(55.697 14.677)"/><path class="a" d="M439.56,308.466a44.161,44.161,0,0,1,39.5-6.521,31.341,31.341,0,0,1-18.82,8.265,59.813,59.813,0,0,1-20.676-1.745" transform="translate(57.23 12.684)"/><path class="a" d="M438.022,295.945c-.9-9.292-.322-16.617-.965-25.984,0-.742-.21-1.646-.9-1.918-.977-.371-1.782.829-2.1,1.819A29.7,29.7,0,0,0,438.01,295.7" transform="translate(55.6 5.111)"/><path class="a" d="M436.45,297.011a54.677,54.677,0,0,0,15.392-14.959c3.031-4.157,5.593-9.132,4.949-14.242a14.761,14.761,0,0,0-11.136,5.519,30.933,30.933,0,0,0-5.667,11.383c-1.237,4.083-2.091,8.278-3.539,12.3" transform="translate(56.492 5.072)"/><path class="a" d="M448.708,292.451a124.266,124.266,0,0,0,37.862-22.272c-4.529-1.819-9.7-.73-14.229,1.1-10.319,4.17-18.77,11.21-23.831,21.121" transform="translate(59.354 5.412)"/><path class="a" d="M439.89,297.622c6.991.755,14.093,1.237,21.035.1s13.252-3.848,19.624-6.521a2.326,2.326,0,0,0,1.336-1.015,1.534,1.534,0,0,0-.483-1.683,4.07,4.07,0,0,0-1.67-.78c-6.929-1.943-14.4-1.027-21.208,1.237a97.822,97.822,0,0,0-18.622,8.661" transform="translate(57.308 9.546)"/><path class="a" d="M408.313,315.343c-4.776-9.626-4.467-20.861-.346-30.773,2.9,4.417,3.254,10.035,2.722,15.293s-2.128,10.678-2.227,15.962" transform="translate(48.981 9.05)"/><path class="a" d="M398.358,301.681a42.874,42.874,0,0,0-31.9,13.611c5.939.928,12.064-.606,17.471-3.242a88.209,88.209,0,0,0,14.959-10.022" transform="translate(39.881 13.11)"/><path class="a" d="M387.645,298.32c-5.828-.47-11.433-1.237-17.026.532a20.366,20.366,0,0,0-12.98,11,30.7,30.7,0,0,0,15.962-3.019,90.329,90.329,0,0,0,14.044-8.513" transform="translate(37.787 12.176)"/><path class="a" d="M403.758,300.085c-5.234-3.427-10.616-6.929-16.716-8.352s-13.165-.371-17.422,4.232c4.949,2.9,10.926,3.242,16.655,3.229s12.745,0,18.139,1.844" transform="translate(40.631 10.61)"/><path class="a" d="M399.192,305.625c-8.958-8.8-12.373-24.6-8.748-36.625a55.779,55.779,0,0,1,8.748,36.625" transform="translate(45.234 5.354)"/><path class="a" d="M417.15,284c1.683-3.922,2.871-8.043,4.393-12.039a34.471,34.471,0,0,1,6.261-11.136,16.481,16.481,0,0,1,11.136-5.741,44.668,44.668,0,0,1-21.53,28.966" transform="translate(51.911 2.051)"/><path class="a" d="M417.983,285.678c-2.8-3.848-6.026-9.07-9.812-11.94s-8.723-4.615-13.351-3.514a31.107,31.107,0,0,0,23.163,15.454" transform="translate(46.612 5.566)"/><path class="a" d="M415.179,284.245a66.431,66.431,0,0,1-4.417-14.3A22.359,22.359,0,0,1,413,255.39c4.949,9.292,6.508,19.265,2.475,28.966" transform="translate(50.307 2.124)"/><path class="a" d="M417.18,259.165c2.784-9.218,11.223-16,20.329-19.117a7.7,7.7,0,0,1,3.563-.532,3.106,3.106,0,0,1,2.636,2.19c.334,1.571-.965,2.982-2.178,4.021a69.377,69.377,0,0,1-24.351,13.437" transform="translate(51.918 -1.651)"/><path class="a" d="M417.293,255.241c.359-5.939.73-11.965,2.66-17.595s5.655-10.913,11.074-13.376c.928,6-1.72,11.965-4.949,17.137s-7.04,10.035-8.958,15.788" transform="translate(51.904 -5.262)"/><path class="a" d="M420.462,258.785c-2.3-6.706-2.549-15.244-6.57-21.035-2.809-4.1-7.313-6.88-9.725-11.21a17.038,17.038,0,0,0,.557,12.72,36.873,36.873,0,0,0,7.424,10.653c2.97,3.168,5.518,5.568,8.29,8.921" transform="translate(48.599 -4.723)"/><path class="a" d="M417.247,450.8c-.173,0-.334-44.792-.346-100.039s.124-100.051.309-100.051.334,44.792.346,100.051S417.432,450.8,417.247,450.8Z" transform="translate(51.852 1.013)"/><path class="a" d="M456.341,304a11.241,11.241,0,0,1-1.683.631l-4.64,1.559c-3.91,1.336-9.28,3.267-15.1,5.655s-11.21,4.479-14.316,7.164a10.468,10.468,0,0,0-2.871,3.8c-.445,1.052-.532,1.7-.582,1.7s0-.173,0-.47a7.214,7.214,0,0,1,.334-1.312,10.047,10.047,0,0,1,2.809-4.058,25,25,0,0,1,6.187-3.848c2.475-1.163,5.246-2.376,8.166-3.576,5.84-2.388,11.247-4.256,15.207-5.481,1.967-.619,3.588-1.064,4.7-1.373A9.1,9.1,0,0,1,456.341,304Z" transform="translate(51.907 13.661)"/><path class="a" d="M468.579,278.511a3.147,3.147,0,0,1-.47.495l-1.435,1.349-5.37,4.875-17.867,15.912c-6.966,6.187-12.992,12.126-17.162,16.593-2.091,2.227-3.712,4.083-4.863,5.37-.532.594-.953,1.089-1.3,1.485s-.47.507-.483.483a2.475,2.475,0,0,1,.384-.569c.272-.359.668-.891,1.237-1.559,1.064-1.349,2.66-3.242,4.714-5.518a226.435,226.435,0,0,1,17.088-16.766c6.991-6.187,13.363-11.755,17.978-15.764l5.506-4.727,1.522-1.237C468.344,278.622,468.567,278.486,468.579,278.511Z" transform="translate(52.5 7.611)"/><path class="a" d="M432.793,304.876c-.186-.087,1.237-3.452,2.722-7.7s2.165-7.845,2.351-7.82a26.557,26.557,0,0,1-1.732,8.018,52.183,52.183,0,0,1-2.165,5.382,8.657,8.657,0,0,1-1.175,2.116Z" transform="translate(55.62 10.186)"/><path class="a" d="M422.206,330.085a7.95,7.95,0,0,1-1.076-1.237l-2.759-3.477c-2.314-2.994-5.506-7.115-9.082-11.631s-6.88-8.562-9.268-11.495l-2.833-3.539a8.662,8.662,0,0,1-.977-1.336,8.66,8.66,0,0,1,1.163,1.176c.718.767,1.732,1.918,2.97,3.341,2.475,2.858,5.84,6.867,9.428,11.4s6.719,8.661,8.946,11.755c1.114,1.522,1.992,2.772,2.586,3.65a10.093,10.093,0,0,1,.9,1.4Z" transform="translate(46.942 12.087)"/><path class="a" d="M411.133,317.5a15.664,15.664,0,0,1-3.6-6.731,19.613,19.613,0,0,1-.817-6.781H407c-.124.52-.21.792-.272.78s0-.3,0-.829h.285a30.8,30.8,0,0,0,1.138,6.595,49.928,49.928,0,0,0,2.982,6.966Z" transform="translate(49.428 13.647)"/><path class="a" d="M405.032,304.176a10.976,10.976,0,0,0-2.475-1.46,16.669,16.669,0,0,0-6.966-.557,42.538,42.538,0,0,0-7.016,1.138,22.943,22.943,0,0,1-2.9.693,9.639,9.639,0,0,1,2.772-1.138,32.048,32.048,0,0,1,7.09-1.336,15.083,15.083,0,0,1,7.189.78,4.331,4.331,0,0,1,2.3,1.881Z" transform="translate(44.442 13.039)"/><path class="a" d="M404.426,301.7c0,.1-1.46-.594-3.848-1.4a39.036,39.036,0,0,0-9.589-1.98,39.868,39.868,0,0,0-9.787.495c-2.475.445-3.984.916-4.021.8a3.279,3.279,0,0,1,1.027-.433,24.939,24.939,0,0,1,2.9-.817,34.25,34.25,0,0,1,19.637,1.5,24.538,24.538,0,0,1,2.747,1.237,3.587,3.587,0,0,1,.94.594Z" transform="translate(42.425 12.137)"/><path class="a" d="M418.106,293.126a78.386,78.386,0,0,1-2.809-9.738,80.168,80.168,0,0,1-2.178-9.9,81.667,81.667,0,0,1,2.809,9.75A80.272,80.272,0,0,1,418.106,293.126Z" transform="translate(50.955 6.42)"/><path class="a" d="M418.764,291.384a48.564,48.564,0,0,0-3.106-5.828,25.83,25.83,0,0,0-4.578-4.727,4.355,4.355,0,0,1,1.769.916,14.564,14.564,0,0,1,3.341,3.44,12.93,12.93,0,0,1,2.574,6.2Z" transform="translate(50.471 8.162)"/><path class="a" d="M425.048,405.661c-.062,0-.2-1.076-.705-2.982a42.065,42.065,0,0,0-2.994-7.746c-3.093-6.323-8.723-14.353-15.875-22.383-3.551-4.046-6.991-7.869-9.9-11.532A79.9,79.9,0,0,1,388.5,350.81a48.078,48.078,0,0,1-3.576-7.585c-.334-.94-.569-1.658-.705-2.165a3.041,3.041,0,0,1-.186-.779c.062,0,.384,1.027,1.126,2.858a53.591,53.591,0,0,0,3.712,7.424,82.9,82.9,0,0,0,7.152,10.072c2.932,3.625,6.372,7.424,9.9,11.482,7.177,8.055,12.794,16.172,15.813,22.606a39.127,39.127,0,0,1,2.821,7.894,20.836,20.836,0,0,1,.4,2.24A3.481,3.481,0,0,1,425.048,405.661Z" transform="translate(44.051 22.271)"/><path class="a" d="M452.555,360.83a14.488,14.488,0,0,1-1.856,1.039,40.049,40.049,0,0,0-4.8,3.18,55.409,55.409,0,0,0-6.323,5.766c-2.215,2.339-4.492,5.061-6.83,7.968-4.652,5.853-9.008,11.025-11.619,15.145-1.324,2.054-2.289,3.786-2.92,4.949a15.416,15.416,0,0,1-1.027,1.868,2.141,2.141,0,0,1,.173-.52c.136-.334.322-.841.619-1.46a49.982,49.982,0,0,1,2.759-5.11c2.536-4.232,6.867-9.478,11.507-15.318,2.339-2.908,4.652-5.642,6.9-7.981a52.509,52.509,0,0,1,6.471-5.7,33.3,33.3,0,0,1,4.949-3.044c.606-.309,1.114-.495,1.448-.631a1.809,1.809,0,0,1,.544-.148Z" transform="translate(51.918 27.149)"/><path class="a" d="M451.02,371.318a29.071,29.071,0,0,1-3.922.569,51.713,51.713,0,0,0-9.292,1.831,27.8,27.8,0,0,0-8.315,4.368c-1.918,1.472-2.821,2.7-2.92,2.635a3.229,3.229,0,0,1,.582-.9,14.738,14.738,0,0,1,2.042-2.091,25.279,25.279,0,0,1,8.414-4.628,42.256,42.256,0,0,1,9.453-1.67A21.572,21.572,0,0,1,451.02,371.318Z" transform="translate(54.147 29.627)"/><path class="a" d="M427.5,380.307c-.21-.124,1.559-2.821,2.932-6.447s1.584-6.867,1.819-6.83a6.606,6.606,0,0,1-.074,2.1,22.27,22.27,0,0,1-1.138,4.949,23.327,23.327,0,0,1-2.277,4.541,6.533,6.533,0,0,1-1.262,1.683Z" transform="translate(54.365 28.62)"/><path class="a" d="M463.969,332.71a2.635,2.635,0,0,1-.631.334l-1.844.829c-.8.346-1.782.792-2.883,1.373s-2.4,1.163-3.712,1.967l-2.128,1.237c-.742.433-1.485.928-2.264,1.423-1.571.953-3.155,2.128-4.838,3.341a83.361,83.361,0,0,0-18.634,19.278c-1.151,1.732-2.264,3.341-3.168,4.949-.458.8-.94,1.547-1.349,2.3l-1.138,2.19c-.755,1.361-1.3,2.673-1.844,3.8a31.116,31.116,0,0,0-1.237,2.932c-.3.817-.569,1.386-.767,1.868a2.391,2.391,0,0,1-.322.643,3.52,3.52,0,0,1,.2-.68c.173-.507.384-1.138.656-1.918s.656-1.844,1.175-2.982,1.015-2.475,1.757-3.873l1.114-2.215c.384-.767.866-1.522,1.312-2.339.891-1.621,2-3.267,3.143-5.011a79.6,79.6,0,0,1,18.783-19.426,58.557,58.557,0,0,1,4.949-3.316c.792-.483,1.534-.978,2.289-1.4l2.178-1.237c1.361-.78,2.673-1.349,3.8-1.893a28.2,28.2,0,0,1,2.945-1.237l1.893-.73A2.6,2.6,0,0,1,463.969,332.71Z" transform="translate(51.926 20.475)"/><path class="a" d="M432.4,348.767a4.553,4.553,0,0,1,1.547-2.289,9.713,9.713,0,0,1,6.187-2.388,17.323,17.323,0,0,1,6.533,1.237,9.206,9.206,0,0,1,2.475,1.237,15.273,15.273,0,0,1-2.623-.767,19.634,19.634,0,0,0-6.348-1.052,10.048,10.048,0,0,0-5.927,2.079,18.576,18.576,0,0,0-1.844,1.943Z" transform="translate(55.531 23.176)"/><path class="a" d="M429,353.608a23.51,23.51,0,0,0,1.769-5.729,23.774,23.774,0,0,0-.4-5.989,3.947,3.947,0,0,1,.718,1.67,11.854,11.854,0,0,1-1,8.587C429.569,353.162,429.087,353.645,429,353.608Z" transform="translate(54.724 22.654)"/><path class="a" d="M392.18,398.31c.965,17.125,6.125,34.534,14.056,52.129h34.509c7.56-17.422,12.373-34.806,13.215-52.129Z" transform="translate(45.985 36.044)"/><path class="d" d="M447.323,420.762c0,.173-11.359.322-25.365.322s-25.378-.148-25.378-.322,11.359-.322,25.378-.322S447.323,420.576,447.323,420.762Z" transform="translate(47.029 41.296)"/><path class="d" d="M446.126,425.772c0,.173-10.653.322-23.782.322s-23.794-.148-23.794-.322,10.653-.322,23.794-.322S446.126,425.6,446.126,425.772Z" transform="translate(47.497 42.485)"/><path class="d" d="M404.062,407.39a98.385,98.385,0,0,1,0,15.9A98.385,98.385,0,0,1,404.062,407.39Z" transform="translate(48.729 38.199)"/><path class="d" d="M418.992,407.39a105.544,105.544,0,0,1,0,16.469A105.559,105.559,0,0,1,418.992,407.39Z" transform="translate(52.272 38.199)"/><path class="d" d="M433.062,407.28a109.708,109.708,0,0,1,0,16.791,109.7,109.7,0,0,1,0-16.791Z" transform="translate(55.611 38.173)"/><path class="d" d="M452.646,407.452c0,.186-13.326.334-29.758.334s-29.758-.148-29.758-.334,13.314-.322,29.758-.322S452.646,407.278,452.646,407.452Z" transform="translate(46.211 38.137)"/></g><g transform="translate(-248.599 -49.729)"><path class="e" d="M463.975,481.665c1.452-4.093,76.414-98.958,81.433-100.725.577-.227,32.706,23.664,32.706,23.664,1.312,1.749,63.576-9.987,63.576-9.987l-.927,74.8-112.88-4.757s-15.426,8.64-29.541,15.741h0c-8.745,4.338-16.353,7.993-18.539,8.518C474.066,490.183,462.506,485.741,463.975,481.665Z" transform="translate(0.287 94.942)"/><path class="c" d="M479.754,488.884c2.186-.507,9.864-4.163,18.539-8.518h0c14.1-7,29.541-15.741,29.541-15.741l25.116,1.049,40.682-62.667c-8.745,1.347-15.129,2.134-15.549,1.557,0,0-32.129-23.891-32.706-23.664-5.02,1.749-79.982,96.632-81.433,100.725S474.088,490.23,479.754,488.884Z" transform="translate(0.266 94.912)"/><path class="f" d="M463.6,481.787c1.522-4.2,76.816-99.011,81.975-100.812,1.941-.7,17.7,9.5,32.829,23.629l-48.622,61.075s-44.127,22.212-50,23.577S462.076,485.984,463.6,481.787Z" transform="translate(0 94.943)"/><path class="g" d="M466.485,480.739c13.013-15.584,64.031-79.667,75.714-96.055.087-.14,0-.21-.1-.087-13.24,15.164-63.733,79.667-75.871,95.95C465.926,480.879,466.223,481.072,466.485,480.739Z" transform="translate(1.974 97.634)"/><path class="g" d="M478.443,450.744a16.318,16.318,0,0,0,3.673-12.593,15.916,15.916,0,0,0-5.667-10.3c-.1,0-.245.1-.157.192a18.854,18.854,0,0,1,1.959,22.545C478.146,450.709,478.338,450.849,478.443,450.744Z" transform="translate(9.588 130.078)"/><path class="g" d="M498.631,441.684c5.142-6.3,8.745-15.461,6.681-23.542,0-.315-.525-.192-.577,0a111.36,111.36,0,0,1-7,22.947.536.536,0,1,0,.892.595Z" transform="translate(25.604 122.662)"/><path class="g" d="M495.292,443.607c5.142-6.279,8.745-15.444,6.7-23.524,0-.315-.525-.192-.577,0a113.536,113.536,0,0,1-7,22.947.524.524,0,1,0,.875.577Z" transform="translate(23.119 124.115)"/><path class="g" d="M491.979,445.549c5.142-6.279,8.745-15.444,6.681-23.524,0-.315-.525-.21-.577,0a111.366,111.366,0,0,1-7,22.947.531.531,0,0,0,.892.577Z" transform="translate(20.626 125.566)"/><path class="g" d="M488.651,447.488c5.125-6.3,8.745-15.444,6.681-23.542-.087-.3-.525-.192-.577.087a113.539,113.539,0,0,1-7,22.947.513.513,0,0,0,.892.507Z" transform="translate(18.147 127.02)"/><path class="g" d="M521.833,398.685c5.649-7.153-5.457-15.951-11.124-8.745S516.184,405.839,521.833,398.685Z" transform="translate(34.216 99.672)"/><path class="g" d="M508.951,456.094c5.247-1.1,5.842-7.223,4.652-11.4a42.676,42.676,0,0,0-11.683-18.714.21.21,0,0,0-.332,0,1,1,0,0,0-1.434.735c-.455,7-1.749,14.464-.122,21.408C501.028,452.333,504.071,457.143,508.951,456.094Zm-7.311-18.539c.14-3.5.455-6.891.472-10.337,2.256,3.638,4.67,7.188,6.576,11.071a44.634,44.634,0,0,1,2.449,5.719c1,3.061,1.364,13.52-6.069,8.658-4.093-2.676-3.6-10.984-3.428-15.111Z" transform="translate(26.792 128.594)"/><path class="g" d="M511.642,417.365c-5.247,4.862-8.2,11.823-11.683,17.945a.979.979,0,0,0,.77,1.382.227.227,0,0,0,.262.245,42.623,42.623,0,0,0,20.1-9.182c3.305-2.833,6.174-8.29,2.414-12.086S514.7,414.514,511.642,417.365Zm6.664-.979c8.885,0,2.816,8.57.3,10.494a43.118,43.118,0,0,1-5.247,3.5,128.67,128.67,0,0,1-11.6,5.614c1.906-2.9,3.5-5.929,5.247-8.9C509.246,423.574,513.426,416.385,518.305,416.385Z" transform="translate(27.267 119.54)"/><path class="h" d="M606.915,386.042l50.913-4.023s73.458-21.3,116.011-10.144c48.727,12.785,55.6,69.7,6.069,92.522-48.972,22.562-264.728,14.237-264.728,14.237l46.244-68.491s71.027-16.685,133.2-13.292L606.6,406.995Z" transform="translate(38.736 85.73)"/><path class="g" d="M568.162,389.948c7.573-1.242,15.234-1.871,22.877-2.571s15.426-1.277,23.157-1.749a459.413,459.413,0,0,1,46.3-.7c1.452,0,2.9.14,4.338.227a9.485,9.485,0,0,1,.962-.21c.734-.175,1.487-.332,2.239-.472,1.4-.227,2.8-.4,4.2-.595,2.938-.385,5.877-.63,8.745-1.119.192,0,.245.245,0,.28-2.938.577-5.824,1.364-8.745,1.941l-2.536.49c5.649.42,11.3.962,16.93,1.592.175,0,.175.3,0,.28-7.678-.612-15.426-.822-23.122-.857s-15.286,0-22.929.262c-15.461.56-30.9,1.627-46.331,2.921-8.64.717-17.315,1.609-25.99,1.749C567.5,391.453,567.3,390.176,568.162,389.948Z" transform="translate(77.996 96.305)"/><path class="g" d="M527.82,459.955c2.851-4.355,5.247-9.025,7.923-13.52l7.906-13.555c5.247-8.99,24.119-39.247,25.973-41.346.1-.14.332,0,.28.192-.91,2.344-12.7,22.387-15.409,26.847-5.422,8.937-11.106,17.682-16.72,26.5-1.592,2.519-3.253,5-4.88,7.521s-3.34,4.95-4.827,7.521a.146.146,0,0,1-.245-.157Z" transform="translate(48.186 102.835)"/><path class="e" d="M747.967,491.159c-1.242-4.145-71.709-102.474-76.571-104.468-.56-.262-33.791,22.09-33.791,22.09-1.382,1.749-62.964-12.995-62.964-12.995L572,470.555l112.968.595s15.024,9.375,28.771,17.053h0a169.172,169.172,0,0,0,18.12,9.392C737.49,499.169,749.261,495.3,747.967,491.159Z" transform="translate(81.294 99.248)"/><path class="c" d="M710.412,497.6c-2.169-.612-9.655-4.635-18.12-9.392h0c-13.747-7.678-28.753-17.053-28.753-17.053l-25.151-.14L600.68,406.48c8.588,1.749,15.006,2.851,15.461,2.274,0,0,33.231-22.335,33.773-22.072,4.932,1.994,75.312,100.3,76.571,104.468S716.026,499.177,710.412,497.6Z" transform="translate(102.775 99.24)"/><path class="f" d="M720.546,491.32c-1.312-4.268-72.041-102.544-77.1-104.59-1.924-.787-18.137,8.64-33.931,22.055l45.684,63.3s43.025,24.294,48.832,25.938S721.858,495.57,720.546,491.32Z" transform="translate(109.396 99.244)"/><path class="g" d="M700.609,490c-12.243-16.178-60.183-82.623-71.079-99.553,0-.122,0-.192.1,0,12.505,15.741,59.886,82.588,71.237,99.43C701.116,490.161,700.854,490.336,700.609,490Z" transform="translate(124.383 101.977)"/><path class="g" d="M660.357,457.924a16.337,16.337,0,0,1-3.078-12.75,15.742,15.742,0,0,1,6.156-10s.227.1.14.192a18.836,18.836,0,0,0-3.1,22.4C660.636,457.907,660.479,458.047,660.357,457.924Z" transform="translate(144.977 135.56)"/><path class="g" d="M641.448,448.069c-4.845-6.524-8.01-15.846-5.579-23.821.1-.315.542-.175.577.087A112.6,112.6,0,0,0,642.34,447.6a.507.507,0,0,1-.892.472Z" transform="translate(128.504 127.244)"/><path class="g" d="M644.661,450.158c-4.827-6.524-7.993-15.846-5.562-23.821.1-.315.542-.175.577.1a112.442,112.442,0,0,0,5.894,23.244.525.525,0,0,1-.909.472Z" transform="translate(130.923 128.81)"/><path class="g" d="M647.894,452.28c-4.827-6.541-8.01-15.846-5.562-23.839.1-.3.542-.157.577.1a111.777,111.777,0,0,0,5.894,23.262.525.525,0,0,1-.91.472Z" transform="translate(133.339 130.396)"/><path class="g" d="M651.124,454.349c-4.827-6.524-8.01-15.846-5.562-23.821,0-.315.525-.175.577.087a112.289,112.289,0,0,0,5.877,23.262.507.507,0,0,1-.892.472Z" transform="translate(135.758 131.948)"/><path class="g" d="M622.885,404.03c-5.247-7.416,6.209-15.741,11.526-8.238S628.2,411.463,622.885,404.03Z" transform="translate(118.4 103.859)"/><path class="g" d="M642.918,454.36c2.029-6.856,1.014-14.359.892-21.39a1.014,1.014,0,0,0-1.4-.8.21.21,0,0,0-.332,0A42.674,42.674,0,0,0,629.521,450.3c-1.382,4.128-1.067,10.267,4.11,11.613C638.51,463.122,641.729,458.382,642.918,454.36Zm-5.247,4.25c-7.643,4.495-6.786-5.929-5.649-8.937a48.736,48.736,0,0,1,2.711-5.614c2.081-3.778,4.67-7.206,7.1-10.739-.14,3.5,0,6.891,0,10.354C641.8,447.8,641.886,456.126,637.671,458.61Z" transform="translate(123.851 133.248)"/><path class="g" d="M625.212,421.129c-3.935,3.6-1.329,9.182,1.749,12.243A42.676,42.676,0,0,0,646.55,443.5a.21.21,0,0,0,.262-.227,1,1,0,0,0,.857-1.364c-3.183-6.261-5.824-13.362-10.826-18.469C633.992,420.359,628.938,417.7,625.212,421.129Zm15.741,12.243c1.644,3.061,3.131,6.156,4.88,9.147-3.813-1.994-7.7-3.8-11.3-6.156a45.394,45.394,0,0,1-5.037-3.69c-2.413-2.1-8.08-10.914.787-10.494,4.915.122,8.745,7.521,10.686,11.141Z" transform="translate(119.659 123.839)"/><path class="h" d="M653.008,387.719l-50.721-1.347s-52.242-26.882-95.268-17.752c-49.269,10.494-57.157,71.8-21.145,94.446,45.631,28.788,252.065,28.928,252.065,28.928l-42.588-76.781s-68.211-16.266-130.493-15.741l87.45,14.289Z" transform="translate(0.058 84.298)"/><path class="g" d="M668.053,408.465a1.63,1.63,0,0,1,0-.4,2.039,2.039,0,0,1,0-.315,3.733,3.733,0,0,0-.175-.735,14.789,14.789,0,0,0-.49-1.487c-.175-.507-.367-.979-.577-1.469a13.08,13.08,0,0,0-.8-1.347h-.35c-7.5-1.609-58.574-10.3-66.182-11.368s-15.339-2.011-23.034-2.851a458.662,458.662,0,0,0-46.226-2.9h-4.338c-.3-.1-.63-.175-.944-.262l-2.2-.56c-1.382-.3-2.781-.542-4.18-.787-2.9-.525-5.824-.909-8.745-1.539-.175,0-.262.227-.087.28,2.9.717,5.754,1.644,8.658,2.361l2.519.595c-5.667.14-11.316.437-16.983.8a.14.14,0,0,0,0,.28c7.678-.262,15.426-.1,23.122.227s15.269.7,22.894,1.347c15.409,1.294,30.8,3.078,46.121,5.107,8.605,1.119,60.673,10.144,69.33,10.739h.1a1.668,1.668,0,0,0,.227.595c.227.472.455.945.7,1.417s.472.892.735,1.329l.4.647.21.315a1.394,1.394,0,0,1,.227.332C667.861,408.762,668.158,408.64,668.053,408.465Z" transform="translate(30.19 96.066)"/><path class="g" d="M627.914,465.65c-2.641-4.495-4.862-9.27-7.276-13.887l-7.241-13.9c-4.845-9.252-22.247-40.349-23.979-42.536a.175.175,0,0,0-.3.157c.787,2.4,11.631,22.982,14.114,27.564,5,9.182,10.267,18.19,15.444,27.267,1.487,2.589,3.026,5.142,4.512,7.731s3.113,5.107,4.495,7.748C627.757,465.948,628.019,465.808,627.914,465.65Z" transform="translate(94.115 105.675)"/><path class="f" d="M539.4,439.7l118.669,5.719c1.749-1.941-7.223-72.478-17.875-101.9-13.642-37.726-22.352-41.556-27.529-44.057-6.611-3.218-19.012-3.288-22.072-2.221-3.5,1.189-19.117,16.773-24.311,29.733C555.84,353.247,537.877,437.881,539.4,439.7Z" transform="translate(56.807 31.792)"/><path class="c" d="M649.513,369.977c-.4.385-.77.77-1.137,1.189-7.276,7.87-14.219,16.143-22.4,23.174a65.1,65.1,0,0,1-13.31,9.077A42.378,42.378,0,0,1,597.2,407.86a35.356,35.356,0,0,1-8.045-.192,34.292,34.292,0,0,1-7.5-1.941l-.315-.122-.21-.087a53.415,53.415,0,0,1-13.695-8.028,132.6,132.6,0,0,1-17.49-17.21l-.525-.595c-1.1-1.259-2.186-2.519-3.253-3.8a3.273,3.273,0,0,1,.14-.56c1.172,1.417,2.344,2.8,3.5,4.2.157.192.332.4.525.595a129.068,129.068,0,0,0,17.3,17.123,52.471,52.471,0,0,0,13.782,8.133h0a3.185,3.185,0,0,0,.525.192,33.925,33.925,0,0,0,7.171,1.749,35.89,35.89,0,0,0,7.993.157,42.154,42.154,0,0,0,15.321-4.46,66.707,66.707,0,0,0,13.187-9.077c8.1-7,14.989-15.339,22.23-23.279.455-.525.944-1.014,1.434-1.539a6.25,6.25,0,0,0,.245.857ZM638.022,323a25.028,25.028,0,0,0-2.5-.455,35.54,35.54,0,0,0-8.063-.192A42.694,42.694,0,0,0,612,326.776a67.909,67.909,0,0,0-13.327,9.06c-8.168,7-15.111,15.3-22.387,23.192a133.859,133.859,0,0,1-11.421,11.3,48.975,48.975,0,0,1-13.4,8.588c-.542.227-1.1.42-1.644.595l-.455.157a27.993,27.993,0,0,1-4.3,1,4.239,4.239,0,0,1-.175.787,27.39,27.39,0,0,0,5-1.189,1.4,1.4,0,0,0,.455-.157,12.243,12.243,0,0,0,1.4-.49,38.473,38.473,0,0,0,7.153-3.83,54.879,54.879,0,0,0,6.436-4.915,137.724,137.724,0,0,0,11.4-11.421c7.241-7.94,14.132-16.213,22.23-23.262a64.888,64.888,0,0,1,13.2-9.077,42.185,42.185,0,0,1,15.321-4.46,35.959,35.959,0,0,1,7.993.157c.892.122,1.749.3,2.659.49Zm7.783,28.281a37.488,37.488,0,0,0-5.614,3.113,60.361,60.361,0,0,0-6.436,4.932,146.114,146.114,0,0,0-11.4,11.4c-7.241,7.941-14.114,16.231-22.23,23.279a65.695,65.695,0,0,1-13.187,9.077,40.233,40.233,0,0,1-5.439,2.309,2.255,2.255,0,0,1-.367.122,40.852,40.852,0,0,1-9.5,2.029,36.081,36.081,0,0,1-8.011-.157,36.5,36.5,0,0,1-7.766-2.011,52.717,52.717,0,0,1-13.782-8.133,4.8,4.8,0,0,1-.455-.385,2.556,2.556,0,0,0-.087.35l.35.28a53.345,53.345,0,0,0,13.9,8.115,34.452,34.452,0,0,0,7.8,2.064,35.537,35.537,0,0,0,8.063.192,40.837,40.837,0,0,0,10-2.134c.14,0,.262-.1.367-.14a43.6,43.6,0,0,0,5.089-2.169,65.1,65.1,0,0,0,13.31-9.077c8.185-7,15.146-15.3,22.4-23.174a144.8,144.8,0,0,1,11.4-11.3,50.616,50.616,0,0,1,11.736-7.853C645.928,351.752,645.858,351.577,645.805,351.28Z" transform="translate(58.472 50.952)"/><path class="i" d="M598.763,308.5c50.109,39.65,92.942,94.026,88.272,110.781C682.1,437,646.3,456.014,615.028,459.354c-6.419.682-24.993-46.628-18.4-48.622,5.142-1.557,28.474-7.556,31.325-10.669,1.976-2.151-32.706-53.642-43.725-80.349C572.668,291.765,585.348,297.869,598.763,308.5Z" transform="translate(87.062 34.001)"/><path class="i" d="M634.105,362.5s-19.536,1.487-32.269,3.043c-7.1.874-19.239,3.5-24.084,6.489-7.363,4.512-35.277,28.159-29.733,34.98,5.072,6.244,13.17-3.218,13.17-3.218s-9.829,9.515-2.921,14.167,16.353-8.745,16.353-8.745-11.141,9.392-3.288,13.642c6.821,3.69,19.239-10.494,19.239-10.494s-12.768,8.57-6.156,13.047c7.311,4.932,28.666-13.992,28.666-13.992,16.633,2.274,26.917,1.4,38.758-1.592C654.079,409.3,634.105,362.5,634.105,362.5Z" transform="translate(62.791 81.131)"/><path class="g" d="M562.063,399.148c.77-1.032,1.574-2.029,2.361-3.043a62.54,62.54,0,0,1,4.81-5.719c1.749-1.749,3.5-3.5,5.247-5.02s4.058-3.2,5.929-4.95a.142.142,0,0,1,.192.21,65.239,65.239,0,0,0-5.334,5.439c-1.749,1.749-3.393,3.638-5.09,5.474s-3.393,3.5-5.09,5.247a29.571,29.571,0,0,0-2.466,2.693,20.135,20.135,0,0,1-2.344,2.536.105.105,0,1,1-.157-.14,14.243,14.243,0,0,1,1.941-2.728Z" transform="translate(72.377 94.522)"/><path class="g" d="M554.12,395.855a98.6,98.6,0,0,1,8.745-10.826,68.826,68.826,0,0,1,10.494-9.13c.122-.087.3.1.175.227-3.183,3.376-6.419,6.734-9.655,10.074-1.592,1.627-8.553,9.27-9.375,9.987C554.295,396.345,554.015,396.065,554.12,395.855Z" transform="translate(67.884 91.15)"/><path class="g" d="M567.811,402.6a96.48,96.48,0,0,1,8.343-10.039,88.31,88.31,0,0,1,10.686-8.045c.14,0,.3.1.175.21-3.323,2.938-6.716,5.807-9.917,8.92-1.557,1.5-7.416,7.87-9.025,9.182C567.934,402.954,567.707,402.849,567.811,402.6Z" transform="translate(78.136 97.624)"/><path class="f" d="M654.143,358.032,614.9,381.643s-27.109-45.072-33.738-66.217,1.941-20.988,21.583-5.107S654.143,358.032,654.143,358.032Z" transform="translate(86.495 33.514)"/><path class="c" d="M619.906,317.247c-.455.315-.927.63-1.364.962a39.758,39.758,0,0,0-5.929,5.247,29.73,29.73,0,0,0-3.288,4.652l-.262.437c-.245.437-.472.909-.7,1.364v.175a8.422,8.422,0,0,0-.367.822,49.725,49.725,0,0,0-3.69,14.569,130.954,130.954,0,0,0-.717,13.1l-.63-1.119a120.4,120.4,0,0,1,.63-12.051,61.917,61.917,0,0,1,1.4-7.975A41.076,41.076,0,0,1,607,331.309c.14-.35.3-.682.455-1.014l.227-.507c.21-.455.455-.892.682-1.347l.21-.4a30.83,30.83,0,0,1,3.5-5.072,40.236,40.236,0,0,1,6.034-5.422c.4-.315.839-.595,1.259-.875Zm15.129,14.359c-6.314-.822-12.628-1.749-18.942-2.606l-.875-.122-2.326-.28-3.5-.437h-.839a132.761,132.761,0,0,0-22.055-.909,1.746,1.746,0,0,0,.157.315,136.426,136.426,0,0,1,21.688,1l.787.1,2.606.3,2.116.28,2.256.3c6.541.875,13.1,1.906,19.676,2.8Zm-4.617-4.443h-.262a76.535,76.535,0,0,0-16.108,1.154c-.385.088-.787.157-1.154.28s-.822.192-1.224.3a31.624,31.624,0,0,0-3.305,1.067l-1,.385a37.53,37.53,0,0,0-8.08,4.565,37.975,37.975,0,0,0-6,5.369l.367.717.157-.192a41.783,41.783,0,0,1,5.929-5.247,36.6,36.6,0,0,1,7.171-4.145l1-.4a35.641,35.641,0,0,1,5.877-1.749l.42-.1,1.014-.192a87.154,87.154,0,0,1,16-.945,5.024,5.024,0,0,0-.8-.944Z" transform="translate(92.154 46.804)"/><path class="g" d="M631.135,329.513a312.928,312.928,0,0,1-32.706,20.516c-.14.087-.262-.14-.123-.227,2.973-1.749,19.029-12.68,32.706-20.533C631.17,329.181,631.275,329.408,631.135,329.513Z" transform="translate(100.951 56.226)"/><path class="g" d="M612.639,364.163a20.272,20.272,0,0,0-2.379,1.119c-4.023-7.5-8.378-15.129-12.47-22.6-2.011-3.673-4.023-7.328-6.017-11s-3.97-7.783-6.244-11.473a.1.1,0,1,0-.175.087c1.364,3.62,3.166,7.118,4.9,10.616-.385-.542-.734-1.084-1.137-1.609-.91-1.154-1.749-2.326-2.624-3.5-.122-.192-.437,0-.315.175.787,1.172,1.469,2.379,2.151,3.6s1.452,2.4,2.221,3.585,1.557,2.2,2.379,3.288c.1.122.192.262.3.4,1.1,2.169,2.169,4.372,3.323,6.524,4.023,7.556,13.222,22.824,13.362,22.737a22.285,22.285,0,0,0,2.833-1.749C612.849,364.286,612.744,364.146,612.639,364.163Z" transform="translate(91.27 49.385)"/><path class="i" d="M591.171,308.584c-42.606,23.944-82.413,52.645-89.444,71.936-4.407,12.121,2.221,33.616,7.486,46.523,2.571,6.279,61.7-20.411,56.563-25.518-12.75-12.628-14.884-17.787-13.642-20.463.787-1.749,46.873-44.442,59.588-63.454C629.421,291.147,609.832,298.108,591.171,308.584Z" transform="translate(27.58 33.745)"/><path class="i" d="M588.089,422.4c-5.562,3.358-12.68-11.054-12.68-11.054a11.928,11.928,0,0,1-3.113,7.538c-3.5,3.5-10.494-.437-10.494-.437a14.813,14.813,0,0,1-4.53,7.433c-3.673,3.008-11.316,0-11.316,0a13,13,0,0,1-8.1,4.023c-8.308.525-15.741-9.812-20.5-16.318S505.116,384.1,503.28,379.865l41.486-30.975s29.733,23.139,34.263,31.587C582.929,387.56,596.589,417.293,588.089,422.4Z" transform="translate(29.822 70.937)"/><path class="g" d="M549.287,394.882c-2.239-8.553-6.524-16.546-10.739-24.224,0-.157-.35,0-.262.157,4.285,7.573,6.646,16.493,10.616,24.224C549.007,395.249,549.34,395.109,549.287,394.882Z" transform="translate(56.031 87.192)"/><path class="g" d="M542.965,397.467a23.891,23.891,0,0,0-2.8-5.334q-1.749-2.728-3.5-5.4c-2.361-3.5-4.792-7-7.346-10.494-.1-.14-.367,0-.262.157,2.344,3.5,4.635,7.153,6.839,10.791q1.644,2.746,3.253,5.509a27.025,27.025,0,0,0,3.271,5.072.309.309,0,0,0,.542-.3Z" transform="translate(49.114 91.375)"/><path class="g" d="M533.116,401.11a16.532,16.532,0,0,0-2.781-4.67c-1.119-1.592-2.221-3.2-3.306-4.81-2.186-3.236-4.372-6.454-6.436-9.759-.1-.175-.367,0-.262.14,2.081,3.376,4.128,6.769,6.244,10.109,1.032,1.644,2.081,3.288,3.131,4.915a15.284,15.284,0,0,0,3.253,4.2S533.133,401.2,533.116,401.11Z" transform="translate(42.575 95.585)"/><path class="f" d="M517.08,344.89l32.759,30.083S590.4,336.652,601.8,316.119s2.414-22.037-21.32-9.794S517.08,344.89,517.08,344.89Z" transform="translate(40.159 33.241)"/><path class="f" d="M517.08,344.89l32.759,30.083S590.4,336.652,601.8,316.119s2.414-22.037-21.32-9.794S517.08,344.89,517.08,344.89Z" transform="translate(40.159 33.241)"/><path class="c" d="M558.184,350.61l-.455-.157v-2.186c0-1.749-.14-3.638-.175-5.457-.262-10.756-.087-21.5-.839-32.2-.087-1.347-.21-2.676-.35-4.04.192-.14.42-.227.612-.35.122,1.452.262,2.886.367,4.338.717,10.756.472,21.5.7,32.252,0,1.662,0,3.341.1,5v1.994C558.167,350.085,558.167,350.33,558.184,350.61Zm0-.8a1.345,1.345,0,0,1-.437-.175,6.232,6.232,0,0,1-1-.4,27.062,27.062,0,0,1-4.11-2.151,36.985,36.985,0,0,1-6.156-5.055,36.533,36.533,0,0,1-8.4-12.908c0-.14-.1-.262-.14-.385s-.245-.665-.35-1a59.03,59.03,0,0,1-2.239-8.745c-.227.157-.455.315-.7.455a60.193,60.193,0,0,0,2.536,9.48c.14.385.3.77.472,1.137a11.435,11.435,0,0,0,.49,1.154,37.254,37.254,0,0,0,7.766,11.351,40.562,40.562,0,0,0,6.279,5.16,30.611,30.611,0,0,0,3.97,2.081c.507.245,1.032.455,1.557.647l.455.157c-.018-.28-.018-.525-.035-.8Zm-17.105,9.007a138.421,138.421,0,0,1-2.921-27.529v-4.46c0-3.113,0-6.226-.087-9.357a4.009,4.009,0,0,1-.507.315c0,3.026,0,6.034.14,9.06v3.288a144.735,144.735,0,0,0,3.1,28.771c.4,1.749.875,3.375,1.417,5.055l.227-.245a41.875,41.875,0,0,1-1.4-4.9Z" transform="translate(53.326 38.977)"/><path class="g" d="M551.827,349.129a319.178,319.178,0,0,1-28.911-26.987c-.122-.1.087-.3.21-.175,2.431,2.5,17.577,15.514,28.928,26.952C552.177,349.059,551.967,349.234,551.827,349.129Z" transform="translate(44.502 50.742)"/><path class="g" d="M558.31,313.322c-1.487,3.5-2.973,6.909-4.18,10.494v-.7a46.591,46.591,0,0,1,.77-6.419c0-.245-.315-.332-.35-.087-.42,2.134-.787,4.285-1.049,6.436-.14,1.032-.192,2.081-.245,3.113a3.161,3.161,0,0,1,0,.385.333.333,0,0,1,0,.122c-1.382,4.722-2.2,9.532-3.376,14.289,0,.227.3.332.367.087,1.137-4.652,2.851-9.2,4.338-13.765s2.658-9.2,4.075-13.782C558.66,313.27,558.38,313.165,558.31,313.322Z" transform="translate(64.726 44.24)"/><path class="i" d="M574.685,331.38c6.891.612,16.86-11.211,20.183-20.113.227-.612-1.5-6.454-3.271-13.642-1.049-4.355-2.116-9.252-2.781-13.782-.122-.927-27.407,11-27.407,11a72.8,72.8,0,0,1,5.247,17,11.729,11.729,0,0,1,0,1.889,1.844,1.844,0,0,0,0,.315C566.6,317.633,567.969,330.75,574.685,331.38Z" transform="translate(73.362 22.178)"/><path class="g" d="M587.055,284c-.227,7.853-2.309,27.039-17.49,29.576a17.929,17.929,0,0,1-2.938.262,1.857,1.857,0,0,1,0-.315,13.64,13.64,0,0,0,0-1.871,73.3,73.3,0,0,0-5.247-17.018S581.039,286.046,587.055,284Z" transform="translate(73.339 22.334)"/><path class="i" d="M592.14,267.955c5.842,8.9,8.955,38.635,3.848,46.961-7.416,12.068-23.646,17.77-34.98,7.923-10.949-9.532-14.307-48.36-8.22-56.353C561.708,254.733,583.4,254.82,592.14,267.955Z" transform="translate(64.651 2.77)"/><path class="g" d="M562.2,280.59s.175,0,.175.157c.157,2.011.665,4.285,2.554,4.74v.122C562.691,285.54,562.027,282.514,562.2,280.59Z" transform="translate(73.934 19.78)"/><path class="g" d="M563.763,279.3c3.2-.595,4.163,5.824,1.189,6.384S561.087,279.8,563.763,279.3Z" transform="translate(73.93 18.783)"/><path class="g" d="M556.412,281.57s-.14.122-.122.192c.367,1.994.437,4.32-1.259,5.247v.1C557.216,286.485,557.076,283.389,556.412,281.57Z" transform="translate(68.583 20.514)"/><path class="g" d="M555.54,280.532c-3.236.245-2.536,6.7.472,6.489S558.251,280.339,555.54,280.532Z" transform="translate(67.373 19.734)"/><path class="g" d="M566.843,277.684h-2.659a4.39,4.39,0,0,1-2.711-.56,1.364,1.364,0,0,1-.332-1.644,3.5,3.5,0,0,1,3.148-1.434,5.054,5.054,0,0,1,3.5,1.137,1.469,1.469,0,0,1-.944,2.5Z" transform="translate(73.053 14.868)"/><path class="g" d="M553.365,280.145a25.44,25.44,0,0,0,2.466-1.049,4.18,4.18,0,0,0,2.291-1.539,1.364,1.364,0,0,0-.315-1.644,3.5,3.5,0,0,0-3.5-.14,5,5,0,0,0-2.728,2.344,1.469,1.469,0,0,0,1.784,2.029Z" transform="translate(65.893 15.871)"/><path class="g" d="M567.289,290.927c-.4.542-.787,1.259-1.5,1.417a5.054,5.054,0,0,1-2.221-.175s-.122,0,0,.122a2.728,2.728,0,0,0,2.693.7A2.169,2.169,0,0,0,567.569,291a.144.144,0,0,0-.28-.07Z" transform="translate(74.934 27.441)"/><path class="g" d="M569.294,296.366a6.752,6.752,0,0,1-4.075,3.69,8.1,8.1,0,0,1-2.414.472,1.452,1.452,0,0,1-.472,0h-.455a.507.507,0,0,1-.455-.385h0a.847.847,0,0,1,0-.21h0v-.175c-.262-1.539-.455-3.883-.455-3.883-.525.367-3.183,2.064-3.271,1.259a103.188,103.188,0,0,1-.42-20.988.192.192,0,0,1,.367,0c.822,6.419.525,12.925,1.242,19.361a12.246,12.246,0,0,1,3.061-1.434c.227,0,.3,4.547.472,5.247a9.48,9.48,0,0,0,6.7-3.218C569.154,296.086,569.294,296.191,569.294,296.366Z" transform="translate(70.008 16.352)"/><path class="g" d="M560.7,290.9a8.064,8.064,0,0,0,3.5,2.029,3.742,3.742,0,0,0,2.221-.192c1.539-.665,1.347-2.134.874-3.323a8.745,8.745,0,0,0-1-1.749,10.493,10.493,0,0,1-5.6,3.236Z" transform="translate(72.83 25.076)"/><path class="j" d="M562.75,292.176a3.744,3.744,0,0,0,2.221-.192c1.539-.665,1.347-2.134.875-3.323A3.778,3.778,0,0,0,562.75,292.176Z" transform="translate(74.365 25.825)"/><path class="g" d="M602.535,294.22s2.361-18.942-2.309-27.179c-2.134-3.708-8.605-3.97-8.605-3.97a9.637,9.637,0,0,0-6.734-7.608c-6.524-2.274-17.245,3.673-17.245,3.673s-11.893-7.223-20.271,1.487,3.5,17.315,3.5,17.315-1.382,7,9.654,7.083c10.721,0,27.2-12.068,27.2-12.068a69.472,69.472,0,0,0,8.745,18.767,6.331,6.331,0,0,0,6.069,2.5Z" transform="translate(60.606 0.571)"/><path class="g" d="M556.729,260.633a19.484,19.484,0,0,1,6.594-4.53,21.32,21.32,0,0,1,7-1.871c4.268-.332,8.745.927,11.159,4.687a8.15,8.15,0,0,1,1.1,6.3c0,.087-.157,0-.14,0,1.067-3.97-2.2-7.975-5.754-9.34a17.718,17.718,0,0,0-12.558.84,33.9,33.9,0,0,0-7.241,4.145C556.764,260.861,556.607,260.738,556.729,260.633Z" transform="translate(69.822 0)"/><path class="g" d="M543.186,268.147a9.584,9.584,0,0,1,3.5-8.29,16.335,16.335,0,0,1,9.829-3.988,20.517,20.517,0,0,1,10.494,2.344v.122a18.12,18.12,0,0,0-18.434,1.172,9.952,9.952,0,0,0-4.547,7.4,9.794,9.794,0,0,0,3.621,7.486,18.381,18.381,0,0,0,9.515,3.655v.122a18.89,18.89,0,0,1-9.042-2.658,10.722,10.722,0,0,1-4.932-7.363Z" transform="translate(59.684 1.249)"/><path class="g" d="M552.495,280.25a33.9,33.9,0,0,0,13.852-3.5,69,69,0,0,0,12.7-7.888c2.309-1.749,4.547-3.638,6.751-5.544,0,0,.157,0,0,.1a74.671,74.671,0,0,1-11.946,10.494,37.711,37.711,0,0,1-13.415,5.842,31.865,31.865,0,0,1-8.045.647S552.425,280.25,552.495,280.25Z" transform="translate(66.606 6.845)"/><path class="i" d="M574.35,282.016s3.935-10.914,8.745-9.759,3.5,15.741-.839,18.924a5.142,5.142,0,0,1-7.381-.875Z" transform="translate(83.054 13.475)"/><path class="g" d="M581.416,274.61s.122.087,0,.122c-3.043,2.326-3.988,5.982-4.355,9.62a2.833,2.833,0,0,1,3.9-1.854c.1,0,0,.21,0,.21a3.148,3.148,0,0,0-3.078,1.976,16.325,16.325,0,0,0-.875,3.166c0,.35-.665.332-.647,0h0C575.1,283.355,576.833,276.324,581.416,274.61Z" transform="translate(84.261 15.301)"/><path class="g" d="M597.137,300.566A132.131,132.131,0,0,1,589,313.158c-2.868,3.69-6.471,7.188-11.019,8.413s-9.042,1.032-11.648-4.18c-2.046-4.128-2.589-8.64-2.781-14.324a.175.175,0,1,0-.332,0c.192,7.346,1.032,18.644,7.975,20.009,7.766,1.522,14.272-3.5,18.539-9.357a68.207,68.207,0,0,0,7.538-13.065C597.329,300.566,597.189,300.478,597.137,300.566Z" transform="translate(74.713 34.715)"/><rect class="g" width="116.711" height="5.23" transform="translate(566.508 505.003)"/><path class="g" d="M624.747,433.656H511.01l-9.48-77.236H615.285Z" transform="translate(28.512 76.577)"/><path class="c" d="M546.631,381.5a6.786,6.786,0,0,1-6.8,7,7,7,0,0,1-7-7,6.769,6.769,0,0,1,6.8-7A7,7,0,0,1,546.631,381.5Z" transform="translate(51.954 90.119)"/></g><g transform="translate(-9.69 204.452)"><path class="k" d="M52.1,219.63c14.6,7.56,25.786,20.577,33.829,34.905s13.239,30.055,18.374,45.67l4.492,80.513c-16.976-28.879-30.612-62.881-34.287-96.153l11.3-1c-7.572-1.163-13.932-6.645-17.978-13.153S61.64,256.391,59.66,249l13.784,2.017A51.09,51.09,0,0,1,52.1,219.63Z" transform="translate(-27.329 -212.998)"/><g class="l" transform="translate(24.771 6.632)"><path d="M52.1,219.63c14.6,7.56,25.786,20.577,33.829,34.905s13.239,30.055,18.374,45.67l4.492,80.513c-16.976-28.879-30.612-62.881-34.287-96.153l11.3-1c-7.572-1.163-13.932-6.645-17.978-13.153S61.64,256.391,59.66,249l13.784,2.017A51.09,51.09,0,0,1,52.1,219.63Z" transform="translate(-52.1 -219.63)"/></g><path class="k" d="M101.412,400.86s36.86-44.111,36.44-86.23H123s16.172-10.641,14.848-16.593-1.708-28.459-1.708-28.459l-13.611,3.4s10.208-5.11,11.482-13.19-2.97-45.522-2.97-45.522-16.593,17.446-21.7,35.314-18.56,38.7-14.563,93.159S101.412,400.86,101.412,400.86Z" transform="translate(-17.373 -214.27)"/><path class="k" d="M97.374,395.824s-39.929-26.6-48.8-60.555L60.539,332s-15.318-5.011-15.6-10.072-4.863-23.287-4.863-23.287l11.693-.247s-9.33-1.868-12.126-8.092-7.56-37.244-7.56-37.244,17.149,10.394,25.167,23.645,23.349,27.073,32.1,71.7S97.374,395.824,97.374,395.824Z" transform="translate(-32.08 -205.064)"/><path class="g" d="M119.8,245.33a2.7,2.7,0,0,1-.062.47l-.26,1.373c-.247,1.237-.594,3.007-1.052,5.259s-1.027,5.073-1.633,8.327-1.349,6.941-2.066,11.037c-1.522,8.191-3.143,17.966-4.813,28.855s-3.267,22.866-4.751,35.487-2.574,24.672-3.477,35.648-1.51,20.874-1.893,29.189c-.235,4.157-.371,7.919-.507,11.223s-.235,6.187-.3,8.476-.148,4.1-.186,5.358a8.834,8.834,0,0,1-.062,1.4,2.819,2.819,0,0,1,0,.47,2.735,2.735,0,0,1,0-.47c0-.346,0-.8,0-1.4v-5.358c0-2.3.087-5.184.2-8.488s.2-7.078.408-11.235c.334-8.327.94-18.226,1.757-29.214s1.992-23.039,3.44-35.672,3.13-24.623,4.788-35.512,3.378-20.651,4.949-28.83c.742-4.108,1.51-7.8,2.165-11.037s1.237-6.026,1.745-8.3.891-4.009,1.163-5.234l.322-1.361a2.7,2.7,0,0,1,.124-.458Z" transform="translate(-16.261 -206.898)"/><path class="k" d="M104.09,406.634s33.73-38.271,44.2-61.4l-7.907-3.378c5.729.94,11.606-1.522,16.085-5.259s7.709-8.661,10.9-13.512l-10.443-1.707a38.753,38.753,0,0,0,22.755-17.632c-12.3,2.029-23.41,8.773-32.579,17.211a162.769,162.769,0,0,0-19.735,22.816,77.521,77.521,0,0,0-7.659,12.608C114.038,368.1,104.065,392.591,104.09,406.634Z" transform="translate(-14.99 -193.033)"/><path class="g" d="M45,271.06a2.476,2.476,0,0,1,.223.359c.136.285.334.631.569,1.089.52.99,1.237,2.4,2.165,4.195,1.881,3.638,4.516,8.946,7.671,15.566s6.793,14.539,10.666,23.41,7.931,18.733,11.977,29.152,7.61,20.466,10.752,29.634,5.754,17.484,7.857,24.5,3.712,12.72,4.8,16.679l1.237,4.553.309,1.237a1.756,1.756,0,0,1,.074.408,1.237,1.237,0,0,1-.136-.4c-.1-.285-.223-.68-.371-1.163-.309-1.076-.755-2.6-1.324-4.529-1.138-3.935-2.833-9.614-4.949-16.605s-4.863-15.281-7.993-24.45-6.768-19.154-10.79-29.585-8.1-20.255-11.916-29.152S58.4,299.135,55.282,292.453s-5.655-11.965-7.424-15.64L45.8,272.57c-.223-.47-.4-.829-.52-1.114a2.179,2.179,0,0,1-.285-.4Z" transform="translate(-29.014 -200.792)"/><path class="g" d="M101.774,412.729a3.489,3.489,0,0,1,0-.718c0-.544.124-1.237.2-2.054s.223-1.98.421-3.229.384-2.7.693-4.269c.544-3.155,1.373-6.88,2.475-10.975s2.475-8.525,4.207-13.1,3.638-8.835,5.506-12.633,3.712-7.127,5.42-9.9c.8-1.386,1.609-2.586,2.3-3.712a27.143,27.143,0,0,1,1.819-2.7c.582-.73.878-1.237,1.237-1.67a2.992,2.992,0,0,1,.458-.569,3.879,3.879,0,0,1-.346.643l-1.1,1.732c-.495.755-1.076,1.67-1.732,2.759s-1.435,2.3-2.215,3.712c-1.609,2.747-3.415,6.1-5.271,9.9s-3.712,8.043-5.432,12.6-3.106,8.983-4.244,13.042-1.967,7.77-2.574,10.9c-.334,1.559-.557,2.982-.78,4.232s-.4,2.326-.532,3.217-.235,1.5-.322,2.029a3.266,3.266,0,0,1-.186.767Z" transform="translate(-15.544 -182.721)"/><rect class="f" width="73.819" height="15.058" transform="translate(41.723 221)"/><path class="f" d="M131.3,405.05l-7.981,50.656H78.709L71.26,405.05Z" transform="translate(-22.781 -168.991)"/><path class="g" d="M69.46,405.112c0-.173,13.97-.322,31.193-.322s31.193.148,31.193.322-13.97.322-31.193.322S69.46,405.3,69.46,405.112Z" transform="translate(-23.208 -169.053)"/></g></g><g transform="translate(33.404 545.768)"><path class="g" d="M568.4,446.062c0,.173-119.823.322-267.611.322s-267.636-.148-267.636-.322,119.8-.322,267.636-.322S568.4,445.876,568.4,446.062Z" transform="translate(-33.15 -445.74)"/></g><g transform="translate(197.376 24.278)"><rect class="f" width="182.754" height="39.842" rx="5.77" transform="translate(0.408 268.667)"/><path d="M172.692,241.967c0,1.559-1.126,2.475-2.994,2.475H167.73v2.314H167V239.43h2.735C171.566,239.455,172.692,240.408,172.692,241.967Zm-.767,0c0-1.163-.78-1.831-2.24-1.831H167.73v3.712h1.955c1.46,0,2.264-.73,2.264-1.881Z" transform="translate(-165.354 -46.426)"/><path d="M177.025,243.035v3.4h-.705v-.854a2.054,2.054,0,0,1-1.893.9c-1.237,0-2.017-.643-2.017-1.6s.544-1.559,2.128-1.559h1.745V243c0-.94-.532-1.448-1.559-1.448a2.834,2.834,0,0,0-1.831.643l-.334-.557a3.514,3.514,0,0,1,2.24-.742,1.955,1.955,0,0,1,2.227,2.141Zm-.742,1.757v-.9h-1.72c-1.076,0-1.423.421-1.423.977s.52,1.039,1.4,1.039a1.757,1.757,0,0,0,1.745-1.163Z" transform="translate(-164.07 -46.083)"/><path d="M177.16,245.8l.334-.582a3.279,3.279,0,0,0,1.955.619c1.039,0,1.472-.359,1.472-.9,0-1.435-3.564-.3-3.564-2.475,0-.9.767-1.571,2.165-1.571a3.712,3.712,0,0,1,1.955.52l-.334.594a2.8,2.8,0,0,0-1.621-.47c-.99,0-1.423.384-1.423.9,0,1.485,3.564.371,3.564,2.475,0,.953-.841,1.559-2.277,1.559a3.588,3.588,0,0,1-2.227-.668Z" transform="translate(-162.943 -46.079)"/><path d="M181.29,245.8l.334-.582a3.279,3.279,0,0,0,1.955.619c1.052,0,1.472-.359,1.472-.9,0-1.435-3.564-.3-3.564-2.475,0-.9.78-1.571,2.178-1.571a3.712,3.712,0,0,1,1.943.52l-.322.594a2.846,2.846,0,0,0-1.621-.47c-1,0-1.435.384-1.435.9,0,1.485,3.564.371,3.564,2.475,0,.953-.829,1.559-2.264,1.559a3.6,3.6,0,0,1-2.24-.668Z" transform="translate(-161.963 -46.079)"/><path d="M194.21,240.93l-2.079,5.494h-.705l-1.732-4.5-1.732,4.5h-.705l-2.066-5.494h.705l1.732,4.665,1.769-4.665h.631l1.757,4.665,1.745-4.665Z" transform="translate(-161.037 -46.07)"/><path d="M192.81,243.691a2.809,2.809,0,1,1,2.809,2.8,2.71,2.71,0,0,1-2.809-2.8Zm4.85,0a2.054,2.054,0,1,0-2.042,2.141,2,2,0,0,0,2.042-2.141Z" transform="translate(-159.229 -46.084)"/><path d="M201.332,240.892v.718h-.173a1.782,1.782,0,0,0-1.856,2.029v2.8h-.742v-5.494h.718v1.076A2.042,2.042,0,0,1,201.332,240.892Z" transform="translate(-157.864 -46.082)"/><path d="M206.98,239.1v7.758h-.718v-1.089a2.376,2.376,0,0,1-2.116,1.138,2.8,2.8,0,0,1,0-5.593,2.475,2.475,0,0,1,2.091,1.089v-3.3Zm-.73,5.011a2.054,2.054,0,1,0-2.042,2.141,2,2,0,0,0,2.042-2.141Z" transform="translate(-157.202 -46.504)"/><path class="c" d="M220.56,320.843l.73-1.621a5.432,5.432,0,0,0,3.056.965c1.237,0,1.782-.421,1.782-.99,0-1.732-5.382-.544-5.382-3.984,0-1.571,1.237-2.883,3.9-2.883a6.187,6.187,0,0,1,3.217.817l-.656,1.633a5.2,5.2,0,0,0-2.574-.73c-1.237,0-1.757.47-1.757,1.052,0,1.708,5.382.532,5.382,3.935,0,1.547-1.237,2.871-3.922,2.871a6.62,6.62,0,0,1-3.774-1.064Z" transform="translate(-152.643 -29.124)"/><path class="c" d="M227.667,312.681a1.237,1.237,0,0,1,1.237-1.151,1.151,1.151,0,0,1,1.237,1.1,1.281,1.281,0,0,1-2.561,0Zm.247,2.141h2.066v7.115h-2.066Z" transform="translate(-150.977 -29.315)"/><path class="c" d="M238.4,317.249v4.071h-2.054v-3.712c0-1.163-.532-1.683-1.448-1.683a1.693,1.693,0,0,0-1.708,1.918v3.514H231.12v-7.115h1.98v.829a3.106,3.106,0,0,1,2.351-.94,2.784,2.784,0,0,1,2.945,3.118Z" transform="translate(-150.136 -28.698)"/><path class="c" d="M245.995,314.2v5.952c0,2.648-1.423,3.86-4,3.86a5.791,5.791,0,0,1-3.489-.977l.817-1.485a4.232,4.232,0,0,0,2.475.817c1.46,0,2.091-.668,2.091-1.955v-.26a2.92,2.92,0,0,1-2.24.891,3.452,3.452,0,1,1,0-6.892A2.846,2.846,0,0,1,244,315.178v-.916Zm-2.029,3.328a1.881,1.881,0,1,0-1.868,1.757,1.732,1.732,0,0,0,1.868-1.757Z" transform="translate(-148.505 -28.693)"/><path class="c" d="M248.857,312.681a1.237,1.237,0,0,1,1.237-1.151,1.151,1.151,0,0,1,1.237,1.1,1.281,1.281,0,0,1-2.561,0Zm.247,2.141h2.066v7.115h-2.116Z" transform="translate(-145.947 -29.315)"/><path class="c" d="M259.536,317.249v4.071h-2.054v-3.712c0-1.163-.532-1.683-1.448-1.683a1.693,1.693,0,0,0-1.708,1.918v3.514H252.26v-7.115h1.967v.829a3.143,3.143,0,0,1,2.363-.94,2.784,2.784,0,0,1,2.945,3.118Z" transform="translate(-145.119 -28.698)"/><rect class="b" width="182.754" height="39.533" rx="7.01" transform="translate(0.408 207.543)"/><path class="g" d="M340.151,290.775h.272a7.25,7.25,0,0,0,.829-.087,8.538,8.538,0,0,0,3.044-1.015,8.748,8.748,0,0,0,3.539-3.712,8.452,8.452,0,0,0,.841-3.2c0-1.237,0-2.475,0-3.848,0-5.42,0-12.1-.1-19.8a8.513,8.513,0,0,0-2.475-5.172,8.4,8.4,0,0,0-5.58-2.413H326.664l-151.945.037a8.4,8.4,0,0,0-7.993,5.914,19.465,19.465,0,0,0-.371,5.333v18.857a8.662,8.662,0,0,0,.285,2.549,8.315,8.315,0,0,0,2.648,4.232,8.414,8.414,0,0,0,4.541,1.967c1.67.1,3.44,0,5.147,0h29.931l68.289.074,46.041.1,12.522.062h0l-12.522.062-46.041.111-68.289.062H179c-1.732,0-3.415.062-5.209,0a8.958,8.958,0,0,1-7.733-6.459,9.589,9.589,0,0,1-.3-2.71V260.089a10.332,10.332,0,0,1,.4-2.809,9.045,9.045,0,0,1,8.661-6.36l151.908.087,13.8.012a8.785,8.785,0,0,1,5.84,2.549,8.9,8.9,0,0,1,2.586,5.407c.074,7.758,0,14.378,0,19.8v3.86a8.773,8.773,0,0,1-4.541,7.065,8.3,8.3,0,0,1-3.106.965A7.417,7.417,0,0,1,340.151,290.775Z" transform="translate(-165.65 -43.699)"/><path class="a" d="M341.675,408.523a7.472,7.472,0,0,0,1.114-.124,7.164,7.164,0,0,0,2.97-1.237,7.028,7.028,0,0,0,2.809-4.318,17.32,17.32,0,0,0,.136-3.366c0-1.237,0-2.475,0-3.885,0-5.481,0-12.175-.062-19.946a6.966,6.966,0,0,0-2.475-5.135,6.767,6.767,0,0,0-2.722-1.386,11.692,11.692,0,0,0-3.18-.223H326.282l-153.046.087a6.867,6.867,0,0,0-4.8,1.98,6.744,6.744,0,0,0-2.017,4.764v24.512a11.816,11.816,0,0,0,.161,2.586,6.793,6.793,0,0,0,2.747,4.12,6.906,6.906,0,0,0,2.277,1.039,10.046,10.046,0,0,0,2.537.21h35.375l68.808.074,46.388.1,12.608.062h0l-12.608.062-46.425.26-68.808.074H174.1a9.975,9.975,0,0,1-2.685-.223,7.177,7.177,0,0,1-2.475-1.126,7.424,7.424,0,0,1-3.007-4.5,12.026,12.026,0,0,1-.173-2.722V375.734a7.424,7.424,0,0,1,7.424-7.424l153.046.1h13.982a11.7,11.7,0,0,1,3.279.248,7.213,7.213,0,0,1,2.871,1.472,7.424,7.424,0,0,1,2.6,5.419v23.843a17.845,17.845,0,0,1-.161,3.4,7.238,7.238,0,0,1-2.932,4.393,7.139,7.139,0,0,1-3.032,1.237,5.521,5.521,0,0,1-1.163.1Z" transform="translate(-165.652 -15.838)"/><path class="a" d="M288.557,384.772c0,.173-18.5.322-41.315.322s-41.3-.148-41.3-.322,18.486-.322,41.3-.322S288.557,384.6,288.557,384.772Z" transform="translate(-156.113 -12.008)"/><g transform="translate(1.064 -59.566)"><circle class="m" cx="15.491" cy="15.491" r="15.491" transform="translate(76.752 21.908) rotate(-45)"/><path class="a" d="M257.34,112.338a9.9,9.9,0,0,0-10.01-8.8,10.171,10.171,0,0,0-10.01,8.835,13.722,13.722,0,0,0,10.01,3.712A14.192,14.192,0,0,0,257.34,112.338Z" transform="translate(-148.665 -78.678)"/><circle class="a" cx="6.075" cy="6.075" r="6.075" transform="translate(92.59 13.776)"/><path class="g" d="M257.235,113.968a12.237,12.237,0,0,0-.94-2.858,9.626,9.626,0,0,0-2.19-2.7,12.026,12.026,0,0,0-3.96-2.215l-.309-.111.285-.148a6.038,6.038,0,0,0,2.413-2.475,5.927,5.927,0,0,0-1.237-7.214,5.865,5.865,0,0,0-7.869,0,5.754,5.754,0,0,0-1.905,3.514,5.852,5.852,0,0,0,.619,3.712,5.715,5.715,0,0,0,1.064,1.411,6.992,6.992,0,0,0,1.336,1.027l.272.173-.309.087a9.28,9.28,0,0,0-3.959,2.19,9.812,9.812,0,0,0-2.066,2.8,10.738,10.738,0,0,0-.817,2.091,5.683,5.683,0,0,0-.148.569.867.867,0,0,1-.062.2s0-.074,0-.21a1.33,1.33,0,0,1,.111-.582,11.024,11.024,0,0,1,.755-2.141,10.146,10.146,0,0,1,2.066-2.9,9.342,9.342,0,0,1,4.034-2.289v.247a7.721,7.721,0,0,1-1.4-1.039,6.706,6.706,0,0,1-1.126-1.485,6.273,6.273,0,0,1-.681-3.885,6.187,6.187,0,0,1,2-3.712,6.311,6.311,0,0,1,4.17-1.6,6.187,6.187,0,0,1,5.457,9.231,6.323,6.323,0,0,1-2.561,2.475v-.26a12.262,12.262,0,0,1,4.034,2.314,9.565,9.565,0,0,1,2.178,2.8,7.426,7.426,0,0,1,.483,1.237,4.294,4.294,0,0,1,.223.928l.087.594C257.247,113.906,257.247,113.968,257.235,113.968Z" transform="translate(-148.634 -80.84)"/><path class="g" d="M263.932,104.148a.68.68,0,0,1,0-.247v-1.274a4.693,4.693,0,0,0-.1-.656,10.884,10.884,0,0,0-.334-1.6,14.946,14.946,0,0,0-1.72-4.1,15.356,15.356,0,0,0-3.922-4.355,15.182,15.182,0,0,0-6.595-2.809,15.429,15.429,0,0,0-8.067.668,16.816,16.816,0,0,0-2,.891,15.926,15.926,0,0,0-1.868,1.237,16.52,16.52,0,0,0-1.745,1.485,16.321,16.321,0,0,0-3.712,6,15.315,15.315,0,0,0,2.19,13.908,17.25,17.25,0,0,0,1.51,1.769,17.736,17.736,0,0,0,1.732,1.485,19.383,19.383,0,0,0,1.881,1.237,16.713,16.713,0,0,0,2,.879,15.354,15.354,0,0,0,18.461-6.546,14.946,14.946,0,0,0,1.72-4.1,10.884,10.884,0,0,0,.334-1.6,4.7,4.7,0,0,1,.1-.643,3.981,3.981,0,0,0,0-.544v-.742a.68.68,0,0,1,0-.247v1.534a1.811,1.811,0,0,1-.087.656,10.222,10.222,0,0,1-.3,1.609,14.4,14.4,0,0,1-1.7,4.17,15.146,15.146,0,0,1-3.935,4.454,15.5,15.5,0,0,1-6.57,2.957,15.788,15.788,0,0,1-8.228-.668,16.456,16.456,0,0,1-2.042-.891,16.855,16.855,0,0,1-1.93-1.237,20.366,20.366,0,0,1-1.769-1.51,18.175,18.175,0,0,1-1.547-1.819,15.63,15.63,0,0,1,0-18.535,18.023,18.023,0,0,1,1.547-1.807,15.756,15.756,0,0,1,1.881-1.584,14.44,14.44,0,0,1,1.918-1.237,16.457,16.457,0,0,1,2.042-.891A15.595,15.595,0,0,1,261.866,96.2a14.4,14.4,0,0,1,1.7,4.17,10.222,10.222,0,0,1,.3,1.609c0,.235.074.458.087.656s0,.384,0,.544v.99Z" transform="translate(-149.776 -82.243)"/></g><path class="a" d="M360.043,153.282c0,.186-43.517.322-97.18.322s-97.193-.136-97.193-.322,43.5-.322,97.193-.322S360.043,153.108,360.043,153.282Z" transform="translate(-165.67 -126.514)"/><path class="a" d="M360.043,350.912c0,.173-43.517.322-97.18.322s-97.193-.148-97.193-.322,43.5-.322,97.193-.322S360.043,350.738,360.043,350.912Z" transform="translate(-165.67 -20.044)"/><path class="c" d="M181.947,267.459l2.759,1.559-.718,1.237-2.821-1.658v3.168h-1.4V268.6l-2.809,1.658-.73-1.237,2.8-1.559-2.8-1.534.73-1.237,2.809,1.646V263.19h1.4v3.143l2.821-1.646.718,1.237Z" transform="translate(-163.164 -40.787)"/><path class="c" d="M189.844,267.459l2.784,1.559-.73,1.237-2.809-1.658v3.168h-1.411V268.6l-2.821,1.658-.718-1.237,2.784-1.559-2.784-1.534.718-1.237,2.821,1.646V263.19h1.4v3.143l2.809-1.646.73,1.237Z" transform="translate(-161.286 -40.787)"/><path class="c" d="M197.751,267.449l2.772,1.559-.718,1.237-2.858-1.609V271.8h-1.4v-3.168l-2.821,1.658-.718-1.237,2.8-1.559-2.8-1.534.718-1.237,2.821,1.646V263.23h1.4v3.143l2.821-1.646.718,1.237Z" transform="translate(-159.419 -40.777)"/><path class="c" d="M205.644,267.459l2.772,1.559-.718,1.237-2.821-1.658v3.168h-1.4V268.6l-2.809,1.658-.73-1.237,2.8-1.559-2.722-1.534.73-1.237,2.809,1.646V263.19h1.411v3.143l2.821-1.646.718,1.237Z" transform="translate(-157.537 -40.787)"/><path class="g" d="M174.4,187.844v.668H169.23V181.2h5.024v.668H170v2.6h3.786v.668H170v2.71Z" transform="translate(-164.825 -60.246)"/><path class="g" d="M174.26,184.56h2.735v.656H174.26Z" transform="translate(-163.631 -59.448)"/><path class="g" d="M186.89,184.994v3.18h-.742v-3.106c0-1.163-.582-1.769-1.571-1.769a1.782,1.782,0,0,0-1.844,1.992v2.883h-.742v-3.106c0-1.163-.582-1.769-1.584-1.769a1.782,1.782,0,0,0-1.844,1.992v2.883h-.742v-5.494h.705v1a2.252,2.252,0,0,1,2.017-1.052,1.98,1.98,0,0,1,1.955,1.163,2.475,2.475,0,0,1,2.178-1.163,2.079,2.079,0,0,1,2.215,2.363Z" transform="translate(-162.786 -59.908)"/><path class="g" d="M191.023,184.775v3.4h-.705v-.854a2.066,2.066,0,0,1-1.893.916c-1.237,0-2-.656-2-1.609s.532-1.559,2.116-1.559h1.745v-.334c0-.94-.532-1.448-1.559-1.448a2.833,2.833,0,0,0-1.831.643l-.334-.557a3.514,3.514,0,0,1,2.24-.742,1.955,1.955,0,0,1,2.227,2.141Zm-.742,1.757v-.9h-1.72c-1.064,0-1.411.421-1.411.99s.507,1.027,1.386,1.027a1.745,1.745,0,0,0,1.745-1.114Z" transform="translate(-160.745 -59.91)"/><path class="g" d="M191.64,181.364a.544.544,0,1,1,.544.544.532.532,0,0,1-.544-.544Zm.161,1.745h.755V188.6H191.8Z" transform="translate(-159.506 -60.336)"/><path class="g" d="M194.05,180.84h.742V188.6h-.742Z" transform="translate(-158.934 -60.331)"/><rect class="b" width="182.754" height="39.533" rx="7.01" transform="translate(0.408 136.198)"/><path class="g" d="M340.151,233.115h.272a3.858,3.858,0,0,0,.829-.074,8.365,8.365,0,0,0,3.044-1.027,8.661,8.661,0,0,0,3.539-3.712,8.452,8.452,0,0,0,.841-3.2c0-1.237,0-2.475,0-3.836,0-5.432,0-12.1-.1-19.8a8.587,8.587,0,0,0-2.475-5.184,8.451,8.451,0,0,0-5.58-2.475H326.664l-151.945.1a8.389,8.389,0,0,0-7.993,5.9,19.586,19.586,0,0,0-.371,5.345v18.857a8.773,8.773,0,0,0,.285,2.549,8.314,8.314,0,0,0,2.648,4.232,8.414,8.414,0,0,0,4.541,1.967c1.67.087,3.44,0,5.147,0h29.931l68.289.062,46.041.111h0l-46.041.1-68.288.074H173.791a8.958,8.958,0,0,1-7.733-6.385,9.637,9.637,0,0,1-.3-2.71V202.416a10.245,10.245,0,0,1,.4-2.8,9.045,9.045,0,0,1,8.661-6.36l151.908.087H340.6a8.834,8.834,0,0,1,8.426,7.956c.074,7.758,0,14.378,0,19.8v3.848a8.722,8.722,0,0,1-.891,3.279,8.587,8.587,0,0,1-3.65,3.786,8.141,8.141,0,0,1-3.106.978A7.426,7.426,0,0,1,340.151,233.115Z" transform="translate(-165.649 -57.384)"/><path class="c" d="M182.271,209.912v3.143h-.742v-3.118a1.547,1.547,0,0,0-1.658-1.757,1.807,1.807,0,0,0-1.918,1.992v2.883h-.742v-5.444h.705v1.015a2.314,2.314,0,0,1,2.091-1.064,2.116,2.116,0,0,1,2.264,2.351Z" transform="translate(-162.931 -53.991)"/><path class="c" d="M187.175,209.714v3.353h-.718v-.854a2.054,2.054,0,0,1-1.893.916c-1.237,0-2-.656-2-1.609s.544-1.559,2.116-1.559h1.757v-.334c0-.94-.532-1.448-1.559-1.448a2.784,2.784,0,0,0-1.831.643l-.334-.557a3.464,3.464,0,0,1,2.24-.742,1.955,1.955,0,0,1,2.227,2.19Zm-.742,1.757v-.879H184.7c-1.064,0-1.411.421-1.411.978s.507,1.039,1.386,1.039a1.769,1.769,0,0,0,1.757-1.138Z" transform="translate(-161.661 -54.003)"/><path class="c" d="M197,209.912v3.143h-.742v-3.118c0-1.151-.594-1.757-1.584-1.757a1.782,1.782,0,0,0-1.844,1.992v2.883h-.742v-3.118c0-1.151-.582-1.757-1.584-1.757a1.782,1.782,0,0,0-1.844,1.992v2.883h-.742v-5.444h.705v1a2.252,2.252,0,0,1,2.017-1.052,2,2,0,0,1,1.967,1.163,2.4,2.4,0,0,1,2.165-1.163A2.079,2.079,0,0,1,197,209.912Z" transform="translate(-160.389 -53.991)"/><path class="c" d="M201.794,210.582h-4.6a2.017,2.017,0,0,0,2.165,1.906,2.165,2.165,0,0,0,1.683-.718l.421.483a2.908,2.908,0,0,1-4.949-1.905,2.677,2.677,0,1,1,5.345,0Zm-4.6-.557h3.9a1.955,1.955,0,0,0-3.9,0Z" transform="translate(-158.351 -53.992)"/><path class="c" d="M211.307,210.678c0,1.782-.656,2.833-1.732,2.833a1.114,1.114,0,0,1-1.175-1.151,2.326,2.326,0,0,1-2.091,1.151,2.71,2.71,0,0,1,0-5.407,2.339,2.339,0,0,1,2.066,1.1v-1.052h.681v4.009c0,.582.3.792.643.792.656,0,1.076-.8,1.076-2.215a3.984,3.984,0,0,0-4.306-4.083,4.207,4.207,0,1,0,0,8.4,4.689,4.689,0,0,0,2-.458l.173.507a4.949,4.949,0,0,1-2.178.483,4.739,4.739,0,0,1,0-9.478,4.529,4.529,0,0,1,4.838,4.566Zm-2.92.124a1.992,1.992,0,1,0-1.992,2.091,1.955,1.955,0,0,0,1.992-2.091Z" transform="translate(-157.112 -54.336)"/><path class="c" d="M219.822,209.912v3.143h-.742v-3.118c0-1.151-.582-1.757-1.584-1.757a1.769,1.769,0,0,0-1.831,1.992v2.883h-.742v-3.118c0-1.151-.594-1.757-1.6-1.757a1.782,1.782,0,0,0-1.844,1.992v2.883h-.742v-5.444h.718v1a2.24,2.24,0,0,1,2.017-1.052,1.98,1.98,0,0,1,1.955,1.163,2.475,2.475,0,0,1,2.178-1.163,2.079,2.079,0,0,1,2.215,2.351Z" transform="translate(-154.973 -53.991)"/><path class="c" d="M223.955,209.714v3.353h-.718v-.854a2.054,2.054,0,0,1-1.893.916c-1.237,0-2-.656-2-1.609s.544-1.559,2.128-1.559h1.745v-.334c0-.94-.532-1.448-1.559-1.448a2.784,2.784,0,0,0-1.831.643l-.334-.557a3.514,3.514,0,0,1,2.24-.742,1.955,1.955,0,0,1,2.227,2.19Zm-.742,1.757v-.879h-1.732c-1.064,0-1.411.421-1.411.978s.52,1.039,1.4,1.039a1.769,1.769,0,0,0,1.745-1.138Z" transform="translate(-152.932 -54.003)"/><path class="c" d="M224.57,206.291a.532.532,0,1,1,.16.381A.532.532,0,0,1,224.57,206.291Zm.161,1.745h.742v5.444h-.742Z" transform="translate(-151.691 -54.416)"/><path class="c" d="M227,205.77h.742v7.709H227Z" transform="translate(-151.114 -54.415)"/><path class="c" d="M228.86,211.729a.557.557,0,0,1,.557-.569.569.569,0,0,1,.557.569.582.582,0,0,1-.557.582A.569.569,0,0,1,228.86,211.729Z" transform="translate(-150.673 -53.135)"/><path class="c" d="M230.47,210.357a2.71,2.71,0,0,1,2.833-2.8,2.475,2.475,0,0,1,2.153,1.089l-.557.384a1.856,1.856,0,0,0-1.6-.817,2.141,2.141,0,0,0,0,4.281,1.844,1.844,0,0,0,1.6-.8l.557.384a2.475,2.475,0,0,1-2.153,1.089,2.722,2.722,0,0,1-2.833-2.809Z" transform="translate(-150.291 -53.99)"/><path class="c" d="M235.15,210.354a2.8,2.8,0,1,1,2.8,2.809,2.71,2.71,0,0,1-2.8-2.809Zm4.838,0a2.042,2.042,0,1,0-2.042,2.141,2,2,0,0,0,2.042-2.141Z" transform="translate(-149.18 -53.987)"/><path class="c" d="M249.982,209.912v3.143h-.742v-3.118c0-1.151-.594-1.757-1.584-1.757a1.782,1.782,0,0,0-1.844,1.992v2.883h-.742v-3.118c0-1.151-.582-1.757-1.584-1.757a1.782,1.782,0,0,0-1.844,1.992v2.883H240.9v-5.444h.705v1a2.252,2.252,0,0,1,2.017-1.052,2,2,0,0,1,1.967,1.163,2.4,2.4,0,0,1,2.165-1.163,2.079,2.079,0,0,1,2.227,2.351Z" transform="translate(-147.815 -53.991)"/><text class="n" transform="translate(93.327 11.337)"><tspan x="-74.009" y="0">Create Account</tspan></text><path class="o" d="M-22.34.08c1.85,0,2.96-1.07,2.96-3.1V-7h-.97v3.94c0,1.55-.72,2.25-1.98,2.25s-1.97-.7-1.97-2.25V-7h-1v3.98C-25.3-.99-24.18.08-22.34.08Zm6.39-.02c1.41,0,2.29-.61,2.29-1.57,0-2.06-3.36-1.04-3.36-2.29,0-.42.41-.73,1.25-.73a2.768,2.768,0,0,1,1.53.42l.41-.76a3.857,3.857,0,0,0-1.93-.48c-1.36,0-2.21.64-2.21,1.59,0,2.11,3.35,1.08,3.35,2.27,0,.45-.37.72-1.26.72a3.406,3.406,0,0,1-1.86-.55l-.4.76A3.825,3.825,0,0,0-15.95.06Zm8.28-2.68a2.556,2.556,0,0,0-2.62-2.73,2.6,2.6,0,0,0-2.66,2.7A2.653,2.653,0,0,0-10.1.06,2.66,2.66,0,0,0-8.01-.8l-.53-.62a1.979,1.979,0,0,1-1.53.64,1.8,1.8,0,0,1-1.92-1.55h4.3C-7.68-2.42-7.67-2.54-7.67-2.62Zm-2.62-1.92a1.653,1.653,0,0,1,1.7,1.52h-3.4A1.652,1.652,0,0,1-10.29-4.54Zm4.87.13V-5.3h-.92V0h.96V-2.64A1.581,1.581,0,0,1-3.71-4.43a1.7,1.7,0,0,1,.22.01v-.93A2.023,2.023,0,0,0-5.42-4.41ZM.52-5.35a2.272,2.272,0,0,0-1.91.85v-.8h-.92V0h.96V-2.73A1.574,1.574,0,0,1,.33-4.49c.91,0,1.43.51,1.43,1.55V0h.96V-3.05A2.053,2.053,0,0,0,.52-5.35Zm5.91,0a3.53,3.53,0,0,0-2.19.68l.4.72a2.68,2.68,0,0,1,1.68-.57c.95,0,1.42.47,1.42,1.28v.19H6.22c-1.58,0-2.13.7-2.13,1.55,0,.92.76,1.56,1.96,1.56A1.967,1.967,0,0,0,7.79-.7V0H8.7V-3.2C8.7-4.65,7.88-5.35,6.43-5.35ZM6.21-.68c-.73,0-1.17-.33-1.17-.86,0-.45.27-.82,1.22-.82H7.74v.74A1.537,1.537,0,0,1,6.21-.68Zm10.9-4.67a2.388,2.388,0,0,0-2.04.98,1.962,1.962,0,0,0-1.84-.98,2.148,2.148,0,0,0-1.83.84V-5.3h-.92V0h.96V-2.73a1.539,1.539,0,0,1,1.59-1.76c.87,0,1.37.51,1.37,1.55V0h.96V-2.73a1.539,1.539,0,0,1,1.59-1.76c.87,0,1.37.51,1.37,1.55V0h.96V-3.05A2.032,2.032,0,0,0,17.11-5.35Zm8.76,2.73a2.556,2.556,0,0,0-2.62-2.73,2.6,2.6,0,0,0-2.66,2.7A2.653,2.653,0,0,0,23.44.06,2.66,2.66,0,0,0,25.53-.8L25-1.42a1.979,1.979,0,0,1-1.53.64,1.8,1.8,0,0,1-1.92-1.55h4.3C25.86-2.42,25.87-2.54,25.87-2.62ZM23.25-4.54a1.653,1.653,0,0,1,1.7,1.52h-3.4A1.652,1.652,0,0,1,23.25-4.54Z" transform="translate(30.491 58.198)"/><g transform="translate(0 -72.112)"><rect class="b" width="182.754" height="39.533" rx="7.01" transform="translate(0.408 136.198)"/><path class="g" d="M340.151,233.115h.272a3.858,3.858,0,0,0,.829-.074,8.365,8.365,0,0,0,3.044-1.027,8.661,8.661,0,0,0,3.539-3.712,8.452,8.452,0,0,0,.841-3.2c0-1.237,0-2.475,0-3.836,0-5.432,0-12.1-.1-19.8a8.587,8.587,0,0,0-2.475-5.184,8.451,8.451,0,0,0-5.58-2.475H326.664l-151.945.1a8.389,8.389,0,0,0-7.993,5.9,19.586,19.586,0,0,0-.371,5.345v18.857a8.773,8.773,0,0,0,.285,2.549,8.314,8.314,0,0,0,2.648,4.232,8.414,8.414,0,0,0,4.541,1.967c1.67.087,3.44,0,5.147,0h29.931l68.289.062,46.041.111h0l-46.041.1-68.288.074H173.791a8.958,8.958,0,0,1-7.733-6.385,9.637,9.637,0,0,1-.3-2.71V202.416a10.245,10.245,0,0,1,.4-2.8,9.045,9.045,0,0,1,8.661-6.36l151.908.087H340.6a8.834,8.834,0,0,1,8.426,7.956c.074,7.758,0,14.378,0,19.8v3.848a8.722,8.722,0,0,1-.891,3.279,8.587,8.587,0,0,1-3.65,3.786,8.141,8.141,0,0,1-3.106.978A7.426,7.426,0,0,1,340.151,233.115Z" transform="translate(-165.649 -57.384)"/><path class="c" d="M182.271,209.912v3.143h-.742v-3.118a1.547,1.547,0,0,0-1.658-1.757,1.807,1.807,0,0,0-1.918,1.992v2.883h-.742v-5.444h.705v1.015a2.314,2.314,0,0,1,2.091-1.064,2.116,2.116,0,0,1,2.264,2.351Z" transform="translate(-162.931 -53.991)"/><path class="c" d="M187.175,209.714v3.353h-.718v-.854a2.054,2.054,0,0,1-1.893.916c-1.237,0-2-.656-2-1.609s.544-1.559,2.116-1.559h1.757v-.334c0-.94-.532-1.448-1.559-1.448a2.784,2.784,0,0,0-1.831.643l-.334-.557a3.464,3.464,0,0,1,2.24-.742,1.955,1.955,0,0,1,2.227,2.19Zm-.742,1.757v-.879H184.7c-1.064,0-1.411.421-1.411.978s.507,1.039,1.386,1.039a1.769,1.769,0,0,0,1.757-1.138Z" transform="translate(-161.661 -54.003)"/><path class="c" d="M197,209.912v3.143h-.742v-3.118c0-1.151-.594-1.757-1.584-1.757a1.782,1.782,0,0,0-1.844,1.992v2.883h-.742v-3.118c0-1.151-.582-1.757-1.584-1.757a1.782,1.782,0,0,0-1.844,1.992v2.883h-.742v-5.444h.705v1a2.252,2.252,0,0,1,2.017-1.052,2,2,0,0,1,1.967,1.163,2.4,2.4,0,0,1,2.165-1.163A2.079,2.079,0,0,1,197,209.912Z" transform="translate(-160.389 -53.991)"/><path class="c" d="M201.794,210.582h-4.6a2.017,2.017,0,0,0,2.165,1.906,2.165,2.165,0,0,0,1.683-.718l.421.483a2.908,2.908,0,0,1-4.949-1.905,2.677,2.677,0,1,1,5.345,0Zm-4.6-.557h3.9a1.955,1.955,0,0,0-3.9,0Z" transform="translate(-158.351 -53.992)"/><path class="c" d="M211.307,210.678c0,1.782-.656,2.833-1.732,2.833a1.114,1.114,0,0,1-1.175-1.151,2.326,2.326,0,0,1-2.091,1.151,2.71,2.71,0,0,1,0-5.407,2.339,2.339,0,0,1,2.066,1.1v-1.052h.681v4.009c0,.582.3.792.643.792.656,0,1.076-.8,1.076-2.215a3.984,3.984,0,0,0-4.306-4.083,4.207,4.207,0,1,0,0,8.4,4.689,4.689,0,0,0,2-.458l.173.507a4.949,4.949,0,0,1-2.178.483,4.739,4.739,0,0,1,0-9.478,4.529,4.529,0,0,1,4.838,4.566Zm-2.92.124a1.992,1.992,0,1,0-1.992,2.091,1.955,1.955,0,0,0,1.992-2.091Z" transform="translate(-157.112 -54.336)"/><path class="c" d="M219.822,209.912v3.143h-.742v-3.118c0-1.151-.582-1.757-1.584-1.757a1.769,1.769,0,0,0-1.831,1.992v2.883h-.742v-3.118c0-1.151-.594-1.757-1.6-1.757a1.782,1.782,0,0,0-1.844,1.992v2.883h-.742v-5.444h.718v1a2.24,2.24,0,0,1,2.017-1.052,1.98,1.98,0,0,1,1.955,1.163,2.475,2.475,0,0,1,2.178-1.163,2.079,2.079,0,0,1,2.215,2.351Z" transform="translate(-154.973 -53.991)"/><path class="c" d="M223.955,209.714v3.353h-.718v-.854a2.054,2.054,0,0,1-1.893.916c-1.237,0-2-.656-2-1.609s.544-1.559,2.128-1.559h1.745v-.334c0-.94-.532-1.448-1.559-1.448a2.784,2.784,0,0,0-1.831.643l-.334-.557a3.514,3.514,0,0,1,2.24-.742,1.955,1.955,0,0,1,2.227,2.19Zm-.742,1.757v-.879h-1.732c-1.064,0-1.411.421-1.411.978s.52,1.039,1.4,1.039a1.769,1.769,0,0,0,1.745-1.138Z" transform="translate(-152.932 -54.003)"/><path class="c" d="M224.57,206.291a.532.532,0,1,1,.16.381A.532.532,0,0,1,224.57,206.291Zm.161,1.745h.742v5.444h-.742Z" transform="translate(-151.691 -54.416)"/><path class="c" d="M227,205.77h.742v7.709H227Z" transform="translate(-151.114 -54.415)"/><path class="c" d="M228.86,211.729a.557.557,0,0,1,.557-.569.569.569,0,0,1,.557.569.582.582,0,0,1-.557.582A.569.569,0,0,1,228.86,211.729Z" transform="translate(-150.673 -53.135)"/><path class="c" d="M230.47,210.357a2.71,2.71,0,0,1,2.833-2.8,2.475,2.475,0,0,1,2.153,1.089l-.557.384a1.856,1.856,0,0,0-1.6-.817,2.141,2.141,0,0,0,0,4.281,1.844,1.844,0,0,0,1.6-.8l.557.384a2.475,2.475,0,0,1-2.153,1.089,2.722,2.722,0,0,1-2.833-2.809Z" transform="translate(-150.291 -53.99)"/><path class="c" d="M235.15,210.354a2.8,2.8,0,1,1,2.8,2.809,2.71,2.71,0,0,1-2.8-2.809Zm4.838,0a2.042,2.042,0,1,0-2.042,2.141,2,2,0,0,0,2.042-2.141Z" transform="translate(-149.18 -53.987)"/><path class="c" d="M249.982,209.912v3.143h-.742v-3.118c0-1.151-.594-1.757-1.584-1.757a1.782,1.782,0,0,0-1.844,1.992v2.883h-.742v-3.118c0-1.151-.582-1.757-1.584-1.757a1.782,1.782,0,0,0-1.844,1.992v2.883H240.9v-5.444h.705v1a2.252,2.252,0,0,1,2.017-1.052,2,2,0,0,1,1.967,1.163,2.4,2.4,0,0,1,2.165-1.163,2.079,2.079,0,0,1,2.227,2.351Z" transform="translate(-147.815 -53.991)"/></g></g><g transform="translate(455.057 197.792)"><path class="c" d="M459.93,164.81H385.85a11.68,11.68,0,0,0-11.68,11.68v18.436a11.68,11.68,0,0,0,11.68,11.68h.767v10.53l11.866-10.53H459.93a11.68,11.68,0,0,0,11.68-11.68V176.49A11.68,11.68,0,0,0,459.93,164.81Z" transform="translate(-373.867 -164.439)"/><path class="g" d="M459.988,164.881h.643a10.678,10.678,0,0,1,1.708.161c.371.074.792.186,1.237.3a12.563,12.563,0,0,1,1.435.557,11.508,11.508,0,0,1,3.192,2.153,12,12,0,0,1,2.759,3.959,13.462,13.462,0,0,1,.928,5.667V195.74a11.928,11.928,0,0,1-7.424,10.319,12.546,12.546,0,0,1-4.7.878h-61.2l.21-.087-11.854,10.542-.544.47V206.617l.322.322a12.571,12.571,0,0,1-6.644-1.547,12.237,12.237,0,0,1-4.714-4.813,13.126,13.126,0,0,1-1.151-3.168,15.786,15.786,0,0,1-.26-3.3V178.232c0-1.027,0-2.054.087-3.106a12.039,12.039,0,0,1,6.9-9.5,12.584,12.584,0,0,1,5.741-1.1h35.5l27.7.1h0l-27.7.111H386.651a11.841,11.841,0,0,0-5.494,1.052,11.4,11.4,0,0,0-6.545,9.033,27.544,27.544,0,0,0-.074,3.044v15.875a15.119,15.119,0,0,0,.247,3.18,12.647,12.647,0,0,0,1.1,2.994,11.532,11.532,0,0,0,4.467,4.553,11.953,11.953,0,0,0,6.323,1.46H387v10.864l-.544-.235,11.866-10.53.087-.087H454.84c3.3-.1,6.595.408,9.4-.817a11.433,11.433,0,0,0,7.152-9.9c.074-1.336,0-2.7,0-4V177.18a13.326,13.326,0,0,0-.854-5.568,11.78,11.78,0,0,0-2.66-3.9,11.284,11.284,0,0,0-3.106-2.153,13.344,13.344,0,0,0-1.4-.569l-1.237-.322q-1.081.052-2.153.21Z" transform="translate(-373.926 -164.51)"/><path class="a" d="M394.108,182.021l2.376,1.237-1.349,2.227-2.475-1.46.074,2.673h-2.648l.062-2.673-2.475,1.46-1.324-2.227,2.363-1.237-2.363-1.3,1.324-2.24,2.475,1.5-.062-2.71h2.648l-.074,2.71,2.475-1.5,1.349,2.24Z" transform="translate(-370.977 -161.481)"/><path class="a" d="M403.02,182.021l2.376,1.237-1.349,2.227-2.475-1.46.074,2.673H399v-2.673l-2.475,1.46-1.324-2.227,2.363-1.237-2.363-1.3,1.324-2.24,2.475,1.5v-2.71h2.648l-.074,2.71,2.475-1.5,1.349,2.24Z" transform="translate(-368.876 -161.481)"/><path class="a" d="M411.91,182.021l2.376,1.237-1.349,2.227-2.475-1.46.062,2.673h-2.648l.062-2.673-2.475,1.46-1.324-2.227,2.363-1.237-2.363-1.3,1.324-2.24,2.475,1.5-.062-2.71h2.648l-.062,2.71,2.475-1.5,1.349,2.24Z" transform="translate(-366.755 -161.481)"/><path class="a" d="M420.81,182.021l2.376,1.237-1.349,2.227-2.475-1.46.062,2.673h-2.648l.062-2.673-2.475,1.46-1.324-2.227,2.376-1.237-2.376-1.3,1.324-2.24,2.475,1.5-.062-2.71h2.648l-.062,2.71,2.475-1.5,1.349,2.24Z" transform="translate(-364.642 -161.481)"/><path class="a" d="M429.7,182.021l2.376,1.237-1.349,2.227-2.475-1.46.062,2.673h-2.6l.062-2.673-2.475,1.46-1.324-2.227,2.376-1.237-2.351-1.3,1.324-2.24,2.475,1.5-.062-2.71h2.648l-.062,2.71,2.475-1.5,1.349,2.24Z" transform="translate(-362.521 -161.481)"/><path class="a" d="M438.589,182l2.376,1.237-1.287,2.339-2.475-1.46v2.673h-2.648l.062-2.673-2.363,1.46-1.324-2.227,2.376-1.237-2.376-1.3,1.324-2.24,2.475,1.5-.062-2.71H437.2v2.71l2.475-1.5,1.349,2.24Z" transform="translate(-360.396 -161.46)"/></g><path class="p" d="M2953-1805v-177h246v62.065h-82.257v56.7h-81.488V-1805Z" transform="translate(-2985.211 1863.678)"/><path class="p" d="M0,200V0H277V70.13H184.378V134.2H92.622V200Z" transform="translate(745.79 740.379) rotate(180)"/><path class="p" d="M-17.3-2482.754l-33.531-37.622H-49.2L-82.728-2558H48.945l-33.531,37.621h.817L-17.3-2482.754H49.762l-33.531-37.621H82.476L48.945-2558h67.063l-33.531,37.62h.818l-33.532,37.621-33.531,37.621Zm-31.9-37.622h64.61l-32.306-36.245Z" transform="translate(622.709 2439)"/></g></svg>