<svg id="instagram_2_" data-name="instagram(2)" xmlns="http://www.w3.org/2000/svg" width="30.874" height="30.881" viewBox="0 0 30.874 30.881">
  <path id="Subtraction_27" data-name="Subtraction 27" d="M15.438,30.881c-4.153,0-4.7-.017-6.365-.091a11.388,11.388,0,0,1-3.746-.717,7.634,7.634,0,0,1-2.733-1.78A7.585,7.585,0,0,1,.808,25.554a11.332,11.332,0,0,1-.717-3.746C.017,20.146,0,19.6,0,15.443c0-4.178.018-4.725.1-6.37A11.408,11.408,0,0,1,.815,5.327,7.643,7.643,0,0,1,2.594,2.594,7.515,7.515,0,0,1,5.332.808,11.335,11.335,0,0,1,9.079.091C10.741.017,11.291,0,15.443,0c4.179,0,4.726.018,6.371.1A11.408,11.408,0,0,1,25.56.815a7.647,7.647,0,0,1,2.732,1.779,7.506,7.506,0,0,1,1.786,2.739A11.335,11.335,0,0,1,30.8,9.079c.072,1.637.078,2.112.078,6.364,0,4.148-.017,4.7-.09,6.365a11.408,11.408,0,0,1-.718,3.746,7.913,7.913,0,0,1-4.518,4.519,11.335,11.335,0,0,1-3.747.717C20.14,30.863,19.59,30.881,15.438,30.881ZM13.311,12.442a6.341,6.341,0,1,0,6.341,6.341V13.268a7.748,7.748,0,0,0,3.686.916.568.568,0,0,0,.567-.568V10.578a.568.568,0,0,0-.567-.567,3.691,3.691,0,0,1-3.686-3.686.568.568,0,0,0-.568-.567H16.045a.568.568,0,0,0-.567.567V18.782a2.167,2.167,0,1,1-2.167-2.167.568.568,0,0,0,.567-.568V13.009A.568.568,0,0,0,13.311,12.442Z" transform="translate(0 0)" fill="#ff975f"/>
</svg>
