<svg id="instagram_2_" data-name="instagram(2)" xmlns="http://www.w3.org/2000/svg" width="30.874" height="30.881" viewBox="0 0 30.874 30.881">
  <path id="Subtraction_27" data-name="Subtraction 27" d="M15.438,30.881c-4.153,0-4.7-.017-6.365-.091a11.388,11.388,0,0,1-3.746-.717,7.634,7.634,0,0,1-2.733-1.78A7.585,7.585,0,0,1,.808,25.554a11.332,11.332,0,0,1-.717-3.746C.017,20.146,0,19.6,0,15.443c0-4.178.018-4.725.1-6.37A11.408,11.408,0,0,1,.815,5.327,7.643,7.643,0,0,1,2.594,2.594,7.515,7.515,0,0,1,5.332.808,11.335,11.335,0,0,1,9.079.091C10.741.017,11.291,0,15.443,0c4.179,0,4.726.018,6.371.1A11.408,11.408,0,0,1,25.56.815a7.647,7.647,0,0,1,2.732,1.779,7.506,7.506,0,0,1,1.786,2.739A11.335,11.335,0,0,1,30.8,9.079c.072,1.637.078,2.112.078,6.364,0,4.148-.017,4.7-.09,6.365a11.408,11.408,0,0,1-.718,3.746,7.913,7.913,0,0,1-4.518,4.519,11.335,11.335,0,0,1-3.747.717C20.14,30.863,19.59,30.881,15.438,30.881ZM5.152,21.908h0a11.952,11.952,0,0,0,6.48,1.9,12.147,12.147,0,0,0,5.149-1.091A11.32,11.32,0,0,0,20.535,19.9a12.4,12.4,0,0,0,3.079-8.074,3.9,3.9,0,0,0-.025-.54A8.386,8.386,0,0,0,25.723,9.05a8.587,8.587,0,0,1-2.417.669,4.111,4.111,0,0,0,1.852-2.34,8.931,8.931,0,0,1-2.675,1.029,4.22,4.22,0,0,0-7.3,2.88,3.883,3.883,0,0,0,.1.951,11.913,11.913,0,0,1-8.665-4.4A4.236,4.236,0,0,0,7.9,13.473,4.066,4.066,0,0,1,6,12.959,4.262,4.262,0,0,0,9.369,17.15a4.548,4.548,0,0,1-1.19.143,3.33,3.33,0,0,1-.713-.066A4.3,4.3,0,0,0,8.951,19.31a4.132,4.132,0,0,0,2.449.849,8.425,8.425,0,0,1-5.258,1.8A9.562,9.562,0,0,1,5.152,21.908Z" transform="translate(0 0)" fill="#ff975f"/>
</svg>
