<svg id="underline" xmlns="http://www.w3.org/2000/svg" width="21.137" height="22.7" viewBox="0 0 21.137 22.7">
  <g id="Group_20032" data-name="Group 20032" transform="translate(3.768)">
    <g id="Group_20031" data-name="Group 20031">
      <path id="Path_61539" data-name="Path 61539" d="M112.35,0V10.728a2.961,2.961,0,0,1-.738,2.247,3.006,3.006,0,0,1-2.162.723,3.1,3.1,0,0,1-2.2-.728,2.931,2.931,0,0,1-.779-2.242V0h-3.86V10.728a5.351,5.351,0,0,0,1.9,4.359,7.535,7.535,0,0,0,4.946,1.547,7.419,7.419,0,0,0,4.893-1.547,5.341,5.341,0,0,0,1.866-4.359V0Z" transform="translate(-102.608)" fill="#262627"/>
    </g>
  </g>
  <g id="Group_20034" data-name="Group 20034" transform="translate(0 19.667)">
    <g id="Group_20033" data-name="Group 20033">
      <rect id="Rectangle_7857" data-name="Rectangle 7857" width="21.137" height="3.033" fill="#262627"/>
    </g>
  </g>
</svg>
