<svg xmlns="http://www.w3.org/2000/svg" xmlns:xlink="http://www.w3.org/1999/xlink" width="122" height="122" viewBox="0 0 122 122"><defs><style>.a{fill:#c8beb3;}.b{fill:#fff;stroke:#c8beb3;stroke-linecap:round;stroke-width:2px;stroke-dasharray:10;}.c{fill:#fafafa;}.d{clip-path:url(#a);}.e{stroke:none;}.f{fill:none;}</style><clipPath id="a"><ellipse class="a" cx="52.5" cy="53" rx="52.5" ry="53" transform="translate(434 351)"/></clipPath></defs><g transform="translate(-363 -355)"><g transform="translate(269 200)"><g transform="translate(94 155)"><g transform="translate(0 0)"><g class="b"><circle class="e" cx="61" cy="61" r="61"/><circle class="f" cx="61" cy="61" r="60"/></g></g></g><g transform="translate(101.625 163.473)"><g transform="translate(0 0)"><ellipse class="c" cx="52.5" cy="53" rx="52.5" ry="53" transform="translate(0.375 -0.473)"/></g></g><g class="d" transform="translate(-332 -188)"><g transform="translate(419.525 374.5)"><g transform="translate(45.59)"><g transform="translate(0)"><path class="a" d="M142.885,0A21.885,21.885,0,1,0,164.77,21.885,21.91,21.91,0,0,0,142.885,0Z" transform="translate(-121)"/></g></g><g transform="translate(31 48.633)"><g transform="translate(0)"><path class="a" d="M94.7,309.434A31.2,31.2,0,0,0,72.338,300H62.611a31.2,31.2,0,0,0-22.366,9.434A31.894,31.894,0,0,0,31,331.936a2.432,2.432,0,0,0,2.432,2.432h68.086a2.432,2.432,0,0,0,2.432-2.432A31.894,31.894,0,0,0,94.7,309.434Z" transform="translate(-31 -300)"/></g></g></g></g></g></g></svg>