<svg xmlns="http://www.w3.org/2000/svg" width="29.5" height="29.5" viewBox="0 0 29.5 29.5"><defs><style>.a{fill:#fff;stroke:#efefef;stroke-width:2px;}.b{fill:#c8beb3;}</style></defs><g transform="translate(-837.5 -418.5)"><circle class="a" cx="13.75" cy="13.75" r="13.75" transform="translate(838.5 419.5)"/><g transform="translate(844.729 394.035)"><ellipse class="b" cx="2.674" cy="2.673" rx="2.674" ry="2.673" transform="translate(4.848 32.468)"/><circle class="b" cx="1.671" cy="1.671" r="1.671" transform="translate(10.865 34.472)"/><circle class="b" cx="1.671" cy="1.671" r="1.671" transform="translate(0.836 34.472)"/><path class="b" d="M3.943,240.983a2.613,2.613,0,0,0-1.948-.452A1.991,1.991,0,0,0,0,242.514v3.209a.863.863,0,0,0,.864.861c2.057,0,1.81.037,1.81-.089C2.674,244.221,2.4,242.554,3.943,240.983Z" transform="translate(0 -201.584)"/><path class="b" d="M124.875,239.885a4.362,4.362,0,0,0-3.364.8c-1.612,1.291-1.3,3.029-1.3,5.156a1.031,1.031,0,0,0,1.029,1.029c6.2,0,6.449.2,6.816-.614.121-.275.088-.188.088-2.823A3.562,3.562,0,0,0,124.875,239.885Z" transform="translate(-116.653 -200.926)"/><path class="b" d="M379.758,240.533a2.611,2.611,0,0,0-1.948.452c1.527,1.559,1.269,3.112,1.269,5.512,0,.127-.206.089,1.779.089a.894.894,0,0,0,.895-.891v-3.178A1.991,1.991,0,0,0,379.758,240.533Z" transform="translate(-366.71 -201.585)"/></g></g></svg>