<svg xmlns="http://www.w3.org/2000/svg" xmlns:xlink="http://www.w3.org/1999/xlink" width="122" height="122" viewBox="0 0 122 122">
  <defs>
    <clipPath id="clip-path">
      <ellipse id="Ellipse_1368" data-name="Ellipse 1368" cx="52.5" cy="53" rx="52.5" ry="53" transform="translate(434 351)" fill="#c8beb3"/>
    </clipPath>
  </defs>
  <g id="Group_19648" data-name="Group 19648" transform="translate(-363 -355)">
    <g id="Group_18609" data-name="Group 18609" transform="translate(269 200)">
      <g id="Group_18607" data-name="Group 18607" transform="translate(94 155)">
        <g id="Group_14556" data-name="Group 14556" transform="translate(0 0)">
          <g id="Ellipse_304" data-name="Ellipse 304" fill="#fff" stroke="#c8beb3" stroke-linecap="round" stroke-width="2" stroke-dasharray="10">
            <circle cx="61" cy="61" r="61" stroke="none"/>
            <circle cx="61" cy="61" r="60" fill="none"/>
          </g>
        </g>
      </g>
      <g id="Group_18606" data-name="Group 18606" transform="translate(101.625 163.473)">
        <g id="Group_14556-2" data-name="Group 14556" transform="translate(0 0)">
          <ellipse id="Ellipse_304-2" data-name="Ellipse 304" cx="52.5" cy="53" rx="52.5" ry="53" transform="translate(0.375 -0.473)" fill="#fafafa"/>
        </g>
      </g>
      <g id="Mask_Group_4" data-name="Mask Group 4" transform="translate(-332 -188)" clip-path="url(#clip-path)">
        <g id="user_66_" data-name="user (66)" transform="translate(419.525 374.5)">
          <g id="Group_19649" data-name="Group 19649" transform="translate(45.59)">
            <g id="Group_19648-2" data-name="Group 19648" transform="translate(0)">
              <path id="Path_61455" data-name="Path 61455" d="M142.885,0A21.885,21.885,0,1,0,164.77,21.885,21.91,21.91,0,0,0,142.885,0Z" transform="translate(-121)" fill="#c8beb3"/>
            </g>
          </g>
          <g id="Group_19651" data-name="Group 19651" transform="translate(31 48.633)">
            <g id="Group_19650" data-name="Group 19650" transform="translate(0)">
              <path id="Path_61456" data-name="Path 61456" d="M94.7,309.434A31.2,31.2,0,0,0,72.338,300H62.611a31.2,31.2,0,0,0-22.366,9.434A31.894,31.894,0,0,0,31,331.936a2.432,2.432,0,0,0,2.432,2.432h68.086a2.432,2.432,0,0,0,2.432-2.432A31.894,31.894,0,0,0,94.7,309.434Z" transform="translate(-31 -300)" fill="#c8beb3"/>
            </g>
          </g>
        </g>
      </g>
    </g>
  </g>
</svg>
