<svg xmlns="http://www.w3.org/2000/svg" width="23.367" height="15.042" viewBox="0 0 23.367 15.042"><defs><style>.a{fill:#004850;}</style></defs><g transform="translate(0 -82.176)"><g transform="translate(7.923 85.936)"><g transform="translate(0 0)"><path class="a" d="M160.176,156.416a3.76,3.76,0,1,0,3.76,3.76A3.763,3.763,0,0,0,160.176,156.416Zm-.285,2.645a.863.863,0,0,0-.856.856h-1.245a2.125,2.125,0,0,1,2.1-2.1Z" transform="translate(-156.416 -156.416)"/></g></g><g transform="translate(0 82.176)"><g transform="translate(0 0)"><path class="a" d="M23.094,88.919c-1.271-1.582-5.809-6.743-11.411-6.743S1.543,87.337.272,88.919a1.247,1.247,0,0,0,0,1.556c1.271,1.582,5.809,6.743,11.411,6.743s10.14-5.161,11.411-6.743A1.247,1.247,0,0,0,23.094,88.919ZM11.683,95.143A5.446,5.446,0,1,1,17.13,89.7,5.446,5.446,0,0,1,11.683,95.143Z" transform="translate(0 -82.176)"/></g></g></g></svg>