<svg id="instagram_2_" data-name="instagram(2)" xmlns="http://www.w3.org/2000/svg" width="30.874" height="30.881" viewBox="0 0 30.874 30.881">
  <path id="Subtraction_27" data-name="Subtraction 27" d="M15.438,30.881c-4.153,0-4.7-.017-6.365-.091a11.388,11.388,0,0,1-3.746-.717,7.634,7.634,0,0,1-2.733-1.78A7.585,7.585,0,0,1,.808,25.554a11.332,11.332,0,0,1-.717-3.746C.017,20.146,0,19.6,0,15.443c0-4.178.018-4.725.1-6.37A11.408,11.408,0,0,1,.815,5.327,7.643,7.643,0,0,1,2.594,2.594,7.515,7.515,0,0,1,5.332.808,11.335,11.335,0,0,1,9.079.091C10.741.017,11.291,0,15.443,0c4.179,0,4.726.018,6.371.1A11.408,11.408,0,0,1,25.56.815a7.647,7.647,0,0,1,2.732,1.779,7.506,7.506,0,0,1,1.786,2.739A11.335,11.335,0,0,1,30.8,9.079c.072,1.637.078,2.112.078,6.364,0,4.148-.017,4.7-.09,6.365a11.408,11.408,0,0,1-.718,3.746,7.913,7.913,0,0,1-4.518,4.519,11.335,11.335,0,0,1-3.747.717C20.14,30.863,19.59,30.881,15.438,30.881Zm5.812-7.591h0l1.505.569a.574.574,0,0,0,.6-.12.576.576,0,0,0,.154-.589l-.292-.925a5.157,5.157,0,0,0,2.013-4.058c0-3.011-2.732-5.46-6.089-5.46s-6.09,2.449-6.09,5.46,2.732,5.46,6.09,5.46a6.688,6.688,0,0,0,2.111-.337ZM12.68,6.984A7.431,7.431,0,0,0,7.733,8.8,5.945,5.945,0,0,0,5.648,13.28a6.048,6.048,0,0,0,2.754,5l-.35,1.488a.573.573,0,0,0,.858.621l1.756-1.073a7.763,7.763,0,0,0,1.4.237,6.093,6.093,0,0,1,.429-4,6.6,6.6,0,0,1,1.578-2.1,7.563,7.563,0,0,1,5.071-1.894c.09,0,.186,0,.311.006A6.183,6.183,0,0,0,17.627,8.8,7.43,7.43,0,0,0,12.68,6.984Zm8.3,10.3a.575.575,0,1,1,.405-.168A.578.578,0,0,1,20.978,17.281Zm-3.976,0a.575.575,0,1,1,.405-.168A.581.581,0,0,1,17,17.281Zm-2.853-5.475a.573.573,0,1,1,.406-.168A.578.578,0,0,1,14.149,11.806Zm-3.767,0a.573.573,0,1,1,.406-.168A.578.578,0,0,1,10.382,11.806Z" transform="translate(0 0)" fill="#ff975f"/>
</svg>
