<svg xmlns="http://www.w3.org/2000/svg" width="30.874" height="30.88" viewBox="0 0 30.874 30.88">
  <g id="instagram_2_" data-name="instagram(2)" transform="translate(0.094 0.12)">
    <path id="Subtraction_27" data-name="Subtraction 27" d="M15.343,30.76c-4.173,0-4.72-.017-6.365-.09a11.4,11.4,0,0,1-3.747-.718A7.647,7.647,0,0,1,2.5,28.173,7.585,7.585,0,0,1,.714,25.434,11.355,11.355,0,0,1,0,21.687c-.073-1.666-.09-2.217-.09-6.364,0-4.179.018-4.726.1-6.37A11.373,11.373,0,0,1,.72,5.207,7.647,7.647,0,0,1,2.5,2.474,7.5,7.5,0,0,1,5.238.689,11.355,11.355,0,0,1,8.985-.03C10.649-.1,11.2-.12,15.349-.12c4.179,0,4.726.018,6.37.1a11.373,11.373,0,0,1,3.747.718A7.623,7.623,0,0,1,28.2,2.474a7.5,7.5,0,0,1,1.786,2.739A11.307,11.307,0,0,1,30.7,8.959c.072,1.641.078,2.176.078,6.365,0,4.147-.017,4.7-.09,6.364a11.42,11.42,0,0,1-.718,3.747,7.913,7.913,0,0,1-4.519,4.518,11.319,11.319,0,0,1-3.746.718C20.062,30.743,19.515,30.76,15.343,30.76ZM10.8,22.755h0A8.664,8.664,0,1,0,8.553,20.6L7.475,23.818,10.8,22.755Zm7.6-2.378h0a7.362,7.362,0,0,1-2.535-.709,10.255,10.255,0,0,1-4.254-3.729c-.026-.038-.044-.063-.053-.076l-.011-.014a4.774,4.774,0,0,1-1.017-2.595,2.767,2.767,0,0,1,.862-2.083l.023-.023a1.255,1.255,0,0,1,.885-.311c.1,0,.193,0,.274.009h.016c.262.011.384.033.55.427.067.161.165.4.269.651.22.533.467,1.134.509,1.221a.515.515,0,0,1,.037.468,1.436,1.436,0,0,1-.262.376l-.019.021c-.055.064-.11.122-.163.179-.069.074-.141.15-.213.239l-.006.007a.4.4,0,0,0-.1.531,7.614,7.614,0,0,0,1.4,1.745,6.368,6.368,0,0,0,1.949,1.219l.079.032a.656.656,0,0,0,.248.05.488.488,0,0,0,.362-.147,8.57,8.57,0,0,0,.591-.776l.085-.12a.485.485,0,0,1,.4-.232.627.627,0,0,1,.219.044c.217.075,1.318.617,1.724.819l.148.072c.172.083.286.138.335.223a2.17,2.17,0,0,1-.149,1.2,2.445,2.445,0,0,1-1.7,1.221A2.268,2.268,0,0,1,18.4,20.377Z" transform="translate(0 0)" fill="#ff975f"/>
  </g>
</svg>
