<svg id="Group_20031" data-name="Group 20031" xmlns="http://www.w3.org/2000/svg" width="21.634" height="24" viewBox="0 0 21.634 24">
  <path id="attach_2_" data-name="attach(2)" d="M20.244,14.791l-1.775-1.775L10.482,5.029a3.765,3.765,0,0,0-5.325,5.325l7.987,7.989a.837.837,0,1,0,1.183-1.183L6.341,9.17A2.092,2.092,0,0,1,9.3,6.212L17.288,14.2l1.775,1.775A3.766,3.766,0,1,1,13.736,21.3L12.257,19.82,3.974,11.537l-.592-.592a5.439,5.439,0,0,1,7.691-7.691l8.875,8.875a.837.837,0,1,0,1.183-1.183L12.257,2.071A7.112,7.112,0,0,0,2.2,12.129L11.074,21l1.481,1.479a5.439,5.439,0,0,0,7.69-7.692Zm0,0" transform="translate(-0.128 0.001)" fill="#646464"/>
</svg>
