<svg id="Group_20739" data-name="Group 20739" xmlns="http://www.w3.org/2000/svg" width="24" height="24" viewBox="0 0 24 24">
  <path id="Path_56624" data-name="Path 56624" d="M0,0H24V24H0Z" fill="none"/>
  <g id="leadership" transform="translate(2.333 2.333)">
    <path id="Path_62021" data-name="Path 62021" d="M97.025,166.594a.755.755,0,0,0-.56.909.35.35,0,0,1-.341.429H86.857a.35.35,0,0,1-.341-.429,5.124,5.124,0,0,1,8.443-2.566.755.755,0,0,0,1.023-1.111,6.588,6.588,0,0,0-1.962-1.25,3.776,3.776,0,1,0-5.055,0,6.614,6.614,0,0,0-3.919,4.573,1.86,1.86,0,0,0,1.81,2.289h9.267a1.86,1.86,0,0,0,1.81-2.289.755.755,0,0,0-.909-.56Zm-5.535-9.084a2.266,2.266,0,1,1-2.266,2.266A2.268,2.268,0,0,1,91.491,157.51Z" transform="translate(-81.786 -150.109)" fill="#c8beb3"/>
    <path id="Path_62022" data-name="Path 62022" d="M17.068,7.024h-.38a.234.234,0,0,1-.224-.151.29.29,0,0,1,.037-.3L16.77,6.3a2.268,2.268,0,0,0,0-3.2l-.534-.534a2.266,2.266,0,0,0-3.2,0l-.269.269a.275.275,0,0,1-.291.044.252.252,0,0,1-.161-.231v-.38A2.268,2.268,0,0,0,10.045,0H9.289A2.268,2.268,0,0,0,7.024,2.266v.38a.252.252,0,0,1-.161.231.275.275,0,0,1-.291-.044L6.3,2.564a2.266,2.266,0,0,0-3.2,0L2.564,3.1a2.268,2.268,0,0,0,0,3.2l.269.269a.29.29,0,0,1,.037.3.234.234,0,0,1-.224.151h-.38A2.268,2.268,0,0,0,0,9.289v.755A2.268,2.268,0,0,0,2.266,12.31h.38a.252.252,0,0,1,.231.161l.005.012a.755.755,0,0,0,1.4-.577l-.005-.012A1.758,1.758,0,0,0,2.646,10.8h-.38a.756.756,0,0,1-.755-.755V9.289a.756.756,0,0,1,.755-.755h.38A1.758,1.758,0,0,0,4.273,7.44l0-.011A1.759,1.759,0,0,0,3.9,5.5l-.269-.269a.756.756,0,0,1,0-1.068l.534-.534a.731.731,0,0,1,1.068,0L5.5,3.9a1.759,1.759,0,0,0,1.927.376l.01,0A1.758,1.758,0,0,0,8.534,2.646v-.38a.756.756,0,0,1,.755-.755h.755a.756.756,0,0,1,.755.755v.38a1.758,1.758,0,0,0,1.094,1.627l.01,0A1.759,1.759,0,0,0,13.83,3.9l.269-.269a.731.731,0,0,1,1.068,0l.534.534a.756.756,0,0,1,0,1.068l-.269.269a1.759,1.759,0,0,0-.376,1.925l0,.011a1.758,1.758,0,0,0,1.627,1.094h.38a.756.756,0,0,1,.755.755v.755a.756.756,0,0,1-.755.755h-.38a1.758,1.758,0,0,0-1.627,1.095l-.005.012a.755.755,0,0,0,1.4.577l.005-.012a.252.252,0,0,1,.231-.161h.38a2.268,2.268,0,0,0,2.266-2.266V9.289a2.268,2.268,0,0,0-2.266-2.266Z" fill="#c8beb3"/>
  </g>
</svg>
