<svg id="Group_20031" data-name="Group 20031" xmlns="http://www.w3.org/2000/svg" width="24.536" height="27.219" viewBox="0 0 24.536 27.219">
  <path id="attach_2_" data-name="attach(2)" d="M22.942,16.775l-2.013-2.013L11.871,5.7a4.27,4.27,0,0,0-6.039,6.039L14.89,20.8a.949.949,0,0,0,1.342-1.342L7.174,10.4a2.372,2.372,0,1,1,3.355-3.355L19.589,16.1,21.6,18.117a4.271,4.271,0,1,1-6.042,6.039l-1.677-1.678L4.49,13.084l-.671-.671A6.169,6.169,0,0,1,12.542,3.69L22.606,13.755a.949.949,0,1,0,1.342-1.342L13.884,2.348A8.066,8.066,0,0,0,2.477,13.755L12.542,23.82l1.68,1.678a6.169,6.169,0,0,0,8.721-8.723Zm0,0" transform="translate(-0.128 0.001)" fill="#262627"/>
</svg>
