<svg xmlns="http://www.w3.org/2000/svg" width="14.142" height="18.566" viewBox="0 0 14.142 18.566">
  <g id="google-docs_1_" data-name="google-docs (1)" transform="translate(0 0)">
    <path id="Path_56814" data-name="Path 56814" d="M62.632,18.566H73.51a1.634,1.634,0,0,0,1.632-1.632V5.439H71.335A1.634,1.634,0,0,1,69.7,3.807V0H62.632A1.634,1.634,0,0,0,61,1.632v15.3A1.634,1.634,0,0,0,62.632,18.566Zm2.176-9.82h6.527a.544.544,0,0,1,0,1.088H64.807a.544.544,0,1,1,0-1.088Zm0,2.716h6.527a.544.544,0,1,1,0,1.088H64.807a.544.544,0,1,1,0-1.088Zm0,2.716h4.351a.544.544,0,1,1,0,1.088H64.807a.544.544,0,1,1,0-1.088Z" transform="translate(-61 0)" fill="#2b9dff"/>
    <path id="Path_56815" data-name="Path 56815" d="M331.544,12.822h3.489L331,8.789v3.489A.544.544,0,0,0,331.544,12.822Z" transform="translate(-321.209 -8.47)" fill="#2b9dff"/>
  </g>
</svg>
