<svg xmlns="http://www.w3.org/2000/svg" width="14.143" height="18.566" viewBox="0 0 14.143 18.566">
  <g id="google-docs_1_" data-name="google-docs (1)" transform="translate(0)">
    <path id="Subtraction_25" data-name="Subtraction 25" d="M12.511,18.566H1.633A1.634,1.634,0,0,1,0,16.935V1.632A1.634,1.634,0,0,1,1.633,0H8.7V3.807A1.633,1.633,0,0,0,10.334,5.44h3.809v11.5A1.633,1.633,0,0,1,12.511,18.566ZM9.078,9.339h0V12.8H9.75V11.334h1.2v-.6H9.75V9.946h1.2V9.339H9.078Zm-3.333,0h0V12.8H6.922a2.755,2.755,0,0,0,.633-.059,1.253,1.253,0,0,0,.425-.2,1.568,1.568,0,0,0,.51-.612,1.933,1.933,0,0,0,.177-.842,2.146,2.146,0,0,0-.127-.758,1.535,1.535,0,0,0-.371-.575,1.353,1.353,0,0,0-.514-.318A2.423,2.423,0,0,0,6.9,9.339H5.745Zm-2.5,0h0V12.8h.677V11.469h.253a1.27,1.27,0,0,0,.883-.3,1.023,1.023,0,0,0,.327-.794,1.1,1.1,0,0,0-.122-.508,1.021,1.021,0,0,0-.337-.383.816.816,0,0,0-.305-.113A2.815,2.815,0,0,0,4.1,9.339h-.86ZM6.878,12.2H6.427V9.928H6.87a1.084,1.084,0,0,1,.813.3,1.159,1.159,0,0,1,.292.839,1.206,1.206,0,0,1-.267.862A1.109,1.109,0,0,1,6.878,12.2ZM4.1,10.884H3.921V9.946h.174a.719.719,0,0,1,.443.115.417.417,0,0,1,.146.35.428.428,0,0,1-.15.35A.669.669,0,0,1,4.1,10.884Z" transform="translate(0 0)" fill="#f26060"/>
    <path id="Path_56815" data-name="Path 56815" d="M331.544,12.822h3.489L331,8.789v3.489A.544.544,0,0,0,331.544,12.822Z" transform="translate(-321.253 -8.47)" fill="#f26060"/>
  </g>
</svg>
