<svg xmlns="http://www.w3.org/2000/svg" width="14.143" height="18.567" viewBox="0 0 14.143 18.567">
  <g id="google-docs_1_" data-name="google-docs (1)" transform="translate(0 0)">
    <path id="Subtraction_25" data-name="Subtraction 25" d="M12.511,18.567H1.632A1.633,1.633,0,0,1,0,16.935V1.632A1.634,1.634,0,0,1,1.632,0H8.7V3.808A1.634,1.634,0,0,0,10.335,5.44h3.808v11.5A1.633,1.633,0,0,1,12.511,18.567ZM7.323,6.881a.231.231,0,0,0-.048,0l-4.007.751a.251.251,0,0,0-.2.246v5.51a.249.249,0,0,0,.2.246l4.007.752a.232.232,0,0,0,.046,0,.251.251,0,0,0,.251-.25v-.752h3.256a.251.251,0,0,0,.251-.25V8.134a.251.251,0,0,0-.251-.25H7.572V7.132a.252.252,0,0,0-.249-.251Zm3.255,6.011H7.572v-.5h.751a.25.25,0,1,0,0-.5H7.572v-.5h.751a.25.25,0,1,0,0-.5H7.572v-.5h.751a.25.25,0,1,0,0-.5H7.572v-.5h.751a.25.25,0,1,0,0-.5H7.572v-.5h3.006v4.507Zm-1.253-1a.25.25,0,0,0,0,.5h.5a.25.25,0,1,0,0-.5Zm0-1a.25.25,0,0,0,0,.5h.5a.25.25,0,1,0,0-.5Zm0-1a.25.25,0,0,0,0,.5h.5a.25.25,0,1,0,0-.5Zm0-1a.25.25,0,0,0,0,.5h.5a.25.25,0,1,0,0-.5ZM6.32,11.89a.251.251,0,0,1-.188-.085L5.4,10.973l-.638.822a.251.251,0,0,1-.4-.308l.7-.9L4.378,9.8a.251.251,0,0,1,.188-.416.251.251,0,0,1,.189.086l.625.714.742-.953a.25.25,0,1,1,.395.308l-.8,1.03.792.9a.25.25,0,0,1-.189.415Z" transform="translate(0 0)" fill="#5dc792"/>
    <path id="Path_56815" data-name="Path 56815" d="M331.544,12.822h3.489L331,8.789v3.489A.544.544,0,0,0,331.544,12.822Z" transform="translate(-321.251 -8.47)" fill="#5dc792"/>
  </g>
</svg>
