<svg xmlns="http://www.w3.org/2000/svg" width="16.828" height="11.832" viewBox="0 0 16.828 11.832">
  <g id="mail" transform="translate(0 -76)">
    <g id="Group_19730" data-name="Group 19730" transform="translate(11.576 76.845)">
      <g id="Group_19729" data-name="Group 19729" transform="translate(0 0)">
        <path id="Path_61471" data-name="Path 61471" d="M357.315,101.721l-5.1,5.071,5.1,5.071a1.462,1.462,0,0,0,.148-.634v-8.874A1.461,1.461,0,0,0,357.315,101.721Z" transform="translate(-352.211 -101.721)" fill="#ff975f"/>
      </g>
    </g>
    <g id="Group_19732" data-name="Group 19732" transform="translate(0.845 76)">
      <g id="Group_19731" data-name="Group 19731">
        <path id="Path_61472" data-name="Path 61472" d="M40.224,76H26.355a1.462,1.462,0,0,0-.634.148l6.523,6.49a1.48,1.48,0,0,0,2.091,0l6.523-6.49A1.462,1.462,0,0,0,40.224,76Z" transform="translate(-25.721 -76)" fill="#ff975f"/>
      </g>
    </g>
    <g id="Group_19734" data-name="Group 19734" transform="translate(0 76.845)">
      <g id="Group_19733" data-name="Group 19733" transform="translate(0 0)">
        <path id="Path_61473" data-name="Path 61473" d="M.148,101.721a1.462,1.462,0,0,0-.148.634v8.874a1.462,1.462,0,0,0,.148.634l5.1-5.071Z" transform="translate(0 -101.721)" fill="#ff975f"/>
      </g>
    </g>
    <g id="Group_19736" data-name="Group 19736" transform="translate(0.845 82.613)">
      <g id="Group_19735" data-name="Group 19735" transform="translate(0 0)">
        <path id="Path_61474" data-name="Path 61474" d="M35.755,277.211l-.722.722a2.468,2.468,0,0,1-3.486,0l-.722-.722-5.1,5.071a1.462,1.462,0,0,0,.634.148h13.87a1.462,1.462,0,0,0,.634-.148Z" transform="translate(-25.721 -277.211)" fill="#ff975f"/>
      </g>
    </g>
  </g>
</svg>
