<svg xmlns="http://www.w3.org/2000/svg" width="19.321" height="17.852" viewBox="0 0 19.321 17.852">
  <path id="Subtraction_26" data-name="Subtraction 26" d="M4.45,17.852a.583.583,0,0,1-.258-.06.592.592,0,0,1-.333-.526l-.021-2.434H2.756A2.76,2.76,0,0,1,0,12.076V2.757A2.759,2.759,0,0,1,2.756,0h13.81a2.759,2.759,0,0,1,2.756,2.757v9.319a2.76,2.76,0,0,1-2.756,2.757h-8l-3.753,2.9A.589.589,0,0,1,4.45,17.852Zm.685-8.87a.748.748,0,1,0,0,1.5h5.091a.748.748,0,1,0,0-1.5Zm0-4.116a.749.749,0,1,0,0,1.5h9.052a.749.749,0,1,0,0-1.5Z" fill="#ff975f"/>
</svg>
