<svg xmlns="http://www.w3.org/2000/svg" width="29.904" height="29.904" viewBox="0 0 29.904 29.904">
  <path id="smile_1_" data-name="smile(1)" d="M14.952,29.9A14.952,14.952,0,0,1,4.379,4.379,14.952,14.952,0,0,1,25.525,25.525,14.854,14.854,0,0,1,14.952,29.9Zm0-27.568A12.616,12.616,0,1,0,27.568,14.952,12.63,12.63,0,0,0,14.952,2.336Zm5.475,15.2a1.168,1.168,0,0,0-1.613.358,5.141,5.141,0,0,1-3.921,2.262,5.141,5.141,0,0,1-3.921-2.262A1.168,1.168,0,0,0,9,19.145a7.51,7.51,0,0,0,5.892,3.345,7.51,7.51,0,0,0,5.892-3.345,1.168,1.168,0,0,0-.358-1.613ZM9.812,9.637a1.46,1.46,0,1,1-1.46,1.46A1.46,1.46,0,0,1,9.812,9.637Zm8.761,1.46a1.46,1.46,0,1,0,1.46-1.46A1.46,1.46,0,0,0,18.573,11.1Z" transform="translate(0 0)" fill="#262627"/>
</svg>
